<?xml version="1.0" encoding="UTF-8" standalone="no"?>
<svg
   xmlns:dc="http://purl.org/dc/elements/1.1/"
   xmlns:cc="http://creativecommons.org/ns#"
   xmlns:rdf="http://www.w3.org/1999/02/22-rdf-syntax-ns#"
   xmlns:svg="http://www.w3.org/2000/svg"
   xmlns="http://www.w3.org/2000/svg"
   xmlns:sodipodi="http://sodipodi.sourceforge.net/DTD/sodipodi-0.dtd"
   xmlns:inkscape="http://www.inkscape.org/namespaces/inkscape"
   version="1.0"
   id="Capa_1"
   x="0px"
   y="0px"
   width="260.6987"
   height="300.6987"
   viewBox="0 0 260.6987 300.6987"
   enable-background="new 0 0 300 300"
   xml:space="preserve"
   sodipodi:docname="b1.svg"
   inkscape:version="1.0 (4035a4fb49, 2020-05-01)"><metadata
   id="metadata69"><rdf:RDF><cc:Work
       rdf:about=""><dc:format>image/svg+xml</dc:format><dc:type
         rdf:resource="http://purl.org/dc/dcmitype/StillImage" /><dc:title></dc:title></cc:Work></rdf:RDF></metadata><defs
   id="defs67">
	
	
	
	
	
	
	

		
		
		
		
		
		
		
		
		
		
		
		
		
		
		
		
		
		
		
		
		
		
		
	<filter
   inkscape:collect="always"
   style="color-interpolation-filters:sRGB"
   id="filter867"
   x="-7.680001e-05"
   width="1.0001535"
   y="-7.680001e-05"
   height="1.0001535"><feGaussianBlur
     inkscape:collect="always"
     stdDeviation="0.0096000011"
     id="feGaussianBlur869" /></filter><filter
   inkscape:collect="always"
   style="color-interpolation-filters:sRGB"
   id="filter891"
   x="-3.0000001e-05"
   width="1.00006"
   y="-3.0000001e-05"
   height="1.00006"><feGaussianBlur
     inkscape:collect="always"
     stdDeviation="0.0037500001"
     id="feGaussianBlur893" /></filter></defs><sodipodi:namedview
   fit-margin-bottom="0"
   fit-margin-right="-20"
   fit-margin-left="-20"
   fit-margin-top="0"
   pagecolor="#ffffff"
   bordercolor="#666666"
   borderopacity="1"
   objecttolerance="10"
   gridtolerance="10"
   guidetolerance="10"
   inkscape:pageopacity="0"
   inkscape:pageshadow="2"
   inkscape:window-width="1920"
   inkscape:window-height="1017"
   id="namedview65"
   showgrid="false"
   inkscape:zoom="1.5"
   inkscape:cx="27.689707"
   inkscape:cy="64.385657"
   inkscape:window-x="-8"
   inkscape:window-y="-8"
   inkscape:window-maximized="1"
   inkscape:current-layer="Capa_1"
   inkscape:document-rotation="0" />
<rect
   style="opacity:0.996;fill:#355cc5;fill-opacity:1;stroke-width:4.33253;filter:url(#filter891)"
   id="rect873"
   width="300"
   height="300"
   x="-19.310295"
   y="0.68971175" /><path
   style="opacity:1;fill:#355cc5;fill-opacity:1;filter:url(#filter867)"
   inkscape:connector-curvature="0"
   id="path2"
   d="m 222.64604,0.02304 h -185.246 c -31.557,0 -57.377,25.82 -57.377,57.377 v 185.245 c 0,31.558 25.82,57.378 57.377,57.378 h 185.246 c 31.557,0 57.377,-25.82 57.377,-57.378 v -185.245 c 0,-31.557 -25.82,-57.377 -57.377,-57.377 z" /><g
   id="g942"
   transform="matrix(0.76249872,0,0,0.77946478,11.248298,55.41086)"><path
     d="m 229.813,37.041 c 0.011,-1.926 0,-3.852 -0.007,-5.778 0.007,1.926 0.018,3.852 0.007,5.778"
     id="path4"
     inkscape:connector-curvature="0"
     style="fill:#4463fd" /><path
     d="m 229.798,28.373 c 0,0.963 0.003,1.926 0.007,2.889 -0.004,-0.963 -0.007,-1.926 -0.007,-2.889 0,-3.756 -0.011,-7.512 0.002,-11.269 -0.012,3.757 -0.002,7.513 -0.002,11.269"
     id="path6"
     inkscape:connector-curvature="0"
     style="fill:#4463fd" /><path
     style="fill:#ffffff"
     inkscape:connector-curvature="0"
     id="path16"
     d="m 266.78,168.007 c -0.843,-0.379 -1.458,-0.548 -1.72,-1.568 -2.635,-10.225 -6.047,-20.228 -9.598,-30.142 -2.436,-6.799 -5.423,-9.508 -13.771,-9.434 -4.529,0.041 -9.06,-0.018 -13.588,0.018 -2.543,0.02 -5.085,0.218 -7.627,0.195 -4.542,-0.039 -8.678,0.824 -11.452,4.857 -3.441,5.002 -4.54,10.947 -6.29,16.578 -1.782,5.734 -3.949,11.337 -5.63,17.102 -0.458,1.569 -1.166,2.059 -2.841,0.808 -2.342,-1.75 -5.466,-1.964 -8.139,-1.72 -6.416,0.584 -12.814,0.051 -19.208,0.364 -1.285,0.062 -2.012,-0.396 -2.366,-1.52 -1.02,-3.231 -2.014,-6.471 -2.988,-9.715 -1.749,-5.83 -3.332,-11.714 -5.248,-17.487 -2.282,-6.883 -7.182,-9.812 -14.476,-9.541 -8.268,0.307 -16.557,-0.017 -24.824,0.627 -2.188,0.17 -3.885,1.281 -5.29,2.706 -4.4,4.46 -5.815,10.253 -6.802,16.18 -0.133,0.794 -0.144,1.68 -1.022,1.814 -0.943,0.145 -1.126,-0.692 -1.36,-1.49 -0.899,-3.071 -1.838,-6.134 -2.871,-9.161 -2.623,-7.686 -7.68,-11.045 -15.33,-10.644 -5.274,0.276 -10.56,0.243 -15.845,0.503 -6.865,0.339 -10.396,2.663 -12.505,8.532 -3.37,9.374 -6.04,19.002 -8.929,28.547 -0.813,2.686 0.524,5.866 2.441,6.371 2.333,0.615 5.47,-1.171 6.151,-3.985 1.42,-5.865 3.591,-11.485 5.414,-17.212 0.787,-2.469 1.059,-5.224 2.781,-7.341 0.417,-0.514 0.817,-1.504 1.741,-1.082 0.869,0.396 0.71,1.412 0.511,2.067 -0.395,1.298 -0.308,2.655 -0.609,3.921 -2.706,11.364 -5.459,22.718 -8.307,34.047 -1.452,5.777 -1.551,5.857 4.142,5.754 2.386,-0.043 3.176,0.668 3.146,3.11 -0.122,9.924 -0.049,19.852 -0.053,29.778 0,1.604 0.194,3.03 1.424,4.336 1.976,2.098 4.344,1.992 6.594,1.221 2.449,-0.84 3,-3.089 2.988,-5.553 -0.047,-9.733 0.028,-19.467 -0.06,-29.199 -0.017,-1.895 0.406,-3.522 2.363,-3.468 1.922,0.052 2.333,1.824 2.319,3.599 -0.041,5.012 -0.028,10.023 -0.007,15.034 0.007,1.816 -1.195,3.604 -0.499,5.358 0.969,2.438 0.493,4.904 0.316,7.284 -0.308,4.135 1.61,7.567 4.942,7.838 3.812,0.311 6.216,-2.419 6.218,-7.068 0.003,-8.578 10e-4,-17.154 10e-4,-25.732 0,-6.005 0,-6.007 6.025,-6.49 0.096,-0.008 0.194,0.007 0.289,-0.005 1.164,-0.147 1.716,-0.292 1.467,-1.957 -0.635,-4.223 -1.893,-8.282 -2.878,-12.401 -2.325,-9.713 -4.972,-19.347 -6.799,-29.181 -0.216,-1.162 -0.364,-1.782 0.884,-2.107 1.28,-0.332 1.761,0.57 2.043,1.474 1.82,5.837 3.367,11.77 5.456,17.506 1.052,2.889 1.27,6.129 3.319,8.651 1.173,1.443 2.657,2.258 4.444,1.758 1.491,-0.418 3.01,-1.602 2.981,-3.106 -0.061,-3.236 1.007,-6.136 1.846,-9.135 1.366,-4.88 2.63,-9.791 4.037,-14.66 0.387,-1.339 0.893,-2.96 2.877,-2.444 1.739,0.451 1.164,2 1.167,3.146 0.016,6.312 0.021,12.624 0.022,18.938 10e-4,6.312 -0.002,12.624 -0.002,18.937 0,12.527 -0.002,25.057 0.001,37.584 0.001,3.675 2.089,5.722 5.846,5.748 4.241,0.032 6.274,-1.83 6.289,-5.832 0.021,-6.168 0.006,-12.336 0.006,-18.503 0,-8 0.018,-15.998 -0.015,-23.996 -0.006,-1.544 0.21,-2.676 2.156,-2.565 1.716,0.099 1.701,0.896 1.747,2.45 0.125,4.193 -0.056,8.337 -0.303,12.527 -0.414,7.01 -0.28,14.069 -0.012,21.094 0.083,2.165 0.35,4.241 -0.038,6.434 -0.47,2.665 -0.011,5.3 2.208,7.207 2.116,1.818 4.7,1.664 6.982,0.74 2.461,-0.996 3.487,-3.229 3.483,-5.976 -0.031,-25.057 -0.03,-50.113 0.031,-75.169 0.002,-0.918 -0.928,-2.512 0.937,-2.785 1.856,-0.271 2.102,1.342 2.456,2.574 2.076,7.235 4.22,14.454 6.073,21.747 0.664,2.611 2.059,4.218 4.421,5.059 1.588,0.565 3.286,0.818 4.927,1.24 4.848,1.244 4.775,1.251 4.863,6.314 0.16,9.225 -0.244,18.434 -0.591,27.646 -0.194,5.163 0.445,10.309 0.264,15.487 -0.085,2.429 2.006,3.811 4.305,4.223 2.105,0.377 2.945,-1.108 3.626,-2.869 0.437,-1.131 0.471,-2.219 0.471,-3.356 0.005,-6.456 0.017,-12.913 -0.009,-19.37 -0.005,-1.108 0.001,-2.371 1.359,-2.337 1.336,0.034 0.949,1.397 0.953,2.263 0.028,6.36 0.039,12.721 -0.004,19.081 -0.009,1.264 0.105,2.478 0.623,3.615 0.857,1.882 2.34,3.242 4.414,2.96 2.15,-0.293 3.485,-1.836 3.644,-4.133 0.053,-0.768 -0.001,-1.542 0.013,-2.312 0.267,-13.542 -0.523,-27.093 0.374,-40.632 0.07,-1.061 0.02,-1.825 1.241,-1.953 1.638,-0.174 1.339,1.081 1.25,1.934 -0.43,4.119 0.773,8.203 0.132,12.354 -0.182,1.179 0.066,2.865 1.671,3.592 2.506,1.134 4.507,-0.272 4.562,-3.387 0.077,-4.433 0.044,-8.865 0.01,-13.299 -0.014,-1.681 0.564,-2.794 2.367,-2.946 1.725,-0.146 2.801,-1.142 3.346,-2.677 1.603,-4.513 3.182,-9.033 4.697,-13.575 1.788,-5.358 3.488,-10.747 5.257,-16.112 0.276,-0.84 0.856,-1.691 1.781,-1.611 1.104,0.097 1.071,1.145 1.069,2.026 -0.006,2.352 -0.001,4.703 -0.001,7.056 0,22.55 0.003,45.102 -0.007,67.651 0,1.529 0.117,3.005 0.548,4.5 0.814,2.826 3.233,4.131 7.091,3.614 2.23,-0.298 4.986,-2.986 4.783,-4.996 -0.962,-9.496 1.091,-18.964 0.25,-28.432 -0.426,-4.788 -0.521,-9.562 -0.51,-14.352 0.003,-1.364 -0.463,-3.027 1.877,-3.113 2.493,-0.091 2.158,1.606 2.159,3.135 0.003,13.974 -0.005,27.947 0.007,41.922 0.002,3.476 1.869,5.51 5.272,5.841 3.679,0.358 6.017,-1.565 6.975,-4.718 0.698,-2.296 -0.164,-4.297 -0.157,-6.432 0.074,-23.225 0.046,-46.45 0.047,-69.676 0,-0.675 -0.008,-1.35 0.016,-2.023 0.038,-1.111 0.764,-1.873 1.702,-2.004 0.913,-0.125 0.954,0.884 1.242,1.608 2.925,7.351 4.337,15.195 7.383,22.509 0.795,1.91 0.643,3.389 -1.451,4.952 -2.222,1.659 -4.651,3.461 -4.962,6.991 -0.415,4.709 -0.656,9.365 -0.536,14.104 0.256,10.112 0.07,20.233 0.091,30.353 0.003,0.931 -0.083,1.84 0.367,2.8 0.535,1.143 1.185,1.605 2.415,1.556 1.177,-0.048 1.542,-0.635 1.925,-1.692 0.445,-1.228 0.479,-2.416 0.479,-3.648 0.005,-13.202 0.023,-26.405 -0.006,-39.607 -0.012,-5.292 3.487,-8.049 7.941,-8.697 3.702,-0.54 6.389,2.879 6.491,7.878 0.037,1.824 0.944,3.29 2.427,3.332 1.695,0.047 2.653,-1.512 2.821,-3.358 0.445,-4.919 -2.343,-9.891 -6.977,-11.969 z" /><path
     style="fill:#ffffff"
     inkscape:connector-curvature="0"
     id="path18"
     d="m 201.415,18.707 c -0.263,12.111 1.003,24.189 0.626,36.298 -0.06,1.895 0.83,3.532 1.75,4.989 3.936,6.229 9.549,10.971 14.887,15.887 4.991,4.596 10.508,8.614 15.651,13.053 4.52,3.9 8.847,8.023 13.249,12.06 2.434,2.231 5.311,1.704 5.821,-1.245 0.792,-4.576 -0.255,-9.016 -3.688,-12.051 -4.404,-3.893 -8.04,-8.6 -12.902,-11.977 -0.525,-0.365 -0.755,-0.893 -0.576,-1.506 0.226,-0.775 0.928,-0.451 1.446,-0.54 0.942,-0.16 1.765,0.323 2.359,0.847 3.255,2.867 6.977,5.18 9.936,8.393 1.906,2.071 3.851,4.109 4.659,6.926 1.361,4.736 1.7,9.654 2.593,14.475 1.188,6.402 2.293,12.826 3.171,19.275 0.549,4.033 3.047,6.186 7.032,5.642 3.82,-0.522 4.916,-3.382 4.381,-7.384 -0.3,-2.249 -0.876,-4.49 -0.907,-6.741 -0.058,-4.397 -1.096,-8.667 -1.383,-13.049 -0.437,-6.679 -1.707,-13.31 -2.741,-19.94 -0.571,-3.668 -1.467,-7.221 -4.511,-9.831 -4.788,-4.105 -9.49,-8.312 -14.232,-12.472 -5.135,-4.506 -10.19,-9.109 -15.451,-13.464 -2.146,-1.776 -2.858,-3.81 -2.808,-6.421 0.018,-0.963 0.029,-1.926 0.034,-2.889 0.01,-1.926 0,-3.852 -0.007,-5.779 -0.004,-0.963 -0.008,-1.926 -0.008,-2.889 0,-3.756 -0.01,-7.512 0.003,-11.269 0.014,-3.996 -0.811,-4.955 -4.683,-5.866 -7.041,-1.656 -14.052,-3.438 -21.099,-5.068 -1.158,-0.268 -3.253,-0.784 -2.897,1.37 0.621,3.741 0.375,7.46 0.295,11.166 z" /><path
     style="fill:#ffffff"
     inkscape:connector-curvature="0"
     id="path20"
     d="m 41.511,91.259 c -0.814,4.853 -1.376,9.753 -1.94,14.644 -0.631,5.467 -1.041,10.959 -1.747,16.414 -0.5,3.857 1.153,6.305 5.294,7.207 2.749,0.599 4.952,-1.177 5.66,-4.881 1.064,-5.559 1.957,-11.15 2.924,-16.729 0.984,-5.673 1.762,-11.392 3.011,-17.006 1.334,-5.999 6.284,-9.336 10.583,-13.051 1.631,-1.41 3.536,-2.502 5.304,-3.755 0.789,-0.558 1.764,-0.77 2.341,-0.062 0.547,0.673 -0.117,1.434 -0.724,1.957 -1.808,1.556 -3.481,3.267 -5.237,4.874 -3.746,3.428 -7.84,6.69 -9.903,11.562 -0.827,1.953 -1.528,3.964 -1.013,6.258 0.381,1.695 0.885,3.498 2.549,3.721 1.703,0.228 3.364,-0.933 4.651,-2.215 1.835,-1.83 3.51,-3.832 5.447,-5.542 5.479,-4.839 10.961,-9.661 16.758,-14.15 5.127,-3.971 9.921,-8.417 14.454,-13.11 4.688,-4.854 8.081,-10.06 7.939,-17.273 -0.26,-13.193 -0.076,-26.397 -0.071,-39.596 0,-1.289 -0.268,-2.651 1.075,-3.66 -2.061,-0.596 -3.799,0.025 -5.607,0.199 -6.834,0.654 -13.208,3.053 -19.798,4.623 -3.235,0.77 -4.048,3.155 -3.786,5.434 0.752,6.527 0.281,13.039 0.265,19.545 -0.009,3.455 0.507,7.15 -3.046,9.919 -5.302,4.134 -10.381,8.567 -15.231,13.263 -3.235,3.131 -6.845,5.885 -10.364,8.711 -4.636,3.725 -7.842,8.072 -8.464,14.329 -0.275,2.75 -0.856,5.584 -1.324,8.37 z" /><path
     style="fill:#ffffff"
     inkscape:connector-curvature="0"
     id="path22"
     d="m 76.925,104.412 c -5.55,-0.064 -10.127,3.99 -10.086,10.276 0.038,5.709 3.297,10.007 10.404,10.445 5.406,-0.037 10.608,-5.216 10.231,-10.739 -0.393,-5.77 -4.003,-9.908 -10.549,-9.982 z" /><path
     style="fill:#ffffff"
     inkscape:connector-curvature="0"
     id="path24"
     d="m 220.548,114.136 c -0.012,5.536 4.768,10.509 10.152,10.401 6.077,-0.123 10.622,-5.052 10.508,-10.509 -0.124,-6.044 -3.517,-9.624 -10.211,-10.288 -5.655,-0.015 -10.438,4.742 -10.449,10.396 z" /><path
     style="fill:#ffffff"
     inkscape:connector-curvature="0"
     id="path26"
     d="m 131.672,125.134 c 5.147,0.021 11.002,-5.825 10.784,-10.768 -0.225,-5.094 -5.467,-10.165 -10.839,-9.987 -6.144,0.203 -10.33,4.641 -10.4,10.752 -0.053,4.592 4.794,10.338 10.455,10.003 z" /><path
     style="fill:#ffffff"
     inkscape:connector-curvature="0"
     id="path28"
     d="m 179.953,162.719 c 3.767,0.072 7.693,-3.977 7.607,-7.85 -0.072,-3.308 -3.405,-6.548 -6.79,-6.604 -4.688,-0.076 -8.04,2.805 -8.212,7.056 -0.159,3.889 3.27,7.318 7.395,7.398 z" /></g>
<g
   transform="translate(-19.97696,0.02304)"
   aria-label="SEGURIDAD"
   style="font-style:normal;font-weight:normal;font-size:40px;line-height:1.25;font-family:sans-serif;text-align:center;letter-spacing:0px;word-spacing:0px;text-anchor:middle;fill:#000000;fill-opacity:1;stroke:none"
   id="text931" />

</svg>
