<?xml version="1.0" encoding="UTF-8" standalone="no"?>
<svg
   xmlns:dc="http://purl.org/dc/elements/1.1/"
   xmlns:cc="http://creativecommons.org/ns#"
   xmlns:rdf="http://www.w3.org/1999/02/22-rdf-syntax-ns#"
   xmlns:svg="http://www.w3.org/2000/svg"
   xmlns="http://www.w3.org/2000/svg"
   xmlns:sodipodi="http://sodipodi.sourceforge.net/DTD/sodipodi-0.dtd"
   xmlns:inkscape="http://www.inkscape.org/namespaces/inkscape"
   version="1.0"
   id="Capa_1"
   x="0px"
   y="0px"
   width="260"
   height="300"
   viewBox="0 0 260 300"
   enable-background="new 0 0 300 300"
   xml:space="preserve"
   sodipodi:docname="b2.svg"
   inkscape:version="1.0 (4035a4fb49, 2020-05-01)"><metadata
   id="metadata25"><rdf:RDF><cc:Work
       rdf:about=""><dc:format>image/svg+xml</dc:format><dc:type
         rdf:resource="http://purl.org/dc/dcmitype/StillImage" /><dc:title></dc:title></cc:Work></rdf:RDF></metadata><defs
   id="defs23">
	
	

		
		
		
		
		
		
	<filter
   inkscape:collect="always"
   style="color-interpolation-filters:sRGB"
   id="filter841"
   x="-1.75559e-05"
   width="1.000035"
   y="-2.1183858e-05"
   height="1.0000424"><feGaussianBlur
     inkscape:collect="always"
     stdDeviation="0.0012751938"
     id="feGaussianBlur843" /></filter></defs><sodipodi:namedview
   fit-margin-bottom="0"
   fit-margin-top="0"
   fit-margin-right="-20"
   fit-margin-left="-20"
   pagecolor="#ffffff"
   bordercolor="#666666"
   borderopacity="1"
   objecttolerance="10"
   gridtolerance="10"
   guidetolerance="10"
   inkscape:pageopacity="0"
   inkscape:pageshadow="2"
   inkscape:window-width="1920"
   inkscape:window-height="1017"
   id="namedview21"
   showgrid="false"
   inkscape:zoom="1.5733333"
   inkscape:cx="158.91949"
   inkscape:cy="99.152543"
   inkscape:window-x="-8"
   inkscape:window-y="-8"
   inkscape:window-maximized="1"
   inkscape:current-layer="Capa_1"
   inkscape:document-rotation="0" />
<path
   style="fill:#bd1818;fill-opacity:1"
   inkscape:connector-curvature="0"
   id="path2"
   d="M -20,300 H 280 V 0 H -20"
   sodipodi:nodetypes="cccc" /><path
   d="m 237.16332,93.359 c 0.03,-5.087 -6.013,-11.348 -11.167,-11.244 -12.807,0.257 -25.622,0.085 -38.436,0.085 h -3.535 c 0,-3.951 -0.2,-7.693 0.041,-11.406 0.506,-7.747 -8.048,-16.074 -15.808,-15.874 -12.707,0.327 -25.43,0.201 -38.145,0.048 -8.2,-0.099 -15.844,7.689 -15.726,15.717 0.055,3.732 0.01,7.464 0.01,11.516 -13.821,0 -27.109001,-0.007 -40.396001,0.003 -6.435,0.005 -11.16,4.72 -11.161,11.138 -0.005,31.597 -0.005,63.194 0,94.792 10e-4,6.353 4.806,11.174 11.149,11.175 50.672001,0.006 101.343001,-0.047 152.015001,0.079 5.208,0.014 11.186,-6.137 11.155,-11.236 -0.184,-31.599 -0.186,-63.196 0.004,-94.793 z m -111.005,-21.484 c 0.907,-4.305 2.661,-5.616 7.181,-5.67 10.405,-0.123 20.814,-0.166 31.218,0.012 5.881,0.1 8.291,2.929 8.313,8.919 0.009,2.208 0.002,4.417 0.002,6.843 h -47.539 c 0.257,-3.509 0.148,-6.889 0.825,-10.104 z m 54.9,72.598 c -0.059,3.309 -1.023,4.286 -4.294,4.297 -6.14,0.021 -12.279,0.006 -18.803,0.006 0,4.41 0,8.527 0,12.645 0.001,2.215 0.022,4.43 -0.004,6.644 -0.029,2.518 -1.206,3.889 -3.853,3.845 -2.695,-0.043 -5.392,0.017 -8.087,-0.015 -2.986,-0.035 -4.046,-1.108 -4.065,-4.191 -0.032,-5.199 0,-10.399 -0.016,-15.598 -0.002,-1.036 -0.099,-2.07 -0.164,-3.329 -6.305,0 -12.359,0.01 -18.412,-0.003 -3.501,-0.008 -4.466,-0.94 -4.512,-4.372 -0.033,-2.406 -0.03,-4.814 -0.002,-7.221 0.043,-3.483 0.997,-4.44 4.441,-4.449 6.056,-0.016 12.113,-0.005 18.657,-0.005 0,-2.849 0,-5.505 0,-8.16 0,-3.658 -0.042,-7.317 0.011,-10.976 0.04,-2.871 1.143,-3.942 3.989,-3.981 2.599,-0.035 5.198,-0.025 7.798,-0.003 3.177,0.027 4.196,1.062 4.212,4.345 0.026,5.103 0.007,10.206 0.006,15.31 0,1.04 0,2.08 0,3.466 5.891,0 11.443,0 16.995,0 5.689,0 6.108,0.429 6.109,6.258 0.001,1.828 0.026,3.658 -0.006,5.487 z"
   id="path4"
   inkscape:connector-curvature="0"
   style="fill:#ffffff;filter:url(#filter841)"
   transform="matrix(0.97514542,0,0,0.97514542,-16.271808,26.008065)" />

</svg>
