<?xml version="1.0" encoding="UTF-8" standalone="no"?>
<svg
   xmlns:dc="http://purl.org/dc/elements/1.1/"
   xmlns:cc="http://creativecommons.org/ns#"
   xmlns:rdf="http://www.w3.org/1999/02/22-rdf-syntax-ns#"
   xmlns:svg="http://www.w3.org/2000/svg"
   xmlns="http://www.w3.org/2000/svg"
   xmlns:sodipodi="http://sodipodi.sourceforge.net/DTD/sodipodi-0.dtd"
   xmlns:inkscape="http://www.inkscape.org/namespaces/inkscape"
   version="1.0"
   id="Capa_1"
   x="0px"
   y="0px"
   width="260"
   height="300"
   viewBox="0 0 260 300"
   enable-background="new 0 0 300 300"
   xml:space="preserve"
   sodipodi:docname="b3.svg"
   inkscape:version="1.0 (4035a4fb49, 2020-05-01)"><metadata
   id="metadata39"><rdf:RDF><cc:Work
       rdf:about=""><dc:format>image/svg+xml</dc:format><dc:type
         rdf:resource="http://purl.org/dc/dcmitype/StillImage" /><dc:title></dc:title></cc:Work></rdf:RDF></metadata><defs
   id="defs37">
	
	

		
		
		
		
		
		
		
		
		
		
		
		
		
	</defs><sodipodi:namedview
   fit-margin-bottom="0"
   fit-margin-top="0"
   fit-margin-right="-20"
   fit-margin-left="-20"
   pagecolor="#ffffff"
   bordercolor="#666666"
   borderopacity="1"
   objecttolerance="10"
   gridtolerance="10"
   guidetolerance="10"
   inkscape:pageopacity="0"
   inkscape:pageshadow="2"
   inkscape:window-width="1920"
   inkscape:window-height="1017"
   id="namedview35"
   showgrid="false"
   inkscape:zoom="0.78666667"
   inkscape:cx="-283.13559"
   inkscape:cy="150"
   inkscape:window-x="-8"
   inkscape:window-y="-8"
   inkscape:window-maximized="1"
   inkscape:current-layer="Capa_1"
   inkscape:document-rotation="0" />
<rect
   style="opacity:0.996;fill:#f57821;fill-opacity:1;stroke-width:0.973297"
   id="rect836"
   width="300"
   height="300"
   x="-20"
   y="0" /><g
   id="g72"
   transform="matrix(0.91998119,0,0,0.91998119,-14.566589,34.404736)"><path
     style="fill:#ffffff"
     inkscape:connector-curvature="0"
     id="path4"
     d="m 269.216,161.479 c -5.798,-8.505 -12.153,-16.626 -18.094,-25.037 -2.704,-3.829 -5.634,-7.454 -7.97,-11.637 -3.149,-5.641 -7.543,-10.636 -11.765,-15.599 -1.514,-1.779 -3.936,-3.155 -6.205,-3.821 -2.602,-0.764 -5.495,-0.729 -8.258,-0.699 -8.646,0.094 -17.29,0.452 -25.938,0.501 -4.98,0.028 -9.971,-0.593 -14.946,-0.478 -6.781,0.158 -13.572,0.683 -18.398,6.261 -2.296,-1.427 -4.32,-2.852 -6.491,-4.001 -4.478,-2.371 -9.449,-2.191 -14.29,-2.262 -4.883,-0.07 -9.771,0.451 -14.659,0.479 -3.536,0.02 -7.072,-0.456 -10.612,-0.512 -5.877,-0.093 -11.758,0.055 -17.635,-0.047 -5.957,-0.103 -10.144,2.654 -13.103,7.625 -0.919,1.542 -1.794,3.123 -2.853,4.566 -8.378,11.44 -16.824,22.831 -25.187,34.281 -3.458,4.735 -6.568,9.737 -10.205,14.325 -2.948,3.719 -4.241,7.701 -2.358,11.959 2.207,4.99 6.054,8.528 11.982,8.042 2.846,-0.234 5.657,-1.324 8.401,-2.267 5.225,-1.797 10.407,-3.721 15.573,-5.68 3.05,-1.155 3.797,-0.735 3.807,2.52 0.017,6.168 0.025,12.336 -0.008,18.504 -0.01,1.923 0.078,3.078 2.768,3.045 11.216,-0.138 22.437,0.088 33.654,0.121 0.69,0.002 1.382,-0.496 2.77,-1.03 -4.912,-2.163 -9.118,-3.896 -13.199,-5.886 -1.223,-0.596 -2.962,-1.884 -2.989,-2.896 -0.197,-7.117 -0.102,-14.249 0.15,-21.367 0.04,-1.147 1.068,-2.821 2.076,-3.269 2.94,-1.305 6.11,-2.084 9.173,-3.121 4.514,-1.528 9.139,-2.816 13.491,-4.718 7.854,-3.432 9.838,-9.529 7.146,-16.944 -1.987,-5.475 -9.15,-10.607 -16.133,-7.33 -3.938,1.849 -8.294,2.79 -12.379,4.356 -2.314,0.887 -2.929,0.207 -2.914,-2.063 0.057,-8.577 0.02,-17.154 0.038,-25.731 0.002,-0.531 0.201,-1.062 0.359,-1.846 3.177,0.918 6.195,1.689 9.147,2.663 12.741,4.202 25.444,8.516 38.206,12.656 2.306,0.747 5.049,1.713 7.188,1.12 7.017,-1.943 13.853,-4.54 20.747,-6.918 8.815,-3.039 17.608,-6.144 26.435,-9.151 3.148,-1.072 3.8,-0.559 3.804,2.646 0.01,7.806 0.01,15.612 0,23.419 -0.004,3.321 -0.604,3.626 -3.743,2.483 -4.466,-1.624 -8.894,-3.658 -13.521,-4.453 -6.353,-1.091 -12.368,3.975 -13.835,10.676 -1.321,6.044 2.151,12.327 8.143,14.492 6.611,2.39 13.231,4.771 19.92,6.932 2.295,0.741 3.217,1.742 3.102,4.241 -0.217,4.713 -0.062,9.441 -0.062,14.164 0,7.839 -0.027,7.771 -7.472,10.715 -3.666,1.45 -7.211,3.208 -10.811,4.826 0.993,0.867 2.013,1.336 3.035,1.34 12.432,0.051 24.864,-0.002 37.295,0.064 2.238,0.012 2.782,-0.981 2.759,-2.993 -0.073,-6.457 -0.026,-12.914 -0.026,-19.371 0,-0.916 0,-1.832 0,-3.434 1.164,0.688 1.539,0.997 1.971,1.151 7.795,2.776 15.544,5.699 23.413,8.246 6.744,2.185 14.782,-4.287 15.186,-11.411 0.301,-5.335 -3.138,-8.716 -5.68,-12.447 z" /><path
     style="fill:#ffffff"
     inkscape:connector-curvature="0"
     id="path6"
     d="m 158.872,93.29 c 5.295,2.042 10.612,1.713 16.001,0.293 1.11,-0.292 2.657,-0.166 3.613,0.412 3.602,2.176 7.172,4.154 11.456,4.852 6.428,1.043 12.232,-0.017 17.674,-3.649 1.76,-1.175 3.352,-2.919 6.163,-1.849 4.999,1.902 10.156,2.021 16.091,-0.535 -2.12,-1.304 -3.736,-2.034 -5.03,-3.142 -4.341,-3.717 -6.268,-8.76 -6.022,-14.233 0.358,-7.986 -2.328,-14.4 -8.221,-19.6 -7.25,-6.396 -15.598,-7.773 -24.571,-4.731 -11.039,3.741 -16.334,12.901 -16.791,24.597 -0.189,4.853 -1.688,9.546 -5.718,12.842 -1.694,1.386 -3.601,2.512 -5.441,3.776 0.429,0.535 0.564,0.877 0.796,0.967 z" /><path
     style="fill:#ffffff"
     inkscape:connector-curvature="0"
     id="path8"
     d="m 120.091,99.353 c 13.248,0.014 25.341,-11.006 24.606,-25.09 0.919,-13.397 -11.292,-24.191 -23.924,-24.676 -13.771,-0.528 -24.887,12.107 -25.295,23.029 -0.613,16.446 11.853,26.724 24.613,26.737 z" /></g>

</svg>
