<?xml version="1.0" encoding="UTF-8" standalone="no"?>
<svg
   xmlns:dc="http://purl.org/dc/elements/1.1/"
   xmlns:cc="http://creativecommons.org/ns#"
   xmlns:rdf="http://www.w3.org/1999/02/22-rdf-syntax-ns#"
   xmlns:svg="http://www.w3.org/2000/svg"
   xmlns="http://www.w3.org/2000/svg"
   xmlns:sodipodi="http://sodipodi.sourceforge.net/DTD/sodipodi-0.dtd"
   xmlns:inkscape="http://www.inkscape.org/namespaces/inkscape"
   version="1.0"
   id="Capa_1"
   x="0px"
   y="0px"
   width="260"
   height="300"
   viewBox="0 0 260 300"
   enable-background="new 0 0 300 300"
   xml:space="preserve"
   sodipodi:docname="b4.svg"
   inkscape:version="1.0 (4035a4fb49, 2020-05-01)"><metadata
   id="metadata131"><rdf:RDF><cc:Work
       rdf:about=""><dc:format>image/svg+xml</dc:format><dc:type
         rdf:resource="http://purl.org/dc/dcmitype/StillImage" /><dc:title></dc:title></cc:Work></rdf:RDF></metadata><defs
   id="defs129">
	
	
	
	
	
	
	
	
	
	
	
	
	

		
		
		
		
		
		
		
		
		
		
		
		
		
		
		
		
		
		
		
		
		
		
		
		
		
		
		
		
		
		
		
		
		
		
		
		
		
		
		
		
		
		
		
		
		
		
		
		
	</defs><sodipodi:namedview
   fit-margin-right="-20"
   fit-margin-left="-20"
   pagecolor="#ffffff"
   bordercolor="#666666"
   borderopacity="1"
   objecttolerance="10"
   gridtolerance="10"
   guidetolerance="10"
   inkscape:pageopacity="0"
   inkscape:pageshadow="2"
   inkscape:window-width="1920"
   inkscape:window-height="1017"
   id="namedview127"
   showgrid="false"
   inkscape:zoom="1.5"
   inkscape:cx="-11.097233"
   inkscape:cy="150.01724"
   inkscape:window-x="-8"
   inkscape:window-y="-8"
   inkscape:window-maximized="1"
   inkscape:current-layer="Capa_1"
   inkscape:document-rotation="0" />
<rect
   style="opacity:0.996;fill:#fcb120;fill-opacity:1;stroke-width:1.11864"
   id="rect949"
   width="300"
   height="300"
   x="-20"
   y="0" /><path
   d="m 214.84813,150.23016 c -2.323,-2.457 -4.93,-4.602 -7.789,-6.409 -5.795,-3.667 -11.958,-6.558 -18.451,-8.783 -6.613,-2.267 -13.361,-3.985 -20.211,-5.345 -0.797,-0.159 -1.328,-0.182 -1.334,0.746 -0.018,2.579 -0.484,5.13 -0.386,7.725 0.049,1.296 0.613,1.637 1.723,1.821 2.496,0.412 5,0.823 7.458,1.418 6.29,1.521 12.517,3.229 18.448,5.921 4.228,1.917 8.125,4.139 11.389,7.578 3.632,3.829 3.387,8.982 -0.139,12.591 -2.658,2.721 -5.702,4.776 -9.097,6.455 -5.834,2.885 -11.992,4.807 -18.279,6.306 -5.416,1.292 -10.903,2.241 -16.422,3.076 -4.044,0.61 -8.121,0.762 -12.16,1.415 -4.123,0.668 -8.36,0.449 -12.538,0.618 -5.377,0.217 -10.786,0.308 -16.197,-0.213 -4.291,-0.412 -8.626,-0.267 -12.946,-0.768 -3.732,-0.433 -7.495,-0.718 -11.216,-1.24 -5.243,-0.735 -10.437,-1.798 -15.576,-3.079 -4.619998,-1.153 -9.183998,-2.506 -13.580995,-4.357 -5.347,-2.25 -10.513,-4.757 -14.122,-9.599 -2.111,-2.83 -2.275,-6.575 -0.379,-9.429 1.461,-2.201 3.3,-3.943 5.519,-5.348 1.149,-0.728 1.128,-0.992 -0.04,-1.73 -2.068,-1.309 -4.163,-2.576 -6.241,-3.869 -0.655,-0.407 -1.288,-0.477 -1.927,0.023 -2.955,2.309 -5.757,4.775 -7.872,7.912 -2.294,3.404 -3.658,7.046 -3.534,11.289 0.114,3.927 0.615,7.781 1.225,11.641 0.802,5.073 2.163,10.001 3.813,14.851 1.534,4.509 3.51,8.83 5.422,13.188 2.416,5.507 5.822,10.28 9.845,14.645 2.814,3.054 5.99,5.715 9.324,8.224 3.404997,2.562 6.924997,4.942 10.693997,6.866 7.426998,3.789 15.202998,6.705 23.377998,8.497 6.075,1.334 12.199,2.545 18.409,2.604 10.587,0.102 21.201,0.563 31.701,-1.668 4.244,-0.901 8.493,-1.762 12.605,-3.102 4.429,-1.442 8.76,-3.147 12.953,-5.258 4.849,-2.438 9.461,-5.23 13.729,-8.527 4.015,-3.102 7.655,-6.661 10.942,-10.562 4.469,-5.307 7.292,-11.554 10.043,-17.801 2.327,-5.28 4.199,-10.742 5.569,-16.386 1.33,-5.479 2.438,-10.952 2.354,-17.39 0.687,-5.42 -2.053,-10.258 -6.106,-14.547 z"
   id="path68"
   inkscape:connector-curvature="0"
   style="fill:#fdfefb" /><g
   id="g947"
   transform="translate(-30)"><path
     d="m 164.25062,81.319164 c 0,-0.002 0,-0.002 0,-0.002 -0.75,-3.33 -1.382,-6.696 -2.621,-9.885 1.239,3.188 1.871,6.555 2.617,9.885 -0.001,0 0.002,0 0.004,0.002"
     id="path4"
     inkscape:connector-curvature="0"
     style="fill:#fcb120" /><path
     d="m 163.39962,80.692164 c 0.007,0.321 -0.177,0.711 0.311,0.858 0.075,0.017 0.142,0.017 0.205,0.009 -0.062,0.008 -0.129,0.008 -0.201,-0.01 -0.493,-0.146 -0.309,-0.536 -0.315,-0.857"
     id="path6"
     inkscape:connector-curvature="0"
     style="fill:#fcb120" /><path
     d="m 166.66562,90.714164 c -0.666,-3.161 -1.352,-6.315 -2.408,-9.378 -0.001,0.001 -0.002,0.002 -0.003,0.004 1.059,3.06 1.745,6.214 2.411,9.374"
     id="path8"
     inkscape:connector-curvature="0"
     style="fill:#fcb120" /><path
     d="m 163.70362,81.756164 c -0.087,0.113 -0.034,0.303 0.016,0.49 0.044,0.164 0.088,0.327 0.132,0.489 -0.043,-0.162 -0.088,-0.325 -0.132,-0.489 -0.05,-0.187 -0.103,-0.376 -0.016,-0.49"
     id="path10"
     inkscape:connector-curvature="0"
     style="fill:#fcb120" /><path
     d="m 156.59262,74.639164 c 0.005,0.136 0,0.274 -0.02,0.415 -0.347,-1.116 -0.697,-2.232 -1.045,-3.35 0.348,1.117 0.698,2.233 1.045,3.35 l 0.275,0.736 c -0.092,-0.245 -0.184,-0.49 -0.275,-0.736 0.019,-0.141 0.025,-0.279 0.02,-0.415"
     id="path12"
     inkscape:connector-curvature="0"
     style="fill:#fcb120" /><path
     d="m 156.83862,75.998164 c 0.018,0.198 0.117,0.367 0.276,0.514 -0.011,0.068 -0.02,0.137 -0.026,0.204 0.006,-0.067 0.015,-0.136 0.026,-0.204 -0.159,-0.146 -0.258,-0.315 -0.276,-0.514"
     id="path14"
     inkscape:connector-curvature="0"
     style="fill:#fcb120" /><path
     d="m 157.14662,77.444164 c -0.053,-0.148 -0.073,-0.301 -0.074,-0.457 0,0.156 0.021,0.308 0.074,0.457"
     id="path16"
     inkscape:connector-curvature="0"
     style="fill:#fcb120" /><path
     d="m 163.48162,98.565164 c -0.009,-1.615 -0.265,-3.242 -0.717,-4.88 0.452,1.638 0.707,3.265 0.717,4.88"
     id="path18"
     inkscape:connector-curvature="0"
     style="fill:#fcb120" /><path
     d="m 174.75262,109.47416 c 0.069,0.359 0.094,0.72 0.09,1.079 0.004,-0.359 -0.021,-0.72 -0.09,-1.079"
     id="path20"
     inkscape:connector-curvature="0"
     style="fill:#fcb120" /><path
     d="m 173.19462,106.25216 c -0.417,-0.66 -0.366,-1.402 -0.392,-2.131 0.026,0.729 -0.024,1.471 0.392,2.131 0.179,0.839 0.041,1.721 0.058,2.582 -0.017,-0.861 0.121,-1.743 -0.058,-2.582"
     id="path22"
     inkscape:connector-curvature="0"
     style="fill:#fcb120" /><path
     d="m 175.23362,112.87816 c -0.07,-0.329 -0.271,-0.635 -0.534,-0.884 0,0 0,0 0,0.001 0.263,0.249 0.464,0.554 0.534,0.883"
     id="path24"
     inkscape:connector-curvature="0"
     style="fill:#fcb120" /><path
     style="fill:#fdfefb"
     inkscape:connector-curvature="0"
     id="path70"
     d="m 138.02962,128.86216 c 3.834,6.208 7.5,12.527 10.357,19.273 0.352,0.831 0.392,1.531 0.077,2.381 -1.079,2.921 -1.255,5.979 -0.824,9.014 0.586,4.131 2.416,7.811 4.629,11.312 1.472,2.329 3.478,4.17 5.385,6.107 0.28,0.284 0.595,0.444 0.995,0.26 0.334,-0.154 0.441,-0.442 0.463,-0.79 0.13,-2.064 0.45,-4.115 0.329,-6.2 -0.085,-1.446 -0.017,-2.902 -0.017,-4.354 0.927,1.047 1.514,2.215 2.19,3.328 0.337,0.556 0.34,1.028 0.267,1.672 -0.318,2.756 -0.326,5.523 0.358,8.243 0.187,0.741 0.675,1.098 1.504,1.174 1.372,0.125 2.613,-0.529 3.977,-0.475 2.171,0.088 4.348,0.036 6.522,0.027 0.487,-0.002 1.085,0.161 1.336,-0.453 0.227,-0.555 -0.163,-0.956 -0.479,-1.361 -0.993,-1.276 -1.932,-2.596 -3.228,-3.606 -0.265,-0.205 -0.626,-0.499 -0.319,-0.917 0.165,-0.225 0.477,-0.133 0.624,0.014 1.729,1.712 4.721,2.137 5.163,5.187 0.125,0.862 1.019,0.892 1.709,0.707 0.906,-0.241 0.593,-0.883 0.312,-1.438 -0.392,-0.769 -0.238,-1.393 0.365,-2.001 0.378,-0.382 0.831,-0.747 0.938,-1.336 -0.566,0.315 -0.909,0.509 -1.14,0.539 0.231,-0.03 0.573,-0.224 1.14,-0.539 0.09,-0.034 0.133,-0.098 0.13,-0.194 v 0 c 0.412,-0.172 0.749,-0.405 0.899,-0.787 0.05,-0.127 0.081,-0.271 0.085,-0.435 -0.543,0.193 -0.913,0.526 -0.973,1.109 0.06,-0.583 0.429,-0.916 0.973,-1.109 0,0 0.021,-0.011 0.04,-0.021 l 0.04,-0.02 c 0.14,0.012 0.24,-0.014 0.181,-0.19 -0.039,0.023 -0.061,0.063 -0.09,0.096 0.03,-0.032 0.052,-0.072 0.09,-0.096 0.139,-0.261 0.277,-0.521 0.416,-0.782 0.121,-0.699 0.283,-1.373 0.995,-1.732 0.044,-0.021 0.076,-0.049 0.095,-0.083 0.02,-0.034 0.026,-0.076 0.022,-0.125 0.001,-0.37 0.14,-0.639 0.425,-0.8 -0.285,0.161 -0.424,0.43 -0.425,0.8 0.175,-0.104 0.331,-0.224 0.449,-0.37 0.119,-0.146 0.2,-0.321 0.227,-0.535 0,0 0,-10e-4 0,-10e-4 0.047,-0.082 0.095,-0.163 0.142,-0.244 v -0.001 c 0.131,-0.057 0.218,-0.134 0.265,-0.232 0.022,-0.048 0.035,-0.102 0.038,-0.16 0.003,-0.058 -0.006,-0.122 -0.024,-0.19 -0.087,0.06 -0.147,0.133 -0.192,0.212 0.044,-0.079 0.104,-0.152 0.191,-0.212 0.06,-0.194 0.118,-0.39 0.176,-0.586 -0.042,-0.139 -0.054,-0.272 -0.053,-0.404 -10e-4,0.132 0.01,0.266 0.053,0.405 0.092,-0.158 0.206,-0.309 0.273,-0.478 1.805,-4.51 1.938,-9.234 1.777,-13.994 -0.009,-0.269 -0.104,-0.548 -0.22,-0.793 -0.497,-1.064 -0.527,-2.244 -0.206,-3.259 0.711,-2.249 0.426,-4.567 0.656,-6.836 0.527,-5.187 -0.46,-10.395 -0.239,-15.605 0.008,-0.184 0.003,-0.377 -0.048,-0.551 -0.794,-2.69 -0.514,-5.482 -0.7,-8.222 -0.177,-2.594 -0.898,-5.146 -0.552,-7.793 0.098,-0.753 -0.28,-1.57 -0.439,-2.357 -0.125,0.011 -0.25,0.021 -0.375,0.032 0.407,5.801 -0.1,11.632 0.83,17.417 0.007,6.029 0.014,12.058 0.021,18.088 -0.271,1.128 0.042,2.318 -0.162,3.452 0.204,-1.134 -0.11,-2.325 0.161,-3.452 -0.314,0.429 -0.459,0.876 -0.515,1.332 -0.022,0.184 -0.03,0.367 -0.03,0.553 0,0.093 0.003,0.186 0.007,0.278 0.012,0.278 0.039,0.56 0.062,0.84 0.007,0.093 0.015,0.187 0.021,0.28 0.025,0.372 0.034,0.743 -0.017,1.107 v 0 c -0.136,0.165 -0.22,0.341 -0.255,0.525 -0.036,0.185 -0.023,0.379 0.032,0.582 -0.165,0.555 -0.121,1.111 -0.021,1.669 0.232,-0.275 0.331,-0.552 0.324,-0.83 0.007,0.278 -0.091,0.555 -0.324,0.831 -0.359,0.401 -0.718,0.803 -1.078,1.205 0,0 0,0.001 0,0.001 -0.312,0.205 -0.618,0.418 -0.907,0.643 -0.221,0.17 -0.428,0.353 -0.626,0.541 -0.59,0.562 -1.076,1.215 -1.352,2.055 -0.001,0 -0.001,0.001 -0.001,0.001 -0.055,0.098 -0.109,0.194 -0.164,0.292 -0.418,0.841 -0.836,1.682 -1.254,2.522 0.418,-0.841 0.836,-1.682 1.254,-2.522 -0.495,0.442 -0.858,0.95 -1.144,1.497 -0.165,0.313 -0.301,0.641 -0.425,0.974 -0.11,0.294 -0.211,0.592 -0.305,0.893 -0.109,0.351 -0.213,0.703 -0.322,1.053 0,10e-4 0,0.002 -0.001,0.002 -0.051,0.208 -0.103,0.414 -0.154,0.62 0.094,0.18 0.057,0.316 -0.066,0.426 0.123,-0.109 0.161,-0.246 0.066,-0.426 -0.089,0.063 -0.146,0.137 -0.173,0.22 -0.027,0.083 -0.023,0.177 0.011,0.278 -0.055,0.197 -0.111,0.394 -0.167,0.59 -0.03,0.311 -0.037,0.625 -0.037,0.939 0,-0.314 0.007,-0.629 0.037,-0.939 -0.209,0.603 -0.309,1.22 -0.366,1.842 -0.097,1.037 -0.079,2.089 -0.271,3.115 0.178,-0.293 0.307,-0.591 0.398,-0.894 -0.091,0.303 -0.22,0.602 -0.398,0.894 -0.283,0.466 -0.306,0.938 -0.028,1.417 v 0 c 0.036,0.341 0.08,0.683 0.118,1.023 0.038,0.341 0.072,0.684 0.086,1.025 0.015,0.336 0.128,0.839 -0.354,0.926 -0.488,0.086 -0.562,-0.42 -0.647,-0.748 -0.555,-2.121 -1.528,-4.059 -2.517,-5.998 -0.775,-1.522 -1.46,-3.091 -2.165,-4.647 -0.125,-0.275 -0.344,-0.605 -0.076,-0.902 0.235,-0.26 0.522,-0.07 0.761,0.043 1.069,0.514 1.116,-0.125 1.177,-0.942 0.065,-0.878 -0.438,-1.593 -0.522,-2.422 -0.613,-6.082 -3.839,-10.49 -8.767,-13.878 -1,-0.688 -2.416,-0.715 -3.039,-2.021 -0.655,-1.375 -1.446,-2.687 -2.142,-4.043 -0.186,-0.364 -0.723,-0.847 -0.171,-1.179 0.375,-0.227 0.69,0.312 0.918,0.659 1.979,3.007 5.069,4.657 7.982,6.516 0.898,0.572 1.24,0.09 1.31,-0.813 0.064,-0.817 -0.361,-1.517 -0.482,-2.294 -0.952,-6.092 -4.223,-10.622 -9.821,-13.074 -2.448,-1.073 -4.399,-2.312 -5.672,-4.62 -0.2,-0.362 -0.407,-0.727 -0.652,-1.059 -3.662,-4.981 -6.971,-10.204 -10.482,-15.289 -2.034,-2.944 -4.153,-5.823996 -6.423,-8.591996 -0.193,-0.234 -0.403,-0.687 -0.735,-0.472 -0.457,0.294 -0.009,0.625 0.15,0.925 0.689,1.299 1.727,2.351 2.552,3.559 2.099,3.073996 4.221,6.132996 6.244,9.259996 2.304,3.562 4.587,7.137 6.909,10.687 1.237,1.892 2.708,3.64 3.654,5.71 0.392,0.858 1.014,1.736 0.676,2.747 -0.25,0.746 -0.107,1.389 0.264,1.98 1.506,2.401 2.273,5.18 3.879,7.534 0.375,0.551 1.237,1.436 0.501,1.863 -0.759,0.439 -1.067,-0.795 -1.412,-1.357 -3.229,-5.271 -6.818,-10.306 -10.117,-15.534 -3.056,-4.845 -6.583,-9.392 -9.905,-14.067 -0.186,-0.261 -0.401,-0.631 -0.762,-0.397 -0.434,0.28 0.009,0.578 0.134,0.819 1.405,2.705 3.492,4.949 5.105,7.518 1.518,2.415 3.153,4.754 4.617,7.207 2.101,3.522 4.277,7.001 6.459,10.475 1.985,3.157 4.217,6.142 5.455,9.754 0.584,1.705 1.494,3.354 2.522,4.917 1.613,2.452 3.511,4.609 5.66,6.585 0.755,0.694 1.43,1.511 1.496,2.896 -2.035,-1.419 -4.098,-2.294 -6.204,-3.095 -0.646,-0.246 -1.104,-0.837 -1.443,-1.456 -2.75,-5.021 -5.458,-10.064 -8.25,-15.062 -1.685,-3.018 -3.471,-5.979 -5.258,-8.939 -2.05,-3.395 -4.143,-6.765 -6.235,-10.135 -0.6,-0.967 -1.261,-1.898 -1.895,-2.845 -0.118,0.076 -0.236,0.152 -0.354,0.229 1.098,2.955 3.218,5.431 4.169,8.481 -1.705,-1.052 -2.199,-3.144 -3.78,-4.376 -0.257,0.726 0.274,1.028 0.471,1.464 0.866,1.914 2.481,3.293 3.49,5.15 2.046,3.766 4.588,7.245 6.689,11 2.59,4.63 5.525,9.07 8.078,13.72 2.041,3.72 3.387,7.776 4.966,11.715 0.231,0.579 -0.022,1.091 -0.175,1.615 -0.113,0.389 -0.156,0.89 -0.639,0.989 -0.598,0.122 -0.739,-0.432 -0.969,-0.814 -2.655,-4.435 -5.331,-8.856 -7.956,-13.308 -3.26,-5.524 -6.507,-11.056 -9.704,-16.616 -2.901,-5.046 -6.243,-9.806 -9.4,-14.685 -3.124,-4.827 -6.72,-9.335 -9.718,-14.253 -0.378,-0.619 -0.704,-1.507 -1.911,-1.49 1.442,2.114 2.534,4.253 3.878,6.202 3.851,5.578 7.43,11.332 10.988,17.093 z m 48.021,21.223 c 0.012,-0.731 0.104,-1.459 0.396,-2.182 0.003,-0.007 0.005,-0.015 0.008,-0.022 -0.002,0.008 -0.005,0.016 -0.008,0.023 -0.292,0.722 -0.384,1.45 -0.396,2.181 z m 0.705,-7.092 c 0.111,-1.648 0.214,-3.296 0.206,-4.939 0.008,1.643 -0.096,3.29 -0.206,4.939 z m -4.036,10.429 c -0.335,0.344 -0.69,0.67 -1.037,1.004 0.347,-0.334 0.702,-0.66 1.037,-1.004 z m -3.946,20.332 c 0.115,0.424 0.197,0.742 0.278,0.969 -0.081,-0.226 -0.163,-0.545 -0.278,-0.969 -0.37,-1.353 -0.816,-2.674 -0.837,-4.082 0.021,1.408 0.468,2.73 0.837,4.082 z m -0.719,-11.035 c 0.004,0.367 0.017,0.737 0.017,1.104 0,-0.367 -0.012,-0.737 -0.017,-1.104 z m -0.099,6.344 v 0 c 0.016,-0.205 -0.025,-0.406 -0.117,-0.59 0.091,0.184 0.133,0.385 0.117,0.59 z" /><path
     style="fill:#fdfefb"
     inkscape:connector-curvature="0"
     id="path72"
     d="m 155.61262,178.99616 c 0.158,-0.273 0.005,-0.531 -0.153,-0.77 -2.188,-3.303 -4.211,-6.754 -7.691,-8.938 -1.868,-1.172 -3.598,-2.54 -5.711,-3.354 -2.166,-0.835 -4.35,-1.437 -6.629,-1.852 -1.442,-0.262 -2.893,-0.46 -4.236,-0.047 -1.487,0.456 -2.66,0.18 -3.941,-0.534 -7.268,-4.045 -14.221,-8.61 -21.372,-12.847 -4.959,-2.938 -9.801997,-6.081 -15.031997,-8.538 -1.601,-0.752 -2.978,-1.975 -5.095,-2.427 0.686,1.036 1.527,1.38 2.294,1.815 2.798,1.594 5.637,3.119 8.378,4.805 4.837997,2.975 9.682997,5.939 14.403997,9.103 4.836,3.241 9.764,6.349 14.838,9.203 2.626,1.478 4.506,3.804 6.809,5.646 6.605,5.283 14.058,8.126 22.39,8.919 0.28,0.026 0.58,0.104 0.747,-0.184 z" /><path
     style="fill:#fdfefb"
     inkscape:connector-curvature="0"
     id="path74"
     d="m 115.00262,106.22916 c 2.258,3.155 4.441,6.364 6.68,9.532 3.969,5.617 7.88,11.269 10.947,17.451 0.407,0.819 0.573,1.578 0.356,2.517 -0.724,3.14 -0.772,6.293 0.155,9.418 1.771,5.963 5.293,10.682 10.23,14.393 0.617,0.465 0.848,0.207 1.012,-0.469 0.737,-3.026 0.509,-6.077 -0.109,-9.041 -0.976,-4.673 -3.134,-8.84 -6.042,-12.641 -1.283,-1.678 -2.808,-3.145 -3.928,-4.977 -0.895,-1.462 -1.553,-3.043 -2.489,-4.473 -2.448,-3.738 -4.857,-7.502 -7.532,-11.087 -2.232,-2.992 -4.429,-6.011 -6.684,-8.986 -2.279,-3.009 -4.605,-5.982 -6.92,-8.964996 -1.054,-1.357 -2.128,-2.698 -3.194,-4.047 -0.342,0.693 -0.048,0.999 0.193,1.329 2.444,3.348 4.914,6.676996 7.325,10.045996 z" /><path
     style="fill:#fdfefb"
     inkscape:connector-curvature="0"
     id="path76"
     d="m 75.958623,127.43616 c 1.738,0.92 3.48,1.824 5.179,2.822 4.373,2.568 8.817,5.014 13.112,7.713 5.146,3.234 10.218997,6.581 15.570997,9.483 2.257,1.224 4.555,2.471 6.434,4.244 4.446,4.197 9.522,7.257 15.388,9.001 2.749,0.818 5.54,1.345 8.416,1.369 0.53,0.005 1.238,0.056 0.746,-0.75 -0.888,-1.453 -1.757,-2.967 -2.908,-4.197 -2.958,-3.16 -6.315,-5.876 -10.464,-7.298 -3.438,-1.179 -6.96,-2.202 -10.671,-1.067 -0.522,0.159 -1.107,0.132 -1.622,-0.157 -3.056,-1.719 -6.128,-3.408 -9.159,-5.17 -4.388,-2.552 -8.732997,-5.176 -13.117997,-7.732 -2.74,-1.598 -5.478,-3.206 -8.292,-4.666 -2.936,-1.524 -5.776,-3.258 -8.99,-4.389 -0.101,0.505 0.12,0.657 0.378,0.794 z" /><path
     style="fill:#fdfefb"
     inkscape:connector-curvature="0"
     id="path78"
     d="m 98.402623,95.827164 c 5.598997,6.811996 11.256997,13.571996 16.217997,20.890996 1.564,2.307 2.229,4.609 1.988,7.34 -0.479,5.431 1.968,9.816 5.297,13.787 1.576,1.879 3.529,3.391 5.531,4.816 0.336,0.239 0.629,0.621 1.091,0.394 0.472,-0.231 0.307,-0.721 0.338,-1.117 0.22,-2.75 -0.193,-5.456 -0.99,-8.049 -1.471,-4.791 -3.969,-9.018 -7.629,-12.505 -1.038,-0.988 -2.063,-1.986 -2.821,-3.222 -2.17,-3.539 -4.62,-6.894 -7.233,-10.102 -2.78,-3.414 -5.709,-6.719 -8.529,-10.097996 -3.004997,-3.602 -6.319997,-6.933 -9.186997,-10.651 -0.468,-0.608 -0.967,-1.333 -1.9,-1.619 -0.104,0.569 0.131,0.81 0.335,1.058 2.497,3.025 5.001,6.045 7.491,9.077 z" /><path
     style="fill:#fdfefb"
     inkscape:connector-curvature="0"
     id="path80"
     d="m 96.032623,132.20416 c 2.246,1.337 4.674997,2.34 6.628997,4.22 2.605,2.504 5.645,4.543 8.948,5.971 4.113,1.776 8.43,3.018 12.99,3.051 0.305,0.002 0.686,0.242 0.894,-0.106 0.222,-0.374 -0.048,-0.726 -0.271,-1.008 -1.785,-2.264 -3.306,-4.674 -5.798,-6.403 -5.096,-3.534 -10.461,-5.603 -16.743,-4.524 -0.429,0.073 -0.83,0.019 -1.212,-0.176 -2.096997,-1.071 -4.229997,-2.081 -6.280997,-3.235 -4.338,-2.444 -8.628,-4.976 -12.947,-7.454 -4.641,-2.663 -9.358,-5.183 -14.155,-7.552 -1.157,-0.572 -2.28,-1.275 -3.545,-1.594 l -0.188,0.414 c 0.808,0.512 1.578,1.099 2.43,1.522 6.082,3.021 11.926,6.465 17.698,10.023 3.814,2.35 7.704,4.562 11.551,6.851 z" /><path
     style="fill:#fdfefb"
     inkscape:connector-curvature="0"
     id="path82"
     d="m 177.93262,101.55716 c -0.199,1.314 0.421,2.557 0.408,3.818 -0.024,2.228 0.292,4.433 0.518,6.617 0.193,1.88 0.24,3.759 0.374,5.636 0.269,3.756 0.695,7.511 0.717,11.269 0.01,1.804 -0.501,3.634 -0.391,5.484 0.032,0.518 -0.303,0.839 -0.646,1.167 -2.892,2.77 -4.426,6.251 -4.807,10.149 -0.383,3.925 -0.141,7.851 1.291,11.609 0.175,0.461 0.169,1.069 0.842,1.12 0.562,0.042 0.751,-0.44 1.016,-0.817 2.162,-3.087 3.926,-6.298 4.524,-10.135 0.483,-3.098 0.401,-6.182 0.131,-9.23 -0.186,-2.089 -0.699,-4.152 -0.677,-6.289 0.046,-4.521 0.223,-9.055 -0.403,-13.547 -0.21,-1.511 -0.107,-3.048 -0.439,-4.524 -0.606,-2.69 -0.391,-5.483 -1.129,-8.151 -0.017,-1.425 -0.656,-2.77 -0.503,-4.223 0.027,-0.257 -0.15,-0.59 -0.468,-0.585 -0.379,0.005 -0.319,0.375 -0.358,0.632 z" /><path
     style="fill:#fdfefb"
     inkscape:connector-curvature="0"
     id="path84"
     d="m 81.435623,116.89216 c 2.307,1.343 4.789,2.37 6.836,4.186 1.488,1.32 3.069,2.559 4.823,3.567 4.854,2.793 9.998997,4.503 15.648997,4.491 0.27,0 0.585,0.133 0.773,-0.128 0.257,-0.355 -0.088,-0.58 -0.257,-0.84 -1.438,-2.217 -3.331,-4.067 -5.385,-5.626 -4.556997,-3.456 -9.647997,-5.346 -15.504997,-4.112 -0.644,0.136 -1.179,-0.131 -1.708,-0.42 -4.449,-2.438 -8.88,-4.905 -13.347,-7.308 -4.056,-2.184 -7.998,-4.568 -12.128,-6.626 -2.229,-1.109 -4.417,-2.307 -6.703,-3.307 -0.446,-0.194 -0.897,-0.507 -1.689,-0.028 1.976,1.038 3.812,1.882 5.554,2.907 3.444,2.028 7.002,3.861 10.423,5.926 4.177,2.52 8.45,4.867 12.664,7.318 z" /><path
     style="fill:#fdfefb"
     inkscape:connector-curvature="0"
     id="path86"
     d="m 74.275623,78.928164 c 1.665,1.063 2.711,2.733 4.011,4.121 2.83,3.02 5.711,5.996 8.517,9.04 4.339,4.709 8.538,9.519996 12.348,14.665996 0.341,0.46 0.657,1.016 0.4,1.546 -0.803,1.656 -0.065,3.297 0.246,4.801 1.359997,6.593 6.003997,10.695 11.364997,14.156 0.5,0.321 1.1,0.225 0.889,-0.401 -0.461,-1.365 -0.062,-2.748 -0.363,-4.114 -0.662,-3.008 -1.736,-5.809 -3.415,-8.401 -1.332,-2.059 -2.775,-4.092 -4.623,-5.619 -1.658,-1.37 -3.159,-2.801 -4.449997,-4.491 -2.518,-3.296 -5.165,-6.497996 -8.066,-9.448996 -2.29,-2.33 -4.604,-4.653 -6.834,-7.027 -2.808,-2.99 -5.916,-5.659 -8.717,-8.645 -0.615,-0.654 -1.383,-1.167 -2.324,-1.947 0.158,1.048 0.586,1.491 1.016,1.764 z" /><path
     style="fill:#fdfefb"
     inkscape:connector-curvature="0"
     id="path88"
     d="m 61.842623,89.183164 c 3.241,2.428 6.504,4.829 9.722,7.292 2.814,2.153 5.48,4.497996 8.385,6.546996 1.162,0.819 2.188,1.923 2.663,3.448 0.795,2.544 2.593,4.437 4.521,6.179 2.559,2.312 5.828,3.094 9.02,4.005 0.542,0.154 1.098,-0.027 0.942,-0.769 -0.331,-1.574 -0.55,-3.186 -1.199,-4.674 -1.809,-4.144 -5.152,-6.552 -9.414,-7.383 -2.749,-0.536 -5.149,-1.385 -7.191,-3.288 -2.744,-2.557996 -5.867,-4.640996 -8.885,-6.838996 -4.248,-3.092 -8.656,-5.964 -12.973,-8.963 -2.826,-1.964 -5.946,-3.452 -8.754,-5.644 -0.215,0.636 -0.155,0.981 0.185,1.117 1.853,0.737 3.104,2.323 4.821,3.31 2.86,1.642 5.507,3.677 8.157,5.662 z" /><path
     style="fill:#fdfefb"
     inkscape:connector-curvature="0"
     id="path90"
     d="m 132.29762,74.696164 c 1.984,2.932 4.289,5.626 6.164,8.642 1.386,2.226 3.024,4.294 4.481,6.479 1.279,1.918 2.917,3.642 3.669,5.859 0.608,1.792 1.66,3.293 2.747,4.766996 2.163,2.935 4.887,5.242 8.197,6.827 0.429,0.206 0.761,0.882 1.308,0.475 0.567,-0.421 -0.017,-0.913 -0.13,-1.367 -0.124,-0.497 -0.359,-1.102 0.097,-1.424 0.525,-0.37 0.681,0.459 1.097,0.584 v 10e-4 c 0.047,0.078 0.095,0.157 0.143,0.236 -0.136,0.664 0.224,1.137 0.782,1.229 0.648,0.105 0.711,-0.561 0.865,-1.022 0.115,-0.344 0.214,-0.692 0.32,-1.039 v 0 c 0.098,-0.041 0.147,-0.114 0.146,-0.22 0.406,-0.9 0.709,-1.807 0.92,-2.719 0.112,-0.479 0.196,-0.962 0.258,-1.444 0.053,-0.419 0.089,-0.838996 0.106,-1.259996 0.01,-0.245 0.016,-0.489 0.015,-0.734 -0.009,-1.614 -0.265,-3.241 -0.717,-4.879 -0.096,0.463 -0.101,0.922 -0.067,1.377 -0.034,-0.455 -0.029,-0.914 0.066,-1.377 0.001,-10e-4 0.016,-0.081 0.016,-0.081 l -0.069,-0.042 c -0.767,-0.483 -0.737,-1.19 -0.549,-1.944 -0.319,-1.492 -1.259,-2.799 -1.506,-4.269 -0.428,-2.541 -0.821,-5.087 -1.594,-7.544 -1.062,-3.378 -1.823,-6.851 -3.229,-10.117 -0.647,-3.689 -2.352,-7.031 -3.47,-10.567 -0.106,-0.336 0.025,-1.091 -0.55,-0.893 -0.646,0.222 -0.074,0.795 0.037,1.178 0.863,2.987 1.748,5.969 2.647,8.945 0.338,1.12 0.685,2.237 1.033,3.353 0.348,1.116 0.698,2.231 1.045,3.349 0,0 0,0 0,10e-4 0.092,0.245 0.184,0.491 0.275,0.736 0.247,0.182 0.297,0.437 0.266,0.722 -0.011,0.067 -0.02,0.137 -0.026,0.204 -0.002,0.012 -0.004,0.023 -0.005,0.034 -0.006,0.06 -0.008,0.12 -0.009,0.179 -0.001,0.02 -0.003,0.038 -0.003,0.058 0.001,0.156 0.021,0.309 0.074,0.457 0.035,0.099 0.084,0.194 0.152,0.288 0.306,0.271 0.479,0.578 0.557,0.914 -0.077,-0.336 -0.251,-0.644 -0.558,-0.914 0.064,0.667 0.21,1.31 0.549,1.896 0,0 0,0 0,0.001 0.047,0.208 0.094,0.417 0.141,0.625 0.904,1.734 0.933,3.691 1.412,5.533 0.106,0.408 0.165,0.803 0.182,1.189 -0.017,-0.387 -0.076,-0.781 -0.182,-1.189 -0.479,-1.842 -0.507,-3.798 -1.412,-5.532 0.192,1.506 0.613,2.979 0.822,4.468 0.209,1.48 1.069,2.941 0.123,4.553 -1.684,2.869 -2.353,5.978 -1.652,9.306 0.099,0.474 0.297,1.167 -0.229,1.371 -0.594,0.230996 -0.724,-0.527 -1.024,-0.899 -1.84,-2.28 -3.812,-4.5 -6.677,-5.403 -1.677,-0.529 -2.83,-1.301 -3.916,-2.726 -3.941,-5.176 -7.444,-10.667 -11.464,-15.782 -1.713,-2.18 -3.257,-4.498 -5.253,-6.529 -0.271,0.599 -0.077,1.061 0.206,1.396 1.242,1.476 2.294,3.09 3.373,4.684 z m 24.046,-1.261 c -0.357,-1.137 -0.707,-2.276 -1.034,-3.423 0.328,1.147 0.677,2.286 1.034,3.423 0.125,0.397 0.234,0.794 0.249,1.204 -0.015,-0.41 -0.123,-0.807 -0.249,-1.204 z m 1.536,26.113 c -0.107,-0.398 -0.194,-0.796 -0.263,-1.19 0.069,0.394 0.156,0.791 0.263,1.19 0.114,0.427 0.25,0.846996 0.394,1.262996 -0.144,-0.416 -0.28,-0.834996 -0.394,-1.262996 z m 1.697,-11.997 c -0.035,0.57 -0.157,1.13 -0.349,1.697 0.192,-0.567 0.315,-1.126 0.349,-1.697 z m -1.497,4.602 c -0.404,1.256 -0.636,2.543 -0.652,3.858 0.016,-1.315 0.248,-2.602 0.652,-3.858 z" /><path
     style="fill:#fdfefb"
     inkscape:connector-curvature="0"
     id="path92"
     d="m 152.27962,108.66016 c -0.614,-0.142 -0.942,-0.512 -1.269,-0.972 -0.96,-1.355 -1.913,-2.715 -2.91,-4.042 -4.562,-6.067996 -8.467,-12.604996 -13.251,-18.512996 -0.904,-1.117 -1.625,-2.414 -3.213,-3.431 0.717,1.373 1.245,2.397 1.972,3.35 1.673,2.191 3.299,4.424 4.855,6.7 2.552,3.736 5.049,7.509 7.537,11.286996 1.826,2.771 4.089,5.282 5.319,8.416 2.38,6.065 6.793,10.198 12.383,13.246 0.503,0.274 0.896,0.132 0.767,-0.46 -0.473,-2.185 -0.556,-4.456 -1.645,-6.507 -2.342,-4.41 -5.455,-7.891 -10.545,-9.074 z" /><path
     style="fill:#fdfefb"
     inkscape:connector-curvature="0"
     id="path94"
     d="m 181.29362,177.52116 c -0.455,1.341 -0.349,1.501 1.097,1.532 2.498,0.053 4.903,-0.735 7.386,-0.836 0.365,-0.014 0.632,-0.3 0.609,-0.645 -0.084,-1.255 0.46,-2.417 0.41,-3.689 -0.103,-2.538 -0.363,-5.147 0.085,-7.61 0.694,-3.803 0.912,-7.647 1.395,-11.462 0.413,-3.265 0.19,-6.607 0.361,-9.92 0.341,-6.592 -0.455,-13.189 -0.235,-19.794 0.038,-1.133 -0.133,-2.273 -0.208,-3.411 -0.196,1.229 -0.635,2.38 -0.665,3.555 -0.166,6.593 0.195,13.187 -0.307,19.786 -0.255,3.343 -0.25,6.725 -0.519,10.073 -0.246,3.057 -0.654,6.116 -1.271,9.116 -0.25,1.208 0.061,2.649 -1.285,3.643 -3.317,2.452 -5.527,5.761 -6.853,9.662 z" /><path
     style="fill:#fdfefb"
     inkscape:connector-curvature="0"
     id="path96"
     d="m 136.61162,58.832164 c 3.583,6.464 6.854,13.087 10.024,19.761 0.626,1.316 1.245,2.626 0.92,4.222 -0.186,0.914 -0.088,1.912 0.132,2.885 0.824,3.634 2.829,6.426 5.836,8.566 0.641,0.455 0.983,0.312 1.256,-0.365 1.761,-4.374 0.675,-9.02 -3.09,-11.932 -1.969,-1.521 -3.555,-3.146 -4.527,-5.398 -0.31,-0.718 -0.574,-1.459 -0.926,-2.155 -3.167,-6.264 -6.567,-12.399 -10.208,-18.4 -0.37,-0.609 -0.688,-1.3 -1.472,-1.596 0.01,1.099 0.115,1.413 0.708,2.312 0.458,0.694 0.944,1.375 1.347,2.1 z" /><path
     style="fill:#fdfefb"
     inkscape:connector-curvature="0"
     id="path98"
     d="m 137.16062,179.07816 c 0.346,0.034 0.788,0.129 0.93,-0.325 0.146,-0.47 -0.281,-0.609 -0.601,-0.79 -5.18,-2.943 -10.187,-6.171 -15.19,-9.396 -6.711,-4.326 -13.521,-8.475 -20.462,-12.424 -1.628,-0.926 -3.596997,-1.203 -4.943997,-2.636 -0.164,-0.175 -0.42,-0.25 -0.612,-0.045 -0.198,0.212 -0.053,0.419 0.101,0.603 0.304,0.364 0.699,0.594 1.125,0.78 2.118,0.93 4.064997,2.181 6.030997,3.373 9.432,5.725 18.479,12.039 27.652,18.16 1.837,1.226 3.652,2.512 5.97,2.7 z" /><path
     style="fill:#fdfefb"
     inkscape:connector-curvature="0"
     id="path100"
     d="m 106.72462,168.45116 c 1.505,0.888 3.031,1.739 4.516,2.66 2.68,1.664 5.323,3.387 8.011,5.037 0.671,0.413 1.445,0.696 2.727,0.412 -5.538,-3.677 -10.958,-6.776 -16.792,-9.785 0.31,1.056 0.958,1.334 1.538,1.676 z" /><path
     style="fill:#fdfefb"
     inkscape:connector-curvature="0"
     id="path102"
     d="m 170.82862,91.263164 c 0.465,2.978 0.999,5.948 1.381,8.939996 0,0 -0.001,0 -0.001,0.001 0.138,0.932 0.274,1.863 0.411,2.795 0.928,0.955 0.618,2.127 0.575,3.252 0.179,0.84 0.04,1.722 0.058,2.583 v 0.001 c 0.003,0.145 0.011,0.286 0.024,0.429 0.013,0.143 0.035,0.283 0.063,0.423 0.078,0.374 0.219,0.739 0.464,1.09 -0.111,0.555 -0.171,1.108 0.044,1.654 0.167,-0.28 0.269,-0.559 0.271,-0.835 -0.002,0.276 -0.104,0.556 -0.271,0.835 -0.059,1.881 -0.25,3.763 0.143,5.636 0.167,0.796 -0.183,1.477 -0.757,1.974 -1.684,1.458 -2.399,3.421 -2.975,5.469 v 0 c -0.085,0.128 -0.134,0.26 -0.149,0.396 -0.015,0.137 0.003,0.276 0.049,0.421 0.203,-0.134 0.279,-0.284 0.268,-0.444 0.012,0.16 -0.064,0.311 -0.268,0.444 -0.307,0.386 -0.413,0.801 -0.406,1.231 0.004,0.259 0.049,0.523 0.115,0.791 -0.605,1.061 -0.778,2.128 -0.636,3.198 0.085,0.642 0.284,1.286 0.57,1.93 0,0.001 0,0.001 0,0.002 -0.057,0.198 -0.093,0.396 -0.09,0.592 0.002,0.195 0.042,0.392 0.134,0.583 0.864,1.467 1.09,3.166 1.716,4.721 0.083,0.204 0.154,0.417 0.241,0.614 -0.087,-0.197 -0.159,-0.409 -0.241,-0.614 -0.626,-1.554 -0.852,-3.253 -1.716,-4.721 0.343,2.021 1.011,3.945 1.797,5.824 0.252,0.602 0.363,0.735 0.735,0.554 0.124,-0.061 0.277,-0.155 0.473,-0.28 0,0 0,0 0.001,0 0.062,-0.13 0.124,-0.259 0.185,-0.388 -0.025,-0.304 0.048,-0.562 0.342,-0.713 0.378,-0.34 0.607,-0.771 0.805,-1.219 0.066,-0.149 0.128,-0.301 0.192,-0.452 v 0 c 0.333,-0.296 0.529,-0.645 0.654,-1.021 0.125,-0.378 0.178,-0.784 0.222,-1.194 -0.21,0.237 -0.354,0.501 -0.463,0.778 0.109,-0.277 0.252,-0.541 0.462,-0.778 0.08,-0.183 0.16,-0.364 0.24,-0.548 v 0 c 0.351,-0.345 0.546,-0.746 0.67,-1.175 0.124,-0.428 0.177,-0.881 0.239,-1.331 -0.359,0.342 -0.516,0.759 -0.618,1.193 0.103,-0.435 0.259,-0.852 0.618,-1.193 0.084,-0.13 0.121,-0.26 0.123,-0.391 0,-0.008 0.003,-0.016 0.003,-0.023 -0.002,-0.07 -0.013,-0.139 -0.034,-0.208 -0.021,-0.069 -0.051,-0.139 -0.088,-0.208 0.507,-1.621 0.714,-3.241 0.585,-4.861 -0.078,-0.972 -0.274,-1.943 -0.599,-2.915 -0.015,1.188 0.109,2.367 0.188,3.553 -0.079,-1.186 -0.203,-2.365 -0.188,-3.553 0.046,-0.094 0.082,-0.188 0.105,-0.28 0.072,-0.279 0.04,-0.556 -0.136,-0.829 -0.584,-0.979 -0.924,-2.022 -1.133,-3.098 0.208,1.075 0.549,2.118 1.134,3.098 -0.842,-3.205 -1.33,-6.448 -1.102,-9.778 0.008,-0.114 -0.001,-0.227 -0.025,-0.337 -0.07,-0.329 -0.27,-0.635 -0.533,-0.883 v -0.001 0 c 0.076,-0.48 0.135,-0.961 0.142,-1.441 0.004,-0.359 -0.021,-0.72 -0.09,-1.079 -0.022,-0.119 -0.051,-0.239 -0.084,-0.358 v 0 c -0.058,-0.775 -0.028,-1.568 -0.193,-2.32 -0.138,-0.624 -0.167,-1.27 -0.241,-1.906 -0.036,-0.316 -0.084,-0.633 -0.162,-0.942 -0.039,-0.155 -0.085,-0.309 -0.141,-0.46 -0.057,-0.151 -0.123,-0.301 -0.201,-0.447 v 0 c 0.007,-0.24 0.025,-0.481 0.015,-0.72 -0.011,-0.238 -0.048,-0.474 -0.153,-0.702 -0.151,-0.098 -0.26,-0.212 -0.342,-0.335 0.083,0.123 0.191,0.237 0.342,0.335 -0.941,-6.516996 -2.425,-12.925996 -3.729,-19.374996 -0.187,0.841 -0.392,1.719 -0.147,2.444 0.718,2.138 0.772,4.387 1.113,6.572 z m 5.809,37.757996 c 0.008,0.734 -0.356,1.423 -0.368,2.135 0.012,-0.712 0.377,-1.401 0.368,-2.135 z m -1.721,-14.013 c -0.001,0.336 -0.004,0.672 -0.005,1.008 0,-0.336 0.004,-0.672 0.005,-1.008 z m 0,-0.336 c -0.001,-0.447 -0.011,-0.895 -0.043,-1.341 0.032,0.447 0.042,0.894 0.043,1.341 z m -0.856,-7.703 c -0.024,-0.646 0,-1.301 -0.14,-1.927 0.141,0.626 0.116,1.282 0.14,1.927 z m -1.622,-7.388996 c 0.016,-0.07 0.036,-0.14 0.071,-0.203 -0.036,0.063 -0.056,0.132 -0.071,0.203 z" /><path
     style="fill:#fdfefb"
     inkscape:connector-curvature="0"
     id="path104"
     d="m 163.39962,80.692164 c 0.372,0.024 0.454,0.156 0.441,0.322 0.012,-0.167 -0.07,-0.298 -0.441,-0.322 0.007,0.32 -0.177,0.711 0.314,0.857 v 0 c 0.072,0.018 0.139,0.018 0.201,0.01 0.007,-10e-4 0.013,-0.004 0.02,-0.005 0.042,0.031 0.095,0.06 0.109,0.099 -0.108,0.198 -0.216,0.396 -0.324,0.594 0.044,0.164 0.088,0.327 0.133,0.489 v 0 c 0.131,2.395 0.761,4.701 1.31,7.013 1.053,4.436 1.62,8.937 1.999,13.467996 0.021,0.248 -0.094,0.556 -0.246,0.763 -1.608,2.193 -2.506,4.572 -2.896,7.331 -0.637,4.518 0.697,8.426 2.771,12.247 0.308,0.567 0.64,0.702 0.95,0.041 0.408,-0.871 0.76,-1.767 1.137,-2.652 0.271,-0.319 0.469,-0.663 0.614,-1.024 0.242,-0.603 0.336,-1.255 0.374,-1.926 0.185,-0.232 0.29,-0.493 0.351,-0.763 0.102,-0.448 0.082,-0.924 0.11,-1.341 0.162,-2.349 0.623,-4.737 -0.252,-7.056 -0.255,-0.237 -0.399,-0.499 -0.472,-0.776 0.073,0.277 0.217,0.539 0.473,0.775 0.201,-0.724 -0.052,-1.346 -0.435,-1.938 -0.052,0.209 -0.084,0.414 -0.093,0.614 0.009,-0.2 0.041,-0.405 0.092,-0.614 0.079,-0.525 -0.075,-0.984 -0.402,-1.393 v 0 c 0,-0.381 -0.087,-0.732 -0.256,-1.058 -0.057,-0.108 -0.123,-0.214 -0.197,-0.316 v 0 c -0.173,-1.04 -0.299,-2.088 -0.425,-3.136 -0.21,-1.745996 -0.42,-3.492996 -0.851,-5.204996 -0.087,-0.041 -0.149,-0.091 -0.193,-0.148 0.044,0.058 0.106,0.107 0.193,0.147 0.056,-0.217 -0.023,-0.382 -0.198,-0.509 0,0 0,-0.001 0,-0.001 -0.006,-0.575 0.198,-1.167 -0.137,-1.716 -0.359,-0.502 -0.525,-1.058 -0.636,-1.629 0.11,0.571 0.276,1.127 0.636,1.629 -0.074,-0.498 -0.121,-1.001 -0.224,-1.492 -0.095,-0.452 -0.19,-0.905 -0.285,-1.356 -0.666,-3.16 -1.352,-6.313 -2.412,-9.374 -0.002,-0.006 -0.003,-0.011 -0.005,-0.016 0,-0.003 -0.001,-0.005 -0.002,-0.008 -0.747,-3.33 -1.379,-6.696 -2.618,-9.885 -0.177,-0.456 -0.367,-0.907 -0.57,-1.354 0.249,2.215 0.315,4.46 1.178,6.522 0.556,1.327 0.425,2.829 1.164,4.092 z m 5.316,23.577996 c -0.104,0.225 -0.12,0.421 -0.066,0.594 -0.054,-0.173 -0.039,-0.369 0.066,-0.594 z" /><path
     style="fill:#fdfefb"
     inkscape:connector-curvature="0"
     id="path106"
     d="m 164.25862,81.324164 c -0.003,0 -0.005,0 -0.008,0.001 0.001,0.005 0.003,0.01 0.004,0.016 0,-0.002 0.001,-0.003 0.002,-0.004 0.004,-0.006 0.008,-0.008 0.011,-0.014 0,0 -0.013,-0.003 -0.017,-0.005 -0.001,0 -0.004,-10e-4 -0.004,-10e-4 0.001,0.003 0.002,0.005 0.002,0.007 0.003,0 0.006,0 0.01,0 z m 0.006,-10e-4 v 0 c 0,0 -0.003,-0.001 -0.006,-0.002 0.003,0.001 0.007,0.002 0.006,0.002 z" /><path
     style="fill:#fdfefb"
     inkscape:connector-curvature="0"
     id="path108"
     d="m 178.25062,100.18816 c 0.34,-0.682996 0.458,-1.331996 0.025,-2.005996 -0.101,-0.155 -0.371,-0.188 -0.459,-0.011 -0.33,0.653 -0.322,1.3 0.187,1.881996 0.026,0.031 0.076,0.044 0.247,0.135 z" /><path
     style="fill:#fdfefb"
     inkscape:connector-curvature="0"
     id="path110"
     d="m 172.80162,104.12216 c 0.026,0.729 -0.024,1.471 0.392,2.131 0.043,-1.126 0.354,-2.298 -0.574,-3.252 0.049,0.132 0.084,0.265 0.11,0.399 0.047,0.237 0.064,0.478 0.072,0.722 z" /><path
     style="fill:#fdfefb"
     inkscape:connector-curvature="0"
     id="path112"
     d="m 162.70962,93.563164 c 0.02,-0.705 -0.038,-1.389 -0.549,-1.943 -0.188,0.752 -0.217,1.46 0.549,1.943 z" /><path
     style="fill:#fdfefb"
     inkscape:connector-curvature="0"
     id="path114"
     d="m 182.45462,172.20116 c 0.138,-0.112 0.261,-0.233 0.368,-0.364 0.323,-0.391 0.512,-0.857 0.626,-1.368 -0.712,0.359 -0.874,1.032 -0.994,1.732 z" /><path
     style="fill:#fdfefb"
     inkscape:connector-curvature="0"
     id="path116"
     d="m 156.84862,75.790164 c -0.013,0.072 -0.015,0.143 -0.009,0.209 0.018,0.197 0.117,0.366 0.275,0.513 0.03,-0.286 -0.02,-0.54 -0.266,-0.722 z" /><path
     style="fill:#fdfefb"
     inkscape:connector-curvature="0"
     id="path118"
     d="m 173.03762,140.36316 c 0.061,-0.043 0.117,-0.09 0.164,-0.142 0.14,-0.151 0.208,-0.337 0.179,-0.57 -0.295,0.15 -0.368,0.408 -0.343,0.712 z" /><path
     style="fill:#fdfefb"
     inkscape:connector-curvature="0"
     id="path120"
     d="m 163.77462,81.699164 c -0.03,0.017 -0.053,0.035 -0.071,0.058 -0.087,0.113 -0.034,0.303 0.016,0.49 0.107,-0.198 0.216,-0.396 0.323,-0.594 -0.122,-0.002 -0.209,0.013 -0.268,0.046 z" /></g>
<g
   transform="translate(-20)"
   aria-label="ALIMENTACIÓN "
   style="font-style:normal;font-weight:normal;font-size:40px;line-height:1.25;font-family:sans-serif;text-align:center;letter-spacing:0px;word-spacing:0px;text-anchor:middle;fill:#000000;fill-opacity:1;stroke:none"
   id="text3961" /></svg>
