<?xml version="1.0" encoding="UTF-8" standalone="no"?>
<svg
   xmlns:dc="http://purl.org/dc/elements/1.1/"
   xmlns:cc="http://creativecommons.org/ns#"
   xmlns:rdf="http://www.w3.org/1999/02/22-rdf-syntax-ns#"
   xmlns:svg="http://www.w3.org/2000/svg"
   xmlns="http://www.w3.org/2000/svg"
   xmlns:sodipodi="http://sodipodi.sourceforge.net/DTD/sodipodi-0.dtd"
   xmlns:inkscape="http://www.inkscape.org/namespaces/inkscape"
   version="1.0"
   id="Capa_1"
   x="0px"
   y="0px"
   width="260"
   height="300"
   viewBox="0 0 260 300"
   enable-background="new 0 0 300 300"
   xml:space="preserve"
   sodipodi:docname="b5.svg"
   inkscape:version="1.0 (4035a4fb49, 2020-05-01)"><metadata
   id="metadata49"><rdf:RDF><cc:Work
       rdf:about=""><dc:format>image/svg+xml</dc:format><dc:type
         rdf:resource="http://purl.org/dc/dcmitype/StillImage" /><dc:title></dc:title></cc:Work></rdf:RDF></metadata><defs
   id="defs47">
	
	

		
		
		
		
		
		
		
		
		
		
		
		
		
		
		
		
		
		
	</defs><sodipodi:namedview
   fit-margin-right="-20"
   fit-margin-left="-20"
   pagecolor="#ffffff"
   bordercolor="#666666"
   borderopacity="1"
   objecttolerance="10"
   gridtolerance="10"
   guidetolerance="10"
   inkscape:pageopacity="0"
   inkscape:pageshadow="2"
   inkscape:window-width="1920"
   inkscape:window-height="1017"
   id="namedview45"
   showgrid="false"
   inkscape:zoom="0.78666667"
   inkscape:cx="-283.13559"
   inkscape:cy="141.82513"
   inkscape:window-x="-8"
   inkscape:window-y="-8"
   inkscape:window-maximized="1"
   inkscape:current-layer="Capa_1"
   inkscape:document-rotation="0" />
<rect
   style="opacity:0.996;fill:#18bd32;fill-opacity:1"
   id="rect834"
   width="300"
   height="300"
   x="-20"
   y="0" /><path
   style="fill:#ffffff;stroke-width:0.96801"
   inkscape:connector-curvature="0"
   d="m 200.30637,92.50673 c -2.191,-0.8752 -3.687,-1.535816 -5.231,-2.078365 -6.147,-2.160824 -12.293,-2.088671 -18.453,0.02155 -3.056,1.048552 -5.277,3.088498 -7.776,4.933538 -4.602,3.397722 -6.633,8.052957 -8.992,12.696947 -0.879,1.7326 -2.133,3.77161 -3.813,4.58215 -4.741,2.28451 -8.383,5.7825 -11.048,9.70403 -4.313,6.34754 -8.017,13.13736 -9.433,20.74616 -0.294,1.58267 -0.863,3.1213 -1.306,4.6796 -3.431,-8.4259 -6.57,-16.6897 -11.667,-24.16637 -0.38,-0.55848 -0.081,-2.0109 0.464,-2.53658 1.224,-1.17787 2.917,-1.91345 4.214,-3.03884 4.937,-4.28322 7.371,-9.74245 8.276,-15.9007 1.124,-7.638785 -4.439,-13.818593 -5.054,-21.325255 -5.829,2.538453 -10.761,5.553862 -14.802,10.216594 -4.233,4.88575 -3.389,10.626081 -3.995,16.664401 -5.542,-6.69893 -11.196,-12.016661 -18.131,-16.022525 -1.974,-1.14132 -3.339,-2.366037 -3.783,-4.699277 -0.938,-4.931665 -3.798,-9.250502 -7.653,-12.361489 -4.857,-3.920593 -10.927,-5.610084 -17.553,-4.039598 -1.284,0.304539 -2.81,0.112445 -3.893,0.691539 -2.454,1.311862 0.422,2.090546 0.702,3.099742 0.889,3.209377 1.587,6.69893 3.485,9.381688 5.021,7.097174 12,11.334488 21.592,10.660753 0.656,-0.04685 1.686,0.28861 1.988,0.758069 4.032,6.270698 8.29,12.443008 11.822,18.958278 3.02,5.56886 5.194,11.54251 7.7,17.35313 0.268,0.62126 0.249,1.34934 0.362,2.0287 -6.216,-7.40265 -13.405,-12.72506 -23.711,-12.41865 -6.181,0.1846 -11.743,2.54689 -16.616,5.82935 2.21,2.32293 4.102,4.30291 5.985,6.28944 3.73,3.93465 6.879,8.28441 12.746,10.12758 5.86,1.84035 11.5,2.02682 17.333,0.49382 2.05,-0.53786 4.099,-1.08229 6.194,-1.63514 0.16,0.22676 0.399,0.42635 0.452,0.66436 0.841,3.73225 1.765,7.45325 2.451,11.21267 0.846,4.64306 1.666,9.30298 2.175,13.98633 0.591,5.43485 0.764,10.90907 1.273,16.35236 0.135,1.4318 0.841,2.81675 1.579,5.1528 -1.75,-1.51051 -2.998,-2.49722 -4.134,-3.58513 -3.631,-3.47643 -7.852,-6.06174 -12.817,-7.52165 -4.07,-1.19661 -8.155,-2.34355 -12.268,-3.52329 -0.321,4.71896 -2.501,9.66843 -0.368,15.17637 2.314,5.97085 5.663,10.75071 11.634,13.77643 4.248,2.15239 8.394,4.50812 13.56,4.34413 2.05,-0.0647 2.134,1.6567 1.965,3.16347 -0.506,4.52686 -0.985,9.05559 -1.55,13.57589 -0.464,3.72007 -0.716,7.50198 -1.655,11.11991 -0.902,3.47643 -1.094,3.57951 2.828,3.62917 9.373,0.11807 18.745,0.28674 28.117,0.27456 0.611,-9.4e-4 1.799,-1.39901 1.739,-2.07181 -0.411,-4.62244 -1.143,-9.21958 -1.656,-13.83546 -0.989,-8.88224 -1.901,-17.77292 -2.848,-26.65797 -0.094,-0.88457 -0.201,-1.7682 -0.31,-2.65184 -0.186,-1.51051 -0.378,-3.02197 -0.563,-4.49875 4.146,0 7.59,0.41699 10.857,-0.11807 3.173,-0.52099 6.155,-2.03713 9.234,-3.08193 12.817,-4.34976 18.762,-13.88138 21.809,-25.52415 1.018,-3.88874 1.708,-7.84213 4.504,-11.0918 0.43,-0.4985 0.575,-1.21347 1.02,-2.20299 -19.19,-3.33681 -35.405,-0.64187 -46.075,16.51353 -0.204,-0.74869 -0.501,-1.25751 -0.445,-1.72978 0.609,-5.13313 0.944,-10.32154 2.019,-15.37034 1.003,-4.71333 2.827,-9.27205 4.258,-13.90667 2.242,-7.26491 6.094,-13.5834 12.45,-18.37169 0.77,-0.5791 2.04,-0.82179 3.071,-0.8068 3.895,0.0581 7.821,0.65874 11.674,0.35702 4.595,-0.36077 8.578,-2.41664 12.247,-5.14813 3.308,-2.46349 5.248,-5.59509 7.105,-9.04341 1.518,-2.815819 2.259,-6.35035 6.715,-8.251613 z"
   id="path12" />
<g
   transform="translate(-20)"
   aria-label="MEDIO AMBIENTE"
   style="font-style:normal;font-weight:normal;font-size:40px;line-height:1.25;font-family:sans-serif;text-align:center;letter-spacing:0px;word-spacing:0px;text-anchor:middle;fill:#000000;fill-opacity:1;stroke:none"
   id="text135" /></svg>
