<?xml version="1.0" encoding="UTF-8" standalone="no"?>
<svg
   xmlns:dc="http://purl.org/dc/elements/1.1/"
   xmlns:cc="http://creativecommons.org/ns#"
   xmlns:rdf="http://www.w3.org/1999/02/22-rdf-syntax-ns#"
   xmlns:svg="http://www.w3.org/2000/svg"
   xmlns="http://www.w3.org/2000/svg"
   xmlns:sodipodi="http://sodipodi.sourceforge.net/DTD/sodipodi-0.dtd"
   xmlns:inkscape="http://www.inkscape.org/namespaces/inkscape"
   version="1.0"
   id="Capa_1"
   x="0px"
   y="0px"
   width="260"
   height="300"
   viewBox="0 0 260 300"
   enable-background="new 0 0 300 300"
   xml:space="preserve"
   sodipodi:docname="b6.svg"
   inkscape:version="1.0 (4035a4fb49, 2020-05-01)"><metadata
   id="metadata79"><rdf:RDF><cc:Work
       rdf:about=""><dc:format>image/svg+xml</dc:format><dc:type
         rdf:resource="http://purl.org/dc/dcmitype/StillImage" /><dc:title></dc:title></cc:Work></rdf:RDF></metadata><defs
   id="defs77">
	
	
	
	
	
	
	
	

		
		
		
		
		
		
		
		
		
		
		
		
		
		
		
		
		
		
		
		
		
		
		
		
		
		
		
	</defs><sodipodi:namedview
   fit-margin-right="-20"
   fit-margin-left="-20"
   pagecolor="#ffffff"
   bordercolor="#666666"
   borderopacity="1"
   objecttolerance="10"
   gridtolerance="10"
   guidetolerance="10"
   inkscape:pageopacity="0"
   inkscape:pageshadow="2"
   inkscape:window-width="1920"
   inkscape:window-height="1017"
   id="namedview75"
   showgrid="false"
   inkscape:zoom="0.78666667"
   inkscape:cx="130"
   inkscape:cy="150"
   inkscape:window-x="-8"
   inkscape:window-y="-8"
   inkscape:window-maximized="1"
   inkscape:current-layer="Capa_1"
   inkscape:document-rotation="0" />
<rect
   style="opacity:0.996;fill:#7e18bd;fill-opacity:1;stroke-width:11.4823"
   id="rect858"
   width="300"
   height="300"
   x="-20"
   y="0" /><g
   id="g856"
   transform="matrix(0.75866275,0,0,0.75866275,15.341323,62.091427)"><path
     d="m 218.359,90.923 c -2.254,-5.326 -5.763,-9.489 -9.694,-13.073 -6.833,-6.23 -14.688,-10.968 -23.693,-13.504 -1.705,-0.479 -2.083,-1.406 -2.048,-3.045 0.103,-4.716 0.126,-9.438 0.003,-14.152 -0.079,-3.051 -1.337,-5.427 -5.391,-5.371 -15.981,0.22 -31.967,0.09 -47.951,0.091 -4.095,0 -5.563,1.459 -5.597,5.675 -0.036,4.429 -0.156,8.866 0.053,13.285 0.106,2.23 -0.685,2.973 -2.728,3.669 -12.697,4.326 -23.447,11.393 -30.918,22.834 -0.701,1.073 -1.488,2.146 -1.547,3.592 h 129.511 z"
     id="path4"
     inkscape:connector-curvature="0"
     style="fill:#ab20fb" /><path
     d="m 242.878,73.671 c 5.158,0.039 9.638,3.705 10.767,9.157 1.287,6.213 2.332,12.477 3.48,18.719 0.233,1.272 0.527,2.503 -1.408,2.767 -1.809,0.246 -1.783,-1.017 -1.984,-2.133 -1.13,-6.248 -2.224,-12.504 -3.377,-18.749 -0.836,-4.521 -4.338,-6.965 -8.825,-6.236 -4.214,0.685 -6.804,4.208 -6.028,8.642 2.617,14.974 5.352,29.928 8.012,44.895 0.179,1.008 0.519,1.788 1.377,2.399 11.541,8.198 23.08,16.4 34.581,24.652 1.245,0.894 1.918,0.741 2.771,-0.473 4.374,-6.227 8.788,-12.425 13.251,-18.586 0.947,-1.309 0.864,-2.062 -0.511,-3.005 -4.21,-2.885 -8.305,-5.939 -12.501,-8.845 -1.335,-0.925 -2.154,-2.012 -2.645,-3.591 -4.07,-13.147 -8.316,-26.24 -12.294,-39.415 -1.098,-3.636 -3.112,-6.221 -6.143,-8.356 -11.494,-8.101 -22.896,-16.331 -34.379,-24.447 -3.137,-2.216 -6.052,-4.777 -9.596,-6.393 -3.704,-1.688 -7.863,-0.561 -9.896,2.711 -2.088,3.357 -1.376,7.977 1.889,10.352 8.176,5.951 16.456,11.761 24.674,17.654 1.081,0.774 1.969,0.914 3.096,0.027 1.641,-1.293 3.615,-1.743 5.689,-1.746"
     id="path6"
     inkscape:connector-curvature="0"
     style="fill:#ab20fb" /><path
     d="m 99.622,51.907 c -0.251,-2.9 -1.244,-5.271 -3.901,-6.696 -2.672,-1.435 -5.263,-1.528 -7.893,0.179 -15.349,9.96 -30.698,19.922 -46.098,29.802 -2.152,1.381 -3.51,3.118 -4.365,5.496 -4.791,13.307 -9.682,26.578 -14.479,39.883 -0.52,1.44 -1.268,2.476 -2.572,3.292 -4.163,2.607 -8.219,5.387 -12.408,7.95 -1.819,1.113 -2.373,1.974 -0.994,3.999 4.064,5.97 7.934,12.074 11.788,18.183 0.947,1.502 1.658,1.949 3.344,0.843 11.596,-7.605 23.255,-15.113 34.906,-22.632 1.02,-0.658 1.668,-1.416 1.948,-2.671 3.31,-14.837 6.691,-29.659 10.02,-44.492 0.615,-2.739 -0.06,-5.159 -2.203,-7.074 -4.538,-4.055 -11.115,-1.906 -12.569,4.176 -1.477,6.176 -2.803,12.388 -4.245,18.572 -0.234,1.01 -0.108,2.479 -2.019,2.038 -1.776,-0.409 -1.68,-1.517 -1.349,-2.844 0.769,-3.078 1.51,-6.163 2.282,-9.241 0.937,-3.73 1.258,-7.62 2.754,-11.202 2.697,-6.456 10.261,-8.764 16.049,-4.828 1.297,0.882 2.178,0.722 3.35,-0.043 8.308,-5.423 16.651,-10.791 24.964,-16.207 2.338,-1.523 3.452,-3.787 3.69,-6.483"
     id="path8"
     inkscape:connector-curvature="0"
     style="fill:#ab20fb" /><path
     d="m 92.898,160.563 c 0.006,1.717 1.237,2.667 1.902,3.866 4.933,8.896 11.577,16.418 19.145,23.128 1.314,1.166 2.659,2.424 4.921,2.412 23.124,-0.116 46.251,-0.076 69.376,-0.059 1.194,0.001 2.094,-0.277 3.092,-1.088 6.158,-4.994 11.485,-10.707 16.108,-17.16 2.523,-3.521 4.668,-7.198 6.96,-11.1 H 92.898 Z"
     id="path10"
     inkscape:connector-curvature="0"
     style="fill:#ab20fb" /><path
     d="m 81.857,118.996 c -0.09,3.499 0.053,6.318 0.398,9.192 0.864,7.183 2.769,14.055 5.083,20.869 0.724,2.131 1.768,2.744 4.036,2.739 41.439,-0.086 82.879,-0.062 124.319,-0.063 0.577,0 1.156,-0.002 1.734,-0.005 0.689,-0.003 1.101,-0.101 1.436,-0.96 3.829,-9.786 6.301,-19.841 6.295,-30.412 -10e-4,-0.519 0.259,-1.291 -0.509,-1.424 -0.344,-0.06 -0.811,0.388 -1.172,0.667 -7.654,5.902 -15.275,11.848 -22.969,17.697 -1.576,1.197 -3.288,1.455 -5.136,0.01 -5.52,-4.317 -11.206,-8.421 -16.708,-12.762 -2.221,-1.753 -3.751,-1.82 -6.079,0.12 -5.376,4.484 -11.11,8.537 -16.688,12.779 -1.555,1.183 -3.126,1.328 -4.706,0.133 -5.665,-4.286 -11.414,-8.469 -16.915,-12.957 -2.032,-1.658 -3.512,-2.101 -5.643,-0.405 -5.043,4.012 -10.199,7.879 -15.281,11.842 -3.59,2.8 -4.828,2.928 -8.223,0.481 -1.846,-1.329 -3.602,-2.783 -5.42,-4.15 -5.795,-4.361 -11.604,-8.706 -17.852,-13.391"
     id="path12"
     inkscape:connector-curvature="0"
     style="fill:#ab20fb" /><path
     d="M 153.578,99.692 H 92.286 c -8.026,0 -8.025,0 -9.769,7.702 -0.216,0.951 -0.266,1.583 0.789,2.359 8.085,5.95 16.063,12.047 24.083,18.088 1.413,1.064 2.532,0.418 3.758,-0.537 5.755,-4.483 11.564,-8.896 17.361,-13.324 1.721,-1.314 3.552,-1.404 5.269,-0.106 5.821,4.396 11.646,8.792 17.354,13.332 1.728,1.375 2.92,1.399 4.658,0.017 5.709,-4.539 11.541,-8.924 17.35,-13.337 1.621,-1.231 3.446,-1.297 5.047,-0.097 5.837,4.375 11.731,8.689 17.329,13.357 1.973,1.646 3.072,1.408 4.831,0.03 6.485,-5.082 12.952,-10.204 19.653,-14.989 3.46,-2.471 5.166,-4.938 3.521,-9.308 -0.861,-2.285 -1.703,-3.267 -4.314,-3.253 -21.874,0.116 -43.751,0.066 -65.628,0.066"
     id="path14"
     inkscape:connector-curvature="0"
     style="fill:#ab20fb" /><path
     style="fill:#fefefe"
     inkscape:connector-curvature="0"
     id="path58"
     d="m 90.396,87.331 c -0.701,1.073 -1.488,2.146 -1.547,3.592 H 218.36 c -2.254,-5.326 -5.763,-9.489 -9.694,-13.073 -6.833,-6.23 -14.688,-10.968 -23.693,-13.504 -1.705,-0.479 -2.083,-1.406 -2.048,-3.045 0.103,-4.716 0.126,-9.438 0.003,-14.152 -0.079,-3.051 -1.337,-5.427 -5.391,-5.371 -15.981,0.22 -31.967,0.09 -47.951,0.091 -4.095,0 -5.563,1.459 -5.597,5.675 -0.036,4.429 -0.156,8.866 0.053,13.285 0.106,2.23 -0.685,2.973 -2.728,3.669 -12.698,4.325 -23.448,11.392 -30.918,22.833 z" /><path
     style="fill:#fefefe"
     inkscape:connector-curvature="0"
     id="path60"
     d="m 294.982,135.72 c -4.21,-2.885 -8.305,-5.939 -12.501,-8.845 -1.335,-0.925 -2.154,-2.012 -2.645,-3.591 -4.07,-13.147 -8.316,-26.24 -12.294,-39.415 -1.098,-3.636 -3.112,-6.221 -6.143,-8.356 -11.494,-8.101 -22.896,-16.331 -34.379,-24.447 -3.137,-2.216 -6.052,-4.777 -9.596,-6.393 -3.704,-1.688 -7.863,-0.561 -9.896,2.711 -2.088,3.357 -1.376,7.977 1.889,10.352 8.176,5.951 16.456,11.761 24.674,17.654 1.081,0.774 1.969,0.914 3.096,0.027 1.642,-1.293 3.615,-1.743 5.689,-1.746 5.158,0.039 9.638,3.705 10.767,9.157 1.287,6.213 2.332,12.477 3.48,18.719 0.233,1.272 0.527,2.503 -1.408,2.767 -1.809,0.246 -1.783,-1.017 -1.984,-2.133 -1.13,-6.248 -2.224,-12.504 -3.377,-18.749 -0.836,-4.521 -4.338,-6.965 -8.825,-6.236 -4.214,0.685 -6.804,4.208 -6.028,8.642 2.617,14.974 5.352,29.928 8.012,44.895 0.179,1.008 0.519,1.788 1.377,2.399 11.541,8.198 23.08,16.4 34.581,24.652 1.245,0.894 1.918,0.741 2.771,-0.473 4.374,-6.227 8.788,-12.425 13.251,-18.586 0.947,-1.309 0.864,-2.063 -0.511,-3.005 z" /><path
     style="fill:#fefefe"
     inkscape:connector-curvature="0"
     id="path62"
     d="M 66.715,77.969 C 62.177,73.914 55.6,76.063 54.146,82.145 c -1.477,6.176 -2.803,12.388 -4.245,18.572 -0.234,1.01 -0.108,2.479 -2.019,2.038 -1.776,-0.409 -1.68,-1.517 -1.349,-2.844 0.769,-3.078 1.51,-6.163 2.282,-9.241 0.937,-3.73 1.258,-7.62 2.754,-11.202 2.697,-6.456 10.261,-8.764 16.049,-4.828 1.297,0.882 2.178,0.722 3.35,-0.043 8.308,-5.423 16.651,-10.791 24.964,-16.207 2.338,-1.522 3.452,-3.787 3.69,-6.482 -0.251,-2.9 -1.244,-5.271 -3.901,-6.696 -2.672,-1.435 -5.263,-1.528 -7.893,0.179 C 72.479,55.35 57.13,65.312 41.73,75.192 c -2.152,1.381 -3.51,3.118 -4.365,5.496 -4.791,13.307 -9.682,26.578 -14.479,39.883 -0.52,1.44 -1.268,2.476 -2.572,3.292 -4.163,2.607 -8.219,5.387 -12.408,7.95 -1.819,1.113 -2.373,1.974 -0.994,3.999 4.064,5.97 7.934,12.074 11.788,18.183 0.947,1.502 1.658,1.949 3.344,0.843 11.596,-7.605 23.255,-15.113 34.906,-22.632 1.02,-0.658 1.668,-1.416 1.948,-2.671 3.31,-14.837 6.691,-29.659 10.02,-44.492 0.615,-2.739 -0.06,-5.159 -2.203,-7.074 z" /><path
     style="fill:#fefefe"
     inkscape:connector-curvature="0"
     id="path64"
     d="M 214.402,160.563 H 92.898 c 0.006,1.717 1.237,2.667 1.902,3.866 4.933,8.896 11.577,16.418 19.145,23.128 1.314,1.166 2.659,2.424 4.921,2.412 23.124,-0.116 46.251,-0.076 69.376,-0.059 1.194,0.001 2.094,-0.277 3.092,-1.088 6.158,-4.994 11.485,-10.707 16.108,-17.16 2.524,-3.52 4.668,-7.197 6.96,-11.099 z" /><path
     style="fill:#fefefe"
     inkscape:connector-curvature="0"
     id="path66"
     d="m 217.429,151.729 c 0.689,-0.003 1.101,-0.101 1.436,-0.96 3.829,-9.786 6.301,-19.841 6.295,-30.412 -0.001,-0.519 0.259,-1.291 -0.509,-1.424 -0.344,-0.06 -0.811,0.388 -1.172,0.667 -7.654,5.902 -15.275,11.848 -22.969,17.697 -1.576,1.197 -3.288,1.455 -5.136,0.01 -5.52,-4.317 -11.206,-8.421 -16.708,-12.762 -2.221,-1.753 -3.751,-1.82 -6.079,0.12 -5.376,4.484 -11.11,8.537 -16.688,12.779 -1.555,1.183 -3.126,1.328 -4.706,0.133 -5.665,-4.286 -11.414,-8.469 -16.915,-12.957 -2.032,-1.658 -3.512,-2.101 -5.643,-0.405 -5.043,4.012 -10.199,7.879 -15.281,11.842 -3.59,2.8 -4.828,2.928 -8.223,0.481 -1.846,-1.329 -3.602,-2.783 -5.42,-4.15 -5.797,-4.361 -11.605,-8.707 -17.854,-13.392 -0.09,3.499 0.053,6.318 0.398,9.192 0.864,7.183 2.769,14.055 5.083,20.869 0.724,2.131 1.768,2.744 4.036,2.739 41.439,-0.086 82.879,-0.062 124.319,-0.063 0.578,0 1.158,-0.002 1.736,-0.004 z" /><path
     style="fill:#fefefe"
     inkscape:connector-curvature="0"
     id="path68"
     d="m 219.207,99.627 c -21.875,0.115 -43.752,0.065 -65.629,0.065 -20.431,0 -40.86,0 -61.292,0 -8.026,0 -8.025,0.001 -9.769,7.702 -0.216,0.951 -0.266,1.583 0.789,2.359 8.085,5.95 16.063,12.047 24.083,18.088 1.413,1.064 2.532,0.418 3.758,-0.537 5.755,-4.483 11.564,-8.896 17.361,-13.324 1.721,-1.314 3.552,-1.404 5.269,-0.106 5.821,4.396 11.646,8.792 17.354,13.332 1.728,1.375 2.92,1.399 4.658,0.017 5.709,-4.539 11.541,-8.924 17.35,-13.337 1.621,-1.231 3.446,-1.297 5.047,-0.097 5.837,4.375 11.731,8.689 17.329,13.357 1.973,1.646 3.072,1.408 4.831,0.03 6.485,-5.082 12.952,-10.204 19.653,-14.989 3.46,-2.471 5.166,-4.938 3.521,-9.308 -0.86,-2.284 -1.702,-3.266 -4.313,-3.252 z" /></g>
</svg>
