<?xml version="1.0" encoding="UTF-8" standalone="no"?>
<svg
   xmlns:dc="http://purl.org/dc/elements/1.1/"
   xmlns:cc="http://creativecommons.org/ns#"
   xmlns:rdf="http://www.w3.org/1999/02/22-rdf-syntax-ns#"
   xmlns:svg="http://www.w3.org/2000/svg"
   xmlns="http://www.w3.org/2000/svg"
   xmlns:sodipodi="http://sodipodi.sourceforge.net/DTD/sodipodi-0.dtd"
   xmlns:inkscape="http://www.inkscape.org/namespaces/inkscape"
   version="1.0"
   id="Capa_1"
   x="0px"
   y="0px"
   width="260"
   height="300"
   viewBox="0 0 260 300"
   enable-background="new 0 0 300 300"
   xml:space="preserve"
   sodipodi:docname="b7.svg"
   inkscape:version="1.0 (4035a4fb49, 2020-05-01)"><metadata
   id="metadata41"><rdf:RDF><cc:Work
       rdf:about=""><dc:format>image/svg+xml</dc:format><dc:type
         rdf:resource="http://purl.org/dc/dcmitype/StillImage" /><dc:title></dc:title></cc:Work></rdf:RDF></metadata><defs
   id="defs39">
	
	

		
		
		
		
		
		
		
		
		
		
		
		
		
		
	</defs><sodipodi:namedview
   fit-margin-right="-20"
   fit-margin-left="-20"
   pagecolor="#ffffff"
   bordercolor="#666666"
   borderopacity="1"
   objecttolerance="10"
   gridtolerance="10"
   guidetolerance="10"
   inkscape:pageopacity="0"
   inkscape:pageshadow="2"
   inkscape:window-width="1920"
   inkscape:window-height="1017"
   id="namedview37"
   showgrid="false"
   inkscape:zoom="0.78666667"
   inkscape:cx="130"
   inkscape:cy="143.49526"
   inkscape:window-x="-8"
   inkscape:window-y="-8"
   inkscape:window-maximized="1"
   inkscape:current-layer="Capa_1"
   inkscape:document-rotation="0" />
<rect
   style="opacity:0.996;fill:#18a1bd;fill-opacity:1;stroke-width:1.46017"
   id="rect840"
   width="300"
   height="300"
   x="-20"
   y="0" /><path
   style="fill:#18a1bd;fill-opacity:1"
   inkscape:connector-curvature="0"
   id="path2"
   d="M 222.623,300 H 37.378 C 5.82,300 -20,274.18 -20,242.622 V 57.377 C -20,25.82 5.82,0 37.378,0 H 222.623 C 254.181,0 280,25.82 280,57.377 V 242.622 C 280,274.18 254.181,300 222.623,300" /><g
   id="g907"
   transform="translate(-20,36.738825)"><path
     style="fill:#fefefe"
     inkscape:connector-curvature="0"
     id="path18"
     d="m 222.943,165.128 c 0.031,-1.99 -0.194,-3.809 -1.544,-5.291 -1.152,-1.268 -1.17,-2.757 -0.491,-4 1.463,-2.679 1.728,-5.377 0.814,-8.209 -0.461,-1.431 -1.237,-2.761 -1.67,-4.198 -2.573,-8.562 -5.144,-17.123 -8.275,-25.499 -1.809,-4.836 -7.838,-8.609 -12.903,-8.417 -6.368,0.24 -12.74,0.333 -19.105,0.611 -3.659,0.16 -6.863,1.233 -9.786,3.842 -2.604,2.322 -3.219,5.351 -4.2,8.198 -3.091,8.97 -5.896,18.041 -8.66,27.119 -0.618,2.03 -0.423,4.302 1.428,5.766 1.427,1.127 3.29,1.175 4.876,0.312 2.059,-1.12 2.629,-3.449 3.286,-5.409 2.69,-8.02 5.126,-16.126 7.651,-24.2 0.374,-1.195 1.496,-1.673 2.417,-1.598 0.719,0.059 1.895,0.797 1.347,2.057 -1.22,2.811 -1.225,5.902 -2.109,8.78 -1.494,4.857 -2.766,9.829 -3.771,14.746 -1.458,7.12 -3.559,14.073 -4.992,21.189 -0.329,1.63 -0.162,2.165 1.38,2.187 1.053,0.015 2.121,0.007 3.157,-0.154 2.706,-0.419 3.68,0.299 3.69,2.961 0.022,5.396 0.006,10.792 0.007,16.188 0,4.19 -0.022,8.382 -0.01,12.573 0.004,1.396 0.012,2.794 0.026,4.191 0.029,3.018 2.497,5.32 5.744,5.544 2.206,0.152 5.595,-2.176 5.765,-4.157 0.295,-3.415 0.506,-6.936 0.303,-10.265 -0.494,-8.116 0.117,-16.214 -0.266,-24.308 -0.076,-1.613 0.892,-2.226 2.266,-2.221 1.201,0.005 2.332,-0.212 2.504,1.91 0.184,2.268 0.433,4.536 0.435,6.819 0.007,8.865 -0.004,17.729 0.006,26.593 0.004,3.235 2.913,6.045 6.148,5.974 2.6,-0.06 5.408,-3.125 5.409,-5.948 0.008,-10.984 0.035,-21.969 -0.025,-32.952 -0.011,-1.91 0.473,-2.761 2.583,-2.777 5.611,-0.047 5.615,-0.138 4.949,-5.67 -0.056,-0.463 -0.216,-0.917 -0.357,-1.366 -1.637,-5.183 -2.707,-10.514 -4.143,-15.753 -2.016,-7.353 -3.393,-14.88 -5.066,-22.327 -0.328,-1.457 -0.738,-2.952 1.217,-3.503 1.946,-0.548 1.789,1.396 2.091,2.264 1.818,5.236 3.358,10.57 5.145,15.819 1.27,3.73 1.358,8.09 4.075,11.046 2.406,2.618 3.641,4.631 0.789,7.509 -0.272,0.275 -0.097,0.945 -0.28,1.364 -1.237,2.814 0.682,5.688 -0.088,8.421 -1.351,4.801 0.07,9.569 -0.095,14.354 -0.08,2.347 1.94,3.737 4.362,3.443 2.469,-0.299 3.898,-1.923 3.916,-4.479 0.039,-6.361 -0.054,-12.722 0.05,-19.079 z" /><path
     style="fill:#fefefe"
     inkscape:connector-curvature="0"
     id="path20"
     d="m 146.5,149.405 c -1.586,-5.309 -3.312,-10.577 -5.036,-15.846 -1.545,-4.721 -3.028,-9.47 -4.79,-14.11 -1.443,-3.804 -5.136,-8.256 -10.568,-8.956 -3.9,-0.503 -7.579,0.271 -11.359,0.242 -5.219,-0.043 -10.44,-0.538 -15.658,-0.053 -3.147,0.292 -5.927,1.075 -8.44,3.415 -2.537,2.362 -3.656,5.326 -4.679,8.274 -3.073,8.857 -5.817,17.831 -8.632,26.778 -0.75,2.385 0.003,4.494 2.185,5.649 1.506,0.798 3.441,1.06 4.679,-0.628 0.876,-1.197 1.817,-2.382 2.266,-3.903 1.702,-5.779 3.467,-11.541 5.309,-17.277 0.805,-2.507 1.837,-4.939 2.8,-7.394 0.381,-0.973 1.215,-1.148 2.146,-1.004 0.761,0.118 1.467,0.708 1.197,1.327 -0.912,2.1 0.147,4.089 0.141,6.128 -0.086,24.568 -0.034,49.137 -0.089,73.706 -0.005,2.447 0.683,4.474 2.913,5.389 1.243,0.51 2.852,0.165 4.295,0.143 3.127,-0.046 4.323,-1.222 4.384,-4.314 0.055,-2.811 0.239,-5.598 0.112,-8.443 -0.549,-12.292 0.9,-24.578 0.476,-36.885 -0.014,-0.385 -0.036,-0.781 0.042,-1.153 0.226,-1.069 1.031,-1.242 1.973,-1.243 0.942,-0.001 1.793,0.161 1.972,1.234 0.126,0.751 0.057,1.537 0.057,2.308 0.001,14.163 0.008,28.326 -0.004,42.49 -0.002,2.63 0.473,4.959 3.346,5.949 5.337,1.839 9.355,-0.947 9.37,-6.904 0.033,-12.814 0.011,-25.629 0.011,-38.443 0,-12.911 -0.003,-25.821 0.005,-38.732 0,-0.839 -0.283,-2.001 0.72,-2.264 0.726,-0.189 1.758,0.273 2.051,1.217 1.227,3.948 2.308,7.943 3.604,11.868 1.62,4.902 3.342,9.775 5.138,14.616 0.812,2.187 2.645,3.049 4.854,2.476 2.15,-0.559 3.847,-3.523 3.209,-5.657 z" /><path
     style="fill:#fefefe"
     inkscape:connector-curvature="0"
     id="path22"
     d="m 105.93,47.615 c 2.094,0.344 4.03,0.915 4.575,3.173 0.296,1.228 0.71,2.35 1.382,3.345 1.266,1.876 1.133,3.608 -0.109,5.413 -0.479,0.697 -0.712,1.559 -1.165,2.278 -1.392,2.216 0.93,2.758 1.771,3.923 0.936,1.293 2.518,1.539 3.532,0.567 2.618,-2.509 5.005,-2.787 8.346,-1.066 2.505,1.29 5.637,1.282 5.19,5.326 -0.069,0.634 0.607,1.36 0.968,2.028 0.993,1.845 2.739,0.841 4.153,1.046 1.013,0.147 1.915,-0.081 2.164,-1.331 0.797,-3.987 2.35,-7.298 7.052,-7.747 0.151,-0.015 0.266,-0.276 0.427,-0.374 1.648,-0.998 3.059,-1.29 4.948,0.013 3.805,2.622 3.838,2.37 6.763,-0.706 2.118,-2.228 -0.262,-3.642 -0.881,-5.146 -1.891,-4.593 0.605,-10.922 5.395,-11.711 3.34,-0.551 3.702,-2.278 3.498,-4.94 -0.205,-2.673 -2.061,-3.195 -4.173,-3.279 -1.569,-0.063 -3.177,-0.594 -3.622,-1.887 -1.256,-3.645 -3.369,-7.361 -0.412,-11.258 0.647,-0.852 1.15,-1.998 0.261,-3.172 -2.267,-2.989 -3.921,-3.443 -7.255,-1.194 -3.355,2.263 -12.086,-1.18 -11.985,-6.104 0.033,-1.624 0.125,-3.242 -2.272,-3.013 -2.369,0.228 -5.76,-1.091 -6.043,2.802 -0.258,3.537 -2.023,5.369 -5.055,6.385 -0.669,0.225 -1.225,0.465 -1.696,0.963 -1.028,1.088 -1.99,1.025 -3.286,0.217 -1.481,-0.923 -2.837,-2.256 -5.173,-2.342 -1.625,0.342 -2.325,2.24 -3.562,3.432 -0.804,0.776 -0.941,1.887 0.13,3.013 2.073,2.178 3.219,4.64 0.952,7.468 -0.283,0.355 -0.602,0.891 -0.538,1.283 0.591,3.664 -2.206,4.088 -4.56,4.467 -3.204,0.515 -3.786,2.268 -3.674,5.162 0.113,2.951 2.212,2.68 3.954,2.966 z m 26.996,-20.631 c 8.901,-0.389 16.736,7.009 16.652,16.668 C 149.5,52.557 141.759,60.11 132.62,59.694 123.897,59.297 116.976,53.762 117.084,43.226 116.82,32.52 124.789,27.34 132.926,26.984 Z" /><path
     style="fill:#fefefe"
     inkscape:connector-curvature="0"
     id="path24"
     d="m 163.169,51.727 c -1.29,0.041 -3.062,-0.778 -3.62,1.25 -0.483,1.753 -0.572,3.272 1.274,4.708 3,2.333 2.86,4.682 0.22,7.344 -0.956,0.963 -1.791,2.032 -1.144,3.652 0.675,1.688 1.759,2.163 3.528,2.142 5.127,-0.067 5.22,0.027 5.671,5.1 0.18,2.014 1.593,2.597 3.034,3.315 1.331,0.663 1.956,-0.376 2.631,-1.118 3.333,-3.664 4.17,-3.782 7.757,-0.56 1.28,1.149 2.312,1.058 3.747,0.283 1.481,-0.801 2.16,-1.785 1.918,-3.426 -0.527,-3.556 0.91,-5.369 4.342,-5.356 1.593,0.006 2.956,-0.027 3.791,-1.814 0.92,-1.974 0.107,-3.104 -1.254,-4.404 -3.291,-3.14 -3.243,-4.051 -0.073,-7.234 0.204,-0.204 0.382,-0.446 0.616,-0.606 1.646,-1.123 1.168,-2.309 0.158,-3.556 -0.91,-1.122 -1.994,-1.542 -3.49,-1.524 -4.404,0.051 -5.305,-0.932 -5.524,-5.323 0.007,-1.317 -0.571,-2.09 -1.749,-2.666 -2.444,-1.196 -3.869,0.078 -5.265,1.789 -1.709,2.096 -3.93,2.217 -5.755,0.296 -0.374,-0.394 -0.799,-0.783 -1.105,-1.171 -1.604,-2.027 -2.956,-0.259 -4.23,0.285 -1.25,0.535 -1.413,1.819 -1.096,3.159 0.818,3.445 -0.774,5.32 -4.382,5.435 z m 14.554,1.705 c 4.285,-0.758 7.254,3.421 7.537,6.896 0.273,3.371 -3.862,7.627 -7.154,7.536 -4.301,-0.118 -7.351,-3.308 -7.267,-7.452 0.088,-4.274 2.664,-6.975 6.884,-6.98 z" /><path
     style="fill:#fefefe"
     inkscape:connector-curvature="0"
     id="path26"
     d="m 98.624,95.596 c 1.374,0.273 1.663,0.963 1.708,2.172 0.123,3.353 1.456,6.101 4.186,8.154 3.172,2.388 6.665,3.429 10.27,1.47 3.368,-1.83 6.122,-4.451 6.33,-8.71 0.066,-1.391 0.336,-2.458 1.643,-3.347 1.584,-1.077 2.166,-2.551 -0.032,-3.769 -0.77,-0.426 -1.173,-1.056 -0.997,-1.879 0.683,-3.216 -1.877,-4.978 -3.208,-7.284 -0.396,-0.686 -1.118,-0.676 -1.802,-0.604 -1.039,0.108 -0.749,0.945 -0.78,1.553 -0.069,1.345 0.213,2.821 -1.751,3.68 0,-2.093 0.097,-3.917 -0.022,-5.728 -0.191,-2.903 -2.48,-2.66 -4.303,-2.377 -5.548,0.861 -2.018,5.543 -3.761,8.638 -0.648,-1.836 -1.238,-3.374 -1.729,-4.944 -0.31,-0.99 -0.728,-1.813 -1.62,-0.621 -1.402,1.874 -3.048,3.612 -3.62,6.028 -0.349,1.47 -0.504,2.914 -1.81,4.2 -1.156,1.136 -0.691,2.972 1.298,3.368 z" /><path
     style="fill:#fefefe"
     inkscape:connector-curvature="0"
     id="path28"
     d="m 178.407,96.564 c 0.127,5.374 5.888,10.65 11.619,10.645 5.685,-0.007 10.323,-4.779 10.326,-10.625 0.767,-5.124 -4.949,-10.892 -10.788,-10.781 -5.912,0.112 -11.289,5.25 -11.157,10.761 z" /><path
     style="fill:#fefefe"
     inkscape:connector-curvature="0"
     id="path30"
     d="m 132.262,52.274 c 6.258,0.031 10.036,-3.34 10.136,-8.768 0.097,-5.284 -2.673,-9.138 -9.482,-9.7 -4.89,-0.404 -8.535,3.623 -8.952,8.976 -0.493,6.332 4.34,9.347 8.298,9.492 z m 0.409,-12.68 c 1.925,0.182 3.491,1.191 3.996,3.104 0.371,1.407 -2.378,4.239 -3.79,4.3 -2.161,-0.367 -3.107,-1.865 -3.52,-3.694 -0.297,-1.327 1.953,-3.837 3.314,-3.71 z" /></g>
</svg>
