<?xml version="1.0" encoding="UTF-8" standalone="no"?>
<svg
   xmlns:dc="http://purl.org/dc/elements/1.1/"
   xmlns:cc="http://creativecommons.org/ns#"
   xmlns:rdf="http://www.w3.org/1999/02/22-rdf-syntax-ns#"
   xmlns:svg="http://www.w3.org/2000/svg"
   xmlns="http://www.w3.org/2000/svg"
   xmlns:sodipodi="http://sodipodi.sourceforge.net/DTD/sodipodi-0.dtd"
   xmlns:inkscape="http://www.inkscape.org/namespaces/inkscape"
   version="1.0"
   id="Capa_1"
   x="0px"
   y="0px"
   width="260"
   height="300"
   viewBox="0 0 260 300"
   enable-background="new 0 0 300 300"
   xml:space="preserve"
   sodipodi:docname="b9.svg"
   inkscape:version="1.0 (4035a4fb49, 2020-05-01)"><metadata
   id="metadata41"><rdf:RDF><cc:Work
       rdf:about=""><dc:format>image/svg+xml</dc:format><dc:type
         rdf:resource="http://purl.org/dc/dcmitype/StillImage" /><dc:title></dc:title></cc:Work></rdf:RDF></metadata><defs
   id="defs39">
	
	

		
		
		
		
		
		
		
		
		
		
		
		
		
		
	</defs><sodipodi:namedview
   fit-margin-bottom="0"
   fit-margin-top="0"
   fit-margin-right="-20"
   fit-margin-left="-20"
   pagecolor="#ffffff"
   bordercolor="#666666"
   borderopacity="1"
   objecttolerance="10"
   gridtolerance="10"
   guidetolerance="10"
   inkscape:pageopacity="0"
   inkscape:pageshadow="2"
   inkscape:window-width="1920"
   inkscape:window-height="1017"
   id="namedview37"
   showgrid="false"
   inkscape:zoom="0.78666667"
   inkscape:cx="130"
   inkscape:cy="143.49526"
   inkscape:window-x="-8"
   inkscape:window-y="-8"
   inkscape:window-maximized="1"
   inkscape:current-layer="Capa_1"
   inkscape:document-rotation="0" />
<rect
   style="opacity:0.996;fill:#c72cc7;fill-opacity:1;stroke-width:1.46017"
   id="rect840"
   width="300"
   height="300"
   x="-20"
   y="0" />
<g
   transform="matrix(0.84386627,0,0,0.84386627,3.4194414,49.071143)"
   id="g54"><path
     fill="#fefefe"
     d="m 155.148,111.271 c 3.98,0.055 5.958,2.082 5.962,5.991 0.011,9.15 0.05,18.301 -0.035,27.45 -0.018,1.833 0.416,2.458 2.364,2.441 11.076,-0.094 22.153,-0.021 33.229,-0.06 4.009,-0.013 5.495,-1.573 5.498,-5.546 0.007,-8.862 0.001,-17.724 0.001,-26.584 0,-4.479 -0.006,-8.958 -0.005,-13.437 0,-4.479 0.006,-8.957 0.03,-13.436 0.008,-1.332 -0.242,-2.364 -1.287,-3.292 -4.211,-3.738 -8.329,-7.581 -12.542,-11.317 -8.048,-7.14 -16.153,-14.218 -24.205,-21.354 -4.07,-3.606 -8.061,-7.303 -12.124,-10.917 -1.045,-0.931 -2.003,-1.352 -3.362,-0.013 -2.43,2.393 -5.139,4.509 -7.771,6.693 -7.736,6.416 -15.503,12.798 -23.238,19.216 -6.936,5.755 -13.842,11.546 -20.771,17.31 -1.163,0.967 -1.805,2.014 -1.748,3.674 0.145,4.232 0.048,8.473 0.048,12.71 0,13.678 -0.009,27.354 0.005,41.031 0.005,4.186 1.023,5.271 4.872,5.272 11.172,0.01 22.346,-0.057 33.518,0.056 2.147,0.022 2.746,-0.51 2.714,-2.692 -0.13,-9.149 -0.072,-18.3 -0.047,-27.45 0.011,-4.219 1.473,-5.717 5.601,-5.752 4.432,-0.038 8.863,-0.055 13.293,0.006"
     id="path42" /><path
     fill="#fefefe"
     d="m 202.167,141.548 c 0.006,-8.861 0.002,-17.722 0.002,-26.585 0,-4.479 -0.005,-8.956 -0.005,-13.436 0,4.479 0.005,8.957 0.005,13.436 0,8.863 0.004,17.724 -0.002,26.585"
     id="path44" /><path
     fill="#fafefd"
     d="m 211.983,179.114 c 0.025,13.879 0.064,27.756 -0.035,41.634 -0.016,2.085 0.827,2.336 2.539,2.321 7.324,-0.062 14.65,-0.102 21.973,0.022 2.121,0.036 2.562,-0.742 2.519,-2.668 -0.114,-5.01 0.004,-10.022 -0.063,-15.033 -0.021,-1.53 0.402,-2.736 1.335,-3.961 8.395,-11.018 16.663,-22.131 25.125,-33.096 2.256,-2.922 3.16,-6.011 3.126,-9.605 -0.076,-8.19 -0.024,-16.383 -0.024,-24.575 0,-8.191 0.02,-16.384 -0.018,-24.575 -0.007,-1.528 -0.145,-3.073 -0.389,-4.582 -0.643,-3.975 -4.058,-6.777 -7.876,-6.564 -3.959,0.219 -7.36,3.421 -7.41,7.477 -0.125,10.214 -0.029,20.431 -0.066,30.646 -0.004,1.27 0.537,1.817 1.665,2.304 7.32,3.151 9.174,11.586 3.729,17.613 -4.317,4.779 -8.931,9.293 -13.409,13.927 -0.908,0.94 -1.657,1.784 -3.013,0.347 -1.318,-1.397 -0.228,-2.003 0.539,-2.792 4.433,-4.554 8.886,-9.089 13.315,-13.646 3.228,-3.322 3.264,-7.631 0.121,-10.792 -3.122,-3.143 -7.522,-3.149 -10.763,0.146 -10.598,10.773 -21.133,21.608 -31.735,32.377 -0.905,0.919 -1.187,1.855 -1.185,3.075"
     id="path46" /><path
     fill="#fafefd"
     d="m 31.499,104.282 c 0.207,18.11 0.124,36.225 0.057,54.338 -0.01,2.549 0.704,4.624 2.243,6.643 8.509,11.167 16.904,22.419 25.423,33.577 1.136,1.486 1.574,2.94 1.543,4.758 -0.083,4.913 0.017,9.828 -0.053,14.741 -0.024,1.627 0.305,2.443 2.202,2.42 7.514,-0.091 15.03,-0.087 22.544,-0.002 1.813,0.021 2.273,-0.622 2.253,-2.343 -0.021,-1.733 -0.033,-3.468 -0.04,-5.201 -0.021,-5.203 0.006,-10.405 0.006,-15.609 0,-6.84 -0.014,-13.68 0.012,-20.521 0.005,-1.29 -0.174,-2.345 -1.18,-3.369 -6.532,-6.665 -12.952,-13.44 -19.468,-20.123 -4.032,-4.136 -8.154,-8.185 -12.268,-12.24 -0.674,-0.665 -1.443,-1.303 -2.285,-1.718 -3.3,-1.627 -7.249,-0.485 -9.44,2.636 -2.145,3.055 -1.783,6.72 1.096,9.718 4.4,4.581 8.883,9.081 13.282,13.664 0.677,0.706 2.188,1.316 0.74,2.756 -1.352,1.342 -2.264,0.734 -3.292,-0.404 -2.059,-2.28 -4.188,-4.499 -6.291,-6.741 -2.631,-2.804 -5.691,-5.213 -7.949,-8.358 -4.152,-5.783 -1.995,-13.584 4.556,-16.297 1.448,-0.602 1.776,-1.422 1.771,-2.825 -0.041,-9.923 0.034,-19.847 -0.048,-29.771 -0.038,-4.534 -3.564,-7.978 -7.87,-7.906 -4.592,0.073 -7.587,4.416 -7.544,8.177"
     id="path48" /><path
     fill="#fefefe"
     d="m 76.643,83.773 c 2.293,2.114 6.132,2.7 9.028,1.347 4.547,-2.124 8.016,-5.683 11.787,-8.829 4.384,-3.656 8.636,-7.468 13.001,-11.146 6.822,-5.749 13.703,-11.427 20.534,-17.162 6.257,-5.254 12.502,-10.521 18.697,-15.847 0.908,-0.78 1.352,-0.589 2.124,0.107 5.17,4.657 10.405,9.242 15.582,13.893 4.404,3.957 8.724,8.011 13.146,11.95 8.253,7.352 16.611,14.585 24.805,22.002 3.418,3.094 7.022,5.447 11.842,5.305 2.146,0.144 4.031,-0.735 5.536,-2.145 1.033,-0.967 1.187,-2.21 -0.193,-3.415 -6.82,-5.954 -13.635,-11.916 -20.324,-18.017 -5.853,-5.338 -11.713,-10.663 -17.627,-15.934 -9.418,-8.39 -18.708,-16.927 -27.898,-25.565 -5.959,-5.602 -6.022,-5.622 -12.001,0.045 -5.328,5.049 -10.895,9.848 -16.401,14.706 -7.711,6.803 -15.472,13.549 -23.196,20.338 -3.797,3.337 -7.54,6.735 -11.34,10.068 -5.723,5.021 -11.461,10.021 -17.222,14.996 -1.417,1.222 -1.101,2.178 0.12,3.303"
     id="path50" /><path
     fill="#fefefe"
     d="m 191.164,47.059 c -0.009,1.041 0.246,1.827 1.068,2.498 4.529,3.694 9.035,7.416 13.984,11.487 0,-10.012 -0.035,-19.437 0.033,-28.861 0.011,-1.575 -0.55,-1.94 -2.002,-1.907 -3.654,0.084 -7.312,0.1 -10.964,-0.006 -1.6,-0.045 -2.172,0.39 -2.137,2.072 0.106,4.904 0.062,9.811 0.018,14.717"
     id="path52" /></g></svg>
