<?xml version="1.0" encoding="utf-8"?>
<!-- Generator: Adobe Illustrator 16.0.0, SVG Export Plug-In . SVG Version: 6.00 Build 0)  -->
<!DOCTYPE svg PUBLIC "-//W3C//DTD SVG 1.0//EN" "http://www.w3.org/TR/2001/REC-SVG-20010904/DTD/svg10.dtd">
<svg version="1.0" id="Capa_1" xmlns="http://www.w3.org/2000/svg" xmlns:xlink="http://www.w3.org/1999/xlink" x="0px" y="0px"
	 width="300px" height="300px" viewBox="0 0 300 300" enable-background="new 0 0 300 300" xml:space="preserve">
<g>
	<path fill="#208DF4" d="M242.516,299.827H57.484c-31.521,0-57.312-25.79-57.312-57.312V57.483
		c0-31.521,25.791-57.311,57.312-57.311h185.031c31.521,0,57.312,25.79,57.312,57.311v185.032
		C299.828,274.037,274.037,299.827,242.516,299.827"/>
	<g>
		<g>
			<g opacity="0.4">
				<path fill="#FFFFFF" d="M223.615,92.93c-0.621-0.423-1.264-0.82-1.908-1.219c-0.26-0.159-0.518-0.32-0.773-0.482
					c-0.514-0.324-1.021-0.656-1.516-1.009c-0.246-0.177-0.488-0.357-0.727-0.545c-0.412-0.326-0.811-0.671-1.186-1.046
					c-0.377-0.374-0.729-0.778-1.049-1.222c-1.287-0.165-2.316-0.867-3.361-1.563c-0.529-0.353-1.207-1.104-1.77-0.45
					c-2.186,2.538-3.436,0.018-4.688-0.972c-0.547-0.434-0.688-0.872-0.623-1.305c0.391-0.643,0.768-1.294,1.125-1.956
					c0.057-0.084,0.107-0.166,0.15-0.247c2.062-3.849,3.51-7.832,4.354-11.907c0.686-3.16,1.057-6.438,1.057-9.804
					c0-25.448-20.631-46.078-46.08-46.078c-25.184,0-45.637,20.208-46.059,45.291c-0.127,0.555-0.199,1.138-0.178,1.773
					c0.402,11.61,4.307,21.534,11.785,29.598c8.439,9.502,20.744,15.495,34.451,15.495c11.482,0,21.977-4.21,30.043-11.157
					c1.293-1.038,2.533-2.174,3.707-3.438c0.795-0.856,1.619-0.45,2.297,0.114c0.896,0.748,2.949,1.145,2.35,2.446
					c-1.078,2.342,0.609,2.752,1.775,3.75c2.516,2.15,5.863,3.275,7.701,6.254c1.398-0.058,2.639,0.511,3.801,1.145
					c1.674,0.912,2.604,0.456,3.299-1.245c0.904-2.208,1.852-4.415,2.998-6.504C225.523,94.95,225.211,94.013,223.615,92.93z
					 M166.713,98.022c-21.449,0-38.836-17.388-38.836-38.836s17.387-38.835,38.836-38.835s38.836,17.387,38.836,38.835
					S188.162,98.022,166.713,98.022z"/>
				<path fill="#FFFFFF" d="M281.492,133.445c-0.877-0.652-1.857-1.178-2.775-1.782c-0.229-0.151-0.455-0.308-0.674-0.472
					c-0.438-0.329-0.852-0.69-1.217-1.11c-0.184-0.21-0.354-0.436-0.512-0.679c-3.826,0.827-7.684,1.534-11.465,2.53
					c-1.979,0.521-4.229,0.321-5.879,1.888c4.336,4.265,9.66,7.208,14.48,10.824c1.053,0.789,1.781,0.13,2.422-0.684
					c2.025-2.57,4.016-5.167,6.086-7.699C282.939,135.061,282.668,134.321,281.492,133.445z"/>
			</g>
			<g>
				<path fill="#FFFFFF" d="M82.186,200.394c4.266-1.079,8.711-1.445,13.072-2.161c2.039-0.335,3.883-0.105,5.799,0.886
					c7.346,3.797,14.809,7.371,22.16,11.16c2.092,1.079,3.939,1.301,6.26,0.603c16.662-5.016,33.365-9.887,50.064-14.782
					c6.002-1.76,5.934-1.729,5.562-7.904c-0.117-1.939-0.791-1.979-2.291-1.384c-2.77,1.097-5.59,2.069-8.387,3.1
					c-13.262,4.887-26.516,9.789-39.795,14.63c-0.891,0.325-1.861,1.312-2.916,0.324c-2.016-1.883-1.451-4.985,1.062-5.948
					c18.494-7.088,36.99-14.175,55.484-21.258c3.926-1.504,3.928-1.498,3.301-5.645c-0.529-3.5-0.531-3.506-3.734-2.187
					c-18.848,7.764-37.689,15.542-56.555,23.259c-1.018,0.415-2.365,1.886-3.287-0.35c-1.426-3.453-1.246-4.525,1.174-5.49
					c3.305-1.318,6.617-2.613,9.928-3.915c17.896-7.036,35.795-14.067,53.688-21.113c2.27-0.894,2.898-3.382,1.406-6.77
					c-1.025-2.328-2.531-0.272-3.535,0.137c-20.65,8.434-41.25,16.989-61.896,25.438c-1.066,0.437-2.754,2.457-3.588-0.339
					c-0.555-1.858-2.385-3.766,1.135-5.21c6.574-2.698,12.928-5.938,19.373-8.956c16.721-7.831,33.416-15.715,50.189-23.43
					c2.268-1.044,2.814-2.114,1.955-4.348c-0.652-1.695-1.145-3.491-1.414-5.286c-0.412-2.771-1.33-3.289-4.072-2.073
					c-23.203,10.297-46.498,20.384-69.703,30.676c-2.402,1.065-3.635,0.675-5.297-1.202c-8.484-9.585-17.113-19.041-25.707-28.528
					c-4.602-5.08-4.564-5.007-9.863-0.618c-1.58,1.31-1.961,2.402-1.145,4.372c3.424,8.261,6.67,16.594,9.973,24.903
					c1.244,3.13,1.234,3.193-1.967,3.197c-27.996,0.037-55.971,2.206-83.986,0.77c-2.275-0.117-4.451-0.669-4.633-2.327v58.793
					c0-8.269,1.451-8.068,9.58-9.22c14.531-2.06,29.025-4.365,43.529-6.61C62.84,204.08,72.605,202.814,82.186,200.394z"/>
				<path fill="#FFFFFF" d="M300,100.529c-8.441,1.358-18.537,2.853-26.953,4.367c-1.99,0.358-3.701,0.016-5.516-0.899
					c-11.324-5.716-22.699-11.33-34.062-16.972c-1.109-0.552-2.166-1.159-3.529-1.012c-1.1,0.119-2.199,0.232-3.299,0.343
					c-3.299,0.327-6.604,0.62-9.904,0.934c0.32,0.443,0.672,0.847,1.047,1.222s0.773,0.72,1.188,1.046
					c0.236,0.187,0.479,0.368,0.727,0.545c0.492,0.352,1,0.685,1.514,1.009c0.258,0.162,0.516,0.323,0.773,0.482
					c0.645,0.398,1.289,0.796,1.91,1.218c1.594,1.084,1.908,2.021,0.977,3.718c-1.146,2.088-2.096,4.296-2.998,6.504
					c-0.697,1.701-1.625,2.157-3.299,1.245c-1.164-0.634-2.402-1.202-3.801-1.145c-1.572,1.938-3.061,3.951-4.744,5.788
					c-1.236,1.35-1.041,2.371-0.037,3.751c3.33,4.578,5.803,10.135,10.01,13.621c3.953,3.276,9.688,4.403,14.641,6.476
					c1.238,0.518,2.543,0.919,3.709,1.568c3.57,1.988,7.146,2.015,11.066,0.934c3.176-0.875,6.369-2.177,9.816-1.712
					c1.65-1.566,3.9-1.367,5.877-1.888c3.783-0.996,7.641-1.703,11.467-2.529c0.195-0.081,0.391-0.152,0.588-0.215
					c1.379-0.438,2.805-0.45,4.242-0.277c5.252,0.627,13.326,1.386,18.592,1.847c0.559,0.049-0.389,0.137,0,0.266v-30.286
					C299.916,100.494,300.094,100.515,300,100.529z"/>
				<polygon fill="#FFFFFF" points="134.953,25.741 134.953,10.418 122.537,23.896 128.326,33.592 				"/>
				<path fill="#FFFFFF" d="M177.531,21.334c0,0.001,0.002,0.002,0.002,0.003C177.543,21.338,177.545,21.338,177.531,21.334z"/>
				<path fill="#FFFFFF" d="M173.797,52.215c1.01,1.626,1.703,1.628,2.957,0.263c3.18-3.467,6.41-6.894,9.76-10.193
					c1.412-1.39,1.582-2.446,0.547-4.188c-3.283-5.523-6.367-11.164-9.527-16.759c-0.209-0.022-5.66-1.076-5.66-1.076
					c-2.037,5.382-4.027,10.78-6.143,16.132c-0.584,1.482-0.574,2.663,0.344,4.014C168.721,44.295,171.316,48.22,173.797,52.215z"/>
				<path fill="#FFFFFF" d="M118.703,145.811c0.816,1.231,1.713,1.583,3.133,1.275c11.828-2.575,23.66-5.116,35.502-7.627
					c1.418-0.301,2.322-0.99,3.09-2.249c6.506-10.671,13.221-22.41,18.705-33.651c-1.094,0.294-1.992,0.446-2.844,0.608
					c-14.217,2.714-27.092-0.254-38.553-9.143C127.209,86.861,121,74.075,120.559,63.021c-0.15-3.742,0.621-7.893,0.662-11.642
					c-0.02-0.159-0.912-2.759-0.932-2.929c-0.012-0.085-0.021-0.173-0.033-0.265c-0.023-0.185-0.049-0.385-0.074-0.614
					c-0.043-0.343-0.094-0.75-0.156-1.258c-3.033,4.721-5.623,8.964-8.445,13.048c-1.27,1.837-1.408,3.198-0.084,5.116
					c2.84,4.11,5.023,8.716,8.154,12.568c3.674,4.526,3.691,8.356,0.156,12.893c-2.355,3.021-3.975,6.615-6.176,10.384
					c-4.994-8.724-9.66-16.874-14.393-25.138c-0.322,0.419-0.578,0.617-0.652,0.869c-2.568,8.656-5.115,17.319-7.678,25.977
					c-0.332,1.12,0,2.031,0.625,2.967C100.607,118.589,109.674,132.187,118.703,145.811z"/>
				<path fill="#FFFFFF" d="M143.873,68.475c0.574,1.526,0.586,2.897,0.021,4.439c-1.615,4.419-3.098,8.887-4.635,13.336
					c0.23,1.363,1.279,2.072,2.25,2.863c8.486,6.917,18.352,9.461,29.057,8.64c1.332-0.103,2.664-0.243,3.984-0.455
					c0.924-0.147,1.842-0.332,2.748-0.558c0.152-0.038,0.303-0.078,0.453-0.118c0.451-0.121,0.898-0.254,1.344-0.398
					c0.217-0.07,0.43-0.144,0.643-0.22c1.547-0.553,3.041-1.268,4.455-2.201c0.473-0.312,0.936-0.647,1.387-1.01
					c0.016-0.013,0.031-0.022,0.047-0.035c1.074-2.042,2.053-4.142,3.248-6.108c0.988-1.621,0.879-2.857-0.281-4.404
					c-3.926-5.229-7.682-10.582-11.533-15.865c-0.4-0.55-0.574-1.484-1.713-1.357c-0.43,6.814-0.848,13.607-1.301,20.397
					c-0.066,0.995,0.244,2.119-0.992,2.783c-4.537,2.436-9.045,4.923-14.082,7.674c0.377-1.51,0.57-2.421,0.83-3.312
					c1.91-6.548,3.77-13.111,5.793-19.623c0.592-1.903,0.418-3.442-0.551-5.172c-6.061-10.815-12.029-21.681-18.037-32.527
					c-0.311-0.562-0.461-1.258-1.424-1.65c-1.787,5.281-3.389,10.605-5.412,15.764c-1.201,3.064-1.275,5.789,0.008,8.813
					C141.605,61.521,142.586,65.06,143.873,68.475z"/>
				<path fill="#FFFFFF" d="M137.193,84.421l1.326-9.586c0,0-4.141-3.907-10.09-9.088C128.746,72.517,134.26,80.525,137.193,84.421z
					"/>
				<path fill="#FFFFFF" d="M51.607,232.147c0-1.311-0.318-2.38-0.955-3.207s-1.428-1.365-2.371-1.613
					c-0.613-0.164-1.932-0.246-3.953-0.246H38.99v16.47h3.326v-6.212h2.168c1.506,0,2.656-0.079,3.449-0.237
					c0.584-0.126,1.158-0.387,1.725-0.78c0.564-0.394,1.031-0.935,1.398-1.623C51.424,234.009,51.607,233.158,51.607,232.147z
					 M47.805,233.473c-0.252,0.368-0.598,0.638-1.039,0.81c-0.443,0.172-1.318,0.259-2.631,0.259h-1.818v-4.674h1.605
					c1.199,0,1.996,0.037,2.395,0.111c0.537,0.098,0.984,0.341,1.336,0.731c0.352,0.39,0.527,0.883,0.527,1.482
					C48.18,232.68,48.055,233.105,47.805,233.473z"/>
				<path fill="#FFFFFF" d="M50.955,243.551h3.529l1.359-3.741h6.582l1.439,3.741h3.617l-6.596-16.47h-3.516L50.955,243.551z
					 M61.359,237.035h-4.494l2.225-6.112L61.359,237.035z"/>
				<path fill="#FFFFFF" d="M82.053,240.338c-0.793-1.28-1.424-2.172-1.893-2.674s-1.062-0.963-1.781-1.382
					c1.445-0.21,2.533-0.718,3.258-1.522c0.727-0.805,1.09-1.826,1.09-3.062c0-0.974-0.238-1.838-0.719-2.596
					c-0.479-0.756-1.117-1.282-1.916-1.577c-0.797-0.297-2.076-0.445-3.836-0.445h-7v16.471h3.326v-6.875h0.674
					c0.764,0,1.322,0.061,1.674,0.185c0.354,0.124,0.686,0.353,1,0.686c0.314,0.334,0.9,1.141,1.754,2.421l2.404,3.584h3.977
					L82.053,240.338z M75.043,234.046h-2.461v-4.179h2.596c1.348,0,2.156,0.019,2.426,0.056c0.541,0.091,0.957,0.306,1.254,0.646
					c0.295,0.341,0.443,0.788,0.443,1.343c0,0.494-0.111,0.906-0.336,1.235c-0.225,0.33-0.537,0.562-0.934,0.696
					C77.635,233.979,76.639,234.046,75.043,234.046z"/>
				<polygon fill="#FFFFFF" points="84.682,229.867 89.57,229.867 89.57,243.551 92.895,243.551 92.895,229.867 97.771,229.867 
					97.771,227.08 84.682,227.08 				"/>
				<rect x="99.816" y="227.08" fill="#FFFFFF" width="3.324" height="16.471"/>
				<path fill="#FFFFFF" d="M113.264,229.643c0.883,0,1.635,0.247,2.252,0.741c0.619,0.494,1.025,1.169,1.219,2.022l3.291-0.787
					c-0.373-1.317-0.936-2.328-1.684-3.033c-1.258-1.19-2.895-1.786-4.91-1.786c-2.307,0-4.168,0.759-5.584,2.275
					c-1.414,1.517-2.123,3.645-2.123,6.387c0,2.592,0.705,4.635,2.111,6.129c1.408,1.494,3.207,2.241,5.395,2.241
					c1.766,0,3.225-0.436,4.375-1.31c1.15-0.872,1.973-2.207,2.467-4.005l-3.225-1.021c-0.277,1.205-0.734,2.089-1.371,2.651
					c-0.637,0.562-1.396,0.842-2.281,0.842c-1.197,0-2.172-0.442-2.92-1.325c-0.75-0.884-1.123-2.367-1.123-4.449
					c0-1.963,0.379-3.382,1.139-4.258C111.053,230.08,112.043,229.643,113.264,229.643z"/>
				<rect x="122.824" y="227.08" fill="#FFFFFF" width="3.326" height="16.471"/>
				<path fill="#FFFFFF" d="M132.643,237.339h2.168c1.506,0,2.656-0.079,3.451-0.237c0.584-0.126,1.158-0.387,1.723-0.78
					c0.566-0.394,1.033-0.935,1.4-1.623c0.365-0.689,0.549-1.54,0.549-2.551c0-1.311-0.316-2.38-0.953-3.207
					s-1.428-1.365-2.371-1.613c-0.615-0.164-1.932-0.246-3.955-0.246h-5.336v16.47h3.324V237.339z M132.643,229.867h1.607
					c1.197,0,1.996,0.037,2.393,0.111c0.539,0.098,0.984,0.341,1.338,0.731c0.352,0.39,0.527,0.883,0.527,1.482
					c0,0.487-0.125,0.913-0.377,1.28c-0.25,0.368-0.598,0.638-1.039,0.81s-1.318,0.259-2.629,0.259h-1.82V229.867z"/>
				<path fill="#FFFFFF" d="M157.809,243.551l-6.594-16.47h-3.518l-6.414,16.47h3.527l1.359-3.741h6.584l1.438,3.741H157.809z
					 M147.191,237.035l2.225-6.112l2.27,6.112H147.191z"/>
				<path fill="#FFFFFF" d="M174.393,243.551l-2.012-3.213c-0.795-1.28-1.426-2.172-1.893-2.674
					c-0.469-0.502-1.062-0.963-1.781-1.382c1.445-0.21,2.531-0.718,3.258-1.522s1.09-1.826,1.09-3.062
					c0-0.974-0.24-1.838-0.719-2.596c-0.479-0.756-1.117-1.282-1.916-1.577c-0.797-0.297-2.076-0.445-3.836-0.445h-7v16.471h3.326
					v-6.875h0.674c0.764,0,1.322,0.061,1.674,0.185s0.686,0.353,1,0.686c0.314,0.334,0.898,1.141,1.752,2.421l2.404,3.584H174.393z
					 M165.371,234.046h-2.461v-4.179h2.596c1.348,0,2.156,0.019,2.426,0.056c0.539,0.091,0.957,0.306,1.252,0.646
					c0.297,0.341,0.445,0.788,0.445,1.343c0,0.494-0.113,0.906-0.338,1.235c-0.225,0.33-0.535,0.562-0.932,0.696
					C167.961,233.979,166.965,234.046,165.371,234.046z"/>
				<polygon fill="#FFFFFF" points="195.107,240.775 185.908,240.775 185.908,236.294 194.176,236.294 194.176,233.519 
					185.908,233.519 185.908,229.867 194.795,229.867 194.795,227.08 182.582,227.08 182.582,243.551 195.107,243.551 				"/>
				<polygon fill="#FFFFFF" points="211.029,243.551 211.029,227.08 207.939,227.08 207.939,238.079 201.197,227.08 197.963,227.08 
					197.963,243.551 201.053,243.551 201.053,232.811 207.691,243.551 				"/>
				<polygon fill="#FFFFFF" points="221.027,227.216 221.027,243.551 232.621,243.551 232.621,240.775 224.354,240.775 
					224.354,227.216 				"/>
				<path fill="#FFFFFF" d="M248.125,241.579c1.445-1.501,2.168-3.582,2.168-6.24c0-2.682-0.729-4.774-2.184-6.28
					c-1.457-1.507-3.4-2.259-5.826-2.259c-1.34,0-2.523,0.217-3.551,0.651c-0.771,0.322-1.48,0.816-2.129,1.483
					c-0.646,0.667-1.158,1.42-1.533,2.259c-0.502,1.138-0.752,2.546-0.752,4.224c0,2.621,0.723,4.68,2.168,6.174
					s3.393,2.241,5.842,2.241C244.748,243.832,246.68,243.081,248.125,241.579z M239.037,239.546
					c-0.861-0.963-1.293-2.376-1.293-4.241c0-1.895,0.42-3.312,1.258-4.252c0.84-0.94,1.945-1.41,3.314-1.41
					c1.371,0,2.471,0.465,3.299,1.393c0.826,0.93,1.24,2.337,1.24,4.225c0,1.91-0.424,3.343-1.275,4.297
					c-0.85,0.956-1.938,1.433-3.264,1.433S239.898,240.508,239.037,239.546z"/>
				<path fill="#FFFFFF" d="M261.299,240.354c-0.543,0.453-1.352,0.68-2.422,0.68c-1.012,0-1.814-0.255-2.41-0.764
					s-0.99-1.307-1.186-2.393l-3.234,0.314c0.217,1.842,0.883,3.244,2,4.207c1.115,0.962,2.715,1.443,4.797,1.443
					c1.43,0,2.625-0.2,3.584-0.602c0.959-0.399,1.699-1.013,2.225-1.837c0.523-0.822,0.785-1.707,0.785-2.65
					c0-1.041-0.219-1.916-0.656-2.623c-0.439-0.708-1.045-1.267-1.82-1.675s-1.971-0.803-3.59-1.186
					c-1.617-0.382-2.637-0.748-3.055-1.101c-0.33-0.276-0.496-0.609-0.496-1c0-0.427,0.178-0.768,0.529-1.022
					c0.547-0.396,1.303-0.595,2.27-0.595c0.936,0,1.639,0.185,2.105,0.556c0.469,0.37,0.773,0.979,0.916,1.826l3.326-0.146
					c-0.053-1.513-0.602-2.723-1.646-3.628c-1.045-0.907-2.6-1.36-4.668-1.36c-1.266,0-2.346,0.191-3.242,0.573
					c-0.895,0.382-1.58,0.938-2.055,1.668c-0.477,0.73-0.713,1.515-0.713,2.354c0,1.304,0.504,2.408,1.516,3.314
					c0.719,0.645,1.971,1.188,3.754,1.629c1.385,0.345,2.271,0.585,2.662,0.719c0.568,0.203,0.967,0.441,1.195,0.714
					c0.229,0.273,0.344,0.604,0.344,0.994C262.113,239.371,261.842,239.901,261.299,240.354z"/>
				<path fill="#FFFFFF" d="M39.676,251.92l-6.416,16.47h3.529l1.359-3.74h6.584l1.438,3.74h3.617l-6.596-16.47H39.676z
					 M39.17,261.874l2.225-6.111l2.27,6.111H39.17z"/>
				<path fill="#FFFFFF" d="M61.623,259.295c-0.775-0.407-1.973-0.803-3.59-1.185c-1.617-0.383-2.635-0.748-3.055-1.101
					c-0.33-0.277-0.494-0.61-0.494-1c0-0.428,0.174-0.768,0.527-1.022c0.547-0.396,1.303-0.596,2.27-0.596
					c0.936,0,1.637,0.186,2.105,0.557c0.469,0.37,0.773,0.979,0.916,1.825l3.326-0.146c-0.053-1.512-0.602-2.723-1.646-3.628
					c-1.045-0.907-2.602-1.36-4.668-1.36c-1.266,0-2.346,0.191-3.242,0.573c-0.895,0.383-1.58,0.938-2.055,1.668
					c-0.477,0.731-0.713,1.516-0.713,2.354c0,1.304,0.506,2.408,1.516,3.315c0.719,0.645,1.969,1.187,3.752,1.629
					c1.387,0.345,2.273,0.584,2.664,0.719c0.568,0.202,0.967,0.44,1.195,0.714c0.229,0.272,0.344,0.604,0.344,0.993
					c0,0.607-0.273,1.138-0.814,1.59c-0.543,0.454-1.352,0.681-2.422,0.681c-1.012,0-1.814-0.255-2.41-0.764
					c-0.594-0.51-0.99-1.308-1.186-2.394l-3.234,0.314c0.217,1.842,0.883,3.245,1.998,4.207c1.117,0.963,2.717,1.443,4.799,1.443
					c1.43,0,2.625-0.2,3.584-0.601c0.957-0.4,1.699-1.013,2.225-1.837c0.523-0.823,0.785-1.708,0.785-2.651
					c0-1.04-0.219-1.916-0.656-2.623C63.006,260.262,62.398,259.703,61.623,259.295z"/>
				<path fill="#FFFFFF" d="M76.684,261.031c0,1.304-0.049,2.236-0.146,2.797c-0.098,0.562-0.385,1.036-0.865,1.422
					c-0.479,0.386-1.191,0.578-2.135,0.578c-0.93,0-1.66-0.203-2.197-0.611c-0.533-0.408-0.873-0.949-1.016-1.624
					c-0.082-0.419-0.123-1.337-0.123-2.753v-8.92h-3.326v8.786c0,1.842,0.107,3.235,0.326,4.179
					c0.148,0.637,0.461,1.246,0.932,1.826c0.473,0.58,1.115,1.052,1.928,1.415s2.004,0.545,3.578,0.545
					c1.303,0,2.359-0.167,3.168-0.499c0.809-0.334,1.455-0.781,1.938-1.343c0.484-0.562,0.814-1.251,0.994-2.068
					c0.18-0.816,0.271-2.213,0.271-4.189v-8.651h-3.326V261.031z"/>
				<polygon fill="#FFFFFF" points="93.523,262.919 86.783,251.92 83.547,251.92 83.547,268.391 86.637,268.391 86.637,257.649 
					93.277,268.391 96.613,268.391 96.613,251.92 93.523,251.92 				"/>
				<polygon fill="#FFFFFF" points="98.951,254.707 103.838,254.707 103.838,268.391 107.164,268.391 107.164,254.707 
					112.039,254.707 112.039,251.92 98.951,251.92 				"/>
				<path fill="#FFFFFF" d="M121.061,251.639c-1.34,0-2.525,0.218-3.551,0.651c-0.771,0.323-1.48,0.816-2.129,1.484
					c-0.648,0.666-1.158,1.419-1.533,2.258c-0.502,1.139-0.754,2.546-0.754,4.224c0,2.621,0.725,4.68,2.17,6.174
					c1.445,1.495,3.393,2.241,5.842,2.241c2.42,0,4.352-0.75,5.797-2.253c1.445-1.501,2.17-3.582,2.17-6.24
					c0-2.681-0.73-4.774-2.186-6.28C125.43,252.392,123.488,251.639,121.061,251.639z M124.357,264.396
					c-0.85,0.956-1.938,1.434-3.264,1.434s-2.42-0.481-3.279-1.444c-0.861-0.962-1.293-2.376-1.293-4.24
					c0-1.896,0.42-3.312,1.258-4.253c0.84-0.939,1.943-1.41,3.314-1.41s2.469,0.465,3.297,1.393c0.828,0.93,1.242,2.338,1.242,4.225
					C125.633,262.009,125.207,263.441,124.357,264.396z"/>
				<path fill="#FFFFFF" d="M141.738,259.295c-0.775-0.407-1.973-0.803-3.59-1.185c-1.619-0.383-2.637-0.748-3.055-1.101
					c-0.332-0.277-0.496-0.61-0.496-1c0-0.428,0.176-0.768,0.527-1.022c0.547-0.396,1.305-0.596,2.271-0.596
					c0.936,0,1.637,0.186,2.105,0.557c0.467,0.37,0.773,0.979,0.916,1.825l3.324-0.146c-0.053-1.512-0.6-2.723-1.645-3.628
					c-1.045-0.907-2.602-1.36-4.668-1.36c-1.266,0-2.346,0.191-3.242,0.573c-0.895,0.383-1.58,0.938-2.055,1.668
					c-0.477,0.731-0.715,1.516-0.715,2.354c0,1.304,0.506,2.408,1.518,3.315c0.719,0.645,1.969,1.187,3.752,1.629
					c1.385,0.345,2.273,0.584,2.662,0.719c0.57,0.202,0.969,0.44,1.197,0.714c0.229,0.272,0.342,0.604,0.342,0.993
					c0,0.607-0.271,1.138-0.814,1.59c-0.543,0.454-1.35,0.681-2.42,0.681c-1.012,0-1.814-0.255-2.41-0.764
					c-0.596-0.51-0.99-1.308-1.186-2.394l-3.236,0.314c0.219,1.842,0.885,3.245,2,4.207c1.117,0.963,2.715,1.443,4.797,1.443
					c1.432,0,2.627-0.2,3.584-0.601c0.959-0.4,1.701-1.013,2.225-1.837c0.525-0.823,0.787-1.708,0.787-2.651
					c0-1.04-0.219-1.916-0.658-2.623C143.119,260.262,142.514,259.703,141.738,259.295z"/>
				<path fill="#FFFFFF" d="M162.697,252.167c-0.615-0.165-1.934-0.247-3.955-0.247h-5.336v16.47h3.324v-6.212h2.168
					c1.506,0,2.656-0.079,3.449-0.237c0.584-0.126,1.16-0.387,1.725-0.779c0.566-0.395,1.031-0.935,1.398-1.624
					c0.367-0.688,0.551-1.539,0.551-2.551c0-1.31-0.318-2.379-0.955-3.207C164.43,252.952,163.641,252.414,162.697,252.167z
					 M162.219,258.312c-0.252,0.367-0.598,0.637-1.039,0.81c-0.441,0.171-1.318,0.258-2.629,0.258h-1.82v-4.673h1.607
					c1.197,0,1.996,0.036,2.393,0.111c0.539,0.098,0.984,0.341,1.336,0.731c0.352,0.389,0.529,0.883,0.529,1.481
					C162.596,257.519,162.469,257.945,162.219,258.312z"/>
				<polygon fill="#FFFFFF" points="175.258,250.977 178.346,247.617 174.807,247.617 173.258,250.977 				"/>
				<path fill="#FFFFFF" d="M178.537,261.031c0,1.304-0.049,2.236-0.146,2.798s-0.385,1.035-0.863,1.422
					c-0.48,0.386-1.191,0.578-2.135,0.578c-0.93,0-1.662-0.204-2.197-0.613c-0.535-0.408-0.875-0.948-1.018-1.623
					c-0.082-0.419-0.123-1.337-0.123-2.753v-8.92h-3.324v8.786c0,1.842,0.107,3.234,0.324,4.179c0.15,0.637,0.461,1.245,0.934,1.826
					c0.471,0.58,1.113,1.052,1.926,1.415s2.006,0.545,3.578,0.545c1.305,0,2.359-0.167,3.168-0.499
					c0.811-0.334,1.455-0.781,1.939-1.344c0.482-0.562,0.814-1.25,0.994-2.067c0.18-0.816,0.268-2.213,0.268-4.19v-8.65h-3.324
					V261.031z"/>
				<path fill="#FFFFFF" d="M196.053,259.638c0.711-0.321,1.275-0.804,1.689-1.448c0.416-0.645,0.625-1.353,0.625-2.123
					c0-0.713-0.17-1.354-0.506-1.928c-0.338-0.572-0.76-1.031-1.264-1.375c-0.506-0.346-1.08-0.572-1.719-0.681
					c-0.641-0.108-1.613-0.163-2.916-0.163h-6.584v16.471h5.605c2.121-0.016,3.457-0.053,4.012-0.113
					c0.885-0.098,1.627-0.357,2.23-0.78s1.078-0.988,1.426-1.697c0.35-0.707,0.523-1.435,0.523-2.185c0-0.95-0.27-1.778-0.809-2.482
					S197.057,259.931,196.053,259.638z M188.705,254.661h1.91c1.564,0,2.512,0.019,2.842,0.057c0.555,0.067,0.973,0.26,1.252,0.578
					c0.281,0.319,0.422,0.731,0.422,1.241c0,0.532-0.162,0.961-0.488,1.287c-0.326,0.325-0.773,0.522-1.344,0.589
					c-0.314,0.039-1.119,0.058-2.414,0.058h-2.18V254.661z M195.271,264.857c-0.311,0.348-0.713,0.566-1.207,0.656
					c-0.322,0.067-1.082,0.102-2.281,0.102h-3.078v-4.403h2.686c1.512,0,2.496,0.078,2.949,0.234
					c0.451,0.158,0.799,0.409,1.039,0.754c0.238,0.345,0.359,0.764,0.359,1.258C195.738,264.042,195.582,264.509,195.271,264.857z"
					/>
				<polygon fill="#FFFFFF" points="205.4,252.056 202.074,252.056 202.074,268.391 213.668,268.391 213.668,265.615 205.4,265.615 
									"/>
				<rect x="215.938" y="251.92" fill="#FFFFFF" width="3.326" height="16.471"/>
				<path fill="#FFFFFF" d="M231.6,264.986c-0.637,0.562-1.396,0.843-2.281,0.843c-1.199,0-2.172-0.442-2.92-1.326
					c-0.75-0.883-1.125-2.367-1.125-4.448c0-1.964,0.381-3.383,1.141-4.258c0.76-0.878,1.752-1.315,2.973-1.315
					c0.883,0,1.635,0.248,2.252,0.741c0.617,0.495,1.023,1.169,1.219,2.022l3.291-0.786c-0.375-1.318-0.936-2.329-1.684-3.033
					c-1.26-1.191-2.896-1.787-4.91-1.787c-2.307,0-4.168,0.759-5.584,2.276c-1.416,1.516-2.123,3.645-2.123,6.386
					c0,2.593,0.703,4.635,2.111,6.129c1.408,1.495,3.205,2.241,5.393,2.241c1.768,0,3.227-0.436,4.375-1.309
					c1.15-0.873,1.973-2.208,2.467-4.005l-3.223-1.022C232.693,263.541,232.234,264.424,231.6,264.986z"/>
				<path fill="#FFFFFF" d="M246.34,251.639c-1.342,0-2.525,0.218-3.551,0.651c-0.771,0.323-1.48,0.816-2.129,1.484
					c-0.648,0.666-1.158,1.419-1.533,2.258c-0.502,1.139-0.754,2.546-0.754,4.224c0,2.621,0.725,4.68,2.168,6.174
					c1.445,1.495,3.395,2.241,5.844,2.241c2.418,0,4.352-0.75,5.797-2.253c1.445-1.501,2.168-3.582,2.168-6.24
					c0-2.681-0.729-4.774-2.186-6.28S248.766,251.639,246.34,251.639z M249.637,264.396c-0.85,0.956-1.938,1.434-3.264,1.434
					s-2.418-0.481-3.281-1.444c-0.861-0.962-1.291-2.376-1.291-4.24c0-1.896,0.418-3.312,1.258-4.253
					c0.838-0.939,1.943-1.41,3.314-1.41s2.469,0.465,3.297,1.393c0.828,0.93,1.242,2.338,1.242,4.225
					C250.912,262.009,250.486,263.441,249.637,264.396z"/>
				<path fill="#FFFFFF" d="M267.018,259.295c-0.775-0.407-1.973-0.803-3.59-1.185c-1.619-0.383-2.637-0.748-3.057-1.101
					c-0.33-0.277-0.494-0.61-0.494-1c0-0.428,0.176-0.768,0.527-1.022c0.547-0.396,1.305-0.596,2.27-0.596
					c0.938,0,1.639,0.186,2.107,0.557c0.467,0.37,0.773,0.979,0.916,1.825l3.324-0.146c-0.053-1.512-0.602-2.723-1.645-3.628
					c-1.045-0.907-2.602-1.36-4.67-1.36c-1.266,0-2.346,0.191-3.24,0.573c-0.895,0.383-1.58,0.938-2.057,1.668
					c-0.475,0.731-0.713,1.516-0.713,2.354c0,1.304,0.506,2.408,1.518,3.315c0.719,0.645,1.969,1.187,3.752,1.629
					c1.385,0.345,2.273,0.584,2.662,0.719c0.568,0.202,0.969,0.44,1.197,0.714c0.229,0.272,0.342,0.604,0.342,0.993
					c0,0.607-0.271,1.138-0.814,1.59c-0.543,0.454-1.35,0.681-2.422,0.681c-1.01,0-1.812-0.255-2.408-0.764
					c-0.596-0.51-0.99-1.308-1.186-2.394l-3.236,0.314c0.217,1.842,0.885,3.245,2,4.207c1.115,0.963,2.715,1.443,4.797,1.443
					c1.432,0,2.625-0.2,3.584-0.601s1.701-1.013,2.225-1.837c0.523-0.823,0.787-1.708,0.787-2.651c0-1.04-0.219-1.916-0.658-2.623
					C268.398,260.262,267.791,259.703,267.018,259.295z"/>
			</g>
		</g>
	</g>
</g>
</svg>
