<?xml version="1.0" encoding="UTF-8" standalone="no"?>
<!-- Generator: Adobe Illustrator 16.0.0, SVG Export Plug-In . SVG Version: 6.00 Build 0)  -->

<svg
   xmlns:dc="http://purl.org/dc/elements/1.1/"
   xmlns:cc="http://creativecommons.org/ns#"
   xmlns:rdf="http://www.w3.org/1999/02/22-rdf-syntax-ns#"
   xmlns:svg="http://www.w3.org/2000/svg"
   xmlns="http://www.w3.org/2000/svg"
   xmlns:sodipodi="http://sodipodi.sourceforge.net/DTD/sodipodi-0.dtd"
   xmlns:inkscape="http://www.inkscape.org/namespaces/inkscape"
   version="1.0"
   id="Capa_1"
   x="0px"
   y="0px"
   width="300px"
   height="300px"
   viewBox="0 0 300 300"
   enable-background="new 0 0 300 300"
   xml:space="preserve"
   sodipodi:docname="b2.svg"
   inkscape:version="0.92.4 (5da689c313, 2019-01-14)"><metadata
   id="metadata69"><rdf:RDF><cc:Work
       rdf:about=""><dc:format>image/svg+xml</dc:format><dc:type
         rdf:resource="http://purl.org/dc/dcmitype/StillImage" /></cc:Work></rdf:RDF></metadata><defs
   id="defs67">
	
	
	
	
	
	
	

		
		
		
		
		
		
		
		
		
		
		
		
		
		
		
		
		
		
		
		
		
		
		
	</defs><sodipodi:namedview
   pagecolor="#ffffff"
   bordercolor="#666666"
   borderopacity="1"
   objecttolerance="10"
   gridtolerance="10"
   guidetolerance="10"
   inkscape:pageopacity="0"
   inkscape:pageshadow="2"
   inkscape:window-width="1920"
   inkscape:window-height="1027"
   id="namedview65"
   showgrid="false"
   inkscape:zoom="1.5"
   inkscape:cx="47.666667"
   inkscape:cy="64.362617"
   inkscape:window-x="-8"
   inkscape:window-y="-8"
   inkscape:window-maximized="1"
   inkscape:current-layer="Capa_1" />
<path
   style="fill:#355cc5;fill-opacity:1"
   inkscape:connector-curvature="0"
   id="path2"
   d="M 242.623,0 H 57.377 C 25.82,0 0,25.82 0,57.377 V 242.622 C 0,274.18 25.82,300 57.377,300 H 242.623 C 274.18,300 300,274.18 300,242.622 V 57.377 C 300,25.82 274.18,0 242.623,0 Z" /><g
   id="g942"
   transform="matrix(0.83620398,0,0,0.85481003,19.744159,0.85911419)"><path
     d="m 229.813,37.041 c 0.011,-1.926 0,-3.852 -0.007,-5.778 0.007,1.926 0.018,3.852 0.007,5.778"
     id="path4"
     inkscape:connector-curvature="0"
     style="fill:#4463fd" /><path
     d="m 229.798,28.373 c 0,0.963 0.003,1.926 0.007,2.889 -0.004,-0.963 -0.007,-1.926 -0.007,-2.889 0,-3.756 -0.011,-7.512 0.002,-11.269 -0.012,3.757 -0.002,7.513 -0.002,11.269"
     id="path6"
     inkscape:connector-curvature="0"
     style="fill:#4463fd" /><path
     style="fill:#ffffff"
     inkscape:connector-curvature="0"
     id="path16"
     d="m 266.78,168.007 c -0.843,-0.379 -1.458,-0.548 -1.72,-1.568 -2.635,-10.225 -6.047,-20.228 -9.598,-30.142 -2.436,-6.799 -5.423,-9.508 -13.771,-9.434 -4.529,0.041 -9.06,-0.018 -13.588,0.018 -2.543,0.02 -5.085,0.218 -7.627,0.195 -4.542,-0.039 -8.678,0.824 -11.452,4.857 -3.441,5.002 -4.54,10.947 -6.29,16.578 -1.782,5.734 -3.949,11.337 -5.63,17.102 -0.458,1.569 -1.166,2.059 -2.841,0.808 -2.342,-1.75 -5.466,-1.964 -8.139,-1.72 -6.416,0.584 -12.814,0.051 -19.208,0.364 -1.285,0.062 -2.012,-0.396 -2.366,-1.52 -1.02,-3.231 -2.014,-6.471 -2.988,-9.715 -1.749,-5.83 -3.332,-11.714 -5.248,-17.487 -2.282,-6.883 -7.182,-9.812 -14.476,-9.541 -8.268,0.307 -16.557,-0.017 -24.824,0.627 -2.188,0.17 -3.885,1.281 -5.29,2.706 -4.4,4.46 -5.815,10.253 -6.802,16.18 -0.133,0.794 -0.144,1.68 -1.022,1.814 -0.943,0.145 -1.126,-0.692 -1.36,-1.49 -0.899,-3.071 -1.838,-6.134 -2.871,-9.161 -2.623,-7.686 -7.68,-11.045 -15.33,-10.644 -5.274,0.276 -10.56,0.243 -15.845,0.503 -6.865,0.339 -10.396,2.663 -12.505,8.532 -3.37,9.374 -6.04,19.002 -8.929,28.547 -0.813,2.686 0.524,5.866 2.441,6.371 2.333,0.615 5.47,-1.171 6.151,-3.985 1.42,-5.865 3.591,-11.485 5.414,-17.212 0.787,-2.469 1.059,-5.224 2.781,-7.341 0.417,-0.514 0.817,-1.504 1.741,-1.082 0.869,0.396 0.71,1.412 0.511,2.067 -0.395,1.298 -0.308,2.655 -0.609,3.921 -2.706,11.364 -5.459,22.718 -8.307,34.047 -1.452,5.777 -1.551,5.857 4.142,5.754 2.386,-0.043 3.176,0.668 3.146,3.11 -0.122,9.924 -0.049,19.852 -0.053,29.778 0,1.604 0.194,3.03 1.424,4.336 1.976,2.098 4.344,1.992 6.594,1.221 2.449,-0.84 3,-3.089 2.988,-5.553 -0.047,-9.733 0.028,-19.467 -0.06,-29.199 -0.017,-1.895 0.406,-3.522 2.363,-3.468 1.922,0.052 2.333,1.824 2.319,3.599 -0.041,5.012 -0.028,10.023 -0.007,15.034 0.007,1.816 -1.195,3.604 -0.499,5.358 0.969,2.438 0.493,4.904 0.316,7.284 -0.308,4.135 1.61,7.567 4.942,7.838 3.812,0.311 6.216,-2.419 6.218,-7.068 0.003,-8.578 10e-4,-17.154 10e-4,-25.732 0,-6.005 0,-6.007 6.025,-6.49 0.096,-0.008 0.194,0.007 0.289,-0.005 1.164,-0.147 1.716,-0.292 1.467,-1.957 -0.635,-4.223 -1.893,-8.282 -2.878,-12.401 -2.325,-9.713 -4.972,-19.347 -6.799,-29.181 -0.216,-1.162 -0.364,-1.782 0.884,-2.107 1.28,-0.332 1.761,0.57 2.043,1.474 1.82,5.837 3.367,11.77 5.456,17.506 1.052,2.889 1.27,6.129 3.319,8.651 1.173,1.443 2.657,2.258 4.444,1.758 1.491,-0.418 3.01,-1.602 2.981,-3.106 -0.061,-3.236 1.007,-6.136 1.846,-9.135 1.366,-4.88 2.63,-9.791 4.037,-14.66 0.387,-1.339 0.893,-2.96 2.877,-2.444 1.739,0.451 1.164,2 1.167,3.146 0.016,6.312 0.021,12.624 0.022,18.938 10e-4,6.312 -0.002,12.624 -0.002,18.937 0,12.527 -0.002,25.057 0.001,37.584 0.001,3.675 2.089,5.722 5.846,5.748 4.241,0.032 6.274,-1.83 6.289,-5.832 0.021,-6.168 0.006,-12.336 0.006,-18.503 0,-8 0.018,-15.998 -0.015,-23.996 -0.006,-1.544 0.21,-2.676 2.156,-2.565 1.716,0.099 1.701,0.896 1.747,2.45 0.125,4.193 -0.056,8.337 -0.303,12.527 -0.414,7.01 -0.28,14.069 -0.012,21.094 0.083,2.165 0.35,4.241 -0.038,6.434 -0.47,2.665 -0.011,5.3 2.208,7.207 2.116,1.818 4.7,1.664 6.982,0.74 2.461,-0.996 3.487,-3.229 3.483,-5.976 -0.031,-25.057 -0.03,-50.113 0.031,-75.169 0.002,-0.918 -0.928,-2.512 0.937,-2.785 1.856,-0.271 2.102,1.342 2.456,2.574 2.076,7.235 4.22,14.454 6.073,21.747 0.664,2.611 2.059,4.218 4.421,5.059 1.588,0.565 3.286,0.818 4.927,1.24 4.848,1.244 4.775,1.251 4.863,6.314 0.16,9.225 -0.244,18.434 -0.591,27.646 -0.194,5.163 0.445,10.309 0.264,15.487 -0.085,2.429 2.006,3.811 4.305,4.223 2.105,0.377 2.945,-1.108 3.626,-2.869 0.437,-1.131 0.471,-2.219 0.471,-3.356 0.005,-6.456 0.017,-12.913 -0.009,-19.37 -0.005,-1.108 0.001,-2.371 1.359,-2.337 1.336,0.034 0.949,1.397 0.953,2.263 0.028,6.36 0.039,12.721 -0.004,19.081 -0.009,1.264 0.105,2.478 0.623,3.615 0.857,1.882 2.34,3.242 4.414,2.96 2.15,-0.293 3.485,-1.836 3.644,-4.133 0.053,-0.768 -0.001,-1.542 0.013,-2.312 0.267,-13.542 -0.523,-27.093 0.374,-40.632 0.07,-1.061 0.02,-1.825 1.241,-1.953 1.638,-0.174 1.339,1.081 1.25,1.934 -0.43,4.119 0.773,8.203 0.132,12.354 -0.182,1.179 0.066,2.865 1.671,3.592 2.506,1.134 4.507,-0.272 4.562,-3.387 0.077,-4.433 0.044,-8.865 0.01,-13.299 -0.014,-1.681 0.564,-2.794 2.367,-2.946 1.725,-0.146 2.801,-1.142 3.346,-2.677 1.603,-4.513 3.182,-9.033 4.697,-13.575 1.788,-5.358 3.488,-10.747 5.257,-16.112 0.276,-0.84 0.856,-1.691 1.781,-1.611 1.104,0.097 1.071,1.145 1.069,2.026 -0.006,2.352 -0.001,4.703 -0.001,7.056 0,22.55 0.003,45.102 -0.007,67.651 0,1.529 0.117,3.005 0.548,4.5 0.814,2.826 3.233,4.131 7.091,3.614 2.23,-0.298 4.986,-2.986 4.783,-4.996 -0.962,-9.496 1.091,-18.964 0.25,-28.432 -0.426,-4.788 -0.521,-9.562 -0.51,-14.352 0.003,-1.364 -0.463,-3.027 1.877,-3.113 2.493,-0.091 2.158,1.606 2.159,3.135 0.003,13.974 -0.005,27.947 0.007,41.922 0.002,3.476 1.869,5.51 5.272,5.841 3.679,0.358 6.017,-1.565 6.975,-4.718 0.698,-2.296 -0.164,-4.297 -0.157,-6.432 0.074,-23.225 0.046,-46.45 0.047,-69.676 0,-0.675 -0.008,-1.35 0.016,-2.023 0.038,-1.111 0.764,-1.873 1.702,-2.004 0.913,-0.125 0.954,0.884 1.242,1.608 2.925,7.351 4.337,15.195 7.383,22.509 0.795,1.91 0.643,3.389 -1.451,4.952 -2.222,1.659 -4.651,3.461 -4.962,6.991 -0.415,4.709 -0.656,9.365 -0.536,14.104 0.256,10.112 0.07,20.233 0.091,30.353 0.003,0.931 -0.083,1.84 0.367,2.8 0.535,1.143 1.185,1.605 2.415,1.556 1.177,-0.048 1.542,-0.635 1.925,-1.692 0.445,-1.228 0.479,-2.416 0.479,-3.648 0.005,-13.202 0.023,-26.405 -0.006,-39.607 -0.012,-5.292 3.487,-8.049 7.941,-8.697 3.702,-0.54 6.389,2.879 6.491,7.878 0.037,1.824 0.944,3.29 2.427,3.332 1.695,0.047 2.653,-1.512 2.821,-3.358 0.445,-4.919 -2.343,-9.891 -6.977,-11.969 z" /><path
     style="fill:#ffffff"
     inkscape:connector-curvature="0"
     id="path18"
     d="m 201.415,18.707 c -0.263,12.111 1.003,24.189 0.626,36.298 -0.06,1.895 0.83,3.532 1.75,4.989 3.936,6.229 9.549,10.971 14.887,15.887 4.991,4.596 10.508,8.614 15.651,13.053 4.52,3.9 8.847,8.023 13.249,12.06 2.434,2.231 5.311,1.704 5.821,-1.245 0.792,-4.576 -0.255,-9.016 -3.688,-12.051 -4.404,-3.893 -8.04,-8.6 -12.902,-11.977 -0.525,-0.365 -0.755,-0.893 -0.576,-1.506 0.226,-0.775 0.928,-0.451 1.446,-0.54 0.942,-0.16 1.765,0.323 2.359,0.847 3.255,2.867 6.977,5.18 9.936,8.393 1.906,2.071 3.851,4.109 4.659,6.926 1.361,4.736 1.7,9.654 2.593,14.475 1.188,6.402 2.293,12.826 3.171,19.275 0.549,4.033 3.047,6.186 7.032,5.642 3.82,-0.522 4.916,-3.382 4.381,-7.384 -0.3,-2.249 -0.876,-4.49 -0.907,-6.741 -0.058,-4.397 -1.096,-8.667 -1.383,-13.049 -0.437,-6.679 -1.707,-13.31 -2.741,-19.94 -0.571,-3.668 -1.467,-7.221 -4.511,-9.831 -4.788,-4.105 -9.49,-8.312 -14.232,-12.472 -5.135,-4.506 -10.19,-9.109 -15.451,-13.464 -2.146,-1.776 -2.858,-3.81 -2.808,-6.421 0.018,-0.963 0.029,-1.926 0.034,-2.889 0.01,-1.926 0,-3.852 -0.007,-5.779 -0.004,-0.963 -0.008,-1.926 -0.008,-2.889 0,-3.756 -0.01,-7.512 0.003,-11.269 0.014,-3.996 -0.811,-4.955 -4.683,-5.866 -7.041,-1.656 -14.052,-3.438 -21.099,-5.068 -1.158,-0.268 -3.253,-0.784 -2.897,1.37 0.621,3.741 0.375,7.46 0.295,11.166 z" /><path
     style="fill:#ffffff"
     inkscape:connector-curvature="0"
     id="path20"
     d="m 41.511,91.259 c -0.814,4.853 -1.376,9.753 -1.94,14.644 -0.631,5.467 -1.041,10.959 -1.747,16.414 -0.5,3.857 1.153,6.305 5.294,7.207 2.749,0.599 4.952,-1.177 5.66,-4.881 1.064,-5.559 1.957,-11.15 2.924,-16.729 0.984,-5.673 1.762,-11.392 3.011,-17.006 1.334,-5.999 6.284,-9.336 10.583,-13.051 1.631,-1.41 3.536,-2.502 5.304,-3.755 0.789,-0.558 1.764,-0.77 2.341,-0.062 0.547,0.673 -0.117,1.434 -0.724,1.957 -1.808,1.556 -3.481,3.267 -5.237,4.874 -3.746,3.428 -7.84,6.69 -9.903,11.562 -0.827,1.953 -1.528,3.964 -1.013,6.258 0.381,1.695 0.885,3.498 2.549,3.721 1.703,0.228 3.364,-0.933 4.651,-2.215 1.835,-1.83 3.51,-3.832 5.447,-5.542 5.479,-4.839 10.961,-9.661 16.758,-14.15 5.127,-3.971 9.921,-8.417 14.454,-13.11 4.688,-4.854 8.081,-10.06 7.939,-17.273 -0.26,-13.193 -0.076,-26.397 -0.071,-39.596 0,-1.289 -0.268,-2.651 1.075,-3.66 -2.061,-0.596 -3.799,0.025 -5.607,0.199 -6.834,0.654 -13.208,3.053 -19.798,4.623 -3.235,0.77 -4.048,3.155 -3.786,5.434 0.752,6.527 0.281,13.039 0.265,19.545 -0.009,3.455 0.507,7.15 -3.046,9.919 -5.302,4.134 -10.381,8.567 -15.231,13.263 -3.235,3.131 -6.845,5.885 -10.364,8.711 -4.636,3.725 -7.842,8.072 -8.464,14.329 -0.275,2.75 -0.856,5.584 -1.324,8.37 z" /><path
     style="fill:#ffffff"
     inkscape:connector-curvature="0"
     id="path22"
     d="m 76.925,104.412 c -5.55,-0.064 -10.127,3.99 -10.086,10.276 0.038,5.709 3.297,10.007 10.404,10.445 5.406,-0.037 10.608,-5.216 10.231,-10.739 -0.393,-5.77 -4.003,-9.908 -10.549,-9.982 z" /><path
     style="fill:#ffffff"
     inkscape:connector-curvature="0"
     id="path24"
     d="m 220.548,114.136 c -0.012,5.536 4.768,10.509 10.152,10.401 6.077,-0.123 10.622,-5.052 10.508,-10.509 -0.124,-6.044 -3.517,-9.624 -10.211,-10.288 -5.655,-0.015 -10.438,4.742 -10.449,10.396 z" /><path
     style="fill:#ffffff"
     inkscape:connector-curvature="0"
     id="path26"
     d="m 131.672,125.134 c 5.147,0.021 11.002,-5.825 10.784,-10.768 -0.225,-5.094 -5.467,-10.165 -10.839,-9.987 -6.144,0.203 -10.33,4.641 -10.4,10.752 -0.053,4.592 4.794,10.338 10.455,10.003 z" /><path
     style="fill:#ffffff"
     inkscape:connector-curvature="0"
     id="path28"
     d="m 179.953,162.719 c 3.767,0.072 7.693,-3.977 7.607,-7.85 -0.072,-3.308 -3.405,-6.548 -6.79,-6.604 -4.688,-0.076 -8.04,2.805 -8.212,7.056 -0.159,3.889 3.27,7.318 7.395,7.398 z" /></g>
<g
   aria-label="SEGURIDAD"
   style="font-style:normal;font-weight:normal;font-size:40px;line-height:1.25;font-family:sans-serif;text-align:center;letter-spacing:0px;word-spacing:0px;text-anchor:middle;fill:#000000;fill-opacity:1;stroke:none"
   id="text931" />
<g
   aria-label="SOCIAL"
   style="font-style:normal;font-weight:normal;font-size:40px;line-height:1.25;font-family:sans-serif;text-align:center;letter-spacing:0px;word-spacing:0px;text-anchor:middle;fill:#000000;fill-opacity:1;stroke:none"
   id="text931-2"><path
     sodipodi:type="inkscape:offset"
     inkscape:radius="0"
     inkscape:original="M 37.564453 211.89258 C 35.11112 211.89258 33.030885 212.26505 31.324219 213.01172 C 29.644219 213.75839 28.378724 214.77273 27.525391 216.05273 C 26.698724 217.30607 26.285156 218.70529 26.285156 220.25195 C 26.285156 222.09195 26.752214 223.55901 27.685547 224.65234 C 28.645547 225.71901 29.779271 226.50505 31.085938 227.01172 C 32.419271 227.51839 34.151823 228.02654 36.285156 228.5332 C 37.805156 228.90654 39.004766 229.23987 39.884766 229.5332 C 40.764766 229.82654 41.484922 230.23815 42.044922 230.77148 C 42.631589 231.27815 42.925781 231.93242 42.925781 232.73242 C 42.925781 233.82576 42.405234 234.70638 41.365234 235.37305 C 40.351901 236.03971 38.804609 236.37305 36.724609 236.37305 C 35.044609 236.37305 33.365547 236.0932 31.685547 235.5332 C 30.032214 234.94654 28.631042 234.19964 27.484375 233.29297 L 25.685547 237.33203 C 26.85888 238.34536 28.445312 239.15815 30.445312 239.77148 C 32.471979 240.38482 34.564609 240.69141 36.724609 240.69141 C 39.177943 240.69141 41.258177 240.31893 42.964844 239.57227 C 44.67151 238.8256 45.938958 237.8256 46.765625 236.57227 C 47.618958 235.31893 48.044922 233.91971 48.044922 232.37305 C 48.044922 230.55971 47.565469 229.1194 46.605469 228.05273 C 45.672135 226.98607 44.538411 226.19807 43.205078 225.69141 C 41.871745 225.15807 40.165937 224.65187 38.085938 224.17188 C 36.565937 223.79854 35.364375 223.46521 34.484375 223.17188 C 33.604375 222.87854 32.871823 222.47932 32.285156 221.97266 C 31.725156 221.46599 31.445312 220.81172 31.445312 220.01172 C 31.445312 218.86505 31.939115 217.94529 32.925781 217.25195 C 33.939115 216.55862 35.472057 216.21289 37.525391 216.21289 C 38.778724 216.21289 40.070964 216.39815 41.404297 216.77148 C 42.73763 217.14482 44.017474 217.69211 45.244141 218.41211 L 46.884766 214.37305 C 45.684766 213.57305 44.258802 212.95987 42.605469 212.5332 C 40.952135 212.10654 39.27112 211.89258 37.564453 211.89258 z M 93.001953 211.89258 C 90.121953 211.89258 87.521172 212.51815 85.201172 213.77148 C 82.907839 214.99815 81.109401 216.70591 79.802734 218.89258 C 78.496068 221.07924 77.841797 223.5463 77.841797 226.29297 C 77.841797 229.03964 78.496068 231.50474 79.802734 233.69141 C 81.109401 235.87807 82.907839 237.59823 85.201172 238.85156 C 87.494505 240.07823 90.068542 240.69141 92.921875 240.69141 C 94.948542 240.69141 96.921797 240.38482 98.841797 239.77148 C 100.7618 239.15815 102.44281 238.27948 103.88281 237.13281 L 103.88281 225.97266 L 98.960938 225.97266 L 98.960938 234.69141 C 97.307604 235.65141 95.387839 236.13281 93.201172 236.13281 C 91.254505 236.13281 89.507604 235.7049 87.960938 234.85156 C 86.440937 233.99823 85.241328 232.82536 84.361328 231.33203 C 83.507995 229.8387 83.082031 228.15964 83.082031 226.29297 C 83.082031 224.37297 83.507995 222.66521 84.361328 221.17188 C 85.241328 219.67854 86.440937 218.51807 87.960938 217.69141 C 89.507604 216.86474 91.268854 216.45312 93.242188 216.45312 C 96.255521 216.45312 98.827603 217.51901 100.96094 219.65234 L 104.24219 216.45312 C 102.93552 214.95979 101.32234 213.82607 99.402344 213.05273 C 97.482344 212.2794 95.34862 211.89258 93.001953 211.89258 z M 53.201172 212.29297 L 53.201172 240.29297 L 74.201172 240.29297 L 74.201172 235.93164 L 58.400391 235.93164 L 58.400391 228.21289 L 71.921875 228.21289 L 71.921875 223.93164 L 58.400391 223.93164 L 58.400391 216.65234 L 73.640625 216.65234 L 73.640625 212.29297 L 53.201172 212.29297 z M 110.46094 212.29297 L 110.46094 228.0918 C 110.46094 232.14513 111.54117 235.26646 113.70117 237.45312 C 115.86117 239.61313 118.87552 240.69141 122.74219 240.69141 C 126.60885 240.69141 129.60885 239.61312 131.74219 237.45312 C 133.90219 235.26646 134.98047 232.14513 134.98047 228.0918 L 134.98047 212.29297 L 129.86133 212.29297 L 129.86133 227.89258 C 129.86133 233.38591 127.50125 236.13281 122.78125 236.13281 C 118.03458 236.13281 115.66211 233.38591 115.66211 227.89258 L 115.66211 212.29297 L 110.46094 212.29297 z M 142.26367 212.29297 L 142.26367 240.29297 L 147.46289 240.29297 L 147.46289 232.13281 L 153.7832 232.13281 C 154.2632 232.13281 154.62328 232.11846 154.86328 232.0918 L 160.58398 240.29297 L 166.18359 240.29297 L 159.74414 231.0918 C 161.66414 230.34513 163.1312 229.21141 164.14453 227.69141 C 165.18453 226.17141 165.70312 224.35862 165.70312 222.25195 C 165.70312 220.19862 165.22367 218.42497 164.26367 216.93164 C 163.30367 215.43831 161.91685 214.29219 160.10352 213.49219 C 158.31685 212.69219 156.20987 212.29297 153.7832 212.29297 L 142.26367 212.29297 z M 171.48242 212.29297 L 171.48242 240.29297 L 176.68164 240.29297 L 176.68164 212.29297 L 171.48242 212.29297 z M 184.2168 212.29297 L 184.2168 240.29297 L 196.45703 240.29297 C 199.4437 240.29297 202.09602 239.71893 204.41602 238.57227 C 206.73602 237.39893 208.53641 235.75901 209.81641 233.65234 C 211.09641 231.51901 211.73633 229.0663 211.73633 226.29297 C 211.73633 223.51964 211.09641 221.07932 209.81641 218.97266 C 208.53641 216.83932 206.73602 215.1994 204.41602 214.05273 C 202.09602 212.8794 199.4437 212.29297 196.45703 212.29297 L 184.2168 212.29297 z M 225.51367 212.29297 L 212.91406 240.29297 L 218.27344 240.29297 L 221.0332 233.8125 L 235.0332 233.8125 L 237.83398 240.29297 L 243.27344 240.29297 L 230.63281 212.29297 L 225.51367 212.29297 z M 246.79492 212.29297 L 246.79492 240.29297 L 259.03516 240.29297 C 262.02182 240.29297 264.67414 239.71893 266.99414 238.57227 C 269.31414 237.39893 271.11453 235.75901 272.39453 233.65234 C 273.67453 231.51901 274.31445 229.0663 274.31445 226.29297 C 274.31445 223.51964 273.67453 221.07932 272.39453 218.97266 C 271.11453 216.83932 269.31414 215.1994 266.99414 214.05273 C 264.67414 212.8794 262.02182 212.29297 259.03516 212.29297 L 246.79492 212.29297 z M 147.46289 216.69141 L 153.54297 216.69141 C 155.80964 216.69141 157.52979 217.17281 158.70312 218.13281 C 159.87646 219.09281 160.46289 220.46529 160.46289 222.25195 C 160.46289 224.03862 159.87646 225.42544 158.70312 226.41211 C 157.52979 227.37211 155.80964 227.85156 153.54297 227.85156 L 147.46289 227.85156 L 147.46289 216.69141 z M 189.41602 216.69141 L 196.2168 216.69141 C 198.27013 216.69141 200.07052 217.09258 201.61719 217.89258 C 203.19052 218.66591 204.39013 219.78529 205.2168 221.25195 C 206.07013 222.69195 206.49609 224.37297 206.49609 226.29297 C 206.49609 228.21297 206.07013 229.90638 205.2168 231.37305 C 204.39013 232.81305 203.19052 233.93242 201.61719 234.73242 C 200.07052 235.50576 198.27013 235.89258 196.2168 235.89258 L 189.41602 235.89258 L 189.41602 216.69141 z M 251.99414 216.69141 L 258.79492 216.69141 C 260.84826 216.69141 262.64865 217.09258 264.19531 217.89258 C 265.76865 218.66591 266.96826 219.78529 267.79492 221.25195 C 268.64826 222.69195 269.07422 224.37297 269.07422 226.29297 C 269.07422 228.21297 268.64826 229.90638 267.79492 231.37305 C 266.96826 232.81305 265.76865 233.93242 264.19531 234.73242 C 262.64865 235.50576 260.84826 235.89258 258.79492 235.89258 L 251.99414 235.89258 L 251.99414 216.69141 z M 228.0332 217.49219 L 233.3125 229.73242 L 222.79297 229.73242 L 228.0332 217.49219 z M 85.505859 258.26758 C 83.052526 258.26758 80.972292 258.64005 79.265625 259.38672 C 77.585625 260.13339 76.32013 261.14578 75.466797 262.42578 C 74.64013 263.67911 74.226562 265.08029 74.226562 266.62695 C 74.226563 268.46695 74.693619 269.93401 75.626953 271.02734 C 76.586953 272.09401 77.720678 272.88005 79.027344 273.38672 C 80.360677 273.89339 82.093229 274.39958 84.226562 274.90625 C 85.746562 275.27958 86.946172 275.61292 87.826172 275.90625 C 88.706173 276.19958 89.426328 276.61315 89.986328 277.14648 C 90.572994 277.65315 90.867188 278.30742 90.867188 279.10742 C 90.867188 280.20076 90.346641 281.07943 89.306641 281.74609 C 88.293308 282.41276 86.746016 282.74609 84.666016 282.74609 C 82.986016 282.74609 81.306953 282.46625 79.626953 281.90625 C 77.97362 281.31958 76.572448 280.57268 75.425781 279.66602 L 73.626953 283.70703 C 74.800286 284.72036 76.386719 285.53315 78.386719 286.14648 C 80.413386 286.75982 82.506016 287.06641 84.666016 287.06641 C 87.11935 287.06641 89.199583 286.69393 90.90625 285.94727 C 92.612917 285.2006 93.880365 284.2006 94.707031 282.94727 C 95.560364 281.69393 95.986328 280.29276 95.986328 278.74609 C 95.986328 276.93276 95.506875 275.49245 94.546875 274.42578 C 93.613542 273.35911 92.479818 272.57307 91.146484 272.06641 C 89.813151 271.53307 88.107344 271.02688 86.027344 270.54688 C 84.507344 270.17354 83.305781 269.84021 82.425781 269.54688 C 81.545781 269.25354 80.813229 268.85237 80.226562 268.3457 C 79.666563 267.83904 79.386719 267.18672 79.386719 266.38672 C 79.386719 265.24005 79.880521 264.32029 80.867188 263.62695 C 81.880521 262.93362 83.413464 262.58594 85.466797 262.58594 C 86.720131 262.58594 88.01237 262.77315 89.345703 263.14648 C 90.679036 263.51982 91.960833 264.06711 93.1875 264.78711 L 94.826172 260.74609 C 93.626172 259.94609 92.200208 259.33292 90.546875 258.90625 C 88.893542 258.47958 87.212527 258.26758 85.505859 258.26758 z M 114.22266 258.26758 C 111.36932 258.26758 108.79529 258.89315 106.50195 260.14648 C 104.20862 261.37315 102.41018 263.09331 101.10352 265.30664 C 99.796851 267.49331 99.142578 269.94602 99.142578 272.66602 C 99.142578 275.38602 99.796851 277.85307 101.10352 280.06641 C 102.41018 282.25307 104.20862 283.97323 106.50195 285.22656 C 108.79529 286.45323 111.36932 287.06641 114.22266 287.06641 C 117.07599 287.06641 119.65003 286.45323 121.94336 285.22656 C 124.23669 283.97323 126.03708 282.25307 127.34375 280.06641 C 128.65042 277.87974 129.30273 275.41268 129.30273 272.66602 C 129.30273 269.91935 128.65042 267.45424 127.34375 265.26758 C 126.03708 263.08091 124.23669 261.37315 121.94336 260.14648 C 119.65003 258.89315 117.07599 258.26758 114.22266 258.26758 z M 147.81445 258.26758 C 144.98779 258.26758 142.4281 258.89315 140.13477 260.14648 C 137.8681 261.37315 136.08206 263.08091 134.77539 265.26758 C 133.46872 267.45424 132.81445 269.91935 132.81445 272.66602 C 132.81445 275.41268 133.45437 277.87974 134.73438 280.06641 C 136.04104 282.25307 137.82708 283.97323 140.09375 285.22656 C 142.38708 286.45323 144.94872 287.06641 147.77539 287.06641 C 150.06872 287.06641 152.16135 286.66719 154.05469 285.86719 C 155.97469 285.06719 157.58786 283.90672 158.89453 282.38672 L 155.53516 279.1875 C 153.50849 281.40083 151.01469 282.50586 148.05469 282.50586 C 146.13469 282.50586 144.41453 282.09424 142.89453 281.26758 C 141.37453 280.41424 140.18732 279.23943 139.33398 277.74609 C 138.48065 276.25276 138.05469 274.55935 138.05469 272.66602 C 138.05469 270.77268 138.48065 269.07927 139.33398 267.58594 C 140.18732 266.0926 141.37453 264.93409 142.89453 264.10742 C 144.41453 263.25409 146.13469 262.82617 148.05469 262.82617 C 151.01469 262.82617 153.50849 263.92076 155.53516 266.10742 L 158.89453 262.94727 C 157.58786 261.42727 155.98708 260.2668 154.09375 259.4668 C 152.20042 258.6668 150.10779 258.26758 147.81445 258.26758 z M 163.87695 258.66602 L 163.87695 286.66602 L 169.07812 286.66602 L 169.07812 258.66602 L 163.87695 258.66602 z M 185.25195 258.66602 L 172.65234 286.66602 L 178.01172 286.66602 L 180.77148 280.1875 L 194.77148 280.1875 L 197.57227 286.66602 L 203.01172 286.66602 L 190.37109 258.66602 L 185.25195 258.66602 z M 206.5332 258.66602 L 206.5332 286.66602 L 226.37305 286.66602 L 226.37305 282.26758 L 211.73438 282.26758 L 211.73438 258.66602 L 206.5332 258.66602 z M 114.22266 262.82617 C 116.08932 262.82617 117.77034 263.25409 119.26367 264.10742 C 120.75701 264.93409 121.92987 266.10695 122.7832 267.62695 C 123.63654 269.12029 124.0625 270.79935 124.0625 272.66602 C 124.0625 274.53268 123.63654 276.22609 122.7832 277.74609 C 121.92987 279.23943 120.75701 280.41424 119.26367 281.26758 C 117.77034 282.09424 116.08932 282.50586 114.22266 282.50586 C 112.35599 282.50586 110.67693 282.09424 109.18359 281.26758 C 107.69026 280.41424 106.51544 279.23943 105.66211 277.74609 C 104.80878 276.22609 104.38281 274.53268 104.38281 272.66602 C 104.38281 270.79935 104.80878 269.12029 105.66211 267.62695 C 106.51544 266.10695 107.69026 264.93409 109.18359 264.10742 C 110.67693 263.25409 112.35599 262.82617 114.22266 262.82617 z M 187.77148 263.86719 L 193.05078 276.10742 L 182.53125 276.10742 L 187.77148 263.86719 z "
     style="font-style:normal;font-variant:normal;font-weight:600;font-stretch:normal;font-family:Montserrat;-inkscape-font-specification:'Montserrat Semi-Bold';fill:#ffffff;fill-opacity:1"
     id="path855"
     d="m 37.564453,211.89258 c -2.453333,0 -4.533568,0.37247 -6.240234,1.11914 -1.68,0.74667 -2.945495,1.76101 -3.798828,3.04101 -0.826667,1.25334 -1.240235,2.65256 -1.240235,4.19922 0,1.84 0.467058,3.30706 1.400391,4.40039 0.96,1.06667 2.093724,1.85271 3.400391,2.35938 1.333333,0.50667 3.065885,1.01482 5.199218,1.52148 1.52,0.37334 2.71961,0.70667 3.59961,1 0.88,0.29334 1.600156,0.70495 2.160156,1.23828 0.586667,0.50667 0.880859,1.16094 0.880859,1.96094 0,1.09334 -0.520547,1.97396 -1.560547,2.64063 -1.013333,0.66666 -2.560625,1 -4.640625,1 -1.68,0 -3.359062,-0.27985 -5.039062,-0.83985 -1.653333,-0.58666 -3.054505,-1.33356 -4.201172,-2.24023 l -1.798828,4.03906 c 1.173333,1.01333 2.759765,1.82612 4.759765,2.43945 2.026667,0.61334 4.119297,0.91993 6.279297,0.91993 2.453334,0 4.533568,-0.37248 6.240235,-1.11914 1.706666,-0.74667 2.974114,-1.74667 3.800781,-3 0.853333,-1.25334 1.279297,-2.65256 1.279297,-4.19922 0,-1.81334 -0.479453,-3.25365 -1.439453,-4.32032 -0.933334,-1.06666 -2.067058,-1.85466 -3.400391,-2.36132 -1.333333,-0.53334 -3.039141,-1.03954 -5.11914,-1.51953 -1.520001,-0.37334 -2.721563,-0.70667 -3.601563,-1 -0.88,-0.29334 -1.612552,-0.69256 -2.199219,-1.19922 -0.56,-0.50667 -0.839844,-1.16094 -0.839844,-1.96094 0,-1.14667 0.493803,-2.06643 1.480469,-2.75977 1.013334,-0.69333 2.546276,-1.03906 4.59961,-1.03906 1.253333,0 2.545573,0.18526 3.878906,0.55859 1.333333,0.37334 2.613177,0.92063 3.839844,1.64063 l 1.640625,-4.03906 c -1.2,-0.8 -2.625964,-1.41318 -4.279297,-1.83985 -1.653334,-0.42666 -3.334349,-0.64062 -5.041016,-0.64062 z m 55.4375,0 c -2.88,0 -5.480781,0.62557 -7.800781,1.8789 -2.293333,1.22667 -4.091771,2.93443 -5.398438,5.1211 -1.306666,2.18666 -1.960937,4.65372 -1.960937,7.40039 0,2.74667 0.654271,5.21177 1.960937,7.39844 1.306667,2.18666 3.105105,3.90682 5.398438,5.16015 2.293333,1.22667 4.86737,1.83985 7.720703,1.83985 2.026667,0 3.999922,-0.30659 5.919922,-0.91993 1.920003,-0.61333 3.601013,-1.492 5.041013,-2.63867 v -11.16015 h -4.921872 v 8.71875 c -1.653334,0.96 -3.573099,1.4414 -5.759766,1.4414 -1.946667,0 -3.693568,-0.42791 -5.240234,-1.28125 -1.520001,-0.85333 -2.71961,-2.0262 -3.59961,-3.51953 -0.853333,-1.49333 -1.279297,-3.17239 -1.279297,-5.03906 0,-1.92 0.425964,-3.62776 1.279297,-5.12109 0.88,-1.49334 2.079609,-2.65381 3.59961,-3.48047 1.546666,-0.82667 3.307916,-1.23829 5.28125,-1.23829 3.013333,0 5.585415,1.06589 7.718752,3.19922 l 3.28125,-3.19922 c -1.30667,-1.49333 -2.91985,-2.62705 -4.839846,-3.40039 -1.92,-0.77333 -4.053724,-1.16015 -6.400391,-1.16015 z m -39.800781,0.40039 v 28 h 21 v -4.36133 H 58.400391 v -7.71875 h 13.521484 v -4.28125 H 58.400391 v -7.2793 h 15.240234 v -4.35937 z m 57.259768,0 v 15.79883 c 0,4.05333 1.08023,7.17466 3.24023,9.36132 2.16,2.16001 5.17435,3.23829 9.04102,3.23829 3.86666,0 6.86666,-1.07829 9,-3.23829 2.16,-2.18666 3.23828,-5.30799 3.23828,-9.36132 v -15.79883 h -5.11914 v 15.59961 c 0,5.49333 -2.36008,8.24023 -7.08008,8.24023 -4.74667,0 -7.11914,-2.7469 -7.11914,-8.24023 v -15.59961 z m 31.80273,0 v 28 h 5.19922 v -8.16016 h 6.32031 c 0.48,0 0.84008,-0.0144 1.08008,-0.041 l 5.7207,8.20117 h 5.59961 l -6.43945,-9.20117 c 1.92,-0.74667 3.38706,-1.88039 4.40039,-3.40039 1.04,-1.52 1.55859,-3.33279 1.55859,-5.43946 0,-2.05333 -0.47945,-3.82698 -1.43945,-5.32031 -0.96,-1.49333 -2.34682,-2.63945 -4.16015,-3.43945 -1.78667,-0.8 -3.89365,-1.19922 -6.32032,-1.19922 z m 29.21875,0 v 28 h 5.19922 v -28 z m 12.73438,0 v 28 h 12.24023 c 2.98667,0 5.63899,-0.57404 7.95899,-1.7207 2.32,-1.17334 4.12039,-2.81326 5.40039,-4.91993 1.28,-2.13333 1.91992,-4.58604 1.91992,-7.35937 0,-2.77333 -0.63992,-5.21365 -1.91992,-7.32031 -1.28,-2.13334 -3.08039,-3.77326 -5.40039,-4.91993 -2.32,-1.17333 -4.97232,-1.75976 -7.95899,-1.75976 z m 41.29687,0 -12.59961,28 h 5.35938 l 2.75976,-6.48047 h 14 l 2.80078,6.48047 h 5.43946 l -12.64063,-28 z m 21.28125,0 v 28 h 12.24024 c 2.98666,0 5.63898,-0.57404 7.95898,-1.7207 2.32,-1.17334 4.12039,-2.81326 5.40039,-4.91993 1.28,-2.13333 1.91992,-4.58604 1.91992,-7.35937 0,-2.77333 -0.63992,-5.21365 -1.91992,-7.32031 -1.28,-2.13334 -3.08039,-3.77326 -5.40039,-4.91993 -2.32,-1.17333 -4.97232,-1.75976 -7.95898,-1.75976 z m -99.33203,4.39844 h 6.08008 c 2.26667,0 3.98682,0.4814 5.16015,1.4414 1.17334,0.96 1.75977,2.33248 1.75977,4.11914 0,1.78667 -0.58643,3.17349 -1.75977,4.16016 -1.17333,0.96 -2.89348,1.43945 -5.16015,1.43945 h -6.08008 z m 41.95313,0 h 6.80078 c 2.05333,0 3.85372,0.40117 5.40039,1.20117 1.57333,0.77333 2.77294,1.89271 3.59961,3.35937 0.85333,1.44 1.27929,3.12102 1.27929,5.04102 0,1.92 -0.42596,3.61341 -1.27929,5.08008 -0.82667,1.44 -2.02628,2.55937 -3.59961,3.35937 -1.54667,0.77334 -3.34706,1.16016 -5.40039,1.16016 h -6.80078 z m 62.57812,0 h 6.80078 c 2.05334,0 3.85373,0.40117 5.40039,1.20117 1.57334,0.77333 2.77295,1.89271 3.59961,3.35937 0.85334,1.44 1.2793,3.12102 1.2793,5.04102 0,1.92 -0.42596,3.61341 -1.2793,5.08008 -0.82666,1.44 -2.02627,2.55937 -3.59961,3.35937 -1.54666,0.77334 -3.34705,1.16016 -5.40039,1.16016 h -6.80078 z m -23.96094,0.80078 5.2793,12.24023 H 222.79297 Z M 85.505859,258.26758 c -2.453333,0 -4.533567,0.37247 -6.240234,1.11914 -1.68,0.74667 -2.945495,1.75906 -3.798828,3.03906 -0.826667,1.25333 -1.240235,2.65451 -1.240235,4.20117 10e-7,1.84 0.467057,3.30706 1.400391,4.40039 0.96,1.06667 2.093725,1.85271 3.400391,2.35938 1.333333,0.50667 3.065885,1.01286 5.199218,1.51953 1.52,0.37333 2.71961,0.70667 3.59961,1 0.880001,0.29333 1.600156,0.7069 2.160156,1.24023 0.586666,0.50667 0.88086,1.16094 0.88086,1.96094 0,1.09334 -0.520547,1.97201 -1.560547,2.63867 -1.013333,0.66667 -2.560625,1 -4.640625,1 -1.68,0 -3.359063,-0.27984 -5.039063,-0.83984 -1.653333,-0.58667 -3.054505,-1.33357 -4.201172,-2.24023 l -1.798828,4.04101 c 1.173333,1.01333 2.759766,1.82612 4.759766,2.43945 2.026667,0.61334 4.119297,0.91993 6.279297,0.91993 2.453334,0 4.533567,-0.37248 6.240234,-1.11914 1.706667,-0.74667 2.974115,-1.74667 3.800781,-3 0.853333,-1.25334 1.279297,-2.65451 1.279297,-4.20118 0,-1.81333 -0.479453,-3.25364 -1.439453,-4.32031 -0.933333,-1.06667 -2.067057,-1.85271 -3.400391,-2.35937 -1.333333,-0.53334 -3.03914,-1.03953 -5.11914,-1.51953 -1.52,-0.37334 -2.721563,-0.70667 -3.601563,-1 -0.88,-0.29334 -1.612552,-0.69451 -2.199219,-1.20118 -0.559999,-0.50666 -0.839843,-1.15898 -0.839843,-1.95898 0,-1.14667 0.493802,-2.06643 1.480469,-2.75977 1.013333,-0.69333 2.546276,-1.04101 4.599609,-1.04101 1.253334,0 2.545573,0.18721 3.878906,0.56054 1.333333,0.37334 2.61513,0.92063 3.841797,1.64063 l 1.638672,-4.04102 c -1.2,-0.8 -2.625964,-1.41317 -4.279297,-1.83984 -1.653333,-0.42667 -3.334348,-0.63867 -5.041016,-0.63867 z m 28.716801,0 c -2.85334,0 -5.42737,0.62557 -7.72071,1.8789 -2.29333,1.22667 -4.09177,2.94683 -5.39843,5.16016 -1.306669,2.18667 -1.960942,4.63938 -1.960942,7.35938 0,2.72 0.654273,5.18705 1.960942,7.40039 1.30666,2.18666 3.1051,3.90682 5.39843,5.16015 2.29334,1.22667 4.86737,1.83985 7.72071,1.83985 2.85333,0 5.42737,-0.61318 7.7207,-1.83985 2.29333,-1.25333 4.09372,-2.97349 5.40039,-5.16015 1.30667,-2.18667 1.95898,-4.65373 1.95898,-7.40039 0,-2.74667 -0.65231,-5.21178 -1.95898,-7.39844 -1.30667,-2.18667 -3.10706,-3.89443 -5.40039,-5.1211 -2.29333,-1.25333 -4.86737,-1.8789 -7.7207,-1.8789 z m 33.59179,0 c -2.82666,0 -5.38635,0.62557 -7.67968,1.8789 -2.26667,1.22667 -4.05271,2.93443 -5.35938,5.1211 -1.30667,2.18666 -1.96094,4.65177 -1.96094,7.39844 0,2.74666 0.63992,5.21372 1.91993,7.40039 1.30666,2.18666 3.0927,3.90682 5.35937,5.16015 2.29333,1.22667 4.85497,1.83985 7.68164,1.83985 2.29333,0 4.38596,-0.39922 6.2793,-1.19922 1.92,-0.8 3.53317,-1.96047 4.83984,-3.48047 l -3.35937,-3.19922 c -2.02667,2.21333 -4.52047,3.31836 -7.48047,3.31836 -1.92,0 -3.64016,-0.41162 -5.16016,-1.23828 -1.52,-0.85334 -2.70721,-2.02815 -3.56055,-3.52149 -0.85333,-1.49333 -1.27929,-3.18674 -1.27929,-5.08007 0,-1.89334 0.42596,-3.58675 1.27929,-5.08008 0.85334,-1.49334 2.04055,-2.65185 3.56055,-3.47852 1.52,-0.85333 3.24016,-1.28125 5.16016,-1.28125 2.96,0 5.4538,1.09459 7.48047,3.28125 l 3.35937,-3.16015 c -1.30667,-1.52 -2.90745,-2.68047 -4.80078,-3.48047 -1.89333,-0.8 -3.98596,-1.19922 -6.2793,-1.19922 z m 16.0625,0.39844 v 28 h 5.20117 v -28 z m 21.375,0 -12.59961,28 h 5.35938 l 2.75976,-6.47852 h 14 l 2.80079,6.47852 h 5.43945 l -12.64063,-28 z m 21.28125,0 v 28 h 19.83985 v -4.39844 h -14.63867 v -23.60156 z m -92.31054,4.16015 c 1.86666,0 3.54768,0.42792 5.04101,1.28125 1.49334,0.82667 2.6662,1.99953 3.51953,3.51953 0.85334,1.49334 1.2793,3.1724 1.2793,5.03907 0,1.86666 -0.42596,3.56007 -1.2793,5.08007 -0.85333,1.49334 -2.02619,2.66815 -3.51953,3.52149 -1.49333,0.82666 -3.17435,1.23828 -5.04101,1.23828 -1.86667,0 -3.54573,-0.41162 -5.03907,-1.23828 -1.49333,-0.85334 -2.66815,-2.02815 -3.52148,-3.52149 -0.85333,-1.52 -1.2793,-3.21341 -1.2793,-5.08007 0,-1.86667 0.42597,-3.54573 1.2793,-5.03907 0.85333,-1.52 2.02815,-2.69286 3.52148,-3.51953 1.49334,-0.85333 3.1724,-1.28125 5.03907,-1.28125 z m 73.54882,1.04102 5.2793,12.24023 h -10.51953 z" /></g>
</svg>