<?xml version="1.0" encoding="UTF-8" standalone="no"?>
<!-- Generator: Adobe Illustrator 16.0.0, SVG Export Plug-In . SVG Version: 6.00 Build 0)  -->

<svg
   xmlns:dc="http://purl.org/dc/elements/1.1/"
   xmlns:cc="http://creativecommons.org/ns#"
   xmlns:rdf="http://www.w3.org/1999/02/22-rdf-syntax-ns#"
   xmlns:svg="http://www.w3.org/2000/svg"
   xmlns="http://www.w3.org/2000/svg"
   xmlns:sodipodi="http://sodipodi.sourceforge.net/DTD/sodipodi-0.dtd"
   xmlns:inkscape="http://www.inkscape.org/namespaces/inkscape"
   version="1.0"
   id="Capa_1"
   x="0px"
   y="0px"
   width="300px"
   height="300px"
   viewBox="0 0 300 300"
   enable-background="new 0 0 300 300"
   xml:space="preserve"
   sodipodi:docname="b1.svg"
   inkscape:version="0.92.4 (5da689c313, 2019-01-14)"><metadata
   id="metadata25"><rdf:RDF><cc:Work
       rdf:about=""><dc:format>image/svg+xml</dc:format><dc:type
         rdf:resource="http://purl.org/dc/dcmitype/StillImage" /></cc:Work></rdf:RDF></metadata><defs
   id="defs23">
	
	

		
		
		
		
		
		
	</defs><sodipodi:namedview
   pagecolor="#ffffff"
   bordercolor="#666666"
   borderopacity="1"
   objecttolerance="10"
   gridtolerance="10"
   guidetolerance="10"
   inkscape:pageopacity="0"
   inkscape:pageshadow="2"
   inkscape:window-width="1920"
   inkscape:window-height="1027"
   id="namedview21"
   showgrid="false"
   inkscape:zoom="0.78666667"
   inkscape:cx="-210.82839"
   inkscape:cy="150"
   inkscape:window-x="-8"
   inkscape:window-y="-8"
   inkscape:window-maximized="1"
   inkscape:current-layer="Capa_1" />
<path
   style="fill:#bd1818;fill-opacity:1"
   inkscape:connector-curvature="0"
   id="path2"
   d="M 242.623,0 H 57.378 C 25.82,0 0,25.82 0,57.377 V 242.622 C 0,274.18 25.82,300 57.378,300 H 242.623 C 274.181,300 300,274.18 300,242.622 V 57.377 C 300,25.82 274.181,0 242.623,0 Z" /><path
   d="m 237.16332,93.359 c 0.03,-5.087 -6.013,-11.348 -11.167,-11.244 -12.807,0.257 -25.622,0.085 -38.436,0.085 h -3.535 c 0,-3.951 -0.2,-7.693 0.041,-11.406 0.506,-7.747 -8.048,-16.074 -15.808,-15.874 -12.707,0.327 -25.43,0.201 -38.145,0.048 -8.2,-0.099 -15.844,7.689 -15.726,15.717 0.055,3.732 0.01,7.464 0.01,11.516 -13.821,0 -27.109001,-0.007 -40.396001,0.003 -6.435,0.005 -11.16,4.72 -11.161,11.138 -0.005,31.597 -0.005,63.194 0,94.792 10e-4,6.353 4.806,11.174 11.149,11.175 50.672001,0.006 101.343001,-0.047 152.015001,0.079 5.208,0.014 11.186,-6.137 11.155,-11.236 -0.184,-31.599 -0.186,-63.196 0.004,-94.793 z m -111.005,-21.484 c 0.907,-4.305 2.661,-5.616 7.181,-5.67 10.405,-0.123 20.814,-0.166 31.218,0.012 5.881,0.1 8.291,2.929 8.313,8.919 0.009,2.208 0.002,4.417 0.002,6.843 h -47.539 c 0.257,-3.509 0.148,-6.889 0.825,-10.104 z m 54.9,72.598 c -0.059,3.309 -1.023,4.286 -4.294,4.297 -6.14,0.021 -12.279,0.006 -18.803,0.006 0,4.41 0,8.527 0,12.645 0.001,2.215 0.022,4.43 -0.004,6.644 -0.029,2.518 -1.206,3.889 -3.853,3.845 -2.695,-0.043 -5.392,0.017 -8.087,-0.015 -2.986,-0.035 -4.046,-1.108 -4.065,-4.191 -0.032,-5.199 0,-10.399 -0.016,-15.598 -0.002,-1.036 -0.099,-2.07 -0.164,-3.329 -6.305,0 -12.359,0.01 -18.412,-0.003 -3.501,-0.008 -4.466,-0.94 -4.512,-4.372 -0.033,-2.406 -0.03,-4.814 -0.002,-7.221 0.043,-3.483 0.997,-4.44 4.441,-4.449 6.056,-0.016 12.113,-0.005 18.657,-0.005 0,-2.849 0,-5.505 0,-8.16 0,-3.658 -0.042,-7.317 0.011,-10.976 0.04,-2.871 1.143,-3.942 3.989,-3.981 2.599,-0.035 5.198,-0.025 7.798,-0.003 3.177,0.027 4.196,1.062 4.212,4.345 0.026,5.103 0.007,10.206 0.006,15.31 0,1.04 0,2.08 0,3.466 5.891,0 11.443,0 16.995,0 5.689,0 6.108,0.429 6.109,6.258 0.001,1.828 0.026,3.658 -0.006,5.487 z"
   id="path4"
   inkscape:connector-curvature="0"
   style="fill:#ffffff" />

<g
   aria-label="SALUD"
   style="font-style:normal;font-weight:normal;font-size:40px;line-height:1.25;font-family:sans-serif;text-align:center;letter-spacing:0px;word-spacing:0px;text-anchor:middle;fill:#000000;fill-opacity:1;stroke:none"
   id="text817"><path
     sodipodi:type="inkscape:offset"
     inkscape:radius="0"
     inkscape:original="M 91.822266 222.02344 C 89.368932 222.02344 87.288698 222.39786 85.582031 223.14453 C 83.902031 223.8912 82.636536 224.90359 81.783203 226.18359 C 80.956536 227.43693 80.542969 228.83615 80.542969 230.38281 C 80.542969 232.22281 81.010026 233.68987 81.943359 234.7832 C 82.903359 235.84987 84.037083 236.63786 85.34375 237.14453 C 86.677083 237.6512 88.409635 238.1574 90.542969 238.66406 C 92.062969 239.0374 93.262578 239.37073 94.142578 239.66406 C 95.022578 239.9574 95.742734 240.37096 96.302734 240.9043 C 96.889401 241.41096 97.183594 242.06328 97.183594 242.86328 C 97.183594 243.95661 96.663047 244.83724 95.623047 245.50391 C 94.609714 246.17057 93.062422 246.50391 90.982422 246.50391 C 89.302422 246.50391 87.623359 246.22406 85.943359 245.66406 C 84.290026 245.0774 82.888854 244.33049 81.742188 243.42383 L 79.943359 247.46289 C 81.116693 248.47622 82.703125 249.29096 84.703125 249.9043 C 86.729792 250.51763 88.822422 250.82422 90.982422 250.82422 C 93.435755 250.82422 95.51599 250.44979 97.222656 249.70312 C 98.929323 248.95646 100.19677 247.95646 101.02344 246.70312 C 101.87677 245.44979 102.30273 244.05057 102.30273 242.50391 C 102.30273 240.69057 101.82328 239.25026 100.86328 238.18359 C 99.929945 237.11693 98.796224 236.33089 97.462891 235.82422 C 96.129557 235.29089 94.42375 234.78469 92.34375 234.30469 C 90.82375 233.93135 89.622187 233.59802 88.742188 233.30469 C 87.862187 233.01135 87.129635 232.61018 86.542969 232.10352 C 85.982969 231.59685 85.703125 230.94453 85.703125 230.14453 C 85.703125 228.99786 86.196927 228.07615 87.183594 227.38281 C 88.196927 226.68948 89.72987 226.34375 91.783203 226.34375 C 93.036536 226.34375 94.328776 226.53096 95.662109 226.9043 C 96.995443 227.27763 98.275286 227.82297 99.501953 228.54297 L 101.14258 224.50391 C 99.942575 223.70391 98.516615 223.09073 96.863281 222.66406 C 95.209948 222.2374 93.528932 222.02344 91.822266 222.02344 z M 116.09961 222.42383 L 103.5 250.42383 L 108.85938 250.42383 L 111.61914 243.94336 L 125.61914 243.94336 L 128.41992 250.42383 L 133.85938 250.42383 L 121.21875 222.42383 L 116.09961 222.42383 z M 137.38086 222.42383 L 137.38086 250.42383 L 157.2207 250.42383 L 157.2207 246.02344 L 142.58008 246.02344 L 142.58008 222.42383 L 137.38086 222.42383 z M 160.73438 222.42383 L 160.73438 238.22461 C 160.73438 242.27794 161.81461 245.39732 163.97461 247.58398 C 166.13461 249.74398 169.14896 250.82422 173.01562 250.82422 C 176.88229 250.82422 179.88229 249.74398 182.01562 247.58398 C 184.17562 245.39732 185.25391 242.27794 185.25391 238.22461 L 185.25391 222.42383 L 180.13477 222.42383 L 180.13477 238.02344 C 180.13477 243.51677 177.77469 246.26367 173.05469 246.26367 C 168.30802 246.26367 165.93555 243.51677 165.93555 238.02344 L 165.93555 222.42383 L 160.73438 222.42383 z M 192.53711 222.42383 L 192.53711 250.42383 L 204.77734 250.42383 C 207.76401 250.42383 210.41633 249.84979 212.73633 248.70312 C 215.05633 247.52979 216.85672 245.88987 218.13672 243.7832 C 219.41672 241.64987 220.05664 239.19716 220.05664 236.42383 C 220.05664 233.65049 219.41672 231.21018 218.13672 229.10352 C 216.85672 226.97018 215.05633 225.33026 212.73633 224.18359 C 210.41633 223.01026 207.76401 222.42383 204.77734 222.42383 L 192.53711 222.42383 z M 197.73633 226.82422 L 204.53711 226.82422 C 206.59044 226.82422 208.39083 227.22344 209.9375 228.02344 C 211.51083 228.79677 212.71044 229.91615 213.53711 231.38281 C 214.39044 232.82281 214.81641 234.50383 214.81641 236.42383 C 214.81641 238.34383 214.39044 240.03724 213.53711 241.50391 C 212.71044 242.94391 211.51083 244.06328 209.9375 244.86328 C 208.39083 245.63661 206.59044 246.02344 204.53711 246.02344 L 197.73633 246.02344 L 197.73633 226.82422 z M 118.61914 227.62305 L 123.89844 239.86328 L 113.37891 239.86328 L 118.61914 227.62305 z "
     style="font-style:normal;font-variant:normal;font-weight:600;font-stretch:normal;font-family:Montserrat;-inkscape-font-specification:'Montserrat Semi-Bold';fill:#ffffff;fill-opacity:1"
     id="path855"
     d="m 91.822266,222.02344 c -2.453334,0 -4.533568,0.37442 -6.240235,1.12109 -1.68,0.74667 -2.945495,1.75906 -3.798828,3.03906 -0.826667,1.25334 -1.240234,2.65256 -1.240234,4.19922 0,1.84 0.467057,3.30706 1.40039,4.40039 0.96,1.06667 2.093724,1.85466 3.400391,2.36133 1.333333,0.50667 3.065885,1.01287 5.199219,1.51953 1.52,0.37334 2.719609,0.70667 3.599609,1 0.88,0.29334 1.600156,0.7069 2.160156,1.24024 0.586667,0.50666 0.88086,1.15898 0.88086,1.95898 0,1.09333 -0.520547,1.97396 -1.560547,2.64063 -1.013333,0.66666 -2.560625,1 -4.640625,1 -1.68,0 -3.359063,-0.27985 -5.039063,-0.83985 -1.653333,-0.58666 -3.054505,-1.33357 -4.201171,-2.24023 l -1.798829,4.03906 c 1.173334,1.01333 2.759766,1.82807 4.759766,2.44141 2.026667,0.61333 4.119297,0.91992 6.279297,0.91992 2.453333,0 4.533568,-0.37443 6.240234,-1.1211 1.706667,-0.74666 2.974114,-1.74666 3.800784,-3 0.85333,-1.25333 1.27929,-2.65255 1.27929,-4.19921 0,-1.81334 -0.47945,-3.25365 -1.43945,-4.32032 -0.933335,-1.06666 -2.067056,-1.8527 -3.400389,-2.35937 -1.333334,-0.53333 -3.039141,-1.03953 -5.119141,-1.51953 -1.52,-0.37334 -2.721563,-0.70667 -3.601562,-1 -0.880001,-0.29334 -1.612553,-0.69451 -2.199219,-1.20117 -0.56,-0.50667 -0.839844,-1.15899 -0.839844,-1.95899 0,-1.14667 0.493802,-2.06838 1.480469,-2.76172 1.013333,-0.69333 2.546276,-1.03906 4.599609,-1.03906 1.253333,0 2.545573,0.18721 3.878906,0.56055 1.333334,0.37333 2.613177,0.91867 3.839844,1.63867 l 1.640627,-4.03906 c -1.200005,-0.8 -2.625965,-1.41318 -4.279299,-1.83985 -1.653333,-0.42666 -3.334349,-0.64062 -5.041015,-0.64062 z m 24.277344,0.40039 -12.59961,28 h 5.35938 l 2.75976,-6.48047 h 14 l 2.80078,6.48047 h 5.43946 l -12.64063,-28 z m 21.28125,0 v 28 h 19.83984 v -4.40039 h -14.64062 v -23.59961 z m 23.35352,0 v 15.80078 c 0,4.05333 1.08023,7.17271 3.24023,9.35937 2.16,2.16 5.17435,3.24024 9.04101,3.24024 3.86667,0 6.86667,-1.08024 9,-3.24024 2.16,-2.18666 3.23829,-5.30604 3.23829,-9.35937 v -15.80078 h -5.11914 v 15.59961 c 0,5.49333 -2.36008,8.24023 -7.08008,8.24023 -4.74667,0 -7.11914,-2.7469 -7.11914,-8.24023 v -15.59961 z m 31.80273,0 v 28 h 12.24023 c 2.98667,0 5.63899,-0.57404 7.95899,-1.72071 2.32,-1.17333 4.12039,-2.81325 5.40039,-4.91992 1.28,-2.13333 1.91992,-4.58604 1.91992,-7.35937 0,-2.77334 -0.63992,-5.21365 -1.91992,-7.32031 -1.28,-2.13334 -3.08039,-3.77326 -5.40039,-4.91993 -2.32,-1.17333 -4.97232,-1.75976 -7.95899,-1.75976 z m 5.19922,4.40039 h 6.80078 c 2.05333,0 3.85372,0.39922 5.40039,1.19922 1.57333,0.77333 2.77294,1.89271 3.59961,3.35937 0.85333,1.44 1.2793,3.12102 1.2793,5.04102 0,1.92 -0.42597,3.61341 -1.2793,5.08008 -0.82667,1.44 -2.02628,2.55937 -3.59961,3.35937 -1.54667,0.77333 -3.34706,1.16016 -5.40039,1.16016 h -6.80078 z m -79.11719,0.79883 5.2793,12.24023 h -10.51953 z" /></g></svg>