<?xml version="1.0" encoding="UTF-8" standalone="no"?>
<!-- Generator: Adobe Illustrator 16.0.0, SVG Export Plug-In . SVG Version: 6.00 Build 0)  -->

<svg
   xmlns:dc="http://purl.org/dc/elements/1.1/"
   xmlns:cc="http://creativecommons.org/ns#"
   xmlns:rdf="http://www.w3.org/1999/02/22-rdf-syntax-ns#"
   xmlns:svg="http://www.w3.org/2000/svg"
   xmlns="http://www.w3.org/2000/svg"
   xmlns:sodipodi="http://sodipodi.sourceforge.net/DTD/sodipodi-0.dtd"
   xmlns:inkscape="http://www.inkscape.org/namespaces/inkscape"
   version="1.0"
   id="Capa_1"
   x="0px"
   y="0px"
   width="300px"
   height="300px"
   viewBox="0 0 300 300"
   enable-background="new 0 0 300 300"
   xml:space="preserve"
   sodipodi:docname="b3.svg"
   inkscape:version="0.92.4 (5da689c313, 2019-01-14)"><metadata
   id="metadata39"><rdf:RDF><cc:Work
       rdf:about=""><dc:format>image/svg+xml</dc:format><dc:type
         rdf:resource="http://purl.org/dc/dcmitype/StillImage" /></cc:Work></rdf:RDF></metadata><defs
   id="defs37">
	
	

		
		
		
		
		
		
		
		
		
		
		
		
		
	</defs><sodipodi:namedview
   pagecolor="#ffffff"
   bordercolor="#666666"
   borderopacity="1"
   objecttolerance="10"
   gridtolerance="10"
   guidetolerance="10"
   inkscape:pageopacity="0"
   inkscape:pageshadow="2"
   inkscape:window-width="1920"
   inkscape:window-height="1027"
   id="namedview35"
   showgrid="false"
   inkscape:zoom="0.78666667"
   inkscape:cx="-263.13559"
   inkscape:cy="150"
   inkscape:window-x="-8"
   inkscape:window-y="-8"
   inkscape:window-maximized="1"
   inkscape:current-layer="Capa_1" />
<path
   style="fill:#f57821;fill-opacity:1"
   inkscape:connector-curvature="0"
   id="path2"
   d="M 242.623,300 H 57.378 C 25.82,300 0,274.18 0,242.622 V 57.377 C 0,25.82 25.82,0 57.378,0 H 242.623 C 274.181,0 300,25.82 300,57.377 V 242.622 C 300,274.18 274.181,300 242.623,300" /><g
   id="g72"
   transform="matrix(1.1349184,0,0,1.1349184,-28.341996,-27.218174)"><path
     style="fill:#ffffff"
     inkscape:connector-curvature="0"
     id="path4"
     d="m 269.216,161.479 c -5.798,-8.505 -12.153,-16.626 -18.094,-25.037 -2.704,-3.829 -5.634,-7.454 -7.97,-11.637 -3.149,-5.641 -7.543,-10.636 -11.765,-15.599 -1.514,-1.779 -3.936,-3.155 -6.205,-3.821 -2.602,-0.764 -5.495,-0.729 -8.258,-0.699 -8.646,0.094 -17.29,0.452 -25.938,0.501 -4.98,0.028 -9.971,-0.593 -14.946,-0.478 -6.781,0.158 -13.572,0.683 -18.398,6.261 -2.296,-1.427 -4.32,-2.852 -6.491,-4.001 -4.478,-2.371 -9.449,-2.191 -14.29,-2.262 -4.883,-0.07 -9.771,0.451 -14.659,0.479 -3.536,0.02 -7.072,-0.456 -10.612,-0.512 -5.877,-0.093 -11.758,0.055 -17.635,-0.047 -5.957,-0.103 -10.144,2.654 -13.103,7.625 -0.919,1.542 -1.794,3.123 -2.853,4.566 -8.378,11.44 -16.824,22.831 -25.187,34.281 -3.458,4.735 -6.568,9.737 -10.205,14.325 -2.948,3.719 -4.241,7.701 -2.358,11.959 2.207,4.99 6.054,8.528 11.982,8.042 2.846,-0.234 5.657,-1.324 8.401,-2.267 5.225,-1.797 10.407,-3.721 15.573,-5.68 3.05,-1.155 3.797,-0.735 3.807,2.52 0.017,6.168 0.025,12.336 -0.008,18.504 -0.01,1.923 0.078,3.078 2.768,3.045 11.216,-0.138 22.437,0.088 33.654,0.121 0.69,0.002 1.382,-0.496 2.77,-1.03 -4.912,-2.163 -9.118,-3.896 -13.199,-5.886 -1.223,-0.596 -2.962,-1.884 -2.989,-2.896 -0.197,-7.117 -0.102,-14.249 0.15,-21.367 0.04,-1.147 1.068,-2.821 2.076,-3.269 2.94,-1.305 6.11,-2.084 9.173,-3.121 4.514,-1.528 9.139,-2.816 13.491,-4.718 7.854,-3.432 9.838,-9.529 7.146,-16.944 -1.987,-5.475 -9.15,-10.607 -16.133,-7.33 -3.938,1.849 -8.294,2.79 -12.379,4.356 -2.314,0.887 -2.929,0.207 -2.914,-2.063 0.057,-8.577 0.02,-17.154 0.038,-25.731 0.002,-0.531 0.201,-1.062 0.359,-1.846 3.177,0.918 6.195,1.689 9.147,2.663 12.741,4.202 25.444,8.516 38.206,12.656 2.306,0.747 5.049,1.713 7.188,1.12 7.017,-1.943 13.853,-4.54 20.747,-6.918 8.815,-3.039 17.608,-6.144 26.435,-9.151 3.148,-1.072 3.8,-0.559 3.804,2.646 0.01,7.806 0.01,15.612 0,23.419 -0.004,3.321 -0.604,3.626 -3.743,2.483 -4.466,-1.624 -8.894,-3.658 -13.521,-4.453 -6.353,-1.091 -12.368,3.975 -13.835,10.676 -1.321,6.044 2.151,12.327 8.143,14.492 6.611,2.39 13.231,4.771 19.92,6.932 2.295,0.741 3.217,1.742 3.102,4.241 -0.217,4.713 -0.062,9.441 -0.062,14.164 0,7.839 -0.027,7.771 -7.472,10.715 -3.666,1.45 -7.211,3.208 -10.811,4.826 0.993,0.867 2.013,1.336 3.035,1.34 12.432,0.051 24.864,-0.002 37.295,0.064 2.238,0.012 2.782,-0.981 2.759,-2.993 -0.073,-6.457 -0.026,-12.914 -0.026,-19.371 0,-0.916 0,-1.832 0,-3.434 1.164,0.688 1.539,0.997 1.971,1.151 7.795,2.776 15.544,5.699 23.413,8.246 6.744,2.185 14.782,-4.287 15.186,-11.411 0.301,-5.335 -3.138,-8.716 -5.68,-12.447 z" /><path
     style="fill:#ffffff"
     inkscape:connector-curvature="0"
     id="path6"
     d="m 158.872,93.29 c 5.295,2.042 10.612,1.713 16.001,0.293 1.11,-0.292 2.657,-0.166 3.613,0.412 3.602,2.176 7.172,4.154 11.456,4.852 6.428,1.043 12.232,-0.017 17.674,-3.649 1.76,-1.175 3.352,-2.919 6.163,-1.849 4.999,1.902 10.156,2.021 16.091,-0.535 -2.12,-1.304 -3.736,-2.034 -5.03,-3.142 -4.341,-3.717 -6.268,-8.76 -6.022,-14.233 0.358,-7.986 -2.328,-14.4 -8.221,-19.6 -7.25,-6.396 -15.598,-7.773 -24.571,-4.731 -11.039,3.741 -16.334,12.901 -16.791,24.597 -0.189,4.853 -1.688,9.546 -5.718,12.842 -1.694,1.386 -3.601,2.512 -5.441,3.776 0.429,0.535 0.564,0.877 0.796,0.967 z" /><path
     style="fill:#ffffff"
     inkscape:connector-curvature="0"
     id="path8"
     d="m 120.091,99.353 c 13.248,0.014 25.341,-11.006 24.606,-25.09 0.919,-13.397 -11.292,-24.191 -23.924,-24.676 -13.771,-0.528 -24.887,12.107 -25.295,23.029 -0.613,16.446 11.853,26.724 24.613,26.737 z" /></g>
<g
   aria-label="EDUCACIÓN"
   style="font-style:normal;font-weight:normal;font-size:40px;line-height:1.25;font-family:sans-serif;text-align:center;letter-spacing:0px;word-spacing:0px;text-anchor:middle;fill:#000000;fill-opacity:1;stroke:none"
   id="text76"><path
     sodipodi:type="inkscape:offset"
     inkscape:radius="0"
     inkscape:original="M 231.42969 224.83398 L 226.0293 230.3125 L 230.34961 230.3125 L 237.31055 224.83398 L 231.42969 224.83398 z M 129.54492 232.19336 C 126.71826 232.19336 124.15857 232.81893 121.86523 234.07227 C 119.59857 235.29893 117.81057 237.00669 116.50391 239.19336 C 115.19724 241.38003 114.54492 243.84708 114.54492 246.59375 C 114.54492 249.34042 115.18484 251.80747 116.46484 253.99414 C 117.77151 256.18081 119.55755 257.89901 121.82422 259.15234 C 124.11755 260.37901 126.67724 260.99414 129.50391 260.99414 C 131.79724 260.99414 133.89182 260.59297 135.78516 259.79297 C 137.70516 258.99297 139.31833 257.8325 140.625 256.3125 L 137.26367 253.11328 C 135.23701 255.32661 132.74516 256.43359 129.78516 256.43359 C 127.86516 256.43359 126.145 256.02003 124.625 255.19336 C 123.105 254.34003 121.91779 253.16716 121.06445 251.67383 C 120.21112 250.18049 119.78516 248.48708 119.78516 246.59375 C 119.78516 244.70042 120.21112 243.00701 121.06445 241.51367 C 121.91779 240.02034 123.105 238.85987 124.625 238.0332 C 126.145 237.17987 127.86516 236.75391 129.78516 236.75391 C 132.74516 236.75391 135.23701 237.84654 137.26367 240.0332 L 140.625 236.87305 C 139.31833 235.35305 137.71755 234.19258 135.82422 233.39258 C 133.93089 232.59258 131.83826 232.19336 129.54492 232.19336 z M 187.51367 232.19336 C 184.68701 232.19336 182.12732 232.81893 179.83398 234.07227 C 177.56732 235.29893 175.77932 237.00669 174.47266 239.19336 C 173.16599 241.38003 172.51367 243.84708 172.51367 246.59375 C 172.51367 249.34042 173.15359 251.80747 174.43359 253.99414 C 175.74026 256.18081 177.5263 257.89901 179.79297 259.15234 C 182.0863 260.37901 184.64599 260.99414 187.47266 260.99414 C 189.76599 260.99414 191.86057 260.59297 193.75391 259.79297 C 195.67391 258.99297 197.28708 257.8325 198.59375 256.3125 L 195.23242 253.11328 C 193.20576 255.32661 190.71391 256.43359 187.75391 256.43359 C 185.83391 256.43359 184.11375 256.02003 182.59375 255.19336 C 181.07375 254.34003 179.88654 253.16716 179.0332 251.67383 C 178.17987 250.18049 177.75391 248.48708 177.75391 246.59375 C 177.75391 244.70042 178.17987 243.00701 179.0332 241.51367 C 179.88654 240.02034 181.07375 238.85987 182.59375 238.0332 C 184.11375 237.17987 185.83391 236.75391 187.75391 236.75391 C 190.71391 236.75391 193.20576 237.84654 195.23242 240.0332 L 198.59375 236.87305 C 197.28708 235.35305 195.6863 234.19258 193.79297 233.39258 C 191.89964 232.59258 189.80701 232.19336 187.51367 232.19336 z M 229.39062 232.19336 C 226.53729 232.19336 223.96326 232.81893 221.66992 234.07227 C 219.37659 235.29893 217.5762 237.01909 216.26953 239.23242 C 214.96286 241.41909 214.31055 243.87375 214.31055 246.59375 C 214.31055 249.31375 214.96286 251.78081 216.26953 253.99414 C 217.5762 256.18081 219.37659 257.89901 221.66992 259.15234 C 223.96326 260.37901 226.53729 260.99414 229.39062 260.99414 C 232.24396 260.99414 234.81604 260.37901 237.10938 259.15234 C 239.40271 257.89901 241.2031 256.18081 242.50977 253.99414 C 243.81643 251.80747 244.4707 249.34042 244.4707 246.59375 C 244.4707 243.84708 243.81643 241.38003 242.50977 239.19336 C 241.2031 237.00669 239.40271 235.29893 237.10938 234.07227 C 234.81604 232.81893 232.24396 232.19336 229.39062 232.19336 z M 25.138672 232.59375 L 25.138672 260.59375 L 46.138672 260.59375 L 46.138672 256.23242 L 30.337891 256.23242 L 30.337891 248.51367 L 43.857422 248.51367 L 43.857422 244.23242 L 30.337891 244.23242 L 30.337891 236.95312 L 45.578125 236.95312 L 45.578125 232.59375 L 25.138672 232.59375 z M 51.935547 232.59375 L 51.935547 260.59375 L 64.175781 260.59375 C 67.162448 260.59375 69.814766 260.01971 72.134766 258.87305 C 74.454766 257.69971 76.255156 256.05979 77.535156 253.95312 C 78.815156 251.81979 79.455078 249.36708 79.455078 246.59375 C 79.455078 243.82042 78.815156 241.3801 77.535156 239.27344 C 76.255156 237.1401 74.454766 235.50018 72.134766 234.35352 C 69.814766 233.18018 67.162448 232.59375 64.175781 232.59375 L 51.935547 232.59375 z M 84.742188 232.59375 L 84.742188 248.39258 C 84.742188 252.44591 85.822422 255.56724 87.982422 257.75391 C 90.142422 259.91391 93.154818 260.99414 97.021484 260.99414 C 100.88815 260.99414 103.88815 259.91391 106.02148 257.75391 C 108.18148 255.56724 109.26172 252.44591 109.26172 248.39258 L 109.26172 232.59375 L 104.14258 232.59375 L 104.14258 248.19336 C 104.14258 253.68669 101.7825 256.43359 97.0625 256.43359 C 92.315833 256.43359 89.941406 253.68669 89.941406 248.19336 L 89.941406 232.59375 L 84.742188 232.59375 z M 153.62109 232.59375 L 141.02148 260.59375 L 146.38281 260.59375 L 149.14258 254.11328 L 163.14258 254.11328 L 165.94141 260.59375 L 171.38281 260.59375 L 158.74219 232.59375 L 153.62109 232.59375 z M 203.57617 232.59375 L 203.57617 260.59375 L 208.77539 260.59375 L 208.77539 232.59375 L 203.57617 232.59375 z M 249.98242 232.59375 L 249.98242 260.59375 L 255.14258 260.59375 L 255.14258 241.63281 L 270.58203 260.59375 L 274.86133 260.59375 L 274.86133 232.59375 L 269.70117 232.59375 L 269.70117 251.55273 L 254.26172 232.59375 L 249.98242 232.59375 z M 229.39062 236.75391 C 231.25729 236.75391 232.93635 237.17987 234.42969 238.0332 C 235.92302 238.85987 237.09589 240.03273 237.94922 241.55273 C 238.80255 243.04607 239.23047 244.72708 239.23047 246.59375 C 239.23047 248.46042 238.80255 250.15383 237.94922 251.67383 C 237.09589 253.16716 235.92302 254.34003 234.42969 255.19336 C 232.93635 256.02003 231.25729 256.43359 229.39062 256.43359 C 227.52396 256.43359 225.84294 256.02003 224.34961 255.19336 C 222.85628 254.34003 221.68341 253.16716 220.83008 251.67383 C 219.97674 250.15383 219.55078 248.46042 219.55078 246.59375 C 219.55078 244.72708 219.97674 243.04607 220.83008 241.55273 C 221.68341 240.03273 222.85628 238.85987 224.34961 238.0332 C 225.84294 237.17987 227.52396 236.75391 229.39062 236.75391 z M 57.134766 236.99414 L 63.935547 236.99414 C 65.98888 236.99414 67.789271 237.39336 69.335938 238.19336 C 70.909271 238.96669 72.10888 240.08607 72.935547 241.55273 C 73.78888 242.99273 74.214844 244.67375 74.214844 246.59375 C 74.214844 248.51375 73.78888 250.20716 72.935547 251.67383 C 72.10888 253.11383 70.909271 254.2332 69.335938 255.0332 C 67.789271 255.80654 65.98888 256.19336 63.935547 256.19336 L 57.134766 256.19336 L 57.134766 236.99414 z M 156.14258 237.79297 L 161.42188 250.0332 L 150.90234 250.0332 L 156.14258 237.79297 z "
     style="font-style:normal;font-variant:normal;font-weight:600;font-stretch:normal;font-family:Montserrat;-inkscape-font-specification:'Montserrat Semi-Bold';fill:#ffffff;fill-opacity:1"
     id="path834"
     d="m 231.42969,224.83398 -5.40039,5.47852 h 4.32031 l 6.96094,-5.47852 z m -101.88477,7.35938 c -2.82666,0 -5.38635,0.62557 -7.67969,1.87891 -2.26666,1.22666 -4.05466,2.93442 -5.36132,5.12109 -1.30667,2.18667 -1.95899,4.65372 -1.95899,7.40039 0,2.74667 0.63992,5.21372 1.91992,7.40039 1.30667,2.18667 3.09271,3.90487 5.35938,5.1582 2.29333,1.22667 4.85302,1.8418 7.67969,1.8418 2.29333,0 4.38791,-0.40117 6.28125,-1.20117 1.92,-0.8 3.53317,-1.96047 4.83984,-3.48047 l -3.36133,-3.19922 c -2.02666,2.21333 -4.51851,3.32031 -7.47851,3.32031 -1.92,0 -3.64016,-0.41356 -5.16016,-1.24023 -1.52,-0.85333 -2.70721,-2.0262 -3.56055,-3.51953 -0.85333,-1.49334 -1.27929,-3.18675 -1.27929,-5.08008 0,-1.89333 0.42596,-3.58674 1.27929,-5.08008 0.85334,-1.49333 2.04055,-2.6538 3.56055,-3.48047 1.52,-0.85333 3.24016,-1.27929 5.16016,-1.27929 2.96,0 5.45185,1.09263 7.47851,3.27929 l 3.36133,-3.16015 c -1.30667,-1.52 -2.90745,-2.68047 -4.80078,-3.48047 -1.89333,-0.8 -3.98596,-1.19922 -6.2793,-1.19922 z m 57.96875,0 c -2.82666,0 -5.38635,0.62557 -7.67969,1.87891 -2.26666,1.22666 -4.05466,2.93442 -5.36132,5.12109 -1.30667,2.18667 -1.95899,4.65372 -1.95899,7.40039 0,2.74667 0.63992,5.21372 1.91992,7.40039 1.30667,2.18667 3.09271,3.90487 5.35938,5.1582 2.29333,1.22667 4.85302,1.8418 7.67969,1.8418 2.29333,0 4.38791,-0.40117 6.28125,-1.20117 1.92,-0.8 3.53317,-1.96047 4.83984,-3.48047 l -3.36133,-3.19922 c -2.02666,2.21333 -4.51851,3.32031 -7.47851,3.32031 -1.92,0 -3.64016,-0.41356 -5.16016,-1.24023 -1.52,-0.85333 -2.70721,-2.0262 -3.56055,-3.51953 -0.85333,-1.49334 -1.27929,-3.18675 -1.27929,-5.08008 0,-1.89333 0.42596,-3.58674 1.27929,-5.08008 0.85334,-1.49333 2.04055,-2.6538 3.56055,-3.48047 1.52,-0.85333 3.24016,-1.27929 5.16016,-1.27929 2.96,0 5.45185,1.09263 7.47851,3.27929 l 3.36133,-3.16015 c -1.30667,-1.52 -2.90745,-2.68047 -4.80078,-3.48047 -1.89333,-0.8 -3.98596,-1.19922 -6.2793,-1.19922 z m 41.87695,0 c -2.85333,0 -5.42736,0.62557 -7.7207,1.87891 -2.29333,1.22666 -4.09372,2.94682 -5.40039,5.16015 -1.30667,2.18667 -1.95898,4.64133 -1.95898,7.36133 0,2.72 0.65231,5.18706 1.95898,7.40039 1.30667,2.18667 3.10706,3.90487 5.40039,5.1582 2.29334,1.22667 4.86737,1.8418 7.7207,1.8418 2.85334,0 5.42542,-0.61513 7.71876,-1.8418 2.29333,-1.25333 4.09372,-2.97153 5.40039,-5.1582 1.30666,-2.18667 1.96093,-4.65372 1.96093,-7.40039 0,-2.74667 -0.65427,-5.21372 -1.96093,-7.40039 -1.30667,-2.18667 -3.10706,-3.89443 -5.40039,-5.12109 -2.29334,-1.25334 -4.86542,-1.87891 -7.71876,-1.87891 z m -204.251948,0.40039 v 28 h 21 v -4.36133 H 30.337891 v -7.71875 h 13.519531 v -4.28125 H 30.337891 v -7.2793 h 15.240234 v -4.35937 z m 26.796875,0 v 28 h 12.240234 c 2.986667,0 5.638985,-0.57404 7.958985,-1.7207 2.32,-1.17334 4.12039,-2.81326 5.40039,-4.91993 1.28,-2.13333 1.919922,-4.58604 1.919922,-7.35937 0,-2.77333 -0.639922,-5.21365 -1.919922,-7.32031 -1.28,-2.13334 -3.08039,-3.77326 -5.40039,-4.91992 -2.32,-1.17334 -4.972318,-1.75977 -7.958985,-1.75977 z m 32.806641,0 v 15.79883 c 0,4.05333 1.080234,7.17466 3.240234,9.36133 2.16,2.16 5.172396,3.24023 9.039062,3.24023 3.866666,0 6.866666,-1.08023 8.999996,-3.24023 2.16,-2.18667 3.24024,-5.308 3.24024,-9.36133 v -15.79883 h -5.11914 v 15.59961 c 0,5.49333 -2.36008,8.24023 -7.08008,8.24023 -4.746667,0 -7.121094,-2.7469 -7.121094,-8.24023 v -15.59961 z m 68.878902,0 -12.59961,28 h 5.36133 l 2.75977,-6.48047 h 14 l 2.79883,6.48047 h 5.4414 l -12.64062,-28 z m 49.95508,0 v 28 h 5.19922 v -28 z m 46.40625,0 v 28 h 5.16016 v -18.96094 l 15.43945,18.96094 h 4.2793 v -28 h -5.16016 v 18.95898 l -15.43945,-18.95898 z m -20.5918,4.16016 c 1.86667,0 3.54573,0.42596 5.03907,1.27929 1.49333,0.82667 2.6662,1.99953 3.51953,3.51953 0.85333,1.49334 1.28125,3.17435 1.28125,5.04102 0,1.86667 -0.42792,3.56008 -1.28125,5.08008 -0.85333,1.49333 -2.0262,2.6662 -3.51953,3.51953 -1.49334,0.82667 -3.1724,1.24023 -5.03907,1.24023 -1.86666,0 -3.54768,-0.41356 -5.04101,-1.24023 -1.49333,-0.85333 -2.6662,-2.0262 -3.51953,-3.51953 -0.85334,-1.52 -1.2793,-3.21341 -1.2793,-5.08008 0,-1.86667 0.42596,-3.54768 1.2793,-5.04102 0.85333,-1.52 2.0262,-2.69286 3.51953,-3.51953 1.49333,-0.85333 3.17435,-1.27929 5.04101,-1.27929 z m -172.255854,0.24023 h 6.800781 c 2.053333,0 3.853724,0.39922 5.400391,1.19922 1.573333,0.77333 2.772942,1.89271 3.599609,3.35937 0.853333,1.44 1.279297,3.12102 1.279297,5.04102 0,1.92 -0.425964,3.61341 -1.279297,5.08008 -0.826667,1.44 -2.026276,2.55937 -3.599609,3.35937 -1.546667,0.77334 -3.347058,1.16016 -5.400391,1.16016 h -6.800781 z m 99.007814,0.79883 5.2793,12.24023 h -10.51954 z" /></g>
</svg>