<?xml version="1.0" encoding="UTF-8" standalone="no"?>
<!-- Generator: Adobe Illustrator 16.0.0, SVG Export Plug-In . SVG Version: 6.00 Build 0)  -->

<svg
   xmlns:dc="http://purl.org/dc/elements/1.1/"
   xmlns:cc="http://creativecommons.org/ns#"
   xmlns:rdf="http://www.w3.org/1999/02/22-rdf-syntax-ns#"
   xmlns:svg="http://www.w3.org/2000/svg"
   xmlns="http://www.w3.org/2000/svg"
   xmlns:sodipodi="http://sodipodi.sourceforge.net/DTD/sodipodi-0.dtd"
   xmlns:inkscape="http://www.inkscape.org/namespaces/inkscape"
   version="1.0"
   id="Capa_1"
   x="0px"
   y="0px"
   width="300px"
   height="300px"
   viewBox="0 0 300 300"
   enable-background="new 0 0 300 300"
   xml:space="preserve"
   sodipodi:docname="b4.svg"
   inkscape:version="0.92.4 (5da689c313, 2019-01-14)"><metadata
   id="metadata131"><rdf:RDF><cc:Work
       rdf:about=""><dc:format>image/svg+xml</dc:format><dc:type
         rdf:resource="http://purl.org/dc/dcmitype/StillImage" /></cc:Work></rdf:RDF></metadata><defs
   id="defs129">
	
	
	
	
	
	
	
	
	
	
	
	
	

		
		
		
		
		
		
		
		
		
		
		
		
		
		
		
		
		
		
		
		
		
		
		
		
		
		
		
		
		
		
		
		
		
		
		
		
		
		
		
		
		
		
		
		
		
		
		
		
	</defs><sodipodi:namedview
   pagecolor="#ffffff"
   bordercolor="#666666"
   borderopacity="1"
   objecttolerance="10"
   gridtolerance="10"
   guidetolerance="10"
   inkscape:pageopacity="0"
   inkscape:pageshadow="2"
   inkscape:window-width="1340"
   inkscape:window-height="847"
   id="namedview127"
   showgrid="false"
   inkscape:zoom="1.5"
   inkscape:cx="8.9027667"
   inkscape:cy="150.01724"
   inkscape:window-x="865"
   inkscape:window-y="68"
   inkscape:window-maximized="0"
   inkscape:current-layer="Capa_1" />
<path
   style="fill:#fcb120"
   inkscape:connector-curvature="0"
   id="path2"
   d="M 242.623,0 H 57.377 C 25.82,0 0,25.82 0,57.377 V 242.622 C 0,274.18 25.82,300 57.377,300 H 242.623 C 274.18,300 300,274.18 300,242.622 V 57.377 C 300,25.82 274.18,0 242.623,0 Z" /><g
   id="g4812"
   transform="translate(-2.9703768,2.9868468e-6)"><path
     d="m 167.221,43.218 c 0,-0.002 0,-0.002 0,-0.002 -0.75,-3.33 -1.382,-6.696 -2.621,-9.885 1.239,3.188 1.871,6.555 2.617,9.885 -0.001,0 0.002,0 0.004,0.002"
     id="path4"
     inkscape:connector-curvature="0"
     style="fill:#fcb120" /><path
     d="m 166.37,42.591 c 0.007,0.321 -0.177,0.711 0.311,0.858 0.075,0.017 0.142,0.017 0.205,0.009 -0.062,0.008 -0.129,0.008 -0.201,-0.01 -0.493,-0.146 -0.309,-0.536 -0.315,-0.857"
     id="path6"
     inkscape:connector-curvature="0"
     style="fill:#fcb120" /><path
     d="m 169.636,52.613 c -0.666,-3.161 -1.352,-6.315 -2.408,-9.378 -0.001,10e-4 -0.002,0.002 -0.003,0.004 1.059,3.06 1.745,6.214 2.411,9.374"
     id="path8"
     inkscape:connector-curvature="0"
     style="fill:#fcb120" /><path
     d="m 166.674,43.655 c -0.087,0.113 -0.034,0.303 0.016,0.49 0.044,0.164 0.088,0.327 0.132,0.489 -0.043,-0.162 -0.088,-0.325 -0.132,-0.489 -0.05,-0.187 -0.103,-0.376 -0.016,-0.49"
     id="path10"
     inkscape:connector-curvature="0"
     style="fill:#fcb120" /><path
     d="m 159.563,36.538 c 0.005,0.136 0,0.274 -0.02,0.415 -0.347,-1.116 -0.697,-2.232 -1.045,-3.35 0.348,1.117 0.698,2.233 1.045,3.35 l 0.275,0.736 c -0.092,-0.245 -0.184,-0.49 -0.275,-0.736 0.019,-0.141 0.025,-0.279 0.02,-0.415"
     id="path12"
     inkscape:connector-curvature="0"
     style="fill:#fcb120" /><path
     d="m 159.809,37.897 c 0.018,0.198 0.117,0.367 0.276,0.514 -0.011,0.068 -0.02,0.137 -0.026,0.204 0.006,-0.067 0.015,-0.136 0.026,-0.204 -0.159,-0.146 -0.258,-0.315 -0.276,-0.514"
     id="path14"
     inkscape:connector-curvature="0"
     style="fill:#fcb120" /><path
     d="m 160.117,39.343 c -0.053,-0.148 -0.073,-0.301 -0.074,-0.457 0,0.156 0.021,0.308 0.074,0.457"
     id="path16"
     inkscape:connector-curvature="0"
     style="fill:#fcb120" /><path
     d="m 166.452,60.464 c -0.009,-1.615 -0.265,-3.242 -0.717,-4.88 0.452,1.638 0.707,3.265 0.717,4.88"
     id="path18"
     inkscape:connector-curvature="0"
     style="fill:#fcb120" /><path
     d="m 177.723,71.373 c 0.069,0.359 0.094,0.72 0.09,1.079 0.004,-0.359 -0.021,-0.72 -0.09,-1.079"
     id="path20"
     inkscape:connector-curvature="0"
     style="fill:#fcb120" /><path
     d="m 176.165,68.151 c -0.417,-0.66 -0.366,-1.402 -0.392,-2.131 0.026,0.729 -0.024,1.471 0.392,2.131 0.179,0.839 0.041,1.721 0.058,2.582 -0.017,-0.861 0.121,-1.743 -0.058,-2.582"
     id="path22"
     inkscape:connector-curvature="0"
     style="fill:#fcb120" /><path
     d="m 178.204,74.777 c -0.07,-0.329 -0.271,-0.635 -0.534,-0.884 0,0 0,0 0,0.001 0.263,0.249 0.464,0.554 0.534,0.883"
     id="path24"
     inkscape:connector-curvature="0"
     style="fill:#fcb120" /><path
     style="fill:#fdfefb"
     inkscape:connector-curvature="0"
     id="path68"
     d="m 248.205,112.129 c -2.323,-2.457 -4.93,-4.602 -7.789,-6.409 -5.795,-3.667 -11.958,-6.558 -18.451,-8.783 -6.613,-2.267 -13.361,-3.985 -20.211,-5.345 -0.797,-0.159 -1.328,-0.182 -1.334,0.746 -0.018,2.579 -0.484,5.13 -0.386,7.725 0.049,1.296 0.613,1.637 1.723,1.821 2.496,0.412 5,0.823 7.458,1.418 6.29,1.521 12.517,3.229 18.448,5.921 4.228,1.917 8.125,4.139 11.389,7.578 3.632,3.829 3.387,8.982 -0.139,12.591 -2.658,2.721 -5.702,4.776 -9.097,6.455 -5.834,2.885 -11.992,4.807 -18.279,6.306 -5.416,1.292 -10.903,2.241 -16.422,3.076 -4.044,0.61 -8.121,0.762 -12.16,1.415 -4.123,0.668 -8.36,0.449 -12.538,0.618 -5.377,0.217 -10.786,0.308 -16.197,-0.213 -4.291,-0.412 -8.626,-0.267 -12.946,-0.768 -3.732,-0.433 -7.495,-0.718 -11.216,-1.24 -5.243,-0.735 -10.437,-1.798 -15.576,-3.079 -4.62,-1.153 -9.184,-2.506 -13.581,-4.357 -5.347,-2.25 -10.513,-4.757 -14.122,-9.599 -2.111,-2.83 -2.275,-6.575 -0.379,-9.429 1.461,-2.201 3.3,-3.943 5.519,-5.348 1.149,-0.728 1.128,-0.992 -0.04,-1.73 -2.068,-1.309 -4.163,-2.576 -6.241,-3.869 -0.655,-0.407 -1.288,-0.477 -1.927,0.023 -2.955,2.309 -5.757,4.775 -7.872,7.912 -2.294,3.404 -3.658,7.046 -3.534,11.289 0.114,3.927 0.615,7.781 1.225,11.641 0.802,5.073 2.163,10.001 3.813,14.851 1.534,4.509 3.51,8.83 5.422,13.188 2.416,5.507 5.822,10.28 9.845,14.645 2.814,3.054 5.99,5.715 9.324,8.224 3.405,2.562 6.925,4.942 10.694,6.866 7.427,3.789 15.203,6.705 23.378,8.497 6.075,1.334 12.199,2.545 18.409,2.604 10.587,0.102 21.201,0.563 31.701,-1.668 4.244,-0.901 8.493,-1.762 12.605,-3.102 4.429,-1.442 8.76,-3.147 12.953,-5.258 4.849,-2.438 9.461,-5.23 13.729,-8.527 4.015,-3.102 7.655,-6.661 10.942,-10.562 4.469,-5.307 7.292,-11.554 10.043,-17.801 2.327,-5.28 4.199,-10.742 5.569,-16.386 1.33,-5.479 2.438,-10.952 2.354,-17.39 0.687,-5.42 -2.053,-10.258 -6.106,-14.547 z" /><path
     style="fill:#fdfefb"
     inkscape:connector-curvature="0"
     id="path70"
     d="m 141,90.761 c 3.834,6.208 7.5,12.527 10.357,19.273 0.352,0.831 0.392,1.531 0.077,2.381 -1.079,2.921 -1.255,5.979 -0.824,9.014 0.586,4.131 2.416,7.811 4.629,11.312 1.472,2.329 3.478,4.17 5.385,6.107 0.28,0.284 0.595,0.444 0.995,0.26 0.334,-0.154 0.441,-0.442 0.463,-0.79 0.13,-2.064 0.45,-4.115 0.329,-6.2 -0.085,-1.446 -0.017,-2.902 -0.017,-4.354 0.927,1.047 1.514,2.215 2.19,3.328 0.337,0.556 0.34,1.028 0.267,1.672 -0.318,2.756 -0.326,5.523 0.358,8.243 0.187,0.741 0.675,1.098 1.504,1.174 1.372,0.125 2.613,-0.529 3.977,-0.475 2.171,0.088 4.348,0.036 6.522,0.027 0.487,-0.002 1.085,0.161 1.336,-0.453 0.227,-0.555 -0.163,-0.956 -0.479,-1.361 -0.993,-1.276 -1.932,-2.596 -3.228,-3.606 -0.265,-0.205 -0.626,-0.499 -0.319,-0.917 0.165,-0.225 0.477,-0.133 0.624,0.014 1.729,1.712 4.721,2.137 5.163,5.187 0.125,0.862 1.019,0.892 1.709,0.707 0.906,-0.241 0.593,-0.883 0.312,-1.438 -0.392,-0.769 -0.238,-1.393 0.365,-2.001 0.378,-0.382 0.831,-0.747 0.938,-1.336 -0.566,0.315 -0.909,0.509 -1.14,0.539 0.231,-0.03 0.573,-0.224 1.14,-0.539 0.09,-0.034 0.133,-0.098 0.13,-0.194 v 0 c 0.412,-0.172 0.749,-0.405 0.899,-0.787 0.05,-0.127 0.081,-0.271 0.085,-0.435 -0.543,0.193 -0.913,0.526 -0.973,1.109 0.06,-0.583 0.429,-0.916 0.973,-1.109 0,0 0.021,-0.011 0.04,-0.021 l 0.04,-0.02 c 0.14,0.012 0.24,-0.014 0.181,-0.19 -0.039,0.023 -0.061,0.063 -0.09,0.096 0.03,-0.032 0.052,-0.072 0.09,-0.096 0.139,-0.261 0.277,-0.521 0.416,-0.782 0.121,-0.699 0.283,-1.373 0.995,-1.732 0.044,-0.021 0.076,-0.049 0.095,-0.083 0.02,-0.034 0.026,-0.076 0.022,-0.125 0.001,-0.37 0.14,-0.639 0.425,-0.8 -0.285,0.161 -0.424,0.43 -0.425,0.8 0.175,-0.104 0.331,-0.224 0.449,-0.37 0.119,-0.146 0.2,-0.321 0.227,-0.535 0,0 0,-0.001 0,-0.001 0.047,-0.082 0.095,-0.163 0.142,-0.244 v -0.001 c 0.131,-0.057 0.218,-0.134 0.265,-0.232 0.022,-0.048 0.035,-0.102 0.038,-0.16 0.003,-0.058 -0.006,-0.122 -0.024,-0.19 -0.087,0.06 -0.147,0.133 -0.192,0.212 0.044,-0.079 0.104,-0.152 0.191,-0.212 0.06,-0.194 0.118,-0.39 0.176,-0.586 -0.042,-0.139 -0.054,-0.272 -0.053,-0.404 -0.001,0.132 0.01,0.266 0.053,0.405 0.092,-0.158 0.206,-0.309 0.273,-0.478 1.805,-4.51 1.938,-9.234 1.777,-13.994 -0.009,-0.269 -0.104,-0.548 -0.22,-0.793 -0.497,-1.064 -0.527,-2.244 -0.206,-3.259 0.711,-2.249 0.426,-4.567 0.656,-6.836 0.527,-5.187 -0.46,-10.395 -0.239,-15.605 0.008,-0.184 0.003,-0.377 -0.048,-0.551 -0.794,-2.69 -0.514,-5.482 -0.7,-8.222 -0.177,-2.594 -0.898,-5.146 -0.552,-7.793 0.098,-0.753 -0.28,-1.57 -0.439,-2.357 -0.125,0.011 -0.25,0.021 -0.375,0.032 0.407,5.801 -0.1,11.632 0.83,17.417 0.007,6.029 0.014,12.058 0.021,18.088 -0.271,1.128 0.042,2.318 -0.162,3.452 0.204,-1.134 -0.11,-2.325 0.161,-3.452 -0.314,0.429 -0.459,0.876 -0.515,1.332 -0.022,0.184 -0.03,0.367 -0.03,0.553 0,0.093 0.003,0.186 0.007,0.278 0.012,0.278 0.039,0.56 0.062,0.84 0.007,0.093 0.015,0.187 0.021,0.28 0.025,0.372 0.034,0.743 -0.017,1.107 v 0 c -0.136,0.165 -0.22,0.341 -0.255,0.525 -0.036,0.185 -0.023,0.379 0.032,0.582 -0.165,0.555 -0.121,1.111 -0.021,1.669 0.232,-0.275 0.331,-0.552 0.324,-0.83 0.007,0.278 -0.091,0.555 -0.324,0.831 -0.359,0.401 -0.718,0.803 -1.078,1.205 0,0 0,0.001 0,0.001 -0.312,0.205 -0.618,0.418 -0.907,0.643 -0.221,0.17 -0.428,0.353 -0.626,0.541 -0.59,0.562 -1.076,1.215 -1.352,2.055 -0.001,0 -0.001,0.001 -0.001,0.001 -0.055,0.098 -0.109,0.194 -0.164,0.292 -0.418,0.841 -0.836,1.682 -1.254,2.522 0.418,-0.841 0.836,-1.682 1.254,-2.522 -0.495,0.442 -0.858,0.95 -1.144,1.497 -0.165,0.313 -0.301,0.641 -0.425,0.974 -0.11,0.294 -0.211,0.592 -0.305,0.893 -0.109,0.351 -0.213,0.703 -0.322,1.053 0,10e-4 0,0.002 -10e-4,0.002 -0.051,0.208 -0.103,0.414 -0.154,0.62 0.094,0.18 0.057,0.316 -0.066,0.426 0.123,-0.109 0.161,-0.246 0.066,-0.426 -0.089,0.063 -0.146,0.137 -0.173,0.22 -0.027,0.083 -0.023,0.177 0.011,0.278 -0.055,0.197 -0.111,0.394 -0.167,0.59 -0.03,0.311 -0.037,0.625 -0.037,0.939 0,-0.314 0.007,-0.629 0.037,-0.939 -0.209,0.603 -0.309,1.22 -0.366,1.842 -0.097,1.037 -0.079,2.089 -0.271,3.115 0.178,-0.293 0.307,-0.591 0.398,-0.894 -0.091,0.303 -0.22,0.602 -0.398,0.894 -0.283,0.466 -0.306,0.938 -0.028,1.417 v 0 c 0.036,0.341 0.08,0.683 0.118,1.023 0.038,0.341 0.072,0.684 0.086,1.025 0.015,0.336 0.128,0.839 -0.354,0.926 -0.488,0.086 -0.562,-0.42 -0.647,-0.748 -0.555,-2.121 -1.528,-4.059 -2.517,-5.998 -0.775,-1.522 -1.46,-3.091 -2.165,-4.647 -0.125,-0.275 -0.344,-0.605 -0.076,-0.902 0.235,-0.26 0.522,-0.07 0.761,0.043 1.069,0.514 1.116,-0.125 1.177,-0.942 0.065,-0.878 -0.438,-1.593 -0.522,-2.422 -0.613,-6.082 -3.839,-10.49 -8.767,-13.878 -1,-0.688 -2.416,-0.715 -3.039,-2.021 -0.655,-1.375 -1.446,-2.687 -2.142,-4.043 -0.186,-0.364 -0.723,-0.847 -0.171,-1.179 0.375,-0.227 0.69,0.312 0.918,0.659 1.979,3.007 5.069,4.657 7.982,6.516 0.898,0.572 1.24,0.09 1.31,-0.813 0.064,-0.817 -0.361,-1.517 -0.482,-2.294 -0.952,-6.092 -4.223,-10.622 -9.821,-13.074 -2.448,-1.073 -4.399,-2.312 -5.672,-4.62 -0.2,-0.362 -0.407,-0.727 -0.652,-1.059 -3.662,-4.981 -6.971,-10.204 -10.482,-15.289 -2.034,-2.944 -4.153,-5.824 -6.423,-8.592 -0.193,-0.234 -0.403,-0.687 -0.735,-0.472 -0.457,0.294 -0.009,0.625 0.15,0.925 0.689,1.299 1.727,2.351 2.552,3.559 2.099,3.074 4.221,6.133 6.244,9.26 2.304,3.562 4.587,7.137 6.909,10.687 1.237,1.892 2.708,3.64 3.654,5.71 0.392,0.858 1.014,1.736 0.676,2.747 -0.25,0.746 -0.107,1.389 0.264,1.98 1.506,2.401 2.273,5.18 3.879,7.534 0.375,0.551 1.237,1.436 0.501,1.863 -0.759,0.439 -1.067,-0.795 -1.412,-1.357 -3.229,-5.271 -6.818,-10.306 -10.117,-15.534 -3.056,-4.845 -6.583,-9.392 -9.905,-14.067 -0.186,-0.261 -0.401,-0.631 -0.762,-0.397 -0.434,0.28 0.009,0.578 0.134,0.819 1.405,2.705 3.492,4.949 5.105,7.518 1.518,2.415 3.153,4.754 4.617,7.207 2.101,3.522 4.277,7.001 6.459,10.475 1.985,3.157 4.217,6.142 5.455,9.754 0.584,1.705 1.494,3.354 2.522,4.917 1.613,2.452 3.511,4.609 5.66,6.585 0.755,0.694 1.43,1.511 1.496,2.896 -2.035,-1.419 -4.098,-2.294 -6.204,-3.095 -0.646,-0.246 -1.104,-0.837 -1.443,-1.456 -2.75,-5.021 -5.458,-10.064 -8.25,-15.062 -1.685,-3.018 -3.471,-5.979 -5.258,-8.939 -2.05,-3.395 -4.143,-6.765 -6.235,-10.135 -0.6,-0.967 -1.261,-1.898 -1.895,-2.845 -0.118,0.076 -0.236,0.152 -0.354,0.229 1.098,2.955 3.218,5.431 4.169,8.481 -1.705,-1.052 -2.199,-3.144 -3.78,-4.376 -0.257,0.726 0.274,1.028 0.471,1.464 0.866,1.914 2.481,3.293 3.49,5.15 2.046,3.766 4.588,7.245 6.689,11 2.59,4.63 5.525,9.07 8.078,13.72 2.041,3.72 3.387,7.776 4.966,11.715 0.231,0.579 -0.022,1.091 -0.175,1.615 -0.113,0.389 -0.156,0.89 -0.639,0.989 -0.598,0.122 -0.739,-0.432 -0.969,-0.814 -2.655,-4.435 -5.331,-8.856 -7.956,-13.308 -3.26,-5.524 -6.507,-11.056 -9.704,-16.616 -2.901,-5.046 -6.243,-9.806 -9.4,-14.685 -3.124,-4.827 -6.72,-9.335 -9.718,-14.253 -0.378,-0.619 -0.704,-1.507 -1.911,-1.49 1.442,2.114 2.534,4.253 3.878,6.202 3.851,5.578 7.43,11.332 10.988,17.093 z m 48.021,21.223 c 0.012,-0.731 0.104,-1.459 0.396,-2.182 0.003,-0.007 0.005,-0.015 0.008,-0.022 -0.002,0.008 -0.005,0.016 -0.008,0.023 -0.292,0.722 -0.384,1.45 -0.396,2.181 z m 0.705,-7.092 c 0.111,-1.648 0.214,-3.296 0.206,-4.939 0.008,1.643 -0.096,3.29 -0.206,4.939 z m -4.036,10.429 c -0.335,0.344 -0.69,0.67 -1.037,1.004 0.347,-0.334 0.702,-0.66 1.037,-1.004 z m -3.946,20.332 c 0.115,0.424 0.197,0.742 0.278,0.969 -0.081,-0.226 -0.163,-0.545 -0.278,-0.969 -0.37,-1.353 -0.816,-2.674 -0.837,-4.082 0.021,1.408 0.468,2.73 0.837,4.082 z m -0.719,-11.035 c 0.004,0.367 0.017,0.737 0.017,1.104 0,-0.367 -0.012,-0.737 -0.017,-1.104 z m -0.099,6.344 v 0 c 0.016,-0.205 -0.025,-0.406 -0.117,-0.59 0.091,0.184 0.133,0.385 0.117,0.59 z" /><path
     style="fill:#fdfefb"
     inkscape:connector-curvature="0"
     id="path72"
     d="m 158.583,140.895 c 0.158,-0.273 0.005,-0.531 -0.153,-0.77 -2.188,-3.303 -4.211,-6.754 -7.691,-8.938 -1.868,-1.172 -3.598,-2.54 -5.711,-3.354 -2.166,-0.835 -4.35,-1.437 -6.629,-1.852 -1.442,-0.262 -2.893,-0.46 -4.236,-0.047 -1.487,0.456 -2.66,0.18 -3.941,-0.534 -7.268,-4.045 -14.221,-8.61 -21.372,-12.847 -4.959,-2.938 -9.802,-6.081 -15.032,-8.538 -1.601,-0.752 -2.978,-1.975 -5.095,-2.427 0.686,1.036 1.527,1.38 2.294,1.815 2.798,1.594 5.637,3.119 8.378,4.805 4.838,2.975 9.683,5.939 14.404,9.103 4.836,3.241 9.764,6.349 14.838,9.203 2.626,1.478 4.506,3.804 6.809,5.646 6.605,5.283 14.058,8.126 22.39,8.919 0.28,0.026 0.58,0.104 0.747,-0.184 z" /><path
     style="fill:#fdfefb"
     inkscape:connector-curvature="0"
     id="path74"
     d="m 117.973,68.128 c 2.258,3.155 4.441,6.364 6.68,9.532 3.969,5.617 7.88,11.269 10.947,17.451 0.407,0.819 0.573,1.578 0.356,2.517 -0.724,3.14 -0.772,6.293 0.155,9.418 1.771,5.963 5.293,10.682 10.23,14.393 0.617,0.465 0.848,0.207 1.012,-0.469 0.737,-3.026 0.509,-6.077 -0.109,-9.041 -0.976,-4.673 -3.134,-8.84 -6.042,-12.641 -1.283,-1.678 -2.808,-3.145 -3.928,-4.977 -0.895,-1.462 -1.553,-3.043 -2.489,-4.473 -2.448,-3.738 -4.857,-7.502 -7.532,-11.087 -2.232,-2.992 -4.429,-6.011 -6.684,-8.986 -2.279,-3.009 -4.605,-5.982 -6.92,-8.965 -1.054,-1.357 -2.128,-2.698 -3.194,-4.047 -0.342,0.693 -0.048,0.999 0.193,1.329 2.444,3.348 4.914,6.677 7.325,10.046 z" /><path
     style="fill:#fdfefb"
     inkscape:connector-curvature="0"
     id="path76"
     d="m 78.929,89.335 c 1.738,0.92 3.48,1.824 5.179,2.822 4.373,2.568 8.817,5.014 13.112,7.713 5.146,3.234 10.219,6.581 15.571,9.483 2.257,1.224 4.555,2.471 6.434,4.244 4.446,4.197 9.522,7.257 15.388,9.001 2.749,0.818 5.54,1.345 8.416,1.369 0.53,0.005 1.238,0.056 0.746,-0.75 -0.888,-1.453 -1.757,-2.967 -2.908,-4.197 -2.958,-3.16 -6.315,-5.876 -10.464,-7.298 -3.438,-1.179 -6.96,-2.202 -10.671,-1.067 -0.522,0.159 -1.107,0.132 -1.622,-0.157 -3.056,-1.719 -6.128,-3.408 -9.159,-5.17 -4.388,-2.552 -8.733,-5.176 -13.118,-7.732 -2.74,-1.598 -5.478,-3.206 -8.292,-4.666 -2.936,-1.524 -5.776,-3.258 -8.99,-4.389 -0.101,0.505 0.12,0.657 0.378,0.794 z" /><path
     style="fill:#fdfefb"
     inkscape:connector-curvature="0"
     id="path78"
     d="m 101.373,57.726 c 5.599,6.812 11.257,13.572 16.218,20.891 1.564,2.307 2.229,4.609 1.988,7.34 -0.479,5.431 1.968,9.816 5.297,13.787 1.576,1.879 3.529,3.391 5.531,4.816 0.336,0.239 0.629,0.621 1.091,0.394 0.472,-0.231 0.307,-0.721 0.338,-1.117 0.22,-2.75 -0.193,-5.456 -0.99,-8.049 -1.471,-4.791 -3.969,-9.018 -7.629,-12.505 -1.038,-0.988 -2.063,-1.986 -2.821,-3.222 -2.17,-3.539 -4.62,-6.894 -7.233,-10.102 -2.78,-3.414 -5.709,-6.719 -8.529,-10.098 -3.005,-3.602 -6.32,-6.933 -9.187,-10.651 -0.468,-0.608 -0.967,-1.333 -1.9,-1.619 -0.104,0.569 0.131,0.81 0.335,1.058 2.497,3.025 5.001,6.045 7.491,9.077 z" /><path
     style="fill:#fdfefb"
     inkscape:connector-curvature="0"
     id="path80"
     d="m 99.003,94.103 c 2.246,1.337 4.675,2.34 6.629,4.22 2.605,2.504 5.645,4.543 8.948,5.971 4.113,1.776 8.43,3.018 12.99,3.051 0.305,0.002 0.686,0.242 0.894,-0.106 0.222,-0.374 -0.048,-0.726 -0.271,-1.008 -1.785,-2.264 -3.306,-4.674 -5.798,-6.403 -5.096,-3.534 -10.461,-5.603 -16.743,-4.524 -0.429,0.073 -0.83,0.019 -1.212,-0.176 -2.097,-1.071 -4.23,-2.081 -6.281,-3.235 C 93.821,89.449 89.531,86.917 85.212,84.439 80.571,81.776 75.854,79.256 71.057,76.887 69.9,76.315 68.777,75.612 67.512,75.293 l -0.188,0.414 c 0.808,0.512 1.578,1.099 2.43,1.522 6.082,3.021 11.926,6.465 17.698,10.023 3.814,2.35 7.704,4.562 11.551,6.851 z" /><path
     style="fill:#fdfefb"
     inkscape:connector-curvature="0"
     id="path82"
     d="m 180.903,63.456 c -0.199,1.314 0.421,2.557 0.408,3.818 -0.024,2.228 0.292,4.433 0.518,6.617 0.193,1.88 0.24,3.759 0.374,5.636 0.269,3.756 0.695,7.511 0.717,11.269 0.01,1.804 -0.501,3.634 -0.391,5.484 0.032,0.518 -0.303,0.839 -0.646,1.167 -2.892,2.77 -4.426,6.251 -4.807,10.149 -0.383,3.925 -0.141,7.851 1.291,11.609 0.175,0.461 0.169,1.069 0.842,1.12 0.562,0.042 0.751,-0.44 1.016,-0.817 2.162,-3.087 3.926,-6.298 4.524,-10.135 0.483,-3.098 0.401,-6.182 0.131,-9.23 -0.186,-2.089 -0.699,-4.152 -0.677,-6.289 0.046,-4.521 0.223,-9.055 -0.403,-13.547 -0.21,-1.511 -0.107,-3.048 -0.439,-4.524 -0.606,-2.69 -0.391,-5.483 -1.129,-8.151 -0.017,-1.425 -0.656,-2.77 -0.503,-4.223 0.027,-0.257 -0.15,-0.59 -0.468,-0.585 -0.379,0.005 -0.319,0.375 -0.358,0.632 z" /><path
     style="fill:#fdfefb"
     inkscape:connector-curvature="0"
     id="path84"
     d="m 84.406,78.791 c 2.307,1.343 4.789,2.37 6.836,4.186 1.488,1.32 3.069,2.559 4.823,3.567 4.854,2.793 9.999,4.503 15.649,4.491 0.27,0 0.585,0.133 0.773,-0.128 0.257,-0.355 -0.088,-0.58 -0.257,-0.84 -1.438,-2.217 -3.331,-4.067 -5.385,-5.626 -4.557,-3.456 -9.648,-5.346 -15.505,-4.112 -0.644,0.136 -1.179,-0.131 -1.708,-0.42 -4.449,-2.438 -8.88,-4.905 -13.347,-7.308 -4.056,-2.184 -7.998,-4.568 -12.128,-6.626 -2.229,-1.109 -4.417,-2.307 -6.703,-3.307 -0.446,-0.194 -0.897,-0.507 -1.689,-0.028 1.976,1.038 3.812,1.882 5.554,2.907 3.444,2.028 7.002,3.861 10.423,5.926 4.177,2.52 8.45,4.867 12.664,7.318 z" /><path
     style="fill:#fdfefb"
     inkscape:connector-curvature="0"
     id="path86"
     d="m 77.246,40.827 c 1.665,1.063 2.711,2.733 4.011,4.121 2.83,3.02 5.711,5.996 8.517,9.04 4.339,4.709 8.538,9.52 12.348,14.666 0.341,0.46 0.657,1.016 0.4,1.546 -0.803,1.656 -0.065,3.297 0.246,4.801 1.36,6.593 6.004,10.695 11.365,14.156 0.5,0.321 1.1,0.225 0.889,-0.401 -0.461,-1.365 -0.062,-2.748 -0.363,-4.114 -0.662,-3.008 -1.736,-5.809 -3.415,-8.401 -1.332,-2.059 -2.775,-4.092 -4.623,-5.619 -1.658,-1.37 -3.159,-2.801 -4.45,-4.491 -2.518,-3.296 -5.165,-6.498 -8.066,-9.449 -2.29,-2.33 -4.604,-4.653 -6.834,-7.027 -2.808,-2.99 -5.916,-5.659 -8.717,-8.645 -0.615,-0.654 -1.383,-1.167 -2.324,-1.947 0.158,1.048 0.586,1.491 1.016,1.764 z" /><path
     style="fill:#fdfefb"
     inkscape:connector-curvature="0"
     id="path88"
     d="m 64.813,51.082 c 3.241,2.428 6.504,4.829 9.722,7.292 2.814,2.153 5.48,4.498 8.385,6.547 1.162,0.819 2.188,1.923 2.663,3.448 0.795,2.544 2.593,4.437 4.521,6.179 2.559,2.312 5.828,3.094 9.02,4.005 0.542,0.154 1.098,-0.027 0.942,-0.769 C 99.735,76.21 99.516,74.598 98.867,73.11 97.058,68.966 93.715,66.558 89.453,65.727 86.704,65.191 84.304,64.342 82.262,62.439 79.518,59.881 76.395,57.798 73.377,55.6 69.129,52.508 64.721,49.636 60.404,46.637 57.578,44.673 54.458,43.185 51.65,40.993 c -0.215,0.636 -0.155,0.981 0.185,1.117 1.853,0.737 3.104,2.323 4.821,3.31 2.86,1.642 5.507,3.677 8.157,5.662 z" /><path
     style="fill:#fdfefb"
     inkscape:connector-curvature="0"
     id="path90"
     d="m 135.268,36.595 c 1.984,2.932 4.289,5.626 6.164,8.642 1.386,2.226 3.024,4.294 4.481,6.479 1.279,1.918 2.917,3.642 3.669,5.859 0.608,1.792 1.66,3.293 2.747,4.767 2.163,2.935 4.887,5.242 8.197,6.827 0.429,0.206 0.761,0.882 1.308,0.475 0.567,-0.421 -0.017,-0.913 -0.13,-1.367 -0.124,-0.497 -0.359,-1.102 0.097,-1.424 0.525,-0.37 0.681,0.459 1.097,0.584 v 0.001 c 0.047,0.078 0.095,0.157 0.143,0.236 -0.136,0.664 0.224,1.137 0.782,1.229 0.648,0.105 0.711,-0.561 0.865,-1.022 0.115,-0.344 0.214,-0.692 0.32,-1.039 v 0 c 0.098,-0.041 0.147,-0.114 0.146,-0.22 0.406,-0.9 0.709,-1.807 0.92,-2.719 0.112,-0.479 0.196,-0.962 0.258,-1.444 0.053,-0.419 0.089,-0.839 0.106,-1.26 0.01,-0.245 0.016,-0.489 0.015,-0.734 -0.009,-1.614 -0.265,-3.241 -0.717,-4.879 -0.096,0.463 -0.101,0.922 -0.067,1.377 -0.034,-0.455 -0.029,-0.914 0.066,-1.377 10e-4,-10e-4 0.016,-0.081 0.016,-0.081 l -0.069,-0.042 c -0.767,-0.483 -0.737,-1.19 -0.549,-1.944 -0.319,-1.492 -1.259,-2.799 -1.506,-4.269 -0.428,-2.541 -0.821,-5.087 -1.594,-7.544 -1.062,-3.378 -1.823,-6.851 -3.229,-10.117 -0.647,-3.689 -2.352,-7.031 -3.47,-10.567 -0.106,-0.336 0.025,-1.091 -0.55,-0.893 -0.646,0.222 -0.074,0.795 0.037,1.178 0.863,2.987 1.748,5.969 2.647,8.945 0.338,1.12 0.685,2.237 1.033,3.353 0.348,1.116 0.698,2.231 1.045,3.349 0,0 0,0 0,10e-4 0.092,0.245 0.184,0.491 0.275,0.736 0.247,0.182 0.297,0.437 0.266,0.722 -0.011,0.067 -0.02,0.137 -0.026,0.204 -0.002,0.012 -0.004,0.023 -0.005,0.034 -0.006,0.06 -0.008,0.12 -0.009,0.179 -0.001,0.02 -0.003,0.038 -0.003,0.058 10e-4,0.156 0.021,0.309 0.074,0.457 0.035,0.099 0.084,0.194 0.152,0.288 0.306,0.271 0.479,0.578 0.557,0.914 -0.077,-0.336 -0.251,-0.644 -0.558,-0.914 0.064,0.667 0.21,1.31 0.549,1.896 0,0 0,0 0,10e-4 0.047,0.208 0.094,0.417 0.141,0.625 0.904,1.734 0.933,3.691 1.412,5.533 0.106,0.408 0.165,0.803 0.182,1.189 -0.017,-0.387 -0.076,-0.781 -0.182,-1.189 -0.479,-1.842 -0.507,-3.798 -1.412,-5.532 0.192,1.506 0.613,2.979 0.822,4.468 0.209,1.48 1.069,2.941 0.123,4.553 -1.684,2.869 -2.353,5.978 -1.652,9.306 0.099,0.474 0.297,1.167 -0.229,1.371 -0.594,0.231 -0.724,-0.527 -1.024,-0.899 -1.84,-2.28 -3.812,-4.5 -6.677,-5.403 -1.677,-0.529 -2.83,-1.301 -3.916,-2.726 -3.941,-5.176 -7.444,-10.667 -11.464,-15.782 -1.713,-2.18 -3.257,-4.498 -5.253,-6.529 -0.271,0.599 -0.077,1.061 0.206,1.396 1.242,1.476 2.294,3.09 3.373,4.684 z m 24.046,-1.261 c -0.357,-1.137 -0.707,-2.276 -1.034,-3.423 0.328,1.147 0.677,2.286 1.034,3.423 0.125,0.397 0.234,0.794 0.249,1.204 -0.015,-0.41 -0.123,-0.807 -0.249,-1.204 z m 1.536,26.113 c -0.107,-0.398 -0.194,-0.796 -0.263,-1.19 0.069,0.394 0.156,0.791 0.263,1.19 0.114,0.427 0.25,0.847 0.394,1.263 -0.144,-0.416 -0.28,-0.835 -0.394,-1.263 z m 1.697,-11.997 c -0.035,0.57 -0.157,1.13 -0.349,1.697 0.192,-0.567 0.315,-1.126 0.349,-1.697 z m -1.497,4.602 c -0.404,1.256 -0.636,2.543 -0.652,3.858 0.016,-1.315 0.248,-2.602 0.652,-3.858 z" /><path
     style="fill:#fdfefb"
     inkscape:connector-curvature="0"
     id="path92"
     d="m 155.25,70.559 c -0.614,-0.142 -0.942,-0.512 -1.269,-0.972 -0.96,-1.355 -1.913,-2.715 -2.91,-4.042 -4.562,-6.068 -8.467,-12.605 -13.251,-18.513 -0.904,-1.117 -1.625,-2.414 -3.213,-3.431 0.717,1.373 1.245,2.397 1.972,3.35 1.673,2.191 3.299,4.424 4.855,6.7 2.552,3.736 5.049,7.509 7.537,11.287 1.826,2.771 4.089,5.282 5.319,8.416 2.38,6.065 6.793,10.198 12.383,13.246 0.503,0.274 0.896,0.132 0.767,-0.46 -0.473,-2.185 -0.556,-4.456 -1.645,-6.507 -2.342,-4.41 -5.455,-7.891 -10.545,-9.074 z" /><path
     style="fill:#fdfefb"
     inkscape:connector-curvature="0"
     id="path94"
     d="m 184.264,139.42 c -0.455,1.341 -0.349,1.501 1.097,1.532 2.498,0.053 4.903,-0.735 7.386,-0.836 0.365,-0.014 0.632,-0.3 0.609,-0.645 -0.084,-1.255 0.46,-2.417 0.41,-3.689 -0.103,-2.538 -0.363,-5.147 0.085,-7.61 0.694,-3.803 0.912,-7.647 1.395,-11.462 0.413,-3.265 0.19,-6.607 0.361,-9.92 0.341,-6.592 -0.455,-13.189 -0.235,-19.794 0.038,-1.133 -0.133,-2.273 -0.208,-3.411 -0.196,1.229 -0.635,2.38 -0.665,3.555 -0.166,6.593 0.195,13.187 -0.307,19.786 -0.255,3.343 -0.25,6.725 -0.519,10.073 -0.246,3.057 -0.654,6.116 -1.271,9.116 -0.25,1.208 0.061,2.649 -1.285,3.643 -3.317,2.452 -5.527,5.761 -6.853,9.662 z" /><path
     style="fill:#fdfefb"
     inkscape:connector-curvature="0"
     id="path96"
     d="m 139.582,20.731 c 3.583,6.464 6.854,13.087 10.024,19.761 0.626,1.316 1.245,2.626 0.92,4.222 -0.186,0.914 -0.088,1.912 0.132,2.885 0.824,3.634 2.829,6.426 5.836,8.566 0.641,0.455 0.983,0.312 1.256,-0.365 1.761,-4.374 0.675,-9.02 -3.09,-11.932 -1.969,-1.521 -3.555,-3.146 -4.527,-5.398 -0.31,-0.718 -0.574,-1.459 -0.926,-2.155 -3.167,-6.264 -6.567,-12.399 -10.208,-18.4 -0.37,-0.609 -0.688,-1.3 -1.472,-1.596 0.01,1.099 0.115,1.413 0.708,2.312 0.458,0.694 0.944,1.375 1.347,2.1 z" /><path
     style="fill:#fdfefb"
     inkscape:connector-curvature="0"
     id="path98"
     d="m 140.131,140.977 c 0.346,0.034 0.788,0.129 0.93,-0.325 0.146,-0.47 -0.281,-0.609 -0.601,-0.79 -5.18,-2.943 -10.187,-6.171 -15.19,-9.396 -6.711,-4.326 -13.521,-8.475 -20.462,-12.424 -1.628,-0.926 -3.597,-1.203 -4.944,-2.636 -0.164,-0.175 -0.42,-0.25 -0.612,-0.045 -0.198,0.212 -0.053,0.419 0.101,0.603 0.304,0.364 0.699,0.594 1.125,0.78 2.118,0.93 4.065,2.181 6.031,3.373 9.432,5.725 18.479,12.039 27.652,18.16 1.837,1.226 3.652,2.512 5.97,2.7 z" /><path
     style="fill:#fdfefb"
     inkscape:connector-curvature="0"
     id="path100"
     d="m 109.695,130.35 c 1.505,0.888 3.031,1.739 4.516,2.66 2.68,1.664 5.323,3.387 8.011,5.037 0.671,0.413 1.445,0.696 2.727,0.412 -5.538,-3.677 -10.958,-6.776 -16.792,-9.785 0.31,1.056 0.958,1.334 1.538,1.676 z" /><path
     style="fill:#fdfefb"
     inkscape:connector-curvature="0"
     id="path102"
     d="m 173.799,53.162 c 0.465,2.978 0.999,5.948 1.381,8.94 0,0 -0.001,0 -0.001,0.001 0.138,0.932 0.274,1.863 0.411,2.795 0.928,0.955 0.618,2.127 0.575,3.252 0.179,0.84 0.04,1.722 0.058,2.583 v 10e-4 c 0.003,0.145 0.011,0.286 0.024,0.429 0.013,0.143 0.035,0.283 0.063,0.423 0.078,0.374 0.219,0.739 0.464,1.09 -0.111,0.555 -0.171,1.108 0.044,1.654 0.167,-0.28 0.269,-0.559 0.271,-0.835 -0.002,0.276 -0.104,0.556 -0.271,0.835 -0.059,1.881 -0.25,3.763 0.143,5.636 0.167,0.796 -0.183,1.477 -0.757,1.974 -1.684,1.458 -2.399,3.421 -2.975,5.469 v 0 c -0.085,0.128 -0.134,0.26 -0.149,0.396 -0.015,0.137 0.003,0.276 0.049,0.421 0.203,-0.134 0.279,-0.284 0.268,-0.444 0.012,0.16 -0.064,0.311 -0.268,0.444 -0.307,0.386 -0.413,0.801 -0.406,1.231 0.004,0.259 0.049,0.523 0.115,0.791 -0.605,1.061 -0.778,2.128 -0.636,3.198 0.085,0.642 0.284,1.286 0.57,1.93 0,10e-4 0,10e-4 0,0.002 -0.057,0.198 -0.093,0.396 -0.09,0.592 0.002,0.195 0.042,0.392 0.134,0.583 0.864,1.467 1.09,3.166 1.716,4.721 0.083,0.204 0.154,0.417 0.241,0.614 -0.087,-0.197 -0.159,-0.409 -0.241,-0.614 -0.626,-1.554 -0.852,-3.253 -1.716,-4.721 0.343,2.021 1.011,3.945 1.797,5.824 0.252,0.602 0.363,0.735 0.735,0.554 0.124,-0.061 0.277,-0.155 0.473,-0.28 0,0 0,0 0.001,0 0.062,-0.13 0.124,-0.259 0.185,-0.388 -0.025,-0.304 0.048,-0.562 0.342,-0.713 0.378,-0.34 0.607,-0.771 0.805,-1.219 0.066,-0.149 0.128,-0.301 0.192,-0.452 v 0 c 0.333,-0.296 0.529,-0.645 0.654,-1.021 0.125,-0.378 0.178,-0.784 0.222,-1.194 -0.21,0.237 -0.354,0.501 -0.463,0.778 0.109,-0.277 0.252,-0.541 0.462,-0.778 0.08,-0.183 0.16,-0.364 0.24,-0.548 v 0 c 0.351,-0.345 0.546,-0.746 0.67,-1.175 0.124,-0.428 0.177,-0.881 0.239,-1.331 -0.359,0.342 -0.516,0.759 -0.618,1.193 0.103,-0.435 0.259,-0.852 0.618,-1.193 0.084,-0.13 0.121,-0.26 0.123,-0.391 0,-0.008 0.003,-0.016 0.003,-0.023 -0.002,-0.07 -0.013,-0.139 -0.034,-0.208 -0.021,-0.069 -0.051,-0.139 -0.088,-0.208 0.507,-1.621 0.714,-3.241 0.585,-4.861 -0.078,-0.972 -0.274,-1.943 -0.599,-2.915 -0.015,1.188 0.109,2.367 0.188,3.553 -0.079,-1.186 -0.203,-2.365 -0.188,-3.553 0.046,-0.094 0.082,-0.188 0.105,-0.28 0.072,-0.279 0.04,-0.556 -0.136,-0.829 -0.584,-0.979 -0.924,-2.022 -1.133,-3.098 0.208,1.075 0.549,2.118 1.134,3.098 -0.842,-3.205 -1.33,-6.448 -1.102,-9.778 0.008,-0.114 -0.001,-0.227 -0.025,-0.337 -0.07,-0.329 -0.27,-0.635 -0.533,-0.883 v -0.001 0 c 0.076,-0.48 0.135,-0.961 0.142,-1.441 0.004,-0.359 -0.021,-0.72 -0.09,-1.079 -0.022,-0.119 -0.051,-0.239 -0.084,-0.358 v 0 c -0.058,-0.775 -0.028,-1.568 -0.193,-2.32 -0.138,-0.624 -0.167,-1.27 -0.241,-1.906 -0.036,-0.316 -0.084,-0.633 -0.162,-0.942 -0.039,-0.155 -0.085,-0.309 -0.141,-0.46 -0.057,-0.151 -0.123,-0.301 -0.201,-0.447 v 0 c 0.007,-0.24 0.025,-0.481 0.015,-0.72 -0.011,-0.238 -0.048,-0.474 -0.153,-0.702 -0.151,-0.098 -0.26,-0.212 -0.342,-0.335 0.083,0.123 0.191,0.237 0.342,0.335 -0.941,-6.517 -2.425,-12.926 -3.729,-19.375 -0.187,0.841 -0.392,1.719 -0.147,2.444 0.718,2.138 0.772,4.387 1.113,6.572 z m 5.809,37.758 c 0.008,0.734 -0.356,1.423 -0.368,2.135 0.012,-0.712 0.377,-1.401 0.368,-2.135 z m -1.721,-14.013 c -0.001,0.336 -0.004,0.672 -0.005,1.008 0,-0.336 0.004,-0.672 0.005,-1.008 z m 0,-0.336 c -0.001,-0.447 -0.011,-0.895 -0.043,-1.341 0.032,0.447 0.042,0.894 0.043,1.341 z m -0.856,-7.703 c -0.024,-0.646 0,-1.301 -0.14,-1.927 0.141,0.626 0.116,1.282 0.14,1.927 z m -1.622,-7.389 c 0.016,-0.07 0.036,-0.14 0.071,-0.203 -0.036,0.063 -0.056,0.132 -0.071,0.203 z" /><path
     style="fill:#fdfefb"
     inkscape:connector-curvature="0"
     id="path104"
     d="m 166.37,42.591 c 0.372,0.024 0.454,0.156 0.441,0.322 0.012,-0.167 -0.07,-0.298 -0.441,-0.322 0.007,0.32 -0.177,0.711 0.314,0.857 v 0 c 0.072,0.018 0.139,0.018 0.201,0.01 0.007,-10e-4 0.013,-0.004 0.02,-0.005 0.042,0.031 0.095,0.06 0.109,0.099 -0.108,0.198 -0.216,0.396 -0.324,0.594 0.044,0.164 0.088,0.327 0.133,0.489 v 0 c 0.131,2.395 0.761,4.701 1.31,7.013 1.053,4.436 1.62,8.937 1.999,13.468 0.021,0.248 -0.094,0.556 -0.246,0.763 -1.608,2.193 -2.506,4.572 -2.896,7.331 -0.637,4.518 0.697,8.426 2.771,12.247 0.308,0.567 0.64,0.702 0.95,0.041 0.408,-0.871 0.76,-1.767 1.137,-2.652 0.271,-0.319 0.469,-0.663 0.614,-1.024 0.242,-0.603 0.336,-1.255 0.374,-1.926 0.185,-0.232 0.29,-0.493 0.351,-0.763 0.102,-0.448 0.082,-0.924 0.11,-1.341 0.162,-2.349 0.623,-4.737 -0.252,-7.056 -0.255,-0.237 -0.399,-0.499 -0.472,-0.776 0.073,0.277 0.217,0.539 0.473,0.775 0.201,-0.724 -0.052,-1.346 -0.435,-1.938 -0.052,0.209 -0.084,0.414 -0.093,0.614 0.009,-0.2 0.041,-0.405 0.092,-0.614 0.079,-0.525 -0.075,-0.984 -0.402,-1.393 v 0 c 0,-0.381 -0.087,-0.732 -0.256,-1.058 -0.057,-0.108 -0.123,-0.214 -0.197,-0.316 v 0 c -0.173,-1.04 -0.299,-2.088 -0.425,-3.136 -0.21,-1.746 -0.42,-3.493 -0.851,-5.205 -0.087,-0.041 -0.149,-0.091 -0.193,-0.148 0.044,0.058 0.106,0.107 0.193,0.147 0.056,-0.217 -0.023,-0.382 -0.198,-0.509 0,0 0,-0.001 0,-0.001 -0.006,-0.575 0.198,-1.167 -0.137,-1.716 -0.359,-0.502 -0.525,-1.058 -0.636,-1.629 0.11,0.571 0.276,1.127 0.636,1.629 -0.074,-0.498 -0.121,-1.001 -0.224,-1.492 -0.095,-0.452 -0.19,-0.905 -0.285,-1.356 -0.666,-3.16 -1.352,-6.313 -2.412,-9.374 -0.002,-0.006 -0.003,-0.011 -0.005,-0.016 0,-0.003 -10e-4,-0.005 -0.002,-0.008 -0.747,-3.33 -1.379,-6.696 -2.618,-9.885 -0.177,-0.456 -0.367,-0.907 -0.57,-1.354 0.249,2.215 0.315,4.46 1.178,6.522 0.556,1.327 0.425,2.829 1.164,4.092 z m 5.316,23.578 c -0.104,0.225 -0.12,0.421 -0.066,0.594 -0.054,-0.173 -0.039,-0.369 0.066,-0.594 z" /><path
     style="fill:#fdfefb"
     inkscape:connector-curvature="0"
     id="path106"
     d="m 167.229,43.223 c -0.003,0 -0.005,0 -0.008,10e-4 0.001,0.005 0.003,0.01 0.004,0.016 0,-0.002 0.001,-0.003 0.002,-0.004 0.004,-0.006 0.008,-0.008 0.011,-0.014 0,0 -0.013,-0.003 -0.017,-0.005 -0.001,0 -0.004,-10e-4 -0.004,-10e-4 10e-4,0.003 0.002,0.005 0.002,0.007 0.003,0 0.006,0 0.01,0 z m 0.006,-10e-4 v 0 c 0,0 -0.003,-0.001 -0.006,-0.002 0.003,10e-4 0.007,0.002 0.006,0.002 z" /><path
     style="fill:#fdfefb"
     inkscape:connector-curvature="0"
     id="path108"
     d="m 181.221,62.087 c 0.34,-0.683 0.458,-1.332 0.025,-2.006 -0.101,-0.155 -0.371,-0.188 -0.459,-0.011 -0.33,0.653 -0.322,1.3 0.187,1.882 0.026,0.031 0.076,0.044 0.247,0.135 z" /><path
     style="fill:#fdfefb"
     inkscape:connector-curvature="0"
     id="path110"
     d="m 175.772,66.021 c 0.026,0.729 -0.024,1.471 0.392,2.131 0.043,-1.126 0.354,-2.298 -0.574,-3.252 0.049,0.132 0.084,0.265 0.11,0.399 0.047,0.237 0.064,0.478 0.072,0.722 z" /><path
     style="fill:#fdfefb"
     inkscape:connector-curvature="0"
     id="path112"
     d="m 165.68,55.462 c 0.02,-0.705 -0.038,-1.389 -0.549,-1.943 -0.188,0.752 -0.217,1.46 0.549,1.943 z" /><path
     style="fill:#fdfefb"
     inkscape:connector-curvature="0"
     id="path114"
     d="m 185.425,134.1 c 0.138,-0.112 0.261,-0.233 0.368,-0.364 0.323,-0.391 0.512,-0.857 0.626,-1.368 -0.712,0.359 -0.874,1.032 -0.994,1.732 z" /><path
     style="fill:#fdfefb"
     inkscape:connector-curvature="0"
     id="path116"
     d="m 159.819,37.689 c -0.013,0.072 -0.015,0.143 -0.009,0.209 0.018,0.197 0.117,0.366 0.275,0.513 0.03,-0.286 -0.02,-0.54 -0.266,-0.722 z" /><path
     style="fill:#fdfefb"
     inkscape:connector-curvature="0"
     id="path118"
     d="m 176.008,102.262 c 0.061,-0.043 0.117,-0.09 0.164,-0.142 0.14,-0.151 0.208,-0.337 0.179,-0.57 -0.295,0.15 -0.368,0.408 -0.343,0.712 z" /><path
     style="fill:#fdfefb"
     inkscape:connector-curvature="0"
     id="path120"
     d="m 166.745,43.598 c -0.03,0.017 -0.053,0.035 -0.071,0.058 -0.087,0.113 -0.034,0.303 0.016,0.49 0.107,-0.198 0.216,-0.396 0.323,-0.594 -0.122,-0.002 -0.209,0.013 -0.268,0.046 z" /></g>
<g
   aria-label="ALIMENTACIÓN "
   style="font-style:normal;font-weight:normal;font-size:40px;line-height:1.25;font-family:sans-serif;text-align:center;letter-spacing:0px;word-spacing:0px;text-anchor:middle;fill:#000000;fill-opacity:1;stroke:none"
   id="text3961" /><g
   aria-label="ADECUADA"
   style="font-style:normal;font-weight:normal;font-size:40px;line-height:1.25;font-family:sans-serif;text-align:center;letter-spacing:0px;word-spacing:0px;text-anchor:middle;fill:#000000;fill-opacity:1;stroke:none"
   id="text4772"><path
     sodipodi:type="inkscape:offset"
     inkscape:radius="0"
     inkscape:original="M 235.6875 220.67578 L 231.72852 224.69336 L 234.89648 224.69336 L 240 220.67578 L 235.6875 220.67578 z M 203.48242 226.07227 C 201.40953 226.07227 199.53138 226.53206 197.84961 227.45117 C 196.18738 228.35073 194.87814 229.60348 193.91992 231.20703 C 192.9617 232.81059 192.48242 234.61859 192.48242 236.63281 C 192.48242 238.64703 192.95196 240.45503 193.89062 242.05859 C 194.84885 243.66215 196.15809 244.92464 197.82031 245.84375 C 199.50209 246.7433 201.38024 247.19336 203.45312 247.19336 C 205.13491 247.19336 206.67015 246.89917 208.05859 246.3125 C 209.46659 245.72583 210.6492 244.87639 211.60742 243.76172 L 209.14453 241.41406 C 207.65831 243.03718 205.82887 243.84961 203.6582 243.84961 C 202.2502 243.84961 200.98967 243.54567 199.875 242.93945 C 198.76033 242.31367 197.88945 241.45254 197.26367 240.35742 C 196.63789 239.26232 196.32422 238.02126 196.32422 236.63281 C 196.32422 235.24437 196.63789 234.00331 197.26367 232.9082 C 197.88945 231.81309 198.76033 230.96169 199.875 230.35547 C 200.98967 229.72969 202.2502 229.41602 203.6582 229.41602 C 205.82887 229.41602 207.65831 230.21871 209.14453 231.82227 L 211.60742 229.50391 C 210.6492 228.38924 209.47634 227.53979 208.08789 226.95312 C 206.69944 226.36646 205.1642 226.07227 203.48242 226.07227 z M 234.19141 226.07227 C 232.09896 226.07227 230.21303 226.53206 228.53125 227.45117 C 226.84948 228.35073 225.52854 229.61321 224.57031 231.23633 C 223.61209 232.83988 223.13281 234.63815 223.13281 236.63281 C 223.13281 238.62748 223.61209 240.43548 224.57031 242.05859 C 225.52854 243.66215 226.84948 244.92464 228.53125 245.84375 C 230.21303 246.7433 232.09896 247.19336 234.19141 247.19336 C 236.28385 247.19336 238.17174 246.7433 239.85352 245.84375 C 241.5353 244.92464 242.85623 243.66215 243.81445 242.05859 C 244.77267 240.45503 245.25 238.64703 245.25 236.63281 C 245.25 234.61859 244.77267 232.81059 243.81445 231.20703 C 242.85623 229.60348 241.5353 228.35073 239.85352 227.45117 C 238.17174 226.53206 236.28385 226.07227 234.19141 226.07227 z M 41.701172 226.36523 L 32.460938 246.90039 L 36.392578 246.90039 L 38.416016 242.14844 L 48.683594 242.14844 L 50.736328 246.90039 L 54.726562 246.90039 L 45.457031 226.36523 L 41.701172 226.36523 z M 57.308594 226.36523 L 57.308594 246.90039 L 71.857422 246.90039 L 71.857422 243.67188 L 61.121094 243.67188 L 61.121094 226.36523 L 57.308594 226.36523 z M 74.896484 226.36523 L 74.896484 246.90039 L 78.710938 246.90039 L 78.710938 226.36523 L 74.896484 226.36523 z M 84.236328 226.36523 L 84.236328 246.90039 L 87.873047 246.90039 L 87.873047 233.46484 L 94.619141 244.55273 L 96.320312 244.55273 L 103.06836 233.28906 L 103.09766 246.90039 L 106.70508 246.90039 L 106.67578 226.36523 L 103.53711 226.36523 L 95.529297 239.97656 L 87.375 226.36523 L 84.236328 226.36523 z M 112.25195 226.36523 L 112.25195 246.90039 L 127.65039 246.90039 L 127.65039 243.70312 L 116.06445 243.70312 L 116.06445 238.04102 L 125.97852 238.04102 L 125.97852 234.90234 L 116.06445 234.90234 L 116.06445 229.56445 L 127.24023 229.56445 L 127.24023 226.36523 L 112.25195 226.36523 z M 131.90234 226.36523 L 131.90234 246.90039 L 135.68555 246.90039 L 135.68555 232.99609 L 147.00977 246.90039 L 150.14844 246.90039 L 150.14844 226.36523 L 146.36328 226.36523 L 146.36328 240.26953 L 135.04102 226.36523 L 131.90234 226.36523 z M 153.03906 226.36523 L 153.03906 229.59375 L 159.84375 229.59375 L 159.84375 246.90039 L 163.65625 246.90039 L 163.65625 229.59375 L 170.46289 229.59375 L 170.46289 226.36523 L 153.03906 226.36523 z M 178.62891 226.36523 L 169.38867 246.90039 L 173.32031 246.90039 L 175.34375 242.14844 L 185.60938 242.14844 L 187.66406 246.90039 L 191.65234 246.90039 L 182.38281 226.36523 L 178.62891 226.36523 z M 215.26172 226.36523 L 215.26172 246.90039 L 219.07422 246.90039 L 219.07422 226.36523 L 215.26172 226.36523 z M 249.29297 226.36523 L 249.29297 246.90039 L 253.07617 246.90039 L 253.07617 232.99609 L 264.40039 246.90039 L 267.53906 246.90039 L 267.53906 226.36523 L 263.75391 226.36523 L 263.75391 240.26953 L 252.43164 226.36523 L 249.29297 226.36523 z M 234.19141 229.41602 C 235.56029 229.41602 236.79356 229.72969 237.88867 230.35547 C 238.98378 230.96169 239.84297 231.82283 240.46875 232.9375 C 241.09453 234.03261 241.4082 235.26393 241.4082 236.63281 C 241.4082 238.0017 241.09453 239.24276 240.46875 240.35742 C 239.84297 241.45254 238.98378 242.31367 237.88867 242.93945 C 236.79356 243.54567 235.56029 243.84961 234.19141 243.84961 C 232.82251 243.84961 231.5912 243.54567 230.49609 242.93945 C 229.40098 242.31367 228.53984 241.45254 227.91406 240.35742 C 227.28829 239.24276 226.97656 238.0017 226.97656 236.63281 C 226.97656 235.26393 227.28829 234.03261 227.91406 232.9375 C 228.53984 231.82283 229.40098 230.96169 230.49609 230.35547 C 231.5912 229.72969 232.82251 229.41602 234.19141 229.41602 z M 43.548828 230.17969 L 47.421875 239.15625 L 39.707031 239.15625 L 43.548828 230.17969 z M 180.47656 230.17969 L 184.34961 239.15625 L 176.63477 239.15625 L 180.47656 230.17969 z M 139.30273 260.39062 C 137.22985 260.39063 135.3517 260.84846 133.66992 261.76758 C 132.0077 262.66713 130.69845 263.91988 129.74023 265.52344 C 128.78201 267.127 128.30273 268.935 128.30273 270.94922 C 128.30273 272.96344 128.77227 274.77339 129.71094 276.37695 C 130.66916 277.98051 131.97841 279.24104 133.64062 280.16016 C 135.3224 281.05971 137.20055 281.50977 139.27344 281.50977 C 140.95522 281.50977 142.49046 281.21557 143.87891 280.62891 C 145.28691 280.04224 146.46951 279.19279 147.42773 278.07812 L 144.96484 275.73047 C 143.47862 277.35358 141.64919 278.16602 139.47852 278.16602 C 138.07052 278.16602 136.80998 277.86208 135.69531 277.25586 C 134.58065 276.63008 133.70976 275.77089 133.08398 274.67578 C 132.4582 273.58067 132.14453 272.33767 132.14453 270.94922 C 132.14453 269.56077 132.4582 268.31972 133.08398 267.22461 C 133.70976 266.1295 134.58065 265.2781 135.69531 264.67188 C 136.80998 264.04609 138.07052 263.73438 139.47852 263.73438 C 141.64919 263.73438 143.47862 264.53512 144.96484 266.13867 L 147.42773 263.82227 C 146.46951 262.7076 145.29665 261.8562 143.9082 261.26953 C 142.51976 260.68286 140.98451 260.39062 139.30273 260.39062 z M 70.392578 260.68359 L 61.152344 281.2168 L 65.082031 281.2168 L 67.107422 276.46484 L 77.373047 276.46484 L 79.425781 281.2168 L 83.416016 281.2168 L 74.146484 260.68359 L 70.392578 260.68359 z M 85.998047 260.68359 L 85.998047 281.2168 L 94.974609 281.2168 C 97.164832 281.2168 99.111166 280.79596 100.8125 279.95508 C 102.51383 279.09463 103.83282 277.89254 104.77148 276.34766 C 105.71015 274.78321 106.17969 272.983 106.17969 270.94922 C 106.17969 268.91544 105.71015 267.12692 104.77148 265.58203 C 103.83282 264.01758 102.51383 262.8155 100.8125 261.97461 C 99.111166 261.11416 97.164832 260.68359 94.974609 260.68359 L 85.998047 260.68359 z M 110.23242 260.68359 L 110.23242 281.2168 L 125.63281 281.2168 L 125.63281 278.01953 L 114.04688 278.01953 L 114.04688 272.35742 L 123.96094 272.35742 L 123.96094 269.21875 L 114.04688 269.21875 L 114.04688 263.88086 L 125.22266 263.88086 L 125.22266 260.68359 L 110.23242 260.68359 z M 150.73438 260.68359 L 150.73438 272.26953 C 150.73437 275.24198 151.52537 277.52926 153.10938 279.13281 C 154.69338 280.71681 156.90467 281.50977 159.74023 281.50977 C 162.57579 281.50977 164.7754 280.71681 166.33984 279.13281 C 167.92384 277.52926 168.71484 275.24198 168.71484 272.26953 L 168.71484 260.68359 L 164.96094 260.68359 L 164.96094 272.12305 C 164.96094 276.15149 163.23086 278.16602 159.76953 278.16602 C 156.28864 278.16602 154.54688 276.15149 154.54688 272.12305 L 154.54688 260.68359 L 150.73438 260.68359 z M 179.93359 260.68359 L 170.69336 281.2168 L 174.625 281.2168 L 176.64844 276.46484 L 186.91406 276.46484 L 188.96875 281.2168 L 192.95703 281.2168 L 183.6875 260.68359 L 179.93359 260.68359 z M 195.54102 260.68359 L 195.54102 281.2168 L 204.51562 281.2168 C 206.70585 281.2168 208.65218 280.79596 210.35352 279.95508 C 212.05485 279.09463 213.37579 277.89254 214.31445 276.34766 C 215.25312 274.78321 215.7207 272.983 215.7207 270.94922 C 215.7207 268.91544 215.25312 267.12692 214.31445 265.58203 C 213.37579 264.01758 212.05485 262.8155 210.35352 261.97461 C 208.65218 261.11416 206.70585 260.68359 204.51562 260.68359 L 195.54102 260.68359 z M 225.82422 260.68359 L 216.58398 281.2168 L 220.51562 281.2168 L 222.53906 276.46484 L 232.80469 276.46484 L 234.85938 281.2168 L 238.84766 281.2168 L 229.57812 260.68359 L 225.82422 260.68359 z M 89.8125 263.91016 L 94.798828 263.91016 C 96.304606 263.91016 97.62359 264.2024 98.757812 264.78906 C 99.911588 265.35618 100.79221 266.17835 101.39844 267.25391 C 102.02421 268.30991 102.33789 269.54122 102.33789 270.94922 C 102.33789 272.35722 102.02421 273.60023 101.39844 274.67578 C 100.79221 275.73179 99.911588 276.55201 98.757812 277.13867 C 97.62359 277.70578 96.304606 277.99023 94.798828 277.99023 L 89.8125 277.99023 L 89.8125 263.91016 z M 199.35352 263.91016 L 204.33984 263.91016 C 205.84562 263.91016 207.16655 264.2024 208.30078 264.78906 C 209.45455 265.35618 210.33323 266.17835 210.93945 267.25391 C 211.56523 268.30991 211.87891 269.54122 211.87891 270.94922 C 211.87891 272.35722 211.56523 273.60023 210.93945 274.67578 C 210.33323 275.73179 209.45455 276.55201 208.30078 277.13867 C 207.16655 277.70578 205.84562 277.99023 204.33984 277.99023 L 199.35352 277.99023 L 199.35352 263.91016 z M 72.240234 264.49609 L 76.111328 273.47266 L 68.396484 273.47266 L 72.240234 264.49609 z M 181.78125 264.49609 L 185.6543 273.47266 L 177.93945 273.47266 L 181.78125 264.49609 z M 227.67188 264.49609 L 231.54492 273.47266 L 223.83008 273.47266 L 227.67188 264.49609 z "
     style="font-style:normal;font-variant:normal;font-weight:600;font-stretch:normal;font-size:29.33333778px;font-family:Montserrat;-inkscape-font-specification:'Montserrat Semi-Bold';fill:#ffffff"
     id="path4853"
     d="m 235.6875,220.67578 -3.95898,4.01758 h 3.16796 L 240,220.67578 Z m -32.20508,5.39649 c -2.07289,0 -3.95104,0.45979 -5.63281,1.3789 -1.66223,0.89956 -2.97147,2.15231 -3.92969,3.75586 -0.95822,1.60356 -1.4375,3.41156 -1.4375,5.42578 0,2.01422 0.46954,3.82222 1.4082,5.42578 0.95823,1.60356 2.26747,2.86605 3.92969,3.78516 1.68178,0.89955 3.55993,1.34961 5.63281,1.34961 1.68179,0 3.21703,-0.29419 4.60547,-0.88086 1.408,-0.58667 2.59061,-1.43611 3.54883,-2.55078 l -2.46289,-2.34766 c -1.48622,1.62312 -3.31566,2.43555 -5.48633,2.43555 -1.408,0 -2.66853,-0.30394 -3.7832,-0.91016 -1.11467,-0.62578 -1.98555,-1.48691 -2.61133,-2.58203 -0.62578,-1.0951 -0.93945,-2.33616 -0.93945,-3.72461 0,-1.38844 0.31367,-2.6295 0.93945,-3.72461 0.62578,-1.09511 1.49666,-1.94651 2.61133,-2.55273 1.11467,-0.62578 2.3752,-0.93945 3.7832,-0.93945 2.17067,0 4.00011,0.80269 5.48633,2.40625 l 2.46289,-2.31836 c -0.95822,-1.11467 -2.13108,-1.96412 -3.51953,-2.55079 -1.38845,-0.58666 -2.92369,-0.88085 -4.60547,-0.88085 z m 30.70899,0 c -2.09245,0 -3.97838,0.45979 -5.66016,1.3789 -1.68177,0.89956 -3.00271,2.16204 -3.96094,3.78516 -0.95822,1.60355 -1.4375,3.40182 -1.4375,5.39648 0,1.99467 0.47928,3.80267 1.4375,5.42578 0.95823,1.60356 2.27917,2.86605 3.96094,3.78516 1.68178,0.89955 3.56771,1.34961 5.66016,1.34961 2.09244,0 3.98033,-0.45006 5.66211,-1.34961 1.68178,-0.91911 3.00271,-2.1816 3.96093,-3.78516 0.95822,-1.60356 1.43555,-3.41156 1.43555,-5.42578 0,-2.01422 -0.47733,-3.82222 -1.43555,-5.42578 -0.95822,-1.60355 -2.27915,-2.8563 -3.96093,-3.75586 -1.68178,-0.91911 -3.56967,-1.3789 -5.66211,-1.3789 z m -192.490238,0.29296 -9.240234,20.53516 h 3.93164 l 2.023438,-4.75195 h 10.267578 l 2.052734,4.75195 h 3.990234 l -9.269531,-20.53516 z m 15.607422,0 v 20.53516 h 14.548828 v -3.22851 H 61.121094 v -17.30665 z m 17.58789,0 v 20.53516 h 3.814454 v -20.53516 z m 9.339844,0 v 20.53516 h 3.636719 v -13.43555 l 6.746094,11.08789 h 1.701171 l 6.748048,-11.26367 0.0293,13.61133 h 3.60742 l -0.0293,-20.53516 h -3.13867 L 95.529297,239.97656 87.375,226.36523 Z m 28.015622,0 v 20.53516 h 15.39844 v -3.19727 h -11.58594 v -5.6621 h 9.91407 v -3.13868 h -9.91407 v -5.33789 h 11.17578 v -3.19922 z m 19.65039,0 v 20.53516 h 3.78321 v -13.9043 l 11.32422,13.9043 h 3.13867 v -20.53516 h -3.78516 v 13.9043 l -11.32226,-13.9043 z m 21.13672,0 v 3.22852 h 6.80469 v 17.30664 h 3.8125 v -17.30664 h 6.80664 v -3.22852 z m 25.58985,0 -9.24024,20.53516 h 3.93164 l 2.02344,-4.75195 h 10.26563 l 2.05468,4.75195 h 3.98828 l -9.26953,-20.53516 z m 36.63281,0 v 20.53516 h 3.8125 v -20.53516 z m 34.03125,0 v 20.53516 h 3.7832 v -13.9043 l 11.32422,13.9043 h 3.13867 v -20.53516 h -3.78515 v 13.9043 l -11.32227,-13.9043 z m -15.10156,3.05079 c 1.36888,0 2.60215,0.31367 3.69726,0.93945 1.09511,0.60622 1.9543,1.46736 2.58008,2.58203 0.62578,1.09511 0.93945,2.32643 0.93945,3.69531 0,1.36889 -0.31367,2.60995 -0.93945,3.72461 -0.62578,1.09512 -1.48497,1.95625 -2.58008,2.58203 -1.09511,0.60622 -2.32838,0.91016 -3.69726,0.91016 -1.3689,0 -2.60021,-0.30394 -3.69532,-0.91016 -1.09511,-0.62578 -1.95625,-1.48691 -2.58203,-2.58203 -0.62577,-1.11466 -0.9375,-2.35572 -0.9375,-3.72461 0,-1.36888 0.31173,-2.6002 0.9375,-3.69531 0.62578,-1.11467 1.48692,-1.97581 2.58203,-2.58203 1.09511,-0.62578 2.32642,-0.93945 3.69532,-0.93945 z m -190.642582,0.76367 3.873047,8.97656 h -7.714844 z m 136.927732,0 3.87305,8.97656 h -7.71484 z m -41.17383,30.21093 c -2.07288,10e-6 -3.95103,0.45784 -5.63281,1.37696 -1.66222,0.89955 -2.97147,2.1523 -3.92969,3.75586 -0.95822,1.60356 -1.4375,3.41156 -1.4375,5.42578 0,2.01422 0.46954,3.82417 1.40821,5.42773 0.95822,1.60356 2.26747,2.86409 3.92968,3.78321 1.68178,0.89955 3.55993,1.34961 5.63282,1.34961 1.68178,0 3.21702,-0.2942 4.60547,-0.88086 1.408,-0.58667 2.5906,-1.43612 3.54882,-2.55079 l -2.46289,-2.34765 c -1.48622,1.62311 -3.31565,2.43555 -5.48632,2.43555 -1.408,0 -2.66854,-0.30394 -3.78321,-0.91016 -1.11466,-0.62578 -1.98555,-1.48497 -2.61133,-2.58008 -0.62578,-1.09511 -0.93945,-2.33811 -0.93945,-3.72656 0,-1.38845 0.31367,-2.6295 0.93945,-3.72461 0.62578,-1.09511 1.49667,-1.94651 2.61133,-2.55273 1.11467,-0.62579 2.37521,-0.9375 3.78321,-0.9375 2.17067,0 4.0001,0.80074 5.48632,2.40429 l 2.46289,-2.3164 c -0.95822,-1.11467 -2.13108,-1.96607 -3.51953,-2.55274 -1.38844,-0.58667 -2.92369,-0.87891 -4.60547,-0.87891 z m -68.910152,0.29297 -9.240234,20.53321 h 3.929687 l 2.025391,-4.75196 h 10.265625 l 2.052734,4.75196 h 3.990235 l -9.269532,-20.53321 z m 15.605469,0 v 20.53321 h 8.976562 c 2.190223,0 4.136557,-0.42084 5.837891,-1.26172 1.70133,-0.86045 3.02032,-2.06254 3.95898,-3.60742 0.93867,-1.56445 1.40821,-3.36466 1.40821,-5.39844 0,-2.03378 -0.46954,-3.8223 -1.40821,-5.36719 -0.93866,-1.56445 -2.25765,-2.76653 -3.95898,-3.60742 -1.701334,-0.86045 -3.647668,-1.29102 -5.837891,-1.29102 z m 24.234373,0 v 20.53321 h 15.40039 v -3.19727 h -11.58593 v -5.66211 h 9.91406 v -3.13867 h -9.91406 v -5.33789 h 11.17578 v -3.19727 z m 40.50196,0 v 11.58594 c -10e-6,2.97245 0.79099,5.25973 2.375,6.86328 1.584,1.584 3.79529,2.37696 6.63085,2.37696 2.83556,0 5.03517,-0.79296 6.59961,-2.37696 1.584,-1.60355 2.375,-3.89083 2.375,-6.86328 v -11.58594 h -3.7539 v 11.43946 c 0,4.02844 -1.73008,6.04297 -5.19141,6.04297 -3.48089,0 -5.22265,-2.01453 -5.22265,-6.04297 v -11.43946 z m 29.19921,0 -9.24023,20.53321 h 3.93164 l 2.02344,-4.75196 h 10.26562 l 2.05469,4.75196 h 3.98828 l -9.26953,-20.53321 z m 15.60743,0 v 20.53321 h 8.9746 c 2.19023,0 4.13656,-0.42084 5.8379,-1.26172 1.70133,-0.86045 3.02227,-2.06254 3.96093,-3.60742 0.93867,-1.56445 1.40625,-3.36466 1.40625,-5.39844 0,-2.03378 -0.46758,-3.8223 -1.40625,-5.36719 -0.93866,-1.56445 -2.2596,-2.76653 -3.96093,-3.60742 -1.70134,-0.86045 -3.64767,-1.29102 -5.8379,-1.29102 z m 30.2832,0 -9.24024,20.53321 h 3.93164 l 2.02344,-4.75196 h 10.26563 l 2.05469,4.75196 h 3.98828 l -9.26954,-20.53321 z M 89.8125,263.91016 h 4.986328 c 1.505778,0 2.824762,0.29224 3.958984,0.8789 1.153776,0.56712 2.034398,1.38929 2.640628,2.46485 0.62577,1.056 0.93945,2.28731 0.93945,3.69531 0,1.408 -0.31368,2.65101 -0.93945,3.72656 -0.60623,1.05601 -1.486852,1.87623 -2.640628,2.46289 -1.134222,0.56711 -2.453206,0.85156 -3.958984,0.85156 H 89.8125 Z m 109.54102,0 h 4.98632 c 1.50578,0 2.82671,0.29224 3.96094,0.8789 1.15377,0.56712 2.03245,1.38929 2.63867,2.46485 0.62578,1.056 0.93946,2.28731 0.93946,3.69531 0,1.408 -0.31368,2.65101 -0.93946,3.72656 -0.60622,1.05601 -1.4849,1.87623 -2.63867,2.46289 -1.13423,0.56711 -2.45516,0.85156 -3.96094,0.85156 h -4.98632 z m -127.113286,0.58593 3.871094,8.97657 h -7.714844 z m 109.541016,0 3.87305,8.97657 h -7.71485 z m 45.89063,0 3.87304,8.97657 h -7.71484 z" /></g></svg>