<?xml version="1.0" encoding="UTF-8" standalone="no"?>
<!-- Generator: Adobe Illustrator 16.0.0, SVG Export Plug-In . SVG Version: 6.00 Build 0)  -->

<svg
   xmlns:dc="http://purl.org/dc/elements/1.1/"
   xmlns:cc="http://creativecommons.org/ns#"
   xmlns:rdf="http://www.w3.org/1999/02/22-rdf-syntax-ns#"
   xmlns:svg="http://www.w3.org/2000/svg"
   xmlns="http://www.w3.org/2000/svg"
   xmlns:sodipodi="http://sodipodi.sourceforge.net/DTD/sodipodi-0.dtd"
   xmlns:inkscape="http://www.inkscape.org/namespaces/inkscape"
   version="1.0"
   id="Capa_1"
   x="0px"
   y="0px"
   width="300px"
   height="300px"
   viewBox="0 0 300 300"
   enable-background="new 0 0 300 300"
   xml:space="preserve"
   sodipodi:docname="b5.svg"
   inkscape:version="0.92.4 (5da689c313, 2019-01-14)"><metadata
   id="metadata49"><rdf:RDF><cc:Work
       rdf:about=""><dc:format>image/svg+xml</dc:format><dc:type
         rdf:resource="http://purl.org/dc/dcmitype/StillImage" /></cc:Work></rdf:RDF></metadata><defs
   id="defs47">
	
	

		
		
		
		
		
		
		
		
		
		
		
		
		
		
		
		
		
		
	</defs><sodipodi:namedview
   pagecolor="#ffffff"
   bordercolor="#666666"
   borderopacity="1"
   objecttolerance="10"
   gridtolerance="10"
   guidetolerance="10"
   inkscape:pageopacity="0"
   inkscape:pageshadow="2"
   inkscape:window-width="1920"
   inkscape:window-height="1027"
   id="namedview45"
   showgrid="false"
   inkscape:zoom="0.78666667"
   inkscape:cx="-263.13559"
   inkscape:cy="141.82513"
   inkscape:window-x="-8"
   inkscape:window-y="-8"
   inkscape:window-maximized="1"
   inkscape:current-layer="Capa_1" />
<path
   id="path2"
   d="M 242.623,0 H 57.377 C 25.82,0 0,25.82 0,57.377 V 242.623 C 0,274.18 25.82,300 57.377,300 H 242.623 C 274.18,300 300,274.18 300,242.623 V 57.377 C 300,25.82 274.18,0 242.623,0 Z"
   inkscape:connector-curvature="0"
   style="fill:#18bd32;fill-opacity:1" /><path
   style="fill:#ffffff"
   inkscape:connector-curvature="0"
   d="m 220.30637,40.570997 c -2.191,-0.934 -3.687,-1.639 -5.231,-2.218 -6.147,-2.306 -12.293,-2.229 -18.453,0.023 -3.056,1.119 -5.277,3.296 -7.776,5.265 -4.602,3.626 -6.633,8.594 -8.992,13.55 -0.879,1.849 -2.133,4.025 -3.813,4.89 -4.741,2.438 -8.383,6.171 -11.048,10.356 -4.313,6.774 -8.017,14.02 -9.433,22.14 -0.294,1.689 -0.863,3.331 -1.306,4.994 -3.431,-8.992 -6.57,-17.811 -11.667,-25.79 -0.38,-0.596 -0.081,-2.146 0.464,-2.707 1.224,-1.257 2.917,-2.042 4.214,-3.243 4.937,-4.571 7.371,-10.397 8.276,-16.969 1.124,-8.152 -4.439,-14.747 -5.054,-22.758 -5.829,2.709 -10.761,5.927 -14.802,10.903 -4.233,5.214 -3.389,11.34 -3.995,17.784 -5.542,-7.149 -11.196,-12.824 -18.131,-17.099 -1.974,-1.218 -3.339,-2.525 -3.783,-5.015 -0.938,-5.263 -3.798,-9.872 -7.653,-13.192 -4.857,-4.184 -10.927,-5.987 -17.553,-4.311 -1.284,0.325 -2.81,0.12 -3.893,0.738 -2.454,1.4 0.422,2.231 0.702,3.308 0.889,3.425 1.587,7.149 3.485,10.012 5.021,7.574 12,12.096 21.592,11.377 0.656,-0.05 1.686,0.308 1.988,0.809 4.032,6.692 8.29,13.279 11.822,20.232 3.02,5.943 5.194,12.318 7.7,18.519 0.268,0.663 0.249,1.44 0.362,2.165 -6.216,-7.9 -13.405,-13.58 -23.711,-13.253 -6.181,0.197 -11.743,2.718 -16.616,6.221 2.21,2.479 4.102,4.592 5.985,6.712 3.73,4.199 6.879,8.841 12.746,10.808 5.86,1.964 11.5,2.163 17.333,0.527 2.05,-0.574 4.099,-1.155 6.194,-1.745 0.16,0.242 0.399,0.455 0.452,0.709 0.841,3.983 1.765,7.954003 2.451,11.966003 0.846,4.955 1.666,9.928 2.175,14.926 0.591,5.8 0.764,11.642 1.273,17.451 0.135,1.528 0.841,3.006 1.579,5.499 -1.75,-1.612 -2.998,-2.665 -4.134,-3.826 -3.631,-3.71 -7.852,-6.469 -12.817,-8.027 -4.07,-1.277 -8.155,-2.501 -12.268,-3.76 -0.321,5.036 -2.501,10.318 -0.368,16.196 2.314,6.372 5.663,11.473 11.634,14.702 4.248,2.297 8.394,4.811 13.56,4.636 2.05,-0.069 2.134,1.768 1.965,3.376 -0.506,4.831 -0.985,9.664 -1.55,14.488 -0.464,3.97 -0.716,8.006 -1.655,11.867 -0.902,3.71 -1.094,3.82 2.828,3.873 9.373,0.126 18.745,0.306 28.117,0.293 0.611,-0.001 1.799,-1.493 1.739,-2.211 -0.411,-4.933 -1.143,-9.839 -1.656,-14.765 -0.989,-9.479 -1.901,-18.967 -2.848,-28.449 -0.094,-0.944 -0.201,-1.887 -0.31,-2.83 -0.186,-1.612 -0.378,-3.225 -0.563,-4.801 4.146,0 7.59,0.445 10.857,-0.126 3.173,-0.556 6.155,-2.174 9.234,-3.289 12.817,-4.642 18.762,-14.814 21.809,-27.239 1.018,-4.15 1.708,-8.369 4.504,-11.837 0.43,-0.532 0.575,-1.295 1.02,-2.351 -19.19,-3.561003 -35.405,-0.685003 -46.075,17.623 -0.204,-0.799 -0.501,-1.342 -0.445,-1.846 0.609,-5.478 0.944,-11.015 2.019,-16.403003 1.003,-5.03 2.827,-9.895 4.258,-14.841 2.242,-7.753 6.094,-14.496 12.45,-19.606 0.77,-0.618 2.04,-0.877 3.071,-0.861 3.895,0.062 7.821,0.703 11.674,0.381 4.595,-0.385 8.578,-2.579 12.247,-5.494 3.308,-2.629 5.248,-5.971 7.105,-9.651 1.518,-3.005 2.259,-6.777 6.715,-8.806 z"
   id="path12" />
<g
   aria-label="MEDIO AMBIENTE"
   style="font-style:normal;font-weight:normal;font-size:40px;line-height:1.25;font-family:sans-serif;text-align:center;letter-spacing:0px;word-spacing:0px;text-anchor:middle;fill:#000000;fill-opacity:1;stroke:none"
   id="text135" /><g
   aria-label="SANO"
   style="font-style:normal;font-weight:normal;font-size:40px;line-height:1.25;font-family:sans-serif;text-align:center;letter-spacing:0px;word-spacing:0px;text-anchor:middle;fill:#000000;fill-opacity:1;stroke:none"
   id="text944"><path
     sodipodi:type="inkscape:offset"
     inkscape:radius="0"
     inkscape:original="M 104.76953 221.48047 C 102.67708 221.48047 100.7892 221.93831 99.107422 222.85742 C 97.425645 223.75698 96.10666 225.01946 95.148438 226.64258 C 94.190215 228.24613 93.710938 230.0444 93.710938 232.03906 C 93.710938 234.03373 94.190216 235.84368 95.148438 237.4668 C 96.10666 239.07035 97.425645 240.33089 99.107422 241.25 C 100.7892 242.14955 102.67708 242.59961 104.76953 242.59961 C 106.86197 242.59961 108.74986 242.14955 110.43164 241.25 C 112.11342 240.33089 113.43241 239.07035 114.39062 237.4668 C 115.34884 235.86324 115.82814 234.05329 115.82812 232.03906 C 115.82814 230.02484 115.34884 228.21683 114.39062 226.61328 C 113.43242 225.00972 112.11342 223.75698 110.43164 222.85742 C 108.74986 221.93831 106.86197 221.48047 104.76953 221.48047 z M 13.9375 221.77344 L 13.9375 242.30664 L 17.576172 242.30664 L 17.576172 228.87109 L 24.322266 239.95898 L 26.023438 239.95898 L 32.769531 228.69531 L 32.798828 242.30664 L 36.408203 242.30664 L 36.378906 221.77344 L 33.240234 221.77344 L 25.230469 235.38281 L 17.076172 221.77344 L 13.9375 221.77344 z M 41.953125 221.77344 L 41.953125 242.30664 L 57.353516 242.30664 L 57.353516 239.10938 L 45.767578 239.10938 L 45.767578 233.44727 L 55.681641 233.44727 L 55.681641 230.30859 L 45.767578 230.30859 L 45.767578 224.9707 L 56.943359 224.9707 L 56.943359 221.77344 L 41.953125 221.77344 z M 61.605469 221.77344 L 61.605469 242.30664 L 70.580078 242.30664 C 72.7703 242.30664 74.716635 241.88581 76.417969 241.04492 C 78.119302 240.18448 79.44024 238.98239 80.378906 237.4375 C 81.317573 235.87305 81.785156 234.07284 81.785156 232.03906 C 81.785156 230.00529 81.317573 228.21676 80.378906 226.67188 C 79.44024 225.10744 78.119302 223.90535 76.417969 223.06445 C 74.716635 222.20401 72.7703 221.77344 70.580078 221.77344 L 61.605469 221.77344 z M 85.839844 221.77344 L 85.839844 242.30664 L 89.652344 242.30664 L 89.652344 221.77344 L 85.839844 221.77344 z M 134.28516 221.77344 L 125.04492 242.30664 L 128.97461 242.30664 L 131 237.55469 L 141.26562 237.55469 L 143.31836 242.30664 L 147.30859 242.30664 L 138.03906 221.77344 L 134.28516 221.77344 z M 149.89062 221.77344 L 149.89062 242.30664 L 153.5293 242.30664 L 153.5293 228.87109 L 160.27539 239.95898 L 161.97656 239.95898 L 168.72266 228.69531 L 168.75195 242.30664 L 172.36133 242.30664 L 172.33203 221.77344 L 169.19336 221.77344 L 161.18359 235.38281 L 153.0293 221.77344 L 149.89062 221.77344 z M 177.90625 221.77344 L 177.90625 242.30664 L 188.11523 242.30664 C 190.73568 242.30664 192.73072 241.82736 194.09961 240.86914 C 195.4685 239.89136 196.15234 238.51198 196.15234 236.73242 C 196.15234 235.44176 195.81918 234.36631 195.1543 233.50586 C 194.48941 232.62586 193.59126 232.00046 192.45703 231.62891 C 193.27836 231.19868 193.92324 230.59277 194.39258 229.81055 C 194.86191 229.02833 195.0957 228.12822 195.0957 227.11133 C 195.0957 225.44911 194.44108 224.1496 193.13086 223.21094 C 191.82064 222.25272 189.95224 221.77344 187.52734 221.77344 L 177.90625 221.77344 z M 200.25 221.77344 L 200.25 242.30664 L 204.06445 242.30664 L 204.06445 221.77344 L 200.25 221.77344 z M 209.58984 221.77344 L 209.58984 242.30664 L 224.98828 242.30664 L 224.98828 239.10938 L 213.40234 239.10938 L 213.40234 233.44727 L 223.31641 233.44727 L 223.31641 230.30859 L 213.40234 230.30859 L 213.40234 224.9707 L 224.57812 224.9707 L 224.57812 221.77344 L 209.58984 221.77344 z M 229.24023 221.77344 L 229.24023 242.30664 L 233.02344 242.30664 L 233.02344 228.40234 L 244.34766 242.30664 L 247.48633 242.30664 L 247.48633 221.77344 L 243.70117 221.77344 L 243.70117 235.67773 L 232.37891 221.77344 L 229.24023 221.77344 z M 250.37695 221.77344 L 250.37695 225 L 257.18164 225 L 257.18164 242.30664 L 260.99414 242.30664 L 260.99414 225 L 267.80078 225 L 267.80078 221.77344 L 250.37695 221.77344 z M 270.66211 221.77344 L 270.66211 242.30664 L 286.0625 242.30664 L 286.0625 239.10938 L 274.47461 239.10938 L 274.47461 233.44727 L 284.39062 233.44727 L 284.39062 230.30859 L 274.47461 230.30859 L 274.47461 224.9707 L 285.65039 224.9707 L 285.65039 221.77344 L 270.66211 221.77344 z M 181.7207 224.76562 L 187.11719 224.76562 C 188.44696 224.76562 189.46397 225.00916 190.16797 225.49805 C 190.89153 225.96738 191.25391 226.67071 191.25391 227.60938 C 191.25391 228.52848 190.89153 229.23377 190.16797 229.72266 C 189.46397 230.19199 188.44696 230.42578 187.11719 230.42578 L 181.7207 230.42578 L 181.7207 224.76562 z M 104.76953 224.82422 C 106.13842 224.82422 107.36973 225.13594 108.46484 225.76172 C 109.55995 226.36794 110.42109 227.22908 111.04688 228.34375 C 111.67266 229.43886 111.98633 230.67018 111.98633 232.03906 C 111.98633 233.40796 111.67266 234.65097 111.04688 235.76562 C 110.42109 236.86074 109.55995 237.71992 108.46484 238.3457 C 107.36973 238.95192 106.13842 239.25586 104.76953 239.25586 C 103.40064 239.25586 102.16933 238.95192 101.07422 238.3457 C 99.979104 237.71992 99.117966 236.86074 98.492188 235.76562 C 97.86641 234.65097 97.552734 233.40796 97.552734 232.03906 C 97.552734 230.67018 97.866409 229.43886 98.492188 228.34375 C 99.117964 227.22908 99.979104 226.36794 101.07422 225.76172 C 102.16933 225.13594 103.40064 224.82422 104.76953 224.82422 z M 65.417969 225 L 70.404297 225 C 71.910075 225 73.231012 225.29224 74.365234 225.87891 C 75.519012 226.44602 76.397684 227.2682 77.003906 228.34375 C 77.629684 229.39975 77.943359 230.63106 77.943359 232.03906 C 77.943359 233.44706 77.629684 234.69007 77.003906 235.76562 C 76.397684 236.82163 75.519012 237.64185 74.365234 238.22852 C 73.231012 238.79562 71.910075 239.08008 70.404297 239.08008 L 65.417969 239.08008 L 65.417969 225 z M 136.13281 225.58594 L 140.00391 234.5625 L 132.28906 234.5625 L 136.13281 225.58594 z M 181.7207 233.38867 L 187.88086 233.38867 C 190.83375 233.38867 192.30859 234.37646 192.30859 236.35156 C 192.30859 238.32668 190.83375 239.31445 187.88086 239.31445 L 181.7207 239.31445 L 181.7207 233.38867 z M 115.4375 266.10547 C 113.63839 266.10547 112.11288 266.38017 110.86133 266.92773 C 109.62933 267.47529 108.70195 268.21758 108.07617 269.15625 C 107.46995 270.07536 107.16602 271.10211 107.16602 272.23633 C 107.16602 273.58566 107.50891 274.66111 108.19336 275.46289 C 108.89736 276.24511 109.72733 276.82181 110.68555 277.19336 C 111.66333 277.56492 112.93556 277.93704 114.5 278.30859 C 115.61467 278.58237 116.49334 278.82591 117.13867 279.04102 C 117.78401 279.25613 118.31199 279.56006 118.72266 279.95117 C 119.15288 280.32273 119.36914 280.80201 119.36914 281.38867 C 119.36914 282.19045 118.98728 282.83533 118.22461 283.32422 C 117.4815 283.81311 116.3476 284.05664 114.82227 284.05664 C 113.59027 284.05664 112.35895 283.85207 111.12695 283.44141 C 109.91451 283.01119 108.88776 282.46371 108.04688 281.79883 L 106.72656 284.76172 C 107.58701 285.50483 108.75013 286.101 110.2168 286.55078 C 111.70302 287.00055 113.23827 287.22461 114.82227 287.22461 C 116.62138 287.22461 118.14688 286.95185 119.39844 286.4043 C 120.64999 285.85674 121.57932 285.12419 122.18555 284.20508 C 122.81132 283.28596 123.12305 282.25922 123.12305 281.125 C 123.12305 279.79522 122.77041 278.73925 122.06641 277.95703 C 121.38197 277.17481 120.552 276.59617 119.57422 276.22461 C 118.59644 275.8335 117.34369 275.46333 115.81836 275.11133 C 114.70369 274.83755 113.82502 274.59207 113.17969 274.37695 C 112.53435 274.16185 111.99663 273.86961 111.56641 273.49805 C 111.15574 273.12649 110.94922 272.64721 110.94922 272.06055 C 110.94922 271.21966 111.3116 270.54556 112.03516 270.03711 C 112.77827 269.52866 113.90242 269.27344 115.4082 269.27344 C 116.32731 269.27344 117.27613 269.40981 118.25391 269.68359 C 119.23169 269.95737 120.17076 270.35872 121.07031 270.88672 L 122.27344 267.92383 C 121.39344 267.33716 120.34721 266.88711 119.13477 266.57422 C 117.92232 266.26133 116.68905 266.10547 115.4375 266.10547 z M 182.21484 266.10547 C 180.1224 266.10547 178.23646 266.56526 176.55469 267.48438 C 174.87291 268.38392 173.55197 269.64446 172.59375 271.26758 C 171.63552 272.87113 171.15625 274.67135 171.15625 276.66602 C 171.15625 278.66068 171.63552 280.46868 172.59375 282.0918 C 173.55197 283.69535 174.87291 284.95784 176.55469 285.87695 C 178.23646 286.77651 180.1224 287.22461 182.21484 287.22461 C 184.30729 287.22461 186.19518 286.77651 187.87695 285.87695 C 189.55873 284.95784 190.87772 283.69535 191.83594 282.0918 C 192.79416 280.48824 193.27344 278.68024 193.27344 276.66602 C 193.27344 274.6518 192.79416 272.84183 191.83594 271.23828 C 190.87772 269.63472 189.55873 268.38393 187.87695 267.48438 C 186.19518 266.56525 184.30729 266.10547 182.21484 266.10547 z M 133.24023 266.39844 L 124 286.93164 L 127.93164 286.93164 L 129.95508 282.17969 L 140.22266 282.17969 L 142.27539 286.93164 L 146.26367 286.93164 L 136.99609 266.39844 L 133.24023 266.39844 z M 148.84766 266.39844 L 148.84766 286.93164 L 152.63086 286.93164 L 152.63086 273.02734 L 163.95312 286.93164 L 167.0918 286.93164 L 167.0918 266.39844 L 163.30859 266.39844 L 163.30859 280.30273 L 151.98633 266.39844 L 148.84766 266.39844 z M 182.21484 269.44922 C 183.58373 269.44922 184.817 269.76289 185.91211 270.38867 C 187.00722 270.99489 187.86641 271.85408 188.49219 272.96875 C 189.11797 274.06386 189.43164 275.29713 189.43164 276.66602 C 189.43164 278.03491 189.11797 279.27596 188.49219 280.39062 C 187.86641 281.48573 187.00722 282.34688 185.91211 282.97266 C 184.817 283.57888 183.58373 283.88086 182.21484 283.88086 C 180.84596 283.88086 179.61464 283.57888 178.51953 282.97266 C 177.42442 282.34688 176.56327 281.48574 175.9375 280.39062 C 175.31172 279.27596 175 278.03491 175 276.66602 C 175 275.29713 175.31172 274.06386 175.9375 272.96875 C 176.56327 271.85408 177.42442 270.99489 178.51953 270.38867 C 179.61464 269.76289 180.84596 269.44922 182.21484 269.44922 z M 135.08789 270.21289 L 138.96094 279.1875 L 131.24609 279.1875 L 135.08789 270.21289 z "
     style="font-style:normal;font-variant:normal;font-weight:600;font-stretch:normal;font-size:29.33333397px;font-family:Montserrat;-inkscape-font-specification:'Montserrat Semi-Bold';fill:#ffffff;fill-opacity:1"
     id="path982"
     d="m 104.76953,221.48047 c -2.09245,0 -3.98033,0.45784 -5.662108,1.37695 -1.681777,0.89956 -3.000762,2.16204 -3.958984,3.78516 -0.958223,1.60355 -1.4375,3.40182 -1.4375,5.39648 0,1.99467 0.479278,3.80462 1.4375,5.42774 0.958222,1.60355 2.277207,2.86409 3.958984,3.7832 1.681778,0.89955 3.569658,1.34961 5.662108,1.34961 2.09244,0 3.98033,-0.45006 5.66211,-1.34961 1.68178,-0.91911 3.00077,-2.17965 3.95898,-3.7832 0.95822,-1.60356 1.43752,-3.41351 1.4375,-5.42774 2e-5,-2.01422 -0.47928,-3.82223 -1.4375,-5.42578 -0.9582,-1.60356 -2.2772,-2.8563 -3.95898,-3.75586 -1.68178,-0.91911 -3.56967,-1.37695 -5.66211,-1.37695 z m -90.83203,0.29297 v 20.5332 h 3.638672 v -13.43555 l 6.746094,11.08789 h 1.701172 l 6.746093,-11.26367 0.0293,13.61133 h 3.609375 l -0.0293,-20.5332 h -3.138672 l -8.009765,13.60937 -8.154297,-13.60937 z m 28.015625,0 v 20.5332 h 15.400391 v -3.19726 H 45.767578 v -5.66211 h 9.914063 v -3.13868 h -9.914063 v -5.33789 h 11.175781 v -3.19726 z m 19.652344,0 v 20.5332 h 8.974609 c 2.190222,0 4.136557,-0.42083 5.837891,-1.26172 1.701333,-0.86044 3.022271,-2.06253 3.960937,-3.60742 0.938667,-1.56445 1.40625,-3.36466 1.40625,-5.39844 0,-2.03377 -0.467583,-3.8223 -1.40625,-5.36718 -0.938666,-1.56444 -2.259604,-2.76653 -3.960937,-3.60743 -1.701334,-0.86044 -3.647669,-1.29101 -5.837891,-1.29101 z m 24.234375,0 v 20.5332 h 3.8125 v -20.5332 z m 48.445316,0 -9.24024,20.5332 h 3.92969 L 131,237.55469 h 10.26562 l 2.05274,4.75195 h 3.99023 l -9.26953,-20.5332 z m 15.60546,0 v 20.5332 h 3.63868 v -13.43555 l 6.74609,11.08789 h 1.70117 l 6.7461,-11.26367 0.0293,13.61133 h 3.60938 l -0.0293,-20.5332 h -3.13867 l -8.00977,13.60937 -8.15429,-13.60937 z m 28.01563,0 v 20.5332 h 10.20898 c 2.62045,0 4.61549,-0.47928 5.98438,-1.4375 1.36889,-0.97778 2.05273,-2.35716 2.05273,-4.13672 0,-1.29066 -0.33316,-2.36611 -0.99804,-3.22656 -0.66489,-0.88 -1.56304,-1.5054 -2.69727,-1.87695 0.82133,-0.43023 1.46621,-1.03614 1.93555,-1.81836 0.46933,-0.78222 0.70312,-1.68233 0.70312,-2.69922 0,-1.66222 -0.65462,-2.96173 -1.96484,-3.90039 -1.31022,-0.95822 -3.17862,-1.4375 -5.60352,-1.4375 z m 22.34375,0 v 20.5332 h 3.81445 v -20.5332 z m 9.33984,0 v 20.5332 h 15.39844 v -3.19726 h -11.58594 v -5.66211 h 9.91407 v -3.13868 h -9.91407 v -5.33789 h 11.17578 v -3.19726 z m 19.65039,0 v 20.5332 h 3.78321 v -13.9043 l 11.32422,13.9043 h 3.13867 v -20.5332 h -3.78516 v 13.90429 l -11.32226,-13.90429 z m 21.13672,0 V 225 h 6.80469 v 17.30664 h 3.8125 V 225 h 6.80664 v -3.22656 z m 20.28516,0 v 20.5332 h 15.40039 v -3.19726 h -11.58789 v -5.66211 h 9.91601 v -3.13868 h -9.91601 v -5.33789 h 11.17578 v -3.19726 z m -88.94141,2.99218 h 5.39649 c 1.32977,0 2.34678,0.24354 3.05078,0.73243 0.72356,0.46933 1.08594,1.17266 1.08594,2.11133 0,0.9191 -0.36238,1.62439 -1.08594,2.11328 -0.704,0.46933 -1.72101,0.70312 -3.05078,0.70312 h -5.39649 z m -76.95117,0.0586 c 1.36889,0 2.6002,0.31172 3.69531,0.9375 1.09511,0.60622 1.95625,1.46736 2.58204,2.58203 0.62578,1.09511 0.93945,2.32643 0.93945,3.69531 0,1.3689 -0.31367,2.61191 -0.93945,3.72656 -0.62579,1.09512 -1.48693,1.9543 -2.58204,2.58008 -1.09511,0.60622 -2.32642,0.91016 -3.69531,0.91016 -1.36889,0 -2.6002,-0.30394 -3.69531,-0.91016 -1.095116,-0.62578 -1.956254,-1.48496 -2.582032,-2.58008 -0.625778,-1.11465 -0.939454,-2.35766 -0.939454,-3.72656 0,-1.36888 0.313675,-2.6002 0.939454,-3.69531 0.625776,-1.11467 1.486916,-1.97581 2.582032,-2.58203 1.09511,-0.62578 2.32642,-0.9375 3.69531,-0.9375 z M 65.417969,225 h 4.986328 c 1.505778,0 2.826715,0.29224 3.960937,0.87891 1.153778,0.56711 2.03245,1.38929 2.638672,2.46484 0.625778,1.056 0.939453,2.28731 0.939453,3.69531 0,1.408 -0.313675,2.65101 -0.939453,3.72656 -0.606222,1.05601 -1.484894,1.87623 -2.638672,2.4629 -1.134222,0.5671 -2.455159,0.85156 -3.960937,0.85156 h -4.986328 z m 70.714841,0.58594 3.8711,8.97656 h -7.71485 z m 45.58789,7.80273 h 6.16016 c 2.95289,0 4.42773,0.98779 4.42773,2.96289 0,1.97512 -1.47484,2.96289 -4.42773,2.96289 h -6.16016 z m -66.2832,32.7168 c -1.79911,0 -3.32462,0.2747 -4.57617,0.82226 -1.232,0.54756 -2.15938,1.28985 -2.78516,2.22852 -0.60622,0.91911 -0.91015,1.94586 -0.91015,3.08008 0,1.34933 0.34289,2.42478 1.02734,3.22656 0.704,0.78222 1.53397,1.35892 2.49219,1.73047 0.97778,0.37156 2.25001,0.74368 3.81445,1.11523 1.11467,0.27378 1.99334,0.51732 2.63867,0.73243 0.64534,0.21511 1.17332,0.51904 1.58399,0.91015 0.43022,0.37156 0.64648,0.85084 0.64648,1.4375 0,0.80178 -0.38186,1.44666 -1.14453,1.93555 -0.74311,0.48889 -1.87701,0.73242 -3.40234,0.73242 -1.232,0 -2.46332,-0.20457 -3.69532,-0.61523 -1.21244,-0.43022 -2.23919,-0.9777 -3.08007,-1.64258 l -1.32032,2.96289 c 0.86045,0.74311 2.02357,1.33928 3.49024,1.78906 1.48622,0.44977 3.02147,0.67383 4.60547,0.67383 1.79911,0 3.32461,-0.27276 4.57617,-0.82031 1.25155,-0.54756 2.18088,-1.28011 2.78711,-2.19922 0.62577,-0.91912 0.9375,-1.94586 0.9375,-3.08008 0,-1.32978 -0.35264,-2.38575 -1.05664,-3.16797 -0.68444,-0.78222 -1.51441,-1.36086 -2.49219,-1.73242 -0.97778,-0.39111 -2.23053,-0.76128 -3.75586,-1.11328 -1.11467,-0.27378 -1.99334,-0.51926 -2.63867,-0.73438 -0.64534,-0.2151 -1.18306,-0.50734 -1.61328,-0.8789 -0.41067,-0.37156 -0.61719,-0.85084 -0.61719,-1.4375 0,-0.84089 0.36238,-1.51499 1.08594,-2.02344 0.74311,-0.50845 1.86726,-0.76367 3.37304,-0.76367 0.91911,0 1.86793,0.13637 2.84571,0.41015 0.97778,0.27378 1.91685,0.67513 2.8164,1.20313 l 1.20313,-2.96289 c -0.88,-0.58667 -1.92623,-1.03672 -3.13867,-1.34961 -1.21245,-0.31289 -2.44572,-0.46875 -3.69727,-0.46875 z m 66.77734,0 c -2.09244,0 -3.97838,0.45979 -5.66015,1.37891 -1.68178,0.89954 -3.00272,2.16008 -3.96094,3.7832 -0.95823,1.60355 -1.4375,3.40377 -1.4375,5.39844 0,1.99466 0.47927,3.80266 1.4375,5.42578 0.95822,1.60355 2.27916,2.86604 3.96094,3.78515 1.68177,0.89956 3.56771,1.34766 5.66015,1.34766 2.09245,0 3.98034,-0.4481 5.66211,-1.34766 1.68178,-0.91911 3.00077,-2.1816 3.95899,-3.78515 0.95822,-1.60356 1.4375,-3.41156 1.4375,-5.42578 0,-2.01422 -0.47928,-3.82419 -1.4375,-5.42774 -0.95822,-1.60356 -2.27721,-2.85435 -3.95899,-3.7539 -1.68177,-0.91913 -3.56966,-1.37891 -5.66211,-1.37891 z M 133.24023,266.39844 124,286.93164 h 3.93164 l 2.02344,-4.75195 h 10.26758 l 2.05273,4.75195 h 3.98828 l -9.26758,-20.5332 z m 15.60743,0 v 20.5332 h 3.7832 v -13.9043 l 11.32226,13.9043 h 3.13868 v -20.5332 h -3.78321 v 13.90429 l -11.32226,-13.90429 z m 33.36718,3.05078 c 1.36889,0 2.60216,0.31367 3.69727,0.93945 1.09511,0.60622 1.9543,1.46541 2.58008,2.58008 0.62578,1.09511 0.93945,2.32838 0.93945,3.69727 0,1.36889 -0.31367,2.60994 -0.93945,3.7246 -0.62578,1.09511 -1.48497,1.95626 -2.58008,2.58204 -1.09511,0.60622 -2.32838,0.9082 -3.69727,0.9082 -1.36888,0 -2.6002,-0.30198 -3.69531,-0.9082 -1.09511,-0.62578 -1.95626,-1.48692 -2.58203,-2.58204 -0.62578,-1.11466 -0.9375,-2.35571 -0.9375,-3.7246 0,-1.36889 0.31172,-2.60216 0.9375,-3.69727 0.62577,-1.11467 1.48692,-1.97386 2.58203,-2.58008 1.09511,-0.62578 2.32643,-0.93945 3.69531,-0.93945 z m -47.12695,0.76367 3.87305,8.97461 h -7.71485 z" /></g></svg>