<?xml version="1.0" encoding="UTF-8" standalone="no"?>
<!-- Generator: Adobe Illustrator 16.0.0, SVG Export Plug-In . SVG Version: 6.00 Build 0)  -->

<svg
   xmlns:dc="http://purl.org/dc/elements/1.1/"
   xmlns:cc="http://creativecommons.org/ns#"
   xmlns:rdf="http://www.w3.org/1999/02/22-rdf-syntax-ns#"
   xmlns:svg="http://www.w3.org/2000/svg"
   xmlns="http://www.w3.org/2000/svg"
   xmlns:sodipodi="http://sodipodi.sourceforge.net/DTD/sodipodi-0.dtd"
   xmlns:inkscape="http://www.inkscape.org/namespaces/inkscape"
   version="1.0"
   id="Capa_1"
   x="0px"
   y="0px"
   width="300px"
   height="300px"
   viewBox="0 0 300 300"
   enable-background="new 0 0 300 300"
   xml:space="preserve"
   sodipodi:docname="b6.svg"
   inkscape:version="0.92.4 (5da689c313, 2019-01-14)"><metadata
   id="metadata79"><rdf:RDF><cc:Work
       rdf:about=""><dc:format>image/svg+xml</dc:format><dc:type
         rdf:resource="http://purl.org/dc/dcmitype/StillImage" /></cc:Work></rdf:RDF></metadata><defs
   id="defs77">
	
	
	
	
	
	
	
	

		
		
		
		
		
		
		
		
		
		
		
		
		
		
		
		
		
		
		
		
		
		
		
		
		
		
		
	</defs><sodipodi:namedview
   pagecolor="#ffffff"
   bordercolor="#666666"
   borderopacity="1"
   objecttolerance="10"
   gridtolerance="10"
   guidetolerance="10"
   inkscape:pageopacity="0"
   inkscape:pageshadow="2"
   inkscape:window-width="1653"
   inkscape:window-height="892"
   id="namedview75"
   showgrid="false"
   inkscape:zoom="0.78666667"
   inkscape:cx="150"
   inkscape:cy="150"
   inkscape:window-x="0"
   inkscape:window-y="0"
   inkscape:window-maximized="0"
   inkscape:current-layer="Capa_1" />
<path
   style="fill:#7e18bd;fill-opacity:1"
   inkscape:connector-curvature="0"
   id="path2"
   d="M 242.623,300 H 57.378 C 25.82,300 0,274.18 0,242.622 V 57.377 C 0,25.82 25.82,0 57.378,0 H 242.623 C 274.181,0 300,25.82 300,57.377 V 242.622 C 300,274.18 274.181,300 242.623,300" /><path
   style="fill:#ab20fb"
   inkscape:connector-curvature="0"
   id="path4"
   d="m 218.359,90.923 c -2.254,-5.326 -5.763,-9.489 -9.694,-13.073 -6.833,-6.23 -14.688,-10.968 -23.693,-13.504 -1.705,-0.479 -2.083,-1.406 -2.048,-3.045 0.103,-4.716 0.126,-9.438 0.003,-14.152 -0.079,-3.051 -1.337,-5.427 -5.391,-5.371 -15.981,0.22 -31.967,0.09 -47.951,0.091 -4.095,0 -5.563,1.459 -5.597,5.675 -0.036,4.429 -0.156,8.866 0.053,13.285 0.106,2.23 -0.685,2.973 -2.728,3.669 -12.697,4.326 -23.447,11.393 -30.918,22.834 -0.701,1.073 -1.488,2.146 -1.547,3.592 h 129.511 z" /><path
   style="fill:#ab20fb"
   inkscape:connector-curvature="0"
   id="path6"
   d="m 242.878,73.671 c 5.158,0.039 9.638,3.705 10.767,9.157 1.287,6.213 2.332,12.477 3.48,18.719 0.233,1.272 0.527,2.503 -1.408,2.767 -1.809,0.246 -1.783,-1.017 -1.984,-2.133 -1.13,-6.248 -2.224,-12.504 -3.377,-18.749 -0.836,-4.521 -4.338,-6.965 -8.825,-6.236 -4.214,0.685 -6.804,4.208 -6.028,8.642 2.617,14.974 5.352,29.928 8.012,44.895 0.179,1.008 0.519,1.788 1.377,2.399 11.541,8.198 23.08,16.4 34.581,24.652 1.245,0.894 1.918,0.741 2.771,-0.473 4.374,-6.227 8.788,-12.425 13.251,-18.586 0.947,-1.309 0.864,-2.062 -0.511,-3.005 -4.21,-2.885 -8.305,-5.939 -12.501,-8.845 -1.335,-0.925 -2.154,-2.012 -2.645,-3.591 -4.07,-13.147 -8.316,-26.24 -12.294,-39.415 -1.098,-3.636 -3.112,-6.221 -6.143,-8.356 -11.494,-8.101 -22.896,-16.331 -34.379,-24.447 -3.137,-2.216 -6.052,-4.777 -9.596,-6.393 -3.704,-1.688 -7.863,-0.561 -9.896,2.711 -2.088,3.357 -1.376,7.977 1.889,10.352 8.176,5.951 16.456,11.761 24.674,17.654 1.081,0.774 1.969,0.914 3.096,0.027 1.641,-1.293 3.615,-1.743 5.689,-1.746" /><path
   style="fill:#ab20fb"
   inkscape:connector-curvature="0"
   id="path8"
   d="m 99.622,51.907 c -0.251,-2.9 -1.244,-5.271 -3.901,-6.696 -2.672,-1.435 -5.263,-1.528 -7.893,0.179 -15.349,9.96 -30.698,19.922 -46.098,29.802 -2.152,1.381 -3.51,3.118 -4.365,5.496 -4.791,13.307 -9.682,26.578 -14.479,39.883 -0.52,1.44 -1.268,2.476 -2.572,3.292 -4.163,2.607 -8.219,5.387 -12.408,7.95 -1.819,1.113 -2.373,1.974 -0.994,3.999 4.064,5.97 7.934,12.074 11.788,18.183 0.947,1.502 1.658,1.949 3.344,0.843 11.596,-7.605 23.255,-15.113 34.906,-22.632 1.02,-0.658 1.668,-1.416 1.948,-2.671 3.31,-14.837 6.691,-29.659 10.02,-44.492 0.615,-2.739 -0.06,-5.159 -2.203,-7.074 -4.538,-4.055 -11.115,-1.906 -12.569,4.176 -1.477,6.176 -2.803,12.388 -4.245,18.572 -0.234,1.01 -0.108,2.479 -2.019,2.038 -1.776,-0.409 -1.68,-1.517 -1.349,-2.844 0.769,-3.078 1.51,-6.163 2.282,-9.241 0.937,-3.73 1.258,-7.62 2.754,-11.202 2.697,-6.456 10.261,-8.764 16.049,-4.828 1.297,0.882 2.178,0.722 3.35,-0.043 8.308,-5.423 16.651,-10.791 24.964,-16.207 2.338,-1.523 3.452,-3.787 3.69,-6.483" /><path
   style="fill:#ab20fb"
   inkscape:connector-curvature="0"
   id="path10"
   d="m 92.898,160.563 c 0.006,1.717 1.237,2.667 1.902,3.866 4.933,8.896 11.577,16.418 19.145,23.128 1.314,1.166 2.659,2.424 4.921,2.412 23.124,-0.116 46.251,-0.076 69.376,-0.059 1.194,0.001 2.094,-0.277 3.092,-1.088 6.158,-4.994 11.485,-10.707 16.108,-17.16 2.523,-3.521 4.668,-7.198 6.96,-11.1 H 92.898 Z" /><path
   style="fill:#ab20fb"
   inkscape:connector-curvature="0"
   id="path12"
   d="m 81.857,118.996 c -0.09,3.499 0.053,6.318 0.398,9.192 0.864,7.183 2.769,14.055 5.083,20.869 0.724,2.131 1.768,2.744 4.036,2.739 41.439,-0.086 82.879,-0.062 124.319,-0.063 0.577,0 1.156,-0.002 1.734,-0.005 0.689,-0.003 1.101,-0.101 1.436,-0.96 3.829,-9.786 6.301,-19.841 6.295,-30.412 -10e-4,-0.519 0.259,-1.291 -0.509,-1.424 -0.344,-0.06 -0.811,0.388 -1.172,0.667 -7.654,5.902 -15.275,11.848 -22.969,17.697 -1.576,1.197 -3.288,1.455 -5.136,0.01 -5.52,-4.317 -11.206,-8.421 -16.708,-12.762 -2.221,-1.753 -3.751,-1.82 -6.079,0.12 -5.376,4.484 -11.11,8.537 -16.688,12.779 -1.555,1.183 -3.126,1.328 -4.706,0.133 -5.665,-4.286 -11.414,-8.469 -16.915,-12.957 -2.032,-1.658 -3.512,-2.101 -5.643,-0.405 -5.043,4.012 -10.199,7.879 -15.281,11.842 -3.59,2.8 -4.828,2.928 -8.223,0.481 -1.846,-1.329 -3.602,-2.783 -5.42,-4.15 -5.795,-4.361 -11.604,-8.706 -17.852,-13.391" /><path
   style="fill:#ab20fb"
   inkscape:connector-curvature="0"
   id="path14"
   d="M 153.578,99.692 H 92.286 c -8.026,0 -8.025,0 -9.769,7.702 -0.216,0.951 -0.266,1.583 0.789,2.359 8.085,5.95 16.063,12.047 24.083,18.088 1.413,1.064 2.532,0.418 3.758,-0.537 5.755,-4.483 11.564,-8.896 17.361,-13.324 1.721,-1.314 3.552,-1.404 5.269,-0.106 5.821,4.396 11.646,8.792 17.354,13.332 1.728,1.375 2.92,1.399 4.658,0.017 5.709,-4.539 11.541,-8.924 17.35,-13.337 1.621,-1.231 3.446,-1.297 5.047,-0.097 5.837,4.375 11.731,8.689 17.329,13.357 1.973,1.646 3.072,1.408 4.831,0.03 6.485,-5.082 12.952,-10.204 19.653,-14.989 3.46,-2.471 5.166,-4.938 3.521,-9.308 -0.861,-2.285 -1.703,-3.267 -4.314,-3.253 -21.874,0.116 -43.751,0.066 -65.628,0.066" /><path
   d="m 90.396,87.331 c -0.701,1.073 -1.488,2.146 -1.547,3.592 H 218.36 c -2.254,-5.326 -5.763,-9.489 -9.694,-13.073 -6.833,-6.23 -14.688,-10.968 -23.693,-13.504 -1.705,-0.479 -2.083,-1.406 -2.048,-3.045 0.103,-4.716 0.126,-9.438 0.003,-14.152 -0.079,-3.051 -1.337,-5.427 -5.391,-5.371 -15.981,0.22 -31.967,0.09 -47.951,0.091 -4.095,0 -5.563,1.459 -5.597,5.675 -0.036,4.429 -0.156,8.866 0.053,13.285 0.106,2.23 -0.685,2.973 -2.728,3.669 -12.698,4.325 -23.448,11.392 -30.918,22.833 z"
   id="path58"
   inkscape:connector-curvature="0"
   style="fill:#fefefe" /><path
   d="m 294.982,135.72 c -4.21,-2.885 -8.305,-5.939 -12.501,-8.845 -1.335,-0.925 -2.154,-2.012 -2.645,-3.591 -4.07,-13.147 -8.316,-26.24 -12.294,-39.415 -1.098,-3.636 -3.112,-6.221 -6.143,-8.356 -11.494,-8.101 -22.896,-16.331 -34.379,-24.447 -3.137,-2.216 -6.052,-4.777 -9.596,-6.393 -3.704,-1.688 -7.863,-0.561 -9.896,2.711 -2.088,3.357 -1.376,7.977 1.889,10.352 8.176,5.951 16.456,11.761 24.674,17.654 1.081,0.774 1.969,0.914 3.096,0.027 1.642,-1.293 3.615,-1.743 5.689,-1.746 5.158,0.039 9.638,3.705 10.767,9.157 1.287,6.213 2.332,12.477 3.48,18.719 0.233,1.272 0.527,2.503 -1.408,2.767 -1.809,0.246 -1.783,-1.017 -1.984,-2.133 -1.13,-6.248 -2.224,-12.504 -3.377,-18.749 -0.836,-4.521 -4.338,-6.965 -8.825,-6.236 -4.214,0.685 -6.804,4.208 -6.028,8.642 2.617,14.974 5.352,29.928 8.012,44.895 0.179,1.008 0.519,1.788 1.377,2.399 11.541,8.198 23.08,16.4 34.581,24.652 1.245,0.894 1.918,0.741 2.771,-0.473 4.374,-6.227 8.788,-12.425 13.251,-18.586 0.947,-1.309 0.864,-2.063 -0.511,-3.005 z"
   id="path60"
   inkscape:connector-curvature="0"
   style="fill:#fefefe" /><path
   d="M 66.715,77.969 C 62.177,73.914 55.6,76.063 54.146,82.145 c -1.477,6.176 -2.803,12.388 -4.245,18.572 -0.234,1.01 -0.108,2.479 -2.019,2.038 -1.776,-0.409 -1.68,-1.517 -1.349,-2.844 0.769,-3.078 1.51,-6.163 2.282,-9.241 0.937,-3.73 1.258,-7.62 2.754,-11.202 2.697,-6.456 10.261,-8.764 16.049,-4.828 1.297,0.882 2.178,0.722 3.35,-0.043 8.308,-5.423 16.651,-10.791 24.964,-16.207 2.338,-1.522 3.452,-3.787 3.69,-6.482 -0.251,-2.9 -1.244,-5.271 -3.901,-6.696 -2.672,-1.435 -5.263,-1.528 -7.893,0.179 C 72.479,55.35 57.13,65.312 41.73,75.192 c -2.152,1.381 -3.51,3.118 -4.365,5.496 -4.791,13.307 -9.682,26.578 -14.479,39.883 -0.52,1.44 -1.268,2.476 -2.572,3.292 -4.163,2.607 -8.219,5.387 -12.408,7.95 -1.819,1.113 -2.373,1.974 -0.994,3.999 4.064,5.97 7.934,12.074 11.788,18.183 0.947,1.502 1.658,1.949 3.344,0.843 11.596,-7.605 23.255,-15.113 34.906,-22.632 1.02,-0.658 1.668,-1.416 1.948,-2.671 3.31,-14.837 6.691,-29.659 10.02,-44.492 0.615,-2.739 -0.06,-5.159 -2.203,-7.074 z"
   id="path62"
   inkscape:connector-curvature="0"
   style="fill:#fefefe" /><path
   d="M 214.402,160.563 H 92.898 c 0.006,1.717 1.237,2.667 1.902,3.866 4.933,8.896 11.577,16.418 19.145,23.128 1.314,1.166 2.659,2.424 4.921,2.412 23.124,-0.116 46.251,-0.076 69.376,-0.059 1.194,0.001 2.094,-0.277 3.092,-1.088 6.158,-4.994 11.485,-10.707 16.108,-17.16 2.524,-3.52 4.668,-7.197 6.96,-11.099 z"
   id="path64"
   inkscape:connector-curvature="0"
   style="fill:#fefefe" /><path
   d="m 217.429,151.729 c 0.689,-0.003 1.101,-0.101 1.436,-0.96 3.829,-9.786 6.301,-19.841 6.295,-30.412 -0.001,-0.519 0.259,-1.291 -0.509,-1.424 -0.344,-0.06 -0.811,0.388 -1.172,0.667 -7.654,5.902 -15.275,11.848 -22.969,17.697 -1.576,1.197 -3.288,1.455 -5.136,0.01 -5.52,-4.317 -11.206,-8.421 -16.708,-12.762 -2.221,-1.753 -3.751,-1.82 -6.079,0.12 -5.376,4.484 -11.11,8.537 -16.688,12.779 -1.555,1.183 -3.126,1.328 -4.706,0.133 -5.665,-4.286 -11.414,-8.469 -16.915,-12.957 -2.032,-1.658 -3.512,-2.101 -5.643,-0.405 -5.043,4.012 -10.199,7.879 -15.281,11.842 -3.59,2.8 -4.828,2.928 -8.223,0.481 -1.846,-1.329 -3.602,-2.783 -5.42,-4.15 -5.797,-4.361 -11.605,-8.707 -17.854,-13.392 -0.09,3.499 0.053,6.318 0.398,9.192 0.864,7.183 2.769,14.055 5.083,20.869 0.724,2.131 1.768,2.744 4.036,2.739 41.439,-0.086 82.879,-0.062 124.319,-0.063 0.578,0 1.158,-0.002 1.736,-0.004 z"
   id="path66"
   inkscape:connector-curvature="0"
   style="fill:#fefefe" /><path
   d="m 219.207,99.627 c -21.875,0.115 -43.752,0.065 -65.629,0.065 -20.431,0 -40.86,0 -61.292,0 -8.026,0 -8.025,0.001 -9.769,7.702 -0.216,0.951 -0.266,1.583 0.789,2.359 8.085,5.95 16.063,12.047 24.083,18.088 1.413,1.064 2.532,0.418 3.758,-0.537 5.755,-4.483 11.564,-8.896 17.361,-13.324 1.721,-1.314 3.552,-1.404 5.269,-0.106 5.821,4.396 11.646,8.792 17.354,13.332 1.728,1.375 2.92,1.399 4.658,0.017 5.709,-4.539 11.541,-8.924 17.35,-13.337 1.621,-1.231 3.446,-1.297 5.047,-0.097 5.837,4.375 11.731,8.689 17.329,13.357 1.973,1.646 3.072,1.408 4.831,0.03 6.485,-5.082 12.952,-10.204 19.653,-14.989 3.46,-2.471 5.166,-4.938 3.521,-9.308 -0.86,-2.284 -1.702,-3.266 -4.313,-3.252 z"
   id="path68"
   inkscape:connector-curvature="0"
   style="fill:#fefefe" />
<g
   aria-label="BENEFICIOS DE 
LA CULTURA"
   style="font-style:normal;font-weight:normal;font-size:40px;line-height:1.25;font-family:sans-serif;text-align:center;letter-spacing:0px;word-spacing:0px;text-anchor:middle;fill:#000000;fill-opacity:1;stroke:none"
   id="text953"><path
     sodipodi:type="inkscape:offset"
     inkscape:radius="0"
     inkscape:original="M 158.51758 209.28516 C 156.0678 209.28516 153.84888 209.82784 151.86133 210.91406 C 149.89688 211.97718 148.34924 213.45645 147.2168 215.35156 C 146.08436 217.24667 145.51758 219.38518 145.51758 221.76562 C 145.51758 224.14607 146.07231 226.28262 147.18164 228.17773 C 148.31408 230.07284 149.86368 231.56416 151.82812 232.65039 C 153.81568 233.7135 156.03264 234.24414 158.48242 234.24414 C 160.46998 234.24414 162.28489 233.89841 163.92578 233.20508 C 165.58978 232.51174 166.98865 231.50679 168.12109 230.18945 L 165.20898 227.41602 C 163.45254 229.33424 161.2919 230.29297 158.72656 230.29297 C 157.06256 230.29297 155.57124 229.93519 154.25391 229.21875 C 152.93657 228.47919 151.90753 227.46219 151.16797 226.16797 C 150.42842 224.87375 150.05859 223.40652 150.05859 221.76562 C 150.05859 220.12474 150.42842 218.65751 151.16797 217.36328 C 151.90753 216.06906 152.93657 215.06215 154.25391 214.3457 C 155.57124 213.60615 157.06256 213.23633 158.72656 213.23633 C 161.2919 213.23633 163.45254 214.18496 165.20898 216.08008 L 168.12109 213.3418 C 166.98865 212.02446 165.60183 211.01755 163.96094 210.32422 C 162.32005 209.63089 160.50513 209.28516 158.51758 209.28516 z M 194.81055 209.28516 C 192.33766 209.28516 190.10865 209.82784 188.12109 210.91406 C 186.13354 211.97718 184.57385 213.4685 183.44141 215.38672 C 182.30897 217.28183 181.74219 219.40829 181.74219 221.76562 C 181.74219 224.12296 182.30897 226.25951 183.44141 228.17773 C 184.57385 230.07284 186.13354 231.56416 188.12109 232.65039 C 190.10865 233.7135 192.33766 234.24414 194.81055 234.24414 C 197.28343 234.24414 199.51439 233.7135 201.50195 232.65039 C 203.48951 231.56416 205.04919 230.07284 206.18164 228.17773 C 207.31408 226.28262 207.88086 224.14607 207.88086 221.76562 C 207.88086 219.38518 207.31408 217.24667 206.18164 215.35156 C 205.04919 213.45645 203.48951 211.97718 201.50195 210.91406 C 199.51439 209.82784 197.28343 209.28516 194.81055 209.28516 z M 220.9082 209.28516 C 218.78198 209.28516 216.97911 209.60875 215.5 210.25586 C 214.044 210.90297 212.94659 211.78129 212.20703 212.89062 C 211.49059 213.97685 211.13281 215.19081 211.13281 216.53125 C 211.13281 218.12592 211.53682 219.39619 212.3457 220.34375 C 213.1777 221.26819 214.16052 221.94956 215.29297 222.38867 C 216.44852 222.82779 217.94994 223.26792 219.79883 223.70703 C 221.11616 224.03058 222.1553 224.31805 222.91797 224.57227 C 223.68064 224.82649 224.30568 225.18622 224.79102 225.64844 C 225.29946 226.08755 225.55273 226.65237 225.55273 227.3457 C 225.55273 228.29326 225.10251 229.05699 224.20117 229.63477 C 223.32295 230.21254 221.98235 230.50195 220.17969 230.50195 C 218.72369 230.50195 217.2685 230.25877 215.8125 229.77344 C 214.37961 229.265 213.16565 228.61781 212.17188 227.83203 L 210.61133 231.33203 C 211.62821 232.21026 213.00495 232.91571 214.73828 233.44727 C 216.49473 233.97882 218.30769 234.24414 220.17969 234.24414 C 222.30591 234.24414 224.10878 233.92054 225.58789 233.27344 C 227.067 232.62632 228.16441 231.76005 228.88086 230.67383 C 229.62041 229.5876 229.99023 228.3756 229.99023 227.03516 C 229.99023 225.4636 229.57419 224.21546 228.74219 223.29102 C 227.9333 222.36657 226.95243 221.68325 225.79688 221.24414 C 224.64132 220.78192 223.16204 220.34373 221.35938 219.92773 C 220.04204 219.60417 219.00095 219.31477 218.23828 219.06055 C 217.47561 218.80633 216.84047 218.4606 216.33203 218.02148 C 215.8467 217.58237 215.60352 217.0156 215.60352 216.32227 C 215.60352 215.32849 216.03161 214.53058 216.88672 213.92969 C 217.76495 213.3288 219.09349 213.0293 220.87305 213.0293 C 221.95927 213.0293 223.08077 213.19012 224.23633 213.51367 C 225.39188 213.83723 226.50134 214.31155 227.56445 214.93555 L 228.98633 211.43359 C 227.94633 210.74026 226.70828 210.20962 225.27539 209.83984 C 223.8425 209.47006 222.38731 209.28516 220.9082 209.28516 z M 13.189453 209.63086 L 13.189453 233.89844 L 25.251953 233.89844 C 28.348842 233.89844 30.706441 233.33167 32.324219 232.19922 C 33.941997 231.04367 34.751953 229.41561 34.751953 227.3125 C 34.751953 225.78717 34.358044 224.51493 33.572266 223.49805 C 32.786488 222.45804 31.723256 221.7184 30.382812 221.2793 C 31.353479 220.77085 32.117208 220.05531 32.671875 219.13086 C 33.226542 218.20642 33.503906 217.14319 33.503906 215.94141 C 33.503906 213.97696 32.730085 212.43941 31.181641 211.33008 C 29.633196 210.19764 27.424372 209.63086 24.558594 209.63086 L 13.189453 209.63086 z M 39.595703 209.63086 L 39.595703 233.89844 L 57.794922 233.89844 L 57.794922 230.11914 L 44.101562 230.11914 L 44.101562 223.42969 L 55.818359 223.42969 L 55.818359 219.71875 L 44.101562 219.71875 L 44.101562 213.41016 L 57.310547 213.41016 L 57.310547 209.63086 L 39.595703 209.63086 z M 62.818359 209.63086 L 62.818359 233.89844 L 67.291016 233.89844 L 67.291016 217.4668 L 80.671875 233.89844 L 84.380859 233.89844 L 84.380859 209.63086 L 79.910156 209.63086 L 79.910156 226.06445 L 66.527344 209.63086 L 62.818359 209.63086 z M 90.917969 209.63086 L 90.917969 233.89844 L 109.11719 233.89844 L 109.11719 230.11914 L 95.423828 230.11914 L 95.423828 223.42969 L 107.14258 223.42969 L 107.14258 219.71875 L 95.423828 219.71875 L 95.423828 213.41016 L 108.63281 213.41016 L 108.63281 209.63086 L 90.917969 209.63086 z M 114.14258 209.63086 L 114.14258 233.89844 L 118.64844 233.89844 L 118.64844 224.60742 L 130.36523 224.60742 L 130.36523 220.79492 L 118.64844 220.79492 L 118.64844 213.41016 L 131.85742 213.41016 L 131.85742 209.63086 L 114.14258 209.63086 z M 136.21484 209.63086 L 136.21484 233.89844 L 140.7207 233.89844 L 140.7207 209.63086 L 136.21484 209.63086 z M 172.43945 209.63086 L 172.43945 233.89844 L 176.94531 233.89844 L 176.94531 209.63086 L 172.43945 209.63086 z M 244.00586 209.63086 L 244.00586 233.89844 L 254.61523 233.89844 C 257.20368 233.89844 259.50301 233.40198 261.51367 232.4082 C 263.52434 231.39132 265.08403 229.97031 266.19336 228.14453 C 267.30269 226.29564 267.85742 224.16918 267.85742 221.76562 C 267.85742 219.36207 267.30269 217.24766 266.19336 215.42188 C 265.08403 213.57299 263.52434 212.15003 261.51367 211.15625 C 259.50301 210.13936 257.20368 209.63086 254.61523 209.63086 L 244.00586 209.63086 z M 272.64648 209.63086 L 272.64648 233.89844 L 290.84766 233.89844 L 290.84766 230.11914 L 277.1543 230.11914 L 277.1543 223.42969 L 288.87109 223.42969 L 288.87109 219.71875 L 277.1543 219.71875 L 277.1543 213.41016 L 290.36133 213.41016 L 290.36133 209.63086 L 272.64648 209.63086 z M 17.695312 213.16797 L 24.074219 213.16797 C 25.645774 213.16797 26.847687 213.45738 27.679688 214.03516 C 28.534799 214.58982 28.962891 215.42192 28.962891 216.53125 C 28.962891 217.61748 28.534799 218.44762 27.679688 219.02539 C 26.847687 219.58006 25.645774 219.85742 24.074219 219.85742 L 17.695312 219.85742 L 17.695312 213.16797 z M 194.81055 213.23633 C 196.42833 213.23633 197.88547 213.60615 199.17969 214.3457 C 200.47391 215.06215 201.49091 216.07915 202.23047 217.39648 C 202.97002 218.6907 203.33984 220.14784 203.33984 221.76562 C 203.33984 223.38341 202.97002 224.85064 202.23047 226.16797 C 201.49091 227.46219 200.47391 228.47919 199.17969 229.21875 C 197.88547 229.93519 196.42833 230.29297 194.81055 230.29297 C 193.19277 230.29297 191.73758 229.93519 190.44336 229.21875 C 189.14914 228.47919 188.13214 227.46219 187.39258 226.16797 C 186.65302 224.85064 186.2832 223.3834 186.2832 221.76562 C 186.2832 220.14784 186.65302 218.6907 187.39258 217.39648 C 188.13214 216.07915 189.14914 215.06215 190.44336 214.3457 C 191.73758 213.60615 193.19277 213.23633 194.81055 213.23633 z M 248.51367 213.44531 L 254.40625 213.44531 C 256.1858 213.44531 257.74549 213.79104 259.08594 214.48438 C 260.44949 215.1546 261.49058 216.12537 262.20703 217.39648 C 262.94658 218.64448 263.31641 220.10162 263.31641 221.76562 C 263.31641 223.42962 262.94658 224.89686 262.20703 226.16797 C 261.49058 227.41597 260.44949 228.38674 259.08594 229.08008 C 257.74549 229.7503 256.1858 230.08594 254.40625 230.08594 L 248.51367 230.08594 L 248.51367 213.44531 z M 17.695312 223.35938 L 24.974609 223.35938 C 28.464387 223.35938 30.210938 224.52711 30.210938 226.86133 C 30.210938 229.19555 28.464387 230.36328 24.974609 230.36328 L 17.695312 230.36328 L 17.695312 223.35938 z M 109.08984 259.28516 C 106.64006 259.28516 104.42311 259.82784 102.43555 260.91406 C 100.47111 261.97718 98.921507 263.45645 97.789062 265.35156 C 96.656618 267.24667 96.089844 269.38518 96.089844 271.76562 C 96.089844 274.14607 96.644573 276.28262 97.753906 278.17773 C 98.88635 280.07284 100.43594 281.56416 102.40039 282.65039 C 104.38794 283.7135 106.60686 284.24414 109.05664 284.24414 C 111.04419 284.24414 112.85715 283.89841 114.49805 283.20508 C 116.16205 282.51174 117.56092 281.50679 118.69336 280.18945 L 115.78125 277.41602 C 114.02481 279.33424 111.86416 280.29297 109.29883 280.29297 C 107.63482 280.29297 106.14351 279.93519 104.82617 279.21875 C 103.50884 278.47919 102.48174 277.46219 101.74219 276.16797 C 101.00263 274.87375 100.63281 273.40652 100.63281 271.76562 C 100.63281 270.12474 101.00263 268.65751 101.74219 267.36328 C 102.48174 266.06906 103.50884 265.06215 104.82617 264.3457 C 106.14351 263.60615 107.63482 263.23633 109.29883 263.23633 C 111.86416 263.23633 114.02481 264.18496 115.78125 266.08008 L 118.69336 263.3418 C 117.56092 262.02446 116.1741 261.01755 114.5332 260.32422 C 112.89232 259.63089 111.0774 259.28516 109.08984 259.28516 z M 41.355469 259.63086 L 41.355469 283.89844 L 58.550781 283.89844 L 58.550781 280.08594 L 45.861328 280.08594 L 45.861328 259.63086 L 41.355469 259.63086 z M 69.832031 259.63086 L 58.912109 283.89844 L 63.558594 283.89844 L 65.951172 278.2832 L 78.083984 278.2832 L 80.509766 283.89844 L 85.224609 283.89844 L 74.269531 259.63086 L 69.832031 259.63086 z M 122.59961 259.63086 L 122.59961 273.32422 C 122.59961 276.83711 123.5362 279.54239 125.4082 281.4375 C 127.2802 283.3095 129.89303 284.24414 133.24414 284.24414 C 136.59525 284.24414 139.19408 283.3095 141.04297 281.4375 C 142.91497 279.54239 143.85156 276.83711 143.85156 273.32422 L 143.85156 259.63086 L 139.41406 259.63086 L 139.41406 273.15234 C 139.41406 277.91323 137.36801 280.29297 133.27734 280.29297 C 129.16356 280.29297 127.10742 277.91323 127.10742 273.15234 L 127.10742 259.63086 L 122.59961 259.63086 z M 150.16211 259.63086 L 150.16211 283.89844 L 167.35742 283.89844 L 167.35742 280.08594 L 154.66992 280.08594 L 154.66992 259.63086 L 150.16211 259.63086 z M 165.5957 259.63086 L 165.5957 263.44531 L 173.63672 263.44531 L 173.63672 283.89844 L 178.14453 283.89844 L 178.14453 263.44531 L 186.1875 263.44531 L 186.1875 259.63086 L 165.5957 259.63086 z M 188.88672 259.63086 L 188.88672 273.32422 C 188.88672 276.83711 189.82331 279.54239 191.69531 281.4375 C 193.56731 283.3095 196.17818 284.24414 199.5293 284.24414 C 202.88041 284.24414 205.48119 283.3095 207.33008 281.4375 C 209.20208 279.54239 210.13672 276.83711 210.13672 273.32422 L 210.13672 259.63086 L 205.70117 259.63086 L 205.70117 273.15234 C 205.70117 277.91323 203.65512 280.29297 199.56445 280.29297 C 195.45067 280.29297 193.39453 277.91323 193.39453 273.15234 L 193.39453 259.63086 L 188.88672 259.63086 z M 216.44922 259.63086 L 216.44922 283.89844 L 220.95508 283.89844 L 220.95508 276.82617 L 226.43359 276.82617 C 226.84959 276.82617 227.16114 276.81415 227.36914 276.79102 L 232.32617 283.89844 L 237.17969 283.89844 L 231.59766 275.92578 C 233.26166 275.27867 234.53388 274.29585 235.41211 272.97852 C 236.31344 271.66118 236.76367 270.08945 236.76367 268.26367 C 236.76367 266.48411 236.34762 264.94656 235.51562 263.65234 C 234.68362 262.35812 233.48172 261.36521 231.91016 260.67188 C 230.36172 259.97854 228.53671 259.63086 226.43359 259.63086 L 216.44922 259.63086 z M 249.25977 259.63086 L 238.33984 283.89844 L 242.98633 283.89844 L 245.37695 278.2832 L 257.50977 278.2832 L 259.9375 283.89844 L 264.65234 283.89844 L 253.69727 259.63086 L 249.25977 259.63086 z M 220.95508 263.44531 L 226.22461 263.44531 C 228.18906 263.44531 229.68038 263.86136 230.69727 264.69336 C 231.71415 265.52536 232.22266 266.71523 232.22266 268.26367 C 232.22266 269.81211 231.71415 271.01403 230.69727 271.86914 C 229.68038 272.70114 228.18906 273.11719 226.22461 273.11719 L 220.95508 273.11719 L 220.95508 263.44531 z M 72.017578 264.13867 L 76.59375 274.74609 L 67.476562 274.74609 L 72.017578 264.13867 z M 251.44336 264.13867 L 256.01953 274.74609 L 246.90234 274.74609 L 251.44336 264.13867 z "
     style="font-style:normal;font-variant:normal;font-weight:600;font-stretch:normal;font-size:34.66666794px;line-height:0;font-family:Montserrat;-inkscape-font-specification:'Montserrat Semi-Bold';fill:#ffffff;fill-opacity:1"
     id="path997"
     d="m 158.51758,209.28516 c -2.44978,0 -4.6687,0.54268 -6.65625,1.6289 -1.96445,1.06312 -3.51209,2.54239 -4.64453,4.4375 -1.13244,1.89511 -1.69922,4.03362 -1.69922,6.41406 0,2.38045 0.55473,4.517 1.66406,6.41211 1.13244,1.89511 2.68204,3.38643 4.64648,4.47266 1.98756,1.06311 4.20452,1.59375 6.6543,1.59375 1.98756,0 3.80247,-0.34573 5.44336,-1.03906 1.664,-0.69334 3.06287,-1.69829 4.19531,-3.01563 l -2.91211,-2.77343 c -1.75644,1.91822 -3.91708,2.87695 -6.48242,2.87695 -1.664,0 -3.15532,-0.35778 -4.47265,-1.07422 -1.31734,-0.73956 -2.34638,-1.75656 -3.08594,-3.05078 -0.73955,-1.29422 -1.10938,-2.76145 -1.10938,-4.40235 0,-1.64088 0.36983,-3.10811 1.10938,-4.40234 0.73956,-1.29422 1.7686,-2.30113 3.08594,-3.01758 1.31733,-0.73955 2.80865,-1.10937 4.47265,-1.10937 2.56534,0 4.72598,0.94863 6.48242,2.84375 l 2.91211,-2.73828 c -1.13244,-1.31734 -2.51926,-2.32425 -4.16015,-3.01758 -1.64089,-0.69333 -3.45581,-1.03906 -5.44336,-1.03906 z m 36.29297,0 c -2.47289,0 -4.7019,0.54268 -6.68946,1.6289 -1.98755,1.06312 -3.54724,2.55444 -4.67968,4.47266 -1.13244,1.89511 -1.69922,4.02157 -1.69922,6.3789 0,2.35734 0.56678,4.49389 1.69922,6.41211 1.13244,1.89511 2.69213,3.38643 4.67968,4.47266 1.98756,1.06311 4.21657,1.59375 6.68946,1.59375 2.47288,0 4.70384,-0.53064 6.6914,-1.59375 1.98756,-1.08623 3.54724,-2.57755 4.67969,-4.47266 1.13244,-1.89511 1.69922,-4.03166 1.69922,-6.41211 0,-2.38044 -0.56678,-4.51895 -1.69922,-6.41406 -1.13245,-1.89511 -2.69213,-3.37438 -4.67969,-4.4375 -1.98756,-1.08622 -4.21852,-1.6289 -6.6914,-1.6289 z m 26.09765,0 c -2.12622,0 -3.92909,0.32359 -5.4082,0.9707 -1.456,0.64711 -2.55341,1.52543 -3.29297,2.63476 -0.71644,1.08623 -1.07422,2.30019 -1.07422,3.64063 0,1.59467 0.40401,2.86494 1.21289,3.8125 0.832,0.92444 1.81482,1.60581 2.94727,2.04492 1.15555,0.43912 2.65697,0.87925 4.50586,1.31836 1.31733,0.32355 2.35647,0.61102 3.11914,0.86524 0.76267,0.25422 1.38771,0.61395 1.87305,1.07617 0.50844,0.43911 0.76171,1.00393 0.76171,1.69726 0,0.94756 -0.45022,1.71129 -1.35156,2.28907 -0.87822,0.57777 -2.21882,0.86718 -4.02148,0.86718 -1.456,0 -2.91119,-0.24318 -4.36719,-0.72851 -1.43289,-0.50844 -2.64685,-1.15563 -3.64062,-1.94141 l -1.56055,3.5 c 1.01688,0.87823 2.39362,1.58368 4.12695,2.11524 1.75645,0.53155 3.56941,0.79687 5.44141,0.79687 2.12622,0 3.92909,-0.3236 5.4082,-0.9707 1.47911,-0.64712 2.57652,-1.51339 3.29297,-2.59961 0.73955,-1.08623 1.10937,-2.29823 1.10937,-3.63867 0,-1.57156 -0.41604,-2.8197 -1.24804,-3.74414 -0.80889,-0.92445 -1.78976,-1.60777 -2.94531,-2.04688 -1.15556,-0.46222 -2.63484,-0.90041 -4.4375,-1.31641 -1.31734,-0.32356 -2.35843,-0.61296 -3.1211,-0.86718 -0.76267,-0.25422 -1.39781,-0.59995 -1.90625,-1.03907 -0.48533,-0.43911 -0.72851,-1.00588 -0.72851,-1.69921 0,-0.99378 0.42809,-1.79169 1.2832,-2.39258 0.87823,-0.60089 2.20677,-0.90039 3.98633,-0.90039 1.08622,0 2.20772,0.16082 3.36328,0.48437 1.15555,0.32356 2.26501,0.79788 3.32812,1.42188 l 1.42188,-3.50196 c -1.04,-0.69333 -2.27805,-1.22397 -3.71094,-1.59375 -1.43289,-0.36978 -2.88808,-0.55468 -4.36719,-0.55468 z m -207.718747,0.3457 v 24.26758 h 12.0625 c 3.096889,0 5.454488,-0.56677 7.072266,-1.69922 1.617778,-1.15555 2.427734,-2.78361 2.427734,-4.88672 0,-1.52533 -0.393909,-2.79757 -1.179687,-3.81445 -0.785778,-1.04001 -1.84901,-1.77965 -3.189454,-2.21875 0.970667,-0.50845 1.734396,-1.22399 2.289063,-2.14844 0.554667,-0.92444 0.832031,-1.98767 0.832031,-3.18945 0,-1.96445 -0.773821,-3.502 -2.322265,-4.61133 -1.548445,-1.13244 -3.757269,-1.69922 -6.623047,-1.69922 z m 26.40625,0 v 24.26758 h 18.199219 v -3.7793 h -13.69336 v -6.68945 h 11.716797 v -3.71094 H 44.101562 v -6.30859 h 13.208985 v -3.7793 z m 23.222656,0 v 24.26758 h 4.472657 V 217.4668 l 13.380859,16.43164 h 3.708984 v -24.26758 h -4.470703 v 16.43359 L 66.527344,209.63086 Z m 28.09961,0 v 24.26758 h 18.199221 v -3.7793 H 95.423828 v -6.68945 h 11.718752 v -3.71094 H 95.423828 v -6.30859 h 13.208982 v -3.7793 z m 23.224611,0 v 24.26758 h 4.50586 v -9.29102 h 11.71679 v -3.8125 h -11.71679 v -7.38476 h 13.20898 v -3.7793 z m 22.07226,0 v 24.26758 h 4.50586 v -24.26758 z m 36.22461,0 v 24.26758 h 4.50586 v -24.26758 z m 71.56641,0 v 24.26758 h 10.60937 c 2.58845,0 4.88778,-0.49646 6.89844,-1.49024 2.01067,-1.01688 3.57036,-2.43789 4.67969,-4.26367 1.10933,-1.84889 1.66406,-3.97535 1.66406,-6.37891 0,-2.40355 -0.55473,-4.51796 -1.66406,-6.34374 -1.10933,-1.84889 -2.66902,-3.27185 -4.67969,-4.26563 -2.01066,-1.01689 -4.30999,-1.52539 -6.89844,-1.52539 z m 28.64062,0 v 24.26758 h 18.20118 v -3.7793 H 277.1543 v -6.68945 h 11.71679 v -3.71094 H 277.1543 v -6.30859 h 13.20703 v -3.7793 z m -254.951168,3.53711 h 6.378907 c 1.571555,0 2.773468,0.28941 3.605469,0.86719 0.855111,0.55466 1.283203,1.38676 1.283203,2.49609 0,1.08623 -0.428092,1.91637 -1.283203,2.49414 -0.832001,0.55467 -2.033914,0.83203 -3.605469,0.83203 h -6.378907 z m 177.115238,0.0684 c 1.61778,0 3.07492,0.36982 4.36914,1.10937 1.29422,0.71645 2.31122,1.73345 3.05078,3.05078 0.73955,1.29422 1.10937,2.75136 1.10937,4.36914 0,1.61779 -0.36982,3.08502 -1.10937,4.40235 -0.73956,1.29422 -1.75656,2.31122 -3.05078,3.05078 -1.29422,0.71644 -2.75136,1.07422 -4.36914,1.07422 -1.61778,0 -3.07297,-0.35778 -4.36719,-1.07422 -1.29422,-0.73956 -2.31122,-1.75656 -3.05078,-3.05078 -0.73956,-1.31733 -1.10938,-2.78457 -1.10938,-4.40235 0,-1.61778 0.36982,-3.07492 1.10938,-4.36914 0.73956,-1.31733 1.75656,-2.33433 3.05078,-3.05078 1.29422,-0.73955 2.74941,-1.10937 4.36719,-1.10937 z m 53.70312,0.20898 h 5.89258 c 1.77955,0 3.33924,0.34573 4.67969,1.03907 1.36355,0.67022 2.40464,1.64099 3.12109,2.9121 0.73955,1.248 1.10938,2.70514 1.10938,4.36914 0,1.664 -0.36983,3.13124 -1.10938,4.40235 -0.71645,1.248 -1.75754,2.21877 -3.12109,2.91211 -1.34045,0.67022 -2.90014,1.00586 -4.67969,1.00586 h -5.89258 z m -230.818358,9.91407 h 7.279297 c 3.489778,0 5.236329,1.16773 5.236329,3.50195 0,2.33422 -1.746551,3.50195 -5.236329,3.50195 h -7.279297 z m 91.394528,35.92578 c -2.44978,0 -4.66673,0.54268 -6.65429,1.6289 -1.96444,1.06312 -3.514043,2.54239 -4.646488,4.4375 -1.132444,1.89511 -1.699218,4.03362 -1.699218,6.41406 0,2.38045 0.554729,4.517 1.664062,6.41211 1.132444,1.89511 2.682034,3.38643 4.646484,4.47266 1.98755,1.06311 4.20647,1.59375 6.65625,1.59375 1.98755,0 3.80051,-0.34573 5.44141,-1.03906 1.664,-0.69334 3.06287,-1.69829 4.19531,-3.01563 l -2.91211,-2.77343 c -1.75644,1.91822 -3.91709,2.87695 -6.48242,2.87695 -1.66401,0 -3.15532,-0.35778 -4.47266,-1.07422 -1.31733,-0.73956 -2.34443,-1.75656 -3.08398,-3.05078 -0.73956,-1.29422 -1.10938,-2.76145 -1.10938,-4.40235 0,-1.64088 0.36982,-3.10811 1.10938,-4.40234 0.73955,-1.29422 1.76665,-2.30113 3.08398,-3.01758 1.31734,-0.73955 2.80865,-1.10937 4.47266,-1.10937 2.56533,0 4.72598,0.94863 6.48242,2.84375 l 2.91211,-2.73828 c -1.13244,-1.31734 -2.51926,-2.32425 -4.16016,-3.01758 -1.64088,-0.69333 -3.4558,-1.03906 -5.44336,-1.03906 z m -67.734371,0.3457 v 24.26758 h 17.195312 v -3.8125 H 45.861328 v -20.45508 z m 28.476562,0 -10.919922,24.26758 h 4.646485 l 2.392578,-5.61524 h 12.132812 l 2.425782,5.61524 h 4.714843 L 74.269531,259.63086 Z m 52.767579,0 v 13.69336 c 0,3.51289 0.93659,6.21817 2.80859,8.11328 1.872,1.872 4.48483,2.80664 7.83594,2.80664 3.35111,0 5.94994,-0.93464 7.79883,-2.80664 1.872,-1.89511 2.80859,-4.60039 2.80859,-8.11328 v -13.69336 h -4.4375 v 13.52148 c 0,4.76089 -2.04605,7.14063 -6.13672,7.14063 -4.11378,0 -6.16992,-2.37974 -6.16992,-7.14063 v -13.52148 z m 27.5625,0 v 24.26758 h 17.19531 v -3.8125 h -12.6875 v -20.45508 z m 15.43359,0 v 3.81445 h 8.04102 v 20.45313 h 4.50781 v -20.45313 h 8.04297 v -3.81445 z m 23.29102,0 v 13.69336 c 0,3.51289 0.93659,6.21817 2.80859,8.11328 1.872,1.872 4.48287,2.80664 7.83399,2.80664 3.35111,0 5.95189,-0.93464 7.80078,-2.80664 1.872,-1.89511 2.80664,-4.60039 2.80664,-8.11328 v -13.69336 h -4.43555 v 13.52148 c 0,4.76089 -2.04605,7.14063 -6.13672,7.14063 -4.11378,0 -6.16992,-2.37974 -6.16992,-7.14063 v -13.52148 z m 27.5625,0 v 24.26758 h 4.50586 v -7.07227 h 5.47851 c 0.416,0 0.72755,-0.012 0.93555,-0.0351 l 4.95703,7.10742 h 4.85352 l -5.58203,-7.97266 c 1.664,-0.64711 2.93622,-1.62993 3.81445,-2.94726 0.90133,-1.31734 1.35156,-2.88907 1.35156,-4.71485 0,-1.77956 -0.41605,-3.31711 -1.24805,-4.61133 -0.832,-1.29422 -2.0339,-2.28713 -3.60546,-2.98046 -1.54844,-0.69334 -3.37345,-1.04102 -5.47657,-1.04102 z m 32.81055,0 -10.91993,24.26758 h 4.64649 l 2.39062,-5.61524 h 12.13282 l 2.42773,5.61524 h 4.71484 l -10.95507,-24.26758 z m -28.30469,3.81445 h 5.26953 c 1.96445,0 3.45577,0.41605 4.47266,1.24805 1.01688,0.832 1.52539,2.02187 1.52539,3.57031 0,1.54844 -0.50851,2.75036 -1.52539,3.60547 -1.01689,0.832 -2.50821,1.24805 -4.47266,1.24805 h -5.26953 z m -148.937502,0.69336 4.576172,10.60742 h -9.117188 z m 179.425782,0 4.57617,10.60742 h -9.11719 z" /></g></svg>