<?xml version="1.0" encoding="UTF-8" standalone="no"?>
<!-- Generator: Adobe Illustrator 16.0.0, SVG Export Plug-In . SVG Version: 6.00 Build 0)  -->

<svg
   xmlns:dc="http://purl.org/dc/elements/1.1/"
   xmlns:cc="http://creativecommons.org/ns#"
   xmlns:rdf="http://www.w3.org/1999/02/22-rdf-syntax-ns#"
   xmlns:svg="http://www.w3.org/2000/svg"
   xmlns="http://www.w3.org/2000/svg"
   xmlns:sodipodi="http://sodipodi.sourceforge.net/DTD/sodipodi-0.dtd"
   xmlns:inkscape="http://www.inkscape.org/namespaces/inkscape"
   version="1.0"
   id="Capa_1"
   x="0px"
   y="0px"
   width="300px"
   height="300px"
   viewBox="0 0 300 300"
   enable-background="new 0 0 300 300"
   xml:space="preserve"
   sodipodi:docname="b7.svg"
   inkscape:version="0.92.4 (5da689c313, 2019-01-14)"><metadata
   id="metadata41"><rdf:RDF><cc:Work
       rdf:about=""><dc:format>image/svg+xml</dc:format><dc:type
         rdf:resource="http://purl.org/dc/dcmitype/StillImage" /></cc:Work></rdf:RDF></metadata><defs
   id="defs39">
	
	

		
		
		
		
		
		
		
		
		
		
		
		
		
		
	</defs><sodipodi:namedview
   pagecolor="#ffffff"
   bordercolor="#666666"
   borderopacity="1"
   objecttolerance="10"
   gridtolerance="10"
   guidetolerance="10"
   inkscape:pageopacity="0"
   inkscape:pageshadow="2"
   inkscape:window-width="1920"
   inkscape:window-height="1027"
   id="namedview37"
   showgrid="false"
   inkscape:zoom="0.78666667"
   inkscape:cx="150"
   inkscape:cy="143.49526"
   inkscape:window-x="-8"
   inkscape:window-y="-8"
   inkscape:window-maximized="1"
   inkscape:current-layer="Capa_1" />
<path
   style="fill:#18a1bd;fill-opacity:1"
   inkscape:connector-curvature="0"
   id="path2"
   d="M 242.623,300 H 57.378 C 25.82,300 0,274.18 0,242.622 V 57.377 C 0,25.82 25.82,0 57.378,0 H 242.623 C 274.181,0 300,25.82 300,57.377 V 242.622 C 300,274.18 274.181,300 242.623,300" /><g
   id="g907"><path
     style="fill:#fefefe"
     inkscape:connector-curvature="0"
     id="path18"
     d="m 222.943,165.128 c 0.031,-1.99 -0.194,-3.809 -1.544,-5.291 -1.152,-1.268 -1.17,-2.757 -0.491,-4 1.463,-2.679 1.728,-5.377 0.814,-8.209 -0.461,-1.431 -1.237,-2.761 -1.67,-4.198 -2.573,-8.562 -5.144,-17.123 -8.275,-25.499 -1.809,-4.836 -7.838,-8.609 -12.903,-8.417 -6.368,0.24 -12.74,0.333 -19.105,0.611 -3.659,0.16 -6.863,1.233 -9.786,3.842 -2.604,2.322 -3.219,5.351 -4.2,8.198 -3.091,8.97 -5.896,18.041 -8.66,27.119 -0.618,2.03 -0.423,4.302 1.428,5.766 1.427,1.127 3.29,1.175 4.876,0.312 2.059,-1.12 2.629,-3.449 3.286,-5.409 2.69,-8.02 5.126,-16.126 7.651,-24.2 0.374,-1.195 1.496,-1.673 2.417,-1.598 0.719,0.059 1.895,0.797 1.347,2.057 -1.22,2.811 -1.225,5.902 -2.109,8.78 -1.494,4.857 -2.766,9.829 -3.771,14.746 -1.458,7.12 -3.559,14.073 -4.992,21.189 -0.329,1.63 -0.162,2.165 1.38,2.187 1.053,0.015 2.121,0.007 3.157,-0.154 2.706,-0.419 3.68,0.299 3.69,2.961 0.022,5.396 0.006,10.792 0.007,16.188 0,4.19 -0.022,8.382 -0.01,12.573 0.004,1.396 0.012,2.794 0.026,4.191 0.029,3.018 2.497,5.32 5.744,5.544 2.206,0.152 5.595,-2.176 5.765,-4.157 0.295,-3.415 0.506,-6.936 0.303,-10.265 -0.494,-8.116 0.117,-16.214 -0.266,-24.308 -0.076,-1.613 0.892,-2.226 2.266,-2.221 1.201,0.005 2.332,-0.212 2.504,1.91 0.184,2.268 0.433,4.536 0.435,6.819 0.007,8.865 -0.004,17.729 0.006,26.593 0.004,3.235 2.913,6.045 6.148,5.974 2.6,-0.06 5.408,-3.125 5.409,-5.948 0.008,-10.984 0.035,-21.969 -0.025,-32.952 -0.011,-1.91 0.473,-2.761 2.583,-2.777 5.611,-0.047 5.615,-0.138 4.949,-5.67 -0.056,-0.463 -0.216,-0.917 -0.357,-1.366 -1.637,-5.183 -2.707,-10.514 -4.143,-15.753 -2.016,-7.353 -3.393,-14.88 -5.066,-22.327 -0.328,-1.457 -0.738,-2.952 1.217,-3.503 1.946,-0.548 1.789,1.396 2.091,2.264 1.818,5.236 3.358,10.57 5.145,15.819 1.27,3.73 1.358,8.09 4.075,11.046 2.406,2.618 3.641,4.631 0.789,7.509 -0.272,0.275 -0.097,0.945 -0.28,1.364 -1.237,2.814 0.682,5.688 -0.088,8.421 -1.351,4.801 0.07,9.569 -0.095,14.354 -0.08,2.347 1.94,3.737 4.362,3.443 2.469,-0.299 3.898,-1.923 3.916,-4.479 0.039,-6.361 -0.054,-12.722 0.05,-19.079 z" /><path
     style="fill:#fefefe"
     inkscape:connector-curvature="0"
     id="path20"
     d="m 146.5,149.405 c -1.586,-5.309 -3.312,-10.577 -5.036,-15.846 -1.545,-4.721 -3.028,-9.47 -4.79,-14.11 -1.443,-3.804 -5.136,-8.256 -10.568,-8.956 -3.9,-0.503 -7.579,0.271 -11.359,0.242 -5.219,-0.043 -10.44,-0.538 -15.658,-0.053 -3.147,0.292 -5.927,1.075 -8.44,3.415 -2.537,2.362 -3.656,5.326 -4.679,8.274 -3.073,8.857 -5.817,17.831 -8.632,26.778 -0.75,2.385 0.003,4.494 2.185,5.649 1.506,0.798 3.441,1.06 4.679,-0.628 0.876,-1.197 1.817,-2.382 2.266,-3.903 1.702,-5.779 3.467,-11.541 5.309,-17.277 0.805,-2.507 1.837,-4.939 2.8,-7.394 0.381,-0.973 1.215,-1.148 2.146,-1.004 0.761,0.118 1.467,0.708 1.197,1.327 -0.912,2.1 0.147,4.089 0.141,6.128 -0.086,24.568 -0.034,49.137 -0.089,73.706 -0.005,2.447 0.683,4.474 2.913,5.389 1.243,0.51 2.852,0.165 4.295,0.143 3.127,-0.046 4.323,-1.222 4.384,-4.314 0.055,-2.811 0.239,-5.598 0.112,-8.443 -0.549,-12.292 0.9,-24.578 0.476,-36.885 -0.014,-0.385 -0.036,-0.781 0.042,-1.153 0.226,-1.069 1.031,-1.242 1.973,-1.243 0.942,-0.001 1.793,0.161 1.972,1.234 0.126,0.751 0.057,1.537 0.057,2.308 0.001,14.163 0.008,28.326 -0.004,42.49 -0.002,2.63 0.473,4.959 3.346,5.949 5.337,1.839 9.355,-0.947 9.37,-6.904 0.033,-12.814 0.011,-25.629 0.011,-38.443 0,-12.911 -0.003,-25.821 0.005,-38.732 0,-0.839 -0.283,-2.001 0.72,-2.264 0.726,-0.189 1.758,0.273 2.051,1.217 1.227,3.948 2.308,7.943 3.604,11.868 1.62,4.902 3.342,9.775 5.138,14.616 0.812,2.187 2.645,3.049 4.854,2.476 2.15,-0.559 3.847,-3.523 3.209,-5.657 z" /><path
     style="fill:#fefefe"
     inkscape:connector-curvature="0"
     id="path22"
     d="m 105.93,47.615 c 2.094,0.344 4.03,0.915 4.575,3.173 0.296,1.228 0.71,2.35 1.382,3.345 1.266,1.876 1.133,3.608 -0.109,5.413 -0.479,0.697 -0.712,1.559 -1.165,2.278 -1.392,2.216 0.93,2.758 1.771,3.923 0.936,1.293 2.518,1.539 3.532,0.567 2.618,-2.509 5.005,-2.787 8.346,-1.066 2.505,1.29 5.637,1.282 5.19,5.326 -0.069,0.634 0.607,1.36 0.968,2.028 0.993,1.845 2.739,0.841 4.153,1.046 1.013,0.147 1.915,-0.081 2.164,-1.331 0.797,-3.987 2.35,-7.298 7.052,-7.747 0.151,-0.015 0.266,-0.276 0.427,-0.374 1.648,-0.998 3.059,-1.29 4.948,0.013 3.805,2.622 3.838,2.37 6.763,-0.706 2.118,-2.228 -0.262,-3.642 -0.881,-5.146 -1.891,-4.593 0.605,-10.922 5.395,-11.711 3.34,-0.551 3.702,-2.278 3.498,-4.94 -0.205,-2.673 -2.061,-3.195 -4.173,-3.279 -1.569,-0.063 -3.177,-0.594 -3.622,-1.887 -1.256,-3.645 -3.369,-7.361 -0.412,-11.258 0.647,-0.852 1.15,-1.998 0.261,-3.172 -2.267,-2.989 -3.921,-3.443 -7.255,-1.194 -3.355,2.263 -12.086,-1.18 -11.985,-6.104 0.033,-1.624 0.125,-3.242 -2.272,-3.013 -2.369,0.228 -5.76,-1.091 -6.043,2.802 -0.258,3.537 -2.023,5.369 -5.055,6.385 -0.669,0.225 -1.225,0.465 -1.696,0.963 -1.028,1.088 -1.99,1.025 -3.286,0.217 -1.481,-0.923 -2.837,-2.256 -5.173,-2.342 -1.625,0.342 -2.325,2.24 -3.562,3.432 -0.804,0.776 -0.941,1.887 0.13,3.013 2.073,2.178 3.219,4.64 0.952,7.468 -0.283,0.355 -0.602,0.891 -0.538,1.283 0.591,3.664 -2.206,4.088 -4.56,4.467 -3.204,0.515 -3.786,2.268 -3.674,5.162 0.113,2.951 2.212,2.68 3.954,2.966 z m 26.996,-20.631 c 8.901,-0.389 16.736,7.009 16.652,16.668 C 149.5,52.557 141.759,60.11 132.62,59.694 123.897,59.297 116.976,53.762 117.084,43.226 116.82,32.52 124.789,27.34 132.926,26.984 Z" /><path
     style="fill:#fefefe"
     inkscape:connector-curvature="0"
     id="path24"
     d="m 163.169,51.727 c -1.29,0.041 -3.062,-0.778 -3.62,1.25 -0.483,1.753 -0.572,3.272 1.274,4.708 3,2.333 2.86,4.682 0.22,7.344 -0.956,0.963 -1.791,2.032 -1.144,3.652 0.675,1.688 1.759,2.163 3.528,2.142 5.127,-0.067 5.22,0.027 5.671,5.1 0.18,2.014 1.593,2.597 3.034,3.315 1.331,0.663 1.956,-0.376 2.631,-1.118 3.333,-3.664 4.17,-3.782 7.757,-0.56 1.28,1.149 2.312,1.058 3.747,0.283 1.481,-0.801 2.16,-1.785 1.918,-3.426 -0.527,-3.556 0.91,-5.369 4.342,-5.356 1.593,0.006 2.956,-0.027 3.791,-1.814 0.92,-1.974 0.107,-3.104 -1.254,-4.404 -3.291,-3.14 -3.243,-4.051 -0.073,-7.234 0.204,-0.204 0.382,-0.446 0.616,-0.606 1.646,-1.123 1.168,-2.309 0.158,-3.556 -0.91,-1.122 -1.994,-1.542 -3.49,-1.524 -4.404,0.051 -5.305,-0.932 -5.524,-5.323 0.007,-1.317 -0.571,-2.09 -1.749,-2.666 -2.444,-1.196 -3.869,0.078 -5.265,1.789 -1.709,2.096 -3.93,2.217 -5.755,0.296 -0.374,-0.394 -0.799,-0.783 -1.105,-1.171 -1.604,-2.027 -2.956,-0.259 -4.23,0.285 -1.25,0.535 -1.413,1.819 -1.096,3.159 0.818,3.445 -0.774,5.32 -4.382,5.435 z m 14.554,1.705 c 4.285,-0.758 7.254,3.421 7.537,6.896 0.273,3.371 -3.862,7.627 -7.154,7.536 -4.301,-0.118 -7.351,-3.308 -7.267,-7.452 0.088,-4.274 2.664,-6.975 6.884,-6.98 z" /><path
     style="fill:#fefefe"
     inkscape:connector-curvature="0"
     id="path26"
     d="m 98.624,95.596 c 1.374,0.273 1.663,0.963 1.708,2.172 0.123,3.353 1.456,6.101 4.186,8.154 3.172,2.388 6.665,3.429 10.27,1.47 3.368,-1.83 6.122,-4.451 6.33,-8.71 0.066,-1.391 0.336,-2.458 1.643,-3.347 1.584,-1.077 2.166,-2.551 -0.032,-3.769 -0.77,-0.426 -1.173,-1.056 -0.997,-1.879 0.683,-3.216 -1.877,-4.978 -3.208,-7.284 -0.396,-0.686 -1.118,-0.676 -1.802,-0.604 -1.039,0.108 -0.749,0.945 -0.78,1.553 -0.069,1.345 0.213,2.821 -1.751,3.68 0,-2.093 0.097,-3.917 -0.022,-5.728 -0.191,-2.903 -2.48,-2.66 -4.303,-2.377 -5.548,0.861 -2.018,5.543 -3.761,8.638 -0.648,-1.836 -1.238,-3.374 -1.729,-4.944 -0.31,-0.99 -0.728,-1.813 -1.62,-0.621 -1.402,1.874 -3.048,3.612 -3.62,6.028 -0.349,1.47 -0.504,2.914 -1.81,4.2 -1.156,1.136 -0.691,2.972 1.298,3.368 z" /><path
     style="fill:#fefefe"
     inkscape:connector-curvature="0"
     id="path28"
     d="m 178.407,96.564 c 0.127,5.374 5.888,10.65 11.619,10.645 5.685,-0.007 10.323,-4.779 10.326,-10.625 0.767,-5.124 -4.949,-10.892 -10.788,-10.781 -5.912,0.112 -11.289,5.25 -11.157,10.761 z" /><path
     style="fill:#fefefe"
     inkscape:connector-curvature="0"
     id="path30"
     d="m 132.262,52.274 c 6.258,0.031 10.036,-3.34 10.136,-8.768 0.097,-5.284 -2.673,-9.138 -9.482,-9.7 -4.89,-0.404 -8.535,3.623 -8.952,8.976 -0.493,6.332 4.34,9.347 8.298,9.492 z m 0.409,-12.68 c 1.925,0.182 3.491,1.191 3.996,3.104 0.371,1.407 -2.378,4.239 -3.79,4.3 -2.161,-0.367 -3.107,-1.865 -3.52,-3.694 -0.297,-1.327 1.953,-3.837 3.314,-3.71 z" /></g>
<g
   aria-label="TRABAJO"
   style="font-style:normal;font-weight:normal;font-size:40px;line-height:1.25;font-family:sans-serif;text-align:center;letter-spacing:0px;word-spacing:0px;text-anchor:middle;fill:#000000;fill-opacity:1;stroke:none"
   id="text880"><path
     sodipodi:type="inkscape:offset"
     inkscape:radius="0"
     inkscape:original="M 230.11719 239.82031 C 227.26385 239.82031 224.69177 240.44784 222.39844 241.70117 C 220.1051 242.92784 218.30471 244.64604 216.99805 246.85938 C 215.69138 249.04604 215.03711 251.5007 215.03711 254.2207 C 215.03711 256.9407 215.69138 259.40776 216.99805 261.62109 C 218.30471 263.80776 220.1051 265.52792 222.39844 266.78125 C 224.69177 268.00792 227.26385 268.62109 230.11719 268.62109 C 232.97052 268.62109 235.54456 268.00792 237.83789 266.78125 C 240.13122 265.52792 241.93161 263.80776 243.23828 261.62109 C 244.54495 259.43443 245.19727 256.96737 245.19727 254.2207 C 245.19727 251.47404 244.54495 249.00698 243.23828 246.82031 C 241.93161 244.63365 240.13122 242.92784 237.83789 241.70117 C 235.54456 240.44784 232.97052 239.82031 230.11719 239.82031 z M 48.125 240.2207 L 48.125 244.62109 L 57.40625 244.62109 L 57.40625 268.2207 L 62.605469 268.2207 L 62.605469 244.62109 L 71.884766 244.62109 L 71.884766 240.2207 L 48.125 240.2207 z M 75.787109 240.2207 L 75.787109 268.2207 L 80.988281 268.2207 L 80.988281 260.06055 L 87.308594 260.06055 C 87.788594 260.06055 88.148672 260.0462 88.388672 260.01953 L 94.107422 268.2207 L 99.707031 268.2207 L 93.267578 259.01953 C 95.187578 258.27286 96.654635 257.14109 97.667969 255.62109 C 98.707969 254.10109 99.228516 252.28635 99.228516 250.17969 C 99.228516 248.12635 98.747109 246.35271 97.787109 244.85938 C 96.827109 243.36604 95.44224 242.21992 93.628906 241.41992 C 91.84224 240.61992 89.73526 240.2207 87.308594 240.2207 L 75.787109 240.2207 z M 113.64648 240.2207 L 101.04688 268.2207 L 106.40625 268.2207 L 109.16602 261.74023 L 123.16602 261.74023 L 125.9668 268.2207 L 131.40625 268.2207 L 118.76758 240.2207 L 113.64648 240.2207 z M 134.92773 240.2207 L 134.92773 268.2207 L 148.84766 268.2207 C 152.42099 268.2207 155.14115 267.56643 157.00781 266.25977 C 158.87448 264.92643 159.80859 263.04776 159.80859 260.62109 C 159.80859 258.86109 159.35589 257.39404 158.44922 256.2207 C 157.54255 255.0207 156.3162 254.16682 154.76953 253.66016 C 155.88953 253.07349 156.7682 252.24635 157.4082 251.17969 C 158.0482 250.11302 158.36914 248.88667 158.36914 247.5 C 158.36914 245.23333 157.47612 243.45969 155.68945 242.17969 C 153.90279 240.87302 151.35549 240.2207 148.04883 240.2207 L 134.92773 240.2207 z M 174.03711 240.2207 L 161.4375 268.2207 L 166.79688 268.2207 L 169.55664 261.74023 L 183.55664 261.74023 L 186.35742 268.2207 L 191.79688 268.2207 L 179.1582 240.2207 L 174.03711 240.2207 z M 194.58398 240.2207 L 194.58398 244.58008 L 204.54492 244.58008 L 204.54492 259.06055 C 204.54492 262.50055 203.09026 264.2207 200.18359 264.2207 C 198.02359 264.2207 196.17167 263.15286 194.625 261.01953 L 191.66406 264.58008 C 192.62406 265.86008 193.85042 266.86008 195.34375 267.58008 C 196.86375 268.27341 198.51802 268.62109 200.30469 268.62109 C 203.39802 268.62109 205.74375 267.80635 207.34375 266.17969 C 208.94375 264.52635 209.74414 262.06125 209.74414 258.78125 L 209.74414 240.2207 L 194.58398 240.2207 z M 140.12891 244.30078 L 147.48828 244.30078 C 149.30161 244.30078 150.68844 244.63411 151.64844 245.30078 C 152.6351 245.94078 153.12891 246.89969 153.12891 248.17969 C 153.12891 249.43302 152.6351 250.39388 151.64844 251.06055 C 150.68844 251.70055 149.30161 252.01953 147.48828 252.01953 L 140.12891 252.01953 L 140.12891 244.30078 z M 230.11719 244.38086 C 231.98385 244.38086 233.66487 244.80682 235.1582 245.66016 C 236.65154 246.48682 237.8244 247.65969 238.67773 249.17969 C 239.53107 250.67302 239.95703 252.35404 239.95703 254.2207 C 239.95703 256.08737 239.53107 257.78078 238.67773 259.30078 C 237.8244 260.79411 236.65154 261.96698 235.1582 262.82031 C 233.66487 263.64698 231.98385 264.06055 230.11719 264.06055 C 228.25052 264.06055 226.57146 263.64698 225.07812 262.82031 C 223.58479 261.96698 222.41193 260.79411 221.55859 259.30078 C 220.70526 257.78078 220.27734 256.08737 220.27734 254.2207 C 220.27734 252.35404 220.70526 250.67302 221.55859 249.17969 C 222.41193 247.65969 223.58479 246.48682 225.07812 245.66016 C 226.57146 244.80682 228.25052 244.38086 230.11719 244.38086 z M 80.988281 244.62109 L 87.068359 244.62109 C 89.335026 244.62109 91.055182 245.10055 92.228516 246.06055 C 93.401849 247.02055 93.988281 248.39302 93.988281 250.17969 C 93.988281 251.96635 93.401849 253.35318 92.228516 254.33984 C 91.055182 255.29984 89.335026 255.78125 87.068359 255.78125 L 80.988281 255.78125 L 80.988281 244.62109 z M 116.16602 245.41992 L 121.44727 257.66016 L 110.92578 257.66016 L 116.16602 245.41992 z M 176.55664 245.41992 L 181.83789 257.66016 L 171.31641 257.66016 L 176.55664 245.41992 z M 140.12891 256.06055 L 148.5293 256.06055 C 152.55596 256.06055 154.56836 257.40628 154.56836 260.09961 C 154.56836 262.79294 152.55596 264.14062 148.5293 264.14062 L 140.12891 264.14062 L 140.12891 256.06055 z "
     style="font-style:normal;font-variant:normal;font-weight:600;font-stretch:normal;font-family:Montserrat;-inkscape-font-specification:'Montserrat Semi-Bold';fill:#ffffff;fill-opacity:1"
     id="path894"
     d="m 230.11719,239.82031 c -2.85334,0 -5.42542,0.62753 -7.71875,1.88086 -2.29334,1.22667 -4.09373,2.94487 -5.40039,5.15821 -1.30667,2.18666 -1.96094,4.64132 -1.96094,7.36132 0,2.72 0.65427,5.18706 1.96094,7.40039 1.30666,2.18667 3.10705,3.90683 5.40039,5.16016 2.29333,1.22667 4.86541,1.83984 7.71875,1.83984 2.85333,0 5.42737,-0.61317 7.7207,-1.83984 2.29333,-1.25333 4.09372,-2.97349 5.40039,-5.16016 1.30667,-2.18666 1.95899,-4.65372 1.95899,-7.40039 0,-2.74666 -0.65232,-5.21372 -1.95899,-7.40039 -1.30667,-2.18666 -3.10706,-3.89247 -5.40039,-5.11914 -2.29333,-1.25333 -4.86737,-1.88086 -7.7207,-1.88086 z M 48.125,240.2207 v 4.40039 h 9.28125 v 23.59961 h 5.199219 v -23.59961 h 9.279297 v -4.40039 z m 27.662109,0 v 28 h 5.201172 v -8.16015 h 6.320313 c 0.48,0 0.840078,-0.0143 1.080078,-0.041 l 5.71875,8.20117 h 5.599609 l -6.439453,-9.20117 c 1.92,-0.74667 3.387057,-1.87844 4.400391,-3.39844 1.04,-1.52 1.560547,-3.33474 1.560547,-5.4414 0,-2.05334 -0.481407,-3.82698 -1.441407,-5.32031 -0.96,-1.49334 -2.344869,-2.63946 -4.158203,-3.43946 -1.786666,-0.8 -3.893646,-1.19922 -6.320312,-1.19922 z m 37.859371,0 -12.5996,28 h 5.35937 l 2.75977,-6.48047 h 14 l 2.80078,6.48047 h 5.43945 l -12.63867,-28 z m 21.28125,0 v 28 h 13.91993 c 3.57333,0 6.29349,-0.65427 8.16015,-1.96093 1.86667,-1.33334 2.80078,-3.21201 2.80078,-5.63868 0,-1.76 -0.4527,-3.22705 -1.35937,-4.40039 -0.90667,-1.2 -2.13302,-2.05388 -3.67969,-2.56054 1.12,-0.58667 1.99867,-1.41381 2.63867,-2.48047 0.64,-1.06667 0.96094,-2.29302 0.96094,-3.67969 0,-2.26667 -0.89302,-4.04031 -2.67969,-5.32031 -1.78666,-1.30667 -4.33396,-1.95899 -7.64062,-1.95899 z m 39.10938,0 -12.59961,28 h 5.35938 l 2.75976,-6.48047 h 14 l 2.80078,6.48047 h 5.43946 l -12.63868,-28 z m 20.54687,0 v 4.35938 h 9.96094 v 14.48047 c 0,3.44 -1.45466,5.16015 -4.36133,5.16015 -2.16,0 -4.01192,-1.06784 -5.55859,-3.20117 l -2.96094,3.56055 c 0.96,1.28 2.18636,2.28 3.67969,3 1.52,0.69333 3.17427,1.04101 4.96094,1.04101 3.09333,0 5.43906,-0.81474 7.03906,-2.4414 1.6,-1.65334 2.40039,-4.11844 2.40039,-7.39844 V 240.2207 Z m -54.45507,4.08008 h 7.35937 c 1.81333,0 3.20016,0.33333 4.16016,1 0.98666,0.64 1.48047,1.59891 1.48047,2.87891 0,1.25333 -0.49381,2.21419 -1.48047,2.88086 -0.96,0.64 -2.34683,0.95898 -4.16016,0.95898 h -7.35937 z m 89.98828,0.0801 c 1.86666,0 3.54768,0.42596 5.04101,1.2793 1.49334,0.82666 2.6662,1.99953 3.51953,3.51953 0.85334,1.49333 1.2793,3.17435 1.2793,5.04101 0,1.86667 -0.42596,3.56008 -1.2793,5.08008 -0.85333,1.49333 -2.02619,2.6662 -3.51953,3.51953 -1.49333,0.82667 -3.17435,1.24024 -5.04101,1.24024 -1.86667,0 -3.54573,-0.41357 -5.03907,-1.24024 -1.49333,-0.85333 -2.66619,-2.0262 -3.51953,-3.51953 -0.85333,-1.52 -1.28125,-3.21341 -1.28125,-5.08008 0,-1.86666 0.42792,-3.54768 1.28125,-5.04101 0.85334,-1.52 2.0262,-2.69287 3.51953,-3.51953 1.49334,-0.85334 3.1724,-1.2793 5.03907,-1.2793 z m -149.128909,0.24023 h 6.080078 c 2.266667,0 3.986823,0.47946 5.160157,1.43946 1.173333,0.96 1.759765,2.33247 1.759765,4.11914 0,1.78666 -0.586432,3.17349 -1.759765,4.16015 -1.173334,0.96 -2.89349,1.44141 -5.160157,1.44141 h -6.080078 z m 35.177739,0.79883 5.28125,12.24024 h -10.52149 z m 60.39062,0 5.28125,12.24024 h -10.52148 z m -36.42773,10.64063 h 8.40039 c 4.02666,0 6.03906,1.34573 6.03906,4.03906 0,2.69333 -2.0124,4.04101 -6.03906,4.04101 h -8.40039 z" /></g></svg>