<?xml version="1.0" encoding="UTF-8" standalone="no"?>
<!-- Generator: Adobe Illustrator 16.0.0, SVG Export Plug-In . SVG Version: 6.00 Build 0)  -->

<svg
   xmlns:dc="http://purl.org/dc/elements/1.1/"
   xmlns:cc="http://creativecommons.org/ns#"
   xmlns:rdf="http://www.w3.org/1999/02/22-rdf-syntax-ns#"
   xmlns:svg="http://www.w3.org/2000/svg"
   xmlns="http://www.w3.org/2000/svg"
   xmlns:sodipodi="http://sodipodi.sourceforge.net/DTD/sodipodi-0.dtd"
   xmlns:inkscape="http://www.inkscape.org/namespaces/inkscape"
   version="1.0"
   id="Capa_1"
   x="0px"
   y="0px"
   width="300px"
   height="300px"
   viewBox="0 0 300 300"
   enable-background="new 0 0 300 300"
   xml:space="preserve"
   sodipodi:docname="b8.svg"
   inkscape:version="0.92.4 (5da689c313, 2019-01-14)"><metadata
   id="metadata67"><rdf:RDF><cc:Work
       rdf:about=""><dc:format>image/svg+xml</dc:format><dc:type
         rdf:resource="http://purl.org/dc/dcmitype/StillImage" /></cc:Work></rdf:RDF></metadata><defs
   id="defs65">
	
	
	

		
		
		
		
		
		
		
		
		
		
		
		
		
		
		
		
		
		
		
	</defs><sodipodi:namedview
   pagecolor="#ffffff"
   bordercolor="#666666"
   borderopacity="1"
   objecttolerance="10"
   gridtolerance="10"
   guidetolerance="10"
   inkscape:pageopacity="0"
   inkscape:pageshadow="2"
   inkscape:window-width="1337"
   inkscape:window-height="878"
   id="namedview63"
   showgrid="false"
   inkscape:zoom="0.78666667"
   inkscape:cx="150"
   inkscape:cy="150"
   inkscape:window-x="0"
   inkscape:window-y="0"
   inkscape:window-maximized="0"
   inkscape:current-layer="Capa_1" />
<path
   style="fill:#18bda1;fill-opacity:1"
   inkscape:connector-curvature="0"
   id="path2"
   d="M 242.623,0.001 H 57.378 C 25.82,0.001 0,25.82 0,57.377 v 185.245 c 0,31.558 25.82,57.377 57.378,57.377 H 242.623 C 274.181,299.999 300,274.18 300,242.622 V 57.377 C 300,25.82 274.181,0.001 242.623,0.001 Z" /><path
   style="fill:#21a5fa"
   inkscape:connector-curvature="0"
   id="path4"
   d="m 149.99091,204.323 c 0.033,-12.812 0.011,-25.627 0.011,-38.442 0,-12.911 -0.002,-25.821 0.005,-38.731 -0.007,12.91 -0.005,25.82 -0.005,38.731 0,12.815 0.022,25.63 -0.011,38.442" /><g
   id="g56"
   transform="translate(-9.7881188e-4)">
			<path
   d="m 210.968,166.048 c -1.637,-5.182 -2.707,-10.514 -4.143,-15.752 -2.016,-7.354 -3.393,-14.881 -5.067,-22.328 -0.327,-1.457 -0.737,-2.952 1.218,-3.502 1.946,-0.549 1.789,1.395 2.091,2.262 1.817,5.238 3.358,10.571 5.145,15.82 1.27,3.73 1.358,8.09 4.075,11.045 2.406,2.619 3.641,4.633 0.789,7.51 -0.272,0.275 -0.097,0.945 -0.281,1.364 -1.236,2.813 0.682,5.688 -0.087,8.421 -1.351,4.801 0.069,9.57 -0.095,14.354 -0.081,2.347 1.94,3.737 4.361,3.443 2.47,-0.299 3.899,-1.923 3.917,-4.479 0.041,-6.358 -0.052,-12.72 0.052,-19.077 0.032,-1.989 -0.193,-3.809 -1.543,-5.291 -1.153,-1.268 -1.17,-2.757 -0.491,-4 1.462,-2.678 1.728,-5.377 0.814,-8.209 -0.461,-1.431 -1.238,-2.762 -1.67,-4.198 -2.573,-8.562 -5.144,-17.124 -8.275,-25.499 -1.809,-4.836 -7.838,-8.609 -12.904,-8.417 -6.367,0.241 -12.739,0.333 -19.104,0.611 -3.659,0.159 -6.863,1.233 -9.786,3.842 -2.604,2.323 -3.219,5.351 -4.2,8.198 -3.091,8.971 -5.896,18.041 -8.66,27.119 -0.618,2.029 -0.424,4.302 1.428,5.766 1.427,1.127 3.289,1.174 4.875,0.312 2.059,-1.121 2.629,-3.45 3.287,-5.41 2.69,-8.02 5.125,-16.125 7.651,-24.2 0.374,-1.196 1.496,-1.673 2.417,-1.599 0.719,0.06 1.895,0.797 1.347,2.059 -1.22,2.81 -1.225,5.9 -2.109,8.779 -1.494,4.857 -2.766,9.829 -3.771,14.746 -1.458,7.121 -3.559,14.072 -4.992,21.189 -0.329,1.63 -0.162,2.164 1.38,2.186 1.053,0.016 2.121,0.008 3.157,-0.152 2.706,-0.42 3.68,0.298 3.69,2.961 0.021,5.395 0.006,10.791 0.007,16.187 0,4.19 -0.022,8.382 -0.011,12.573 0.005,1.396 0.012,2.794 0.026,4.191 0.03,3.018 2.497,5.32 5.745,5.544 2.206,0.152 5.594,-2.175 5.765,-4.157 0.295,-3.415 0.506,-6.935 0.303,-10.266 -0.494,-8.115 0.117,-16.213 -0.266,-24.307 -0.076,-1.613 0.892,-2.226 2.266,-2.221 1.201,0.005 2.332,-0.211 2.504,1.91 0.184,2.268 0.433,4.535 0.434,6.819 0.007,8.864 -0.003,17.729 0.007,26.593 0.004,3.236 2.913,6.045 6.147,5.973 2.601,-0.058 5.408,-3.124 5.41,-5.947 0.008,-10.984 0.034,-21.969 -0.025,-32.951 -0.011,-1.911 0.473,-2.762 2.583,-2.779 5.611,-0.046 5.615,-0.137 4.949,-5.668 -0.059,-0.464 -0.219,-0.919 -0.36,-1.368 z"
   id="path42"
   inkscape:connector-curvature="0"
   style="fill:#fefefe" />
			<path
   d="m 141.464,133.561 c -1.546,-4.722 -3.028,-9.47 -4.79,-14.111 -1.443,-3.804 -5.136,-8.255 -10.568,-8.956 -3.9,-0.503 -7.578,0.271 -11.359,0.242 -5.219,-0.043 -10.44,-0.538 -15.658,-0.053 -3.148,0.293 -5.928,1.074 -8.44,3.416 -2.537,2.361 -3.656,5.326 -4.679,8.273 -3.073,8.857 -5.817,17.832 -8.632,26.778 -0.75,2.386 0.003,4.494 2.185,5.649 1.506,0.797 3.441,1.061 4.679,-0.628 0.876,-1.196 1.817,-2.382 2.266,-3.903 1.702,-5.779 3.466,-11.541 5.309,-17.277 0.805,-2.506 1.837,-4.939 2.8,-7.394 0.381,-0.972 1.215,-1.148 2.146,-1.004 0.761,0.118 1.467,0.708 1.197,1.327 -0.912,2.1 0.147,4.089 0.141,6.127 -0.087,24.569 -0.034,49.138 -0.089,73.707 -0.005,2.447 0.683,4.475 2.912,5.389 1.243,0.51 2.852,0.164 4.296,0.143 3.127,-0.046 4.323,-1.221 4.384,-4.313 0.054,-2.812 0.239,-5.599 0.112,-8.444 -0.55,-12.293 0.899,-24.578 0.476,-36.885 -0.014,-0.385 -0.036,-0.781 0.042,-1.153 0.226,-1.069 1.031,-1.242 1.973,-1.243 0.94,-0.002 1.792,0.162 1.972,1.234 0.125,0.752 0.057,1.537 0.057,2.309 0.002,14.162 0.008,28.325 -0.004,42.488 -0.002,2.631 0.473,4.961 3.346,5.95 5.337,1.839 9.355,-0.946 9.37,-6.904 0.032,-12.814 0.01,-25.628 0.011,-38.443 0,-12.911 -0.003,-25.821 0.005,-38.731 0,-0.84 -0.284,-2.002 0.72,-2.264 0.726,-0.189 1.758,0.273 2.051,1.215 1.227,3.949 2.308,7.944 3.604,11.869 1.62,4.902 3.342,9.775 5.137,14.616 0.812,2.187 2.645,3.049 4.855,2.476 2.154,-0.559 3.851,-3.523 3.213,-5.656 -1.591,-5.31 -3.316,-10.58 -5.04,-15.846 z"
   id="path44"
   inkscape:connector-curvature="0"
   style="fill:#fefefe" />
			<path
   d="m 155.926,63.503 c 2.118,-2.227 -0.262,-3.642 -0.881,-5.146 -1.892,-4.593 0.605,-10.922 5.395,-11.711 3.34,-0.551 3.702,-2.277 3.497,-4.939 -0.204,-2.674 -2.06,-3.196 -4.172,-3.281 -1.57,-0.062 -3.177,-0.592 -3.623,-1.887 -1.255,-3.644 -3.368,-7.36 -0.411,-11.256 0.647,-0.854 1.15,-1.999 0.261,-3.172 -2.267,-2.99 -3.921,-3.443 -7.255,-1.195 -3.355,2.263 -12.087,-1.18 -11.985,-6.105 0.033,-1.623 0.125,-3.24 -2.272,-3.012 -2.369,0.227 -5.76,-1.09 -6.043,2.803 -0.258,3.535 -2.024,5.369 -5.055,6.384 -0.669,0.224 -1.225,0.465 -1.696,0.963 -1.028,1.089 -1.99,1.025 -3.287,0.218 -1.48,-0.924 -2.836,-2.257 -5.172,-2.342 -1.625,0.341 -2.325,2.239 -3.562,3.431 -0.805,0.776 -0.941,1.887 0.13,3.013 2.073,2.178 3.218,4.64 0.953,7.468 -0.284,0.354 -0.603,0.891 -0.539,1.283 0.59,3.664 -2.206,4.087 -4.56,4.466 -3.204,0.516 -3.786,2.27 -3.675,5.162 0.114,2.955 2.215,2.684 3.957,2.97 2.093,0.344 4.029,0.915 4.574,3.173 0.296,1.228 0.71,2.35 1.381,3.346 1.267,1.875 1.133,3.607 -0.108,5.412 -0.479,0.697 -0.713,1.559 -1.165,2.278 -1.392,2.216 0.929,2.758 1.771,3.923 0.935,1.293 2.517,1.539 3.53,0.567 2.619,-2.509 5.006,-2.786 8.346,-1.066 2.506,1.29 5.638,1.282 5.191,5.326 -0.069,0.634 0.606,1.36 0.967,2.028 0.994,1.846 2.739,0.842 4.153,1.047 1.014,0.146 1.915,-0.082 2.165,-1.332 0.797,-3.987 2.349,-7.299 7.051,-7.746 0.152,-0.016 0.267,-0.277 0.428,-0.375 1.648,-0.998 3.059,-1.29 4.948,0.013 3.805,2.619 3.838,2.367 6.763,-0.709 z m -23.307,-3.809 c -8.722,-0.396 -15.643,-5.932 -15.535,-16.467 -0.264,-10.708 7.704,-15.888 15.842,-16.244 8.9,-0.388 16.736,7.01 16.651,16.67 -0.077,8.905 -7.818,16.457 -16.958,16.041 z"
   id="path46"
   inkscape:connector-curvature="0"
   style="fill:#fefefe" />
			<path
   d="m 163.169,51.728 c -1.291,0.04 -3.062,-0.779 -3.62,1.25 -0.483,1.752 -0.573,3.271 1.273,4.707 3,2.333 2.861,4.682 0.221,7.344 -0.956,0.963 -1.791,2.033 -1.144,3.652 0.674,1.688 1.759,2.164 3.528,2.141 5.127,-0.066 5.22,0.028 5.671,5.1 0.179,2.014 1.592,2.598 3.033,3.316 1.332,0.663 1.957,-0.375 2.632,-1.117 3.333,-3.664 4.17,-3.783 7.756,-0.561 1.28,1.15 2.313,1.057 3.748,0.283 1.481,-0.801 2.16,-1.785 1.918,-3.426 -0.528,-3.556 0.91,-5.369 4.342,-5.357 1.593,0.008 2.956,-0.025 3.79,-1.813 0.921,-1.974 0.108,-3.104 -1.253,-4.403 -3.291,-3.141 -3.243,-4.052 -0.073,-7.234 0.204,-0.205 0.382,-0.447 0.616,-0.607 1.646,-1.123 1.167,-2.309 0.157,-3.557 -0.909,-1.121 -1.993,-1.541 -3.489,-1.523 -4.404,0.051 -5.305,-0.932 -5.524,-5.324 0.007,-1.316 -0.571,-2.089 -1.749,-2.665 -2.444,-1.196 -3.87,0.077 -5.265,1.788 -1.709,2.098 -3.93,2.218 -5.756,0.297 -0.374,-0.393 -0.798,-0.783 -1.104,-1.17 -1.604,-2.028 -2.956,-0.26 -4.231,0.285 -1.249,0.534 -1.412,1.818 -1.095,3.158 0.817,3.445 -0.774,5.32 -4.382,5.436 z m 14.554,1.704 c 4.285,-0.758 7.254,3.421 7.536,6.896 0.274,3.371 -3.861,7.627 -7.153,7.537 -4.301,-0.119 -7.351,-3.309 -7.267,-7.453 0.088,-4.274 2.663,-6.975 6.884,-6.98 z"
   id="path48"
   inkscape:connector-curvature="0"
   style="fill:#fefefe" />
			<path
   d="m 98.624,95.596 c 1.374,0.273 1.663,0.963 1.708,2.172 0.122,3.353 1.456,6.101 4.185,8.154 3.173,2.388 6.666,3.429 10.27,1.47 3.368,-1.83 6.123,-4.451 6.33,-8.71 0.067,-1.39 0.337,-2.458 1.644,-3.347 1.584,-1.076 2.165,-2.551 -0.032,-3.769 -0.77,-0.426 -1.173,-1.056 -0.998,-1.879 0.685,-3.216 -1.876,-4.978 -3.208,-7.284 -0.395,-0.686 -1.117,-0.676 -1.801,-0.604 -1.039,0.108 -0.749,0.945 -0.78,1.554 -0.069,1.344 0.213,2.82 -1.751,3.679 0,-2.093 0.097,-3.917 -0.022,-5.728 -0.191,-2.904 -2.48,-2.66 -4.303,-2.377 -5.548,0.861 -2.018,5.543 -3.762,8.638 -0.647,-1.835 -1.237,-3.374 -1.729,-4.944 -0.309,-0.99 -0.728,-1.813 -1.619,-0.621 -1.403,1.874 -3.048,3.611 -3.621,6.028 -0.349,1.47 -0.503,2.914 -1.81,4.2 -1.155,1.136 -0.69,2.972 1.299,3.368 z"
   id="path50"
   inkscape:connector-curvature="0"
   style="fill:#fefefe" />
			<path
   d="m 178.406,96.564 c 0.128,5.374 5.889,10.651 11.62,10.645 5.685,-0.007 10.323,-4.779 10.325,-10.626 0.768,-5.123 -4.948,-10.891 -10.787,-10.779 -5.912,0.111 -11.289,5.249 -11.158,10.76 z"
   id="path52"
   inkscape:connector-curvature="0"
   style="fill:#fefefe" />
			<path
   d="m 132.915,33.806 c -4.891,-0.404 -8.535,3.624 -8.952,8.977 -0.492,6.332 4.341,9.348 8.299,9.492 6.258,0.031 10.036,-3.34 10.136,-8.768 0.096,-5.284 -2.673,-9.138 -9.483,-9.701 z m -0.039,13.191 c -2.161,-0.367 -3.106,-1.865 -3.519,-3.695 -0.299,-1.325 1.952,-3.836 3.313,-3.707 1.925,0.182 3.491,1.19 3.996,3.104 0.372,1.405 -2.377,4.238 -3.79,4.298 z"
   id="path54"
   inkscape:connector-curvature="0"
   style="fill:#fefefe" />
		</g>
<g
   id="g941"
   transform="translate(1.269573,47.033898)"><g
     aria-label="SINDICALES"
     style="font-style:normal;font-weight:normal;font-size:40px;line-height:1.25;font-family:sans-serif;text-align:center;letter-spacing:0px;word-spacing:0px;text-anchor:middle;fill:#000000;fill-opacity:1;stroke:none"
     id="text934" /></g><g
   aria-label="DERECHOS"
   style="font-style:normal;font-weight:normal;font-size:40px;line-height:1.25;font-family:sans-serif;text-align:center;letter-spacing:0px;word-spacing:0px;text-anchor:middle;fill:#000000;fill-opacity:1;stroke:none"
   id="text947"><path
     sodipodi:type="inkscape:offset"
     inkscape:radius="0"
     inkscape:original="M 161.50391 224.53906 C 159.05413 224.53906 156.83521 225.08174 154.84766 226.16797 C 152.88321 227.23108 151.33557 228.71036 150.20312 230.60547 C 149.07068 232.50058 148.50391 234.63909 148.50391 237.01953 C 148.50391 239.39998 149.05864 241.53653 150.16797 243.43164 C 151.30041 245.32675 152.84805 246.81807 154.8125 247.9043 C 156.80005 248.9674 159.01897 249.5 161.46875 249.5 C 163.4563 249.5 165.27122 249.15232 166.91211 248.45898 C 168.57611 247.76565 169.97303 246.76069 171.10547 245.44336 L 168.19336 242.66992 C 166.43692 244.58814 164.27627 245.54687 161.71094 245.54688 C 160.04694 245.54688 158.55757 245.1891 157.24023 244.47266 C 155.9229 243.7331 154.89386 242.71609 154.1543 241.42188 C 153.41474 240.12765 153.04492 238.66042 153.04492 237.01953 C 153.04492 235.37864 153.41474 233.91141 154.1543 232.61719 C 154.89386 231.32296 155.9229 230.31605 157.24023 229.59961 C 158.55757 228.86005 160.04694 228.49219 161.71094 228.49219 C 164.27627 228.49219 166.43692 229.43887 168.19336 231.33398 L 171.10547 228.5957 C 169.97303 227.27837 168.58816 226.27341 166.94727 225.58008 C 165.30638 224.88674 163.49146 224.53906 161.50391 224.53906 z M 214.85938 224.53906 C 212.38649 224.53906 210.15552 225.08174 208.16797 226.16797 C 206.18041 227.23108 204.62072 228.7224 203.48828 230.64062 C 202.35583 232.53573 201.79102 234.6622 201.79102 237.01953 C 201.79102 239.37686 202.35583 241.51341 203.48828 243.43164 C 204.62072 245.32675 206.18041 246.81807 208.16797 247.9043 C 210.15552 248.9674 212.38649 249.5 214.85938 249.5 C 217.33227 249.5 219.56323 248.9674 221.55078 247.9043 C 223.53833 246.81807 225.09802 245.32675 226.23047 243.43164 C 227.36292 241.53653 227.92969 239.39998 227.92969 237.01953 C 227.92969 234.63909 227.36292 232.50058 226.23047 230.60547 C 225.09802 228.71036 223.53833 227.23108 221.55078 226.16797 C 219.56323 225.08174 217.33227 224.53906 214.85938 224.53906 z M 240.95703 224.53906 C 238.8308 224.53906 237.02793 224.86265 235.54883 225.50977 C 234.09283 226.15688 232.99542 227.0352 232.25586 228.14453 C 231.53942 229.23075 231.17969 230.44471 231.17969 231.78516 C 231.17969 233.37982 231.58564 234.6501 232.39453 235.59766 C 233.22653 236.5221 234.2074 237.20347 235.33984 237.64258 C 236.4954 238.08169 237.99877 238.52182 239.84766 238.96094 C 241.16499 239.28449 242.20413 239.5739 242.9668 239.82812 C 243.72946 240.08235 244.35451 240.44012 244.83984 240.90234 C 245.34829 241.34146 245.60156 241.90628 245.60156 242.59961 C 245.60156 243.54716 245.15133 244.31089 244.25 244.88867 C 243.37178 245.46645 242.03118 245.75586 240.22852 245.75586 C 238.77252 245.75586 237.31733 245.51268 235.86133 245.02734 C 234.42843 244.5189 233.21448 243.87172 232.2207 243.08594 L 230.66016 246.58789 C 231.67704 247.46612 233.05182 248.16962 234.78516 248.70117 C 236.5416 249.23273 238.35652 249.5 240.22852 249.5 C 242.35474 249.5 244.15761 249.1764 245.63672 248.5293 C 247.11583 247.88218 248.21324 247.01395 248.92969 245.92773 C 249.66924 244.84151 250.03906 243.6295 250.03906 242.28906 C 250.03906 240.7175 249.62302 239.46936 248.79102 238.54492 C 247.98213 237.62048 246.9993 236.93911 245.84375 236.5 C 244.68819 236.03778 243.20892 235.59764 241.40625 235.18164 C 240.08892 234.85809 239.04978 234.56868 238.28711 234.31445 C 237.52444 234.06023 236.8893 233.7145 236.38086 233.27539 C 235.89553 232.83628 235.65234 232.26951 235.65234 231.57617 C 235.65234 230.58239 236.08044 229.78448 236.93555 229.18359 C 237.81377 228.5827 239.14232 228.2832 240.92188 228.2832 C 242.0081 228.2832 243.1296 228.44597 244.28516 228.76953 C 245.44071 229.09308 246.55017 229.56545 247.61328 230.18945 L 249.0332 226.68945 C 247.9932 225.99612 246.75711 225.46353 245.32422 225.09375 C 243.89133 224.72397 242.43614 224.53906 240.95703 224.53906 z M 49.960938 224.88672 L 49.960938 249.15234 L 60.568359 249.15234 C 63.156804 249.15234 65.45613 248.65589 67.466797 247.66211 C 69.477464 246.64522 71.039104 245.22422 72.148438 243.39844 C 73.257771 241.54955 73.8125 239.42309 73.8125 237.01953 C 73.8125 234.61598 73.257771 232.50156 72.148438 230.67578 C 71.039104 228.82689 69.477464 227.40589 67.466797 226.41211 C 65.45613 225.39522 63.156804 224.88672 60.568359 224.88672 L 49.960938 224.88672 z M 78.601562 224.88672 L 78.601562 249.15234 L 96.800781 249.15234 L 96.800781 245.37305 L 83.107422 245.37305 L 83.107422 238.68359 L 94.826172 238.68359 L 94.826172 234.97461 L 83.107422 234.97461 L 83.107422 228.66406 L 96.316406 228.66406 L 96.316406 224.88672 L 78.601562 224.88672 z M 101.82617 224.88672 L 101.82617 249.15234 L 106.33203 249.15234 L 106.33203 242.08008 L 111.80859 242.08008 C 112.22459 242.08008 112.53809 242.06806 112.74609 242.04492 L 117.70312 249.15234 L 122.55664 249.15234 L 116.97461 241.17969 C 118.63861 240.53258 119.91084 239.54976 120.78906 238.23242 C 121.6904 236.91509 122.14062 235.34336 122.14062 233.51758 C 122.14062 231.73802 121.72458 230.20243 120.89258 228.9082 C 120.06058 227.61398 118.85867 226.61911 117.28711 225.92578 C 115.73867 225.23245 113.91171 224.88672 111.80859 224.88672 L 101.82617 224.88672 z M 127.14844 224.88672 L 127.14844 249.15234 L 145.34766 249.15234 L 145.34766 245.37305 L 131.6543 245.37305 L 131.6543 238.68359 L 143.37305 238.68359 L 143.37305 234.97461 L 131.6543 234.97461 L 131.6543 228.66406 L 144.86328 228.66406 L 144.86328 224.88672 L 127.14844 224.88672 z M 175.42383 224.88672 L 175.42383 249.15234 L 179.93164 249.15234 L 179.93164 238.75195 L 192.48047 238.75195 L 192.48047 249.15234 L 196.98633 249.15234 L 196.98633 224.88672 L 192.48047 224.88672 L 192.48047 234.9043 L 179.93164 234.9043 L 179.93164 224.88672 L 175.42383 224.88672 z M 214.85938 228.49219 C 216.47716 228.49219 217.93234 228.86005 219.22656 229.59961 C 220.52079 230.31605 221.53779 231.33306 222.27734 232.65039 C 223.0169 233.94462 223.38672 235.40176 223.38672 237.01953 C 223.38672 238.63731 223.0169 240.10454 222.27734 241.42188 C 221.53779 242.7161 220.52079 243.7331 219.22656 244.47266 C 217.93234 245.1891 216.47716 245.54688 214.85938 245.54688 C 213.2416 245.54688 211.78641 245.1891 210.49219 244.47266 C 209.19797 243.7331 208.18096 242.7161 207.44141 241.42188 C 206.70185 240.10454 206.33203 238.63731 206.33203 237.01953 C 206.33203 235.40176 206.70185 233.94462 207.44141 232.65039 C 208.18096 231.33306 209.19797 230.31605 210.49219 229.59961 C 211.78641 228.86005 213.2416 228.49219 214.85938 228.49219 z M 54.466797 228.69922 L 60.361328 228.69922 C 62.140883 228.69922 63.700571 229.04495 65.041016 229.73828 C 66.404572 230.40851 67.443712 231.37928 68.160156 232.65039 C 68.899712 233.89839 69.269531 235.35553 69.269531 237.01953 C 69.269531 238.68353 68.899712 240.15076 68.160156 241.42188 C 67.443712 242.66988 66.404572 243.64065 65.041016 244.33398 C 63.700571 245.0042 62.140883 245.33984 60.361328 245.33984 L 54.466797 245.33984 L 54.466797 228.69922 z M 106.33203 228.69922 L 111.60156 228.69922 C 113.56601 228.69922 115.05733 229.11527 116.07422 229.94727 C 117.09111 230.77927 117.59961 231.96913 117.59961 233.51758 C 117.59961 235.06602 117.09111 236.26794 116.07422 237.12305 C 115.05733 237.95505 113.56601 238.37109 111.60156 238.37109 L 106.33203 238.37109 L 106.33203 228.69922 z M 53.005859 262.67578 C 50.879637 262.67578 49.076768 262.99742 47.597656 263.64453 C 46.141656 264.29164 45.044243 265.16996 44.304688 266.2793 C 43.588244 267.36552 43.228516 268.57948 43.228516 269.91992 C 43.228516 271.51459 43.634471 272.78682 44.443359 273.73438 C 45.275359 274.65882 46.256227 275.34018 47.388672 275.7793 C 48.544227 276.2184 50.047595 276.65659 51.896484 277.0957 C 53.213818 277.41926 54.252958 277.70866 55.015625 277.96289 C 55.778292 278.21711 56.403339 278.57489 56.888672 279.03711 C 57.397117 279.47622 57.650391 280.04299 57.650391 280.73633 C 57.650391 281.68389 57.200161 282.44566 56.298828 283.02344 C 55.420605 283.60122 54.08001 283.89062 52.277344 283.89062 C 50.821344 283.89063 49.364203 283.64744 47.908203 283.16211 C 46.475314 282.65366 45.263309 282.00648 44.269531 281.2207 L 42.708984 284.72266 C 43.725873 285.60088 45.100651 286.30633 46.833984 286.83789 C 48.590429 287.36944 50.405344 287.63477 52.277344 287.63477 C 54.403566 287.63477 56.206436 287.31118 57.685547 286.66406 C 59.164658 286.01696 60.262071 285.15068 60.978516 284.06445 C 61.718071 282.97823 62.087891 281.76427 62.087891 280.42383 C 62.087891 278.85227 61.671844 277.60413 60.839844 276.67969 C 60.030955 275.75524 59.048134 275.07387 57.892578 274.63477 C 56.737023 274.17254 55.257745 273.73436 53.455078 273.31836 C 52.137745 272.99481 51.098604 272.70539 50.335938 272.45117 C 49.573271 272.19695 48.938132 271.84926 48.429688 271.41016 C 47.944354 270.97104 47.701172 270.40622 47.701172 269.71289 C 47.701172 268.71911 48.129264 267.9212 48.984375 267.32031 C 49.862597 266.71943 51.191148 266.41797 52.970703 266.41797 C 54.056926 266.41797 55.178429 266.58074 56.333984 266.9043 C 57.48954 267.22785 58.597046 267.70217 59.660156 268.32617 L 61.082031 264.82422 C 60.042031 264.13089 58.805936 263.5983 57.373047 263.22852 C 55.940158 262.85874 54.484971 262.67578 53.005859 262.67578 z M 156.63477 262.67578 C 154.18499 262.67578 151.96802 263.21847 149.98047 264.30469 C 148.01602 265.3678 146.46643 266.84708 145.33398 268.74219 C 144.20154 270.6373 143.63477 272.77385 143.63477 275.1543 C 143.63477 277.53474 144.18949 279.67325 145.29883 281.56836 C 146.43127 283.46347 147.98087 284.9548 149.94531 286.04102 C 151.93287 287.10413 154.15178 287.63477 156.60156 287.63477 C 158.58912 287.63477 160.40208 287.28904 162.04297 286.5957 C 163.70697 285.90237 165.10584 284.89546 166.23828 283.57812 L 163.32617 280.80469 C 161.56973 282.72291 159.40908 283.68359 156.84375 283.68359 C 155.17975 283.68359 153.68843 283.32387 152.37109 282.60742 C 151.05376 281.86787 150.02667 280.85087 149.28711 279.55664 C 148.54756 278.26242 148.17773 276.79518 148.17773 275.1543 C 148.17773 273.5134 148.54756 272.04617 149.28711 270.75195 C 150.02667 269.45773 151.05376 268.45277 152.37109 267.73633 C 153.68843 266.99677 155.17975 266.62695 156.84375 266.62695 C 159.40908 266.62695 161.56973 267.57364 163.32617 269.46875 L 166.23828 266.73047 C 165.10584 265.41314 163.71902 264.40818 162.07812 263.71484 C 160.43724 263.02151 158.62232 262.67578 156.63477 262.67578 z M 248.20898 262.67578 C 246.08276 262.67578 244.27989 262.99742 242.80078 263.64453 C 241.34478 264.29164 240.24737 265.16996 239.50781 266.2793 C 238.79137 267.36552 238.43164 268.57948 238.43164 269.91992 C 238.43164 271.51459 238.8376 272.78682 239.64648 273.73438 C 240.47848 274.65882 241.45935 275.34018 242.5918 275.7793 C 243.74735 276.2184 245.25072 276.65659 247.09961 277.0957 C 248.41694 277.41926 249.45608 277.70866 250.21875 277.96289 C 250.98142 278.21711 251.60646 278.57489 252.0918 279.03711 C 252.60024 279.47622 252.85352 280.04299 252.85352 280.73633 C 252.85352 281.68389 252.40329 282.44566 251.50195 283.02344 C 250.62373 283.60122 249.28314 283.89062 247.48047 283.89062 C 246.02447 283.89063 244.56733 283.64744 243.11133 283.16211 C 241.67843 282.65366 240.46643 282.00648 239.47266 281.2207 L 237.91211 284.72266 C 238.929 285.60088 240.30378 286.30633 242.03711 286.83789 C 243.79356 287.36944 245.60847 287.63477 247.48047 287.63477 C 249.60669 287.63477 251.40956 287.31118 252.88867 286.66406 C 254.36778 286.01696 255.46519 285.15068 256.18164 284.06445 C 256.92119 282.97823 257.29102 281.76427 257.29102 280.42383 C 257.29102 278.85227 256.87497 277.60413 256.04297 276.67969 C 255.23408 275.75524 254.25126 275.07387 253.0957 274.63477 C 251.94014 274.17254 250.46087 273.73436 248.6582 273.31836 C 247.34087 272.99481 246.30173 272.70539 245.53906 272.45117 C 244.7764 272.19695 244.14125 271.84926 243.63281 271.41016 C 243.14748 270.97104 242.9043 270.40622 242.9043 269.71289 C 242.9043 268.71911 243.33239 267.9212 244.1875 267.32031 C 245.06573 266.71943 246.39427 266.41797 248.17383 266.41797 C 249.26005 266.41797 250.38155 266.58074 251.53711 266.9043 C 252.69266 267.22785 253.80017 267.70217 254.86328 268.32617 L 256.28516 264.82422 C 255.24516 264.13089 254.00906 263.5983 252.57617 263.22852 C 251.14328 262.85874 249.68809 262.67578 248.20898 262.67578 z M 66.556641 263.02148 L 66.556641 287.28906 L 71.0625 287.28906 L 71.0625 263.02148 L 66.556641 263.02148 z M 77.59375 263.02148 L 77.59375 287.28906 L 82.064453 287.28906 L 82.064453 270.85547 L 95.447266 287.28906 L 99.15625 287.28906 L 99.15625 263.02148 L 94.683594 263.02148 L 94.683594 279.45312 L 81.302734 263.02148 L 77.59375 263.02148 z M 105.69141 263.02148 L 105.69141 287.28906 L 116.30078 287.28906 C 118.88923 287.28906 121.18855 286.79065 123.19922 285.79688 C 125.20989 284.77998 126.76957 283.35898 127.87891 281.5332 C 128.98824 279.68431 129.54297 277.55785 129.54297 275.1543 C 129.54297 272.75074 128.98824 270.63632 127.87891 268.81055 C 126.76957 266.96165 125.20989 265.54065 123.19922 264.54688 C 121.18855 263.52998 118.88923 263.02148 116.30078 263.02148 L 105.69141 263.02148 z M 134.33203 263.02148 L 134.33203 287.28906 L 138.83984 287.28906 L 138.83984 263.02148 L 134.33203 263.02148 z M 177.50195 263.02148 L 166.58203 287.28906 L 171.22852 287.28906 L 173.62109 281.67188 L 185.75391 281.67188 L 188.17969 287.28906 L 192.89453 287.28906 L 181.93945 263.02148 L 177.50195 263.02148 z M 195.94727 263.02148 L 195.94727 287.28906 L 213.14258 287.28906 L 213.14258 283.47461 L 200.45312 283.47461 L 200.45312 263.02148 L 195.94727 263.02148 z M 216.73438 263.02148 L 216.73438 287.28906 L 234.93359 287.28906 L 234.93359 283.50977 L 221.24023 283.50977 L 221.24023 276.81836 L 232.95703 276.81836 L 232.95703 273.10938 L 221.24023 273.10938 L 221.24023 266.80078 L 234.44922 266.80078 L 234.44922 263.02148 L 216.73438 263.02148 z M 110.19922 266.83398 L 116.0918 266.83398 C 117.87136 266.83398 119.43104 267.18167 120.77148 267.875 C 122.13504 268.54522 123.17614 269.516 123.89258 270.78711 C 124.63214 272.03511 125.00195 273.4903 125.00195 275.1543 C 125.00195 276.8183 124.63214 278.28553 123.89258 279.55664 C 123.17614 280.80465 122.13504 281.77542 120.77148 282.46875 C 119.43104 283.13897 117.87136 283.47461 116.0918 283.47461 L 110.19922 283.47461 L 110.19922 266.83398 z M 179.6875 267.52734 L 184.26367 278.13672 L 175.14648 278.13672 L 179.6875 267.52734 z "
     style="font-style:normal;font-variant:normal;font-weight:600;font-stretch:normal;font-size:34.66666794px;font-family:Montserrat;-inkscape-font-specification:'Montserrat Semi-Bold';fill:#ffffff;fill-opacity:1"
     id="path984"
     d="m 161.50391,224.53906 c -2.44978,0 -4.6687,0.54268 -6.65625,1.62891 -1.96445,1.06311 -3.51209,2.54239 -4.64454,4.4375 -1.13244,1.89511 -1.69921,4.03362 -1.69921,6.41406 0,2.38045 0.55473,4.517 1.66406,6.41211 1.13244,1.89511 2.68008,3.38643 4.64453,4.47266 1.98755,1.0631 4.20647,1.5957 6.65625,1.5957 1.98755,0 3.80247,-0.34768 5.44336,-1.04102 1.664,-0.69333 3.06092,-1.69829 4.19336,-3.01562 l -2.91211,-2.77344 c -1.75644,1.91822 -3.91709,2.87695 -6.48242,2.87696 -1.664,0 -3.15337,-0.35778 -4.47071,-1.07422 -1.31733,-0.73956 -2.34637,-1.75657 -3.08593,-3.05078 -0.73956,-1.29423 -1.10938,-2.76146 -1.10938,-4.40235 0,-1.64089 0.36982,-3.10812 1.10938,-4.40234 0.73956,-1.29423 1.7686,-2.30114 3.08593,-3.01758 1.31734,-0.73956 2.80671,-1.10742 4.47071,-1.10742 2.56533,0 4.72598,0.94668 6.48242,2.84179 l 2.91211,-2.73828 c -1.13244,-1.31733 -2.51731,-2.32229 -4.1582,-3.01562 -1.64089,-0.69334 -3.45581,-1.04102 -5.44336,-1.04102 z m 53.35547,0 c -2.47289,0 -4.70386,0.54268 -6.69141,1.62891 -1.98756,1.06311 -3.54725,2.55443 -4.67969,4.47265 -1.13245,1.89511 -1.69726,4.02158 -1.69726,6.37891 0,2.35733 0.56481,4.49388 1.69726,6.41211 1.13244,1.89511 2.69213,3.38643 4.67969,4.47266 1.98755,1.0631 4.21852,1.5957 6.69141,1.5957 2.47289,0 4.70385,-0.5326 6.6914,-1.5957 1.98755,-1.08623 3.54724,-2.57755 4.67969,-4.47266 1.13245,-1.89511 1.69922,-4.03166 1.69922,-6.41211 0,-2.38044 -0.56677,-4.51895 -1.69922,-6.41406 -1.13245,-1.89511 -2.69214,-3.37439 -4.67969,-4.4375 -1.98755,-1.08623 -4.21851,-1.62891 -6.6914,-1.62891 z m 26.09765,0 c -2.12623,0 -3.9291,0.32359 -5.4082,0.97071 -1.456,0.64711 -2.55341,1.52543 -3.29297,2.63476 -0.71644,1.08622 -1.07617,2.30018 -1.07617,3.64063 0,1.59466 0.40595,2.86494 1.21484,3.8125 0.832,0.92444 1.81287,1.60581 2.94531,2.04492 1.15556,0.43911 2.65893,0.87924 4.50782,1.31836 1.31733,0.32355 2.35647,0.61296 3.11914,0.86718 0.76266,0.25423 1.38771,0.612 1.87304,1.07422 0.50845,0.43912 0.76172,1.00394 0.76172,1.69727 0,0.94755 -0.45023,1.71128 -1.35156,2.28906 -0.87822,0.57778 -2.21882,0.86719 -4.02148,0.86719 -1.456,0 -2.91119,-0.24318 -4.36719,-0.72852 -1.4329,-0.50844 -2.64685,-1.15562 -3.64063,-1.9414 l -1.56054,3.50195 c 1.01688,0.87823 2.39166,1.58173 4.125,2.11328 1.75644,0.53156 3.57136,0.79883 5.44336,0.79883 2.12622,0 3.92909,-0.3236 5.4082,-0.9707 1.47911,-0.64712 2.57652,-1.51535 3.29297,-2.60157 0.73955,-1.08622 1.10937,-2.29823 1.10937,-3.63867 0,-1.57156 -0.41604,-2.8197 -1.24804,-3.74414 -0.80889,-0.92444 -1.79172,-1.60581 -2.94727,-2.04492 -1.15556,-0.46222 -2.63483,-0.90236 -4.4375,-1.31836 -1.31733,-0.32355 -2.35647,-0.61296 -3.11914,-0.86719 -0.76267,-0.25422 -1.39781,-0.59995 -1.90625,-1.03906 -0.48533,-0.43911 -0.72852,-1.00588 -0.72852,-1.69922 0,-0.99378 0.4281,-1.79169 1.28321,-2.39258 0.87822,-0.60089 2.20677,-0.90039 3.98633,-0.90039 1.08622,0 2.20772,0.16277 3.36328,0.48633 1.15555,0.32355 2.26501,0.79592 3.32812,1.41992 l 1.41992,-3.5 c -1.04,-0.69333 -2.27609,-1.22592 -3.70898,-1.5957 -1.43289,-0.36978 -2.88808,-0.55469 -4.36719,-0.55469 z m -190.996092,0.34766 v 24.26562 h 10.607421 c 2.588445,0 4.887771,-0.49645 6.898438,-1.49023 2.010667,-1.01689 3.572307,-2.43789 4.681641,-4.26367 1.109333,-1.84889 1.664062,-3.97535 1.664062,-6.37891 0,-2.40355 -0.554729,-4.51797 -1.664062,-6.34375 -1.109334,-1.84889 -2.670974,-3.26989 -4.681641,-4.26367 -2.010667,-1.01689 -4.309993,-1.52539 -6.898438,-1.52539 z m 28.640624,0 v 24.26562 h 18.199219 v -3.77929 H 83.107422 v -6.68946 h 11.71875 v -3.70898 h -11.71875 v -6.31055 h 13.208984 v -3.77734 z m 23.224608,0 v 24.26562 h 4.50586 v -7.07226 h 5.47656 c 0.416,0 0.7295,-0.012 0.9375,-0.0352 l 4.95703,7.10742 h 4.85352 l -5.58203,-7.97265 c 1.664,-0.64711 2.93623,-1.62993 3.81445,-2.94727 0.90134,-1.31733 1.35156,-2.88906 1.35156,-4.71484 0,-1.77956 -0.41604,-3.31515 -1.24804,-4.60938 -0.832,-1.29422 -2.03391,-2.28909 -3.60547,-2.98242 -1.54844,-0.69333 -3.3754,-1.03906 -5.47852,-1.03906 z m 25.32227,0 v 24.26562 h 18.19922 v -3.77929 H 131.6543 v -6.68946 h 11.71875 v -3.70898 H 131.6543 v -6.31055 h 13.20898 v -3.77734 z m 48.27539,0 v 24.26562 h 4.50781 v -10.40039 h 12.54883 v 10.40039 h 4.50586 v -24.26562 h -4.50586 v 10.01758 h -12.54883 v -10.01758 z m 39.43555,3.60547 c 1.61778,0 3.07296,0.36786 4.36718,1.10742 1.29423,0.71644 2.31123,1.73345 3.05078,3.05078 0.73956,1.29423 1.10938,2.75137 1.10938,4.36914 0,1.61778 -0.36982,3.08501 -1.10938,4.40235 -0.73955,1.29422 -1.75655,2.31122 -3.05078,3.05078 -1.29422,0.71644 -2.7494,1.07422 -4.36718,1.07422 -1.61778,0 -3.07297,-0.35778 -4.36719,-1.07422 -1.29422,-0.73956 -2.31123,-1.75656 -3.05078,-3.05078 -0.73956,-1.31734 -1.10938,-2.78457 -1.10938,-4.40235 0,-1.61777 0.36982,-3.07491 1.10938,-4.36914 0.73955,-1.31733 1.75656,-2.33434 3.05078,-3.05078 1.29422,-0.73956 2.74941,-1.10742 4.36719,-1.10742 z m -160.392583,0.20703 h 5.894531 c 1.779555,0 3.339243,0.34573 4.679688,1.03906 1.363556,0.67023 2.402696,1.641 3.11914,2.91211 0.739556,1.248 1.109375,2.70514 1.109375,4.36914 0,1.664 -0.369819,3.13123 -1.109375,4.40235 -0.716444,1.248 -1.755584,2.21877 -3.11914,2.9121 -1.340445,0.67022 -2.900133,1.00586 -4.679688,1.00586 h -5.894531 z m 51.865233,0 h 5.26953 c 1.96445,0 3.45577,0.41605 4.47266,1.24805 1.01689,0.832 1.52539,2.02186 1.52539,3.57031 0,1.54844 -0.5085,2.75036 -1.52539,3.60547 -1.01689,0.832 -2.50821,1.24804 -4.47266,1.24804 h -5.26953 z m -53.326171,33.97656 c -2.126222,0 -3.929091,0.32164 -5.408203,0.96875 -1.456,0.64711 -2.553413,1.52543 -3.292968,2.63477 -0.716444,1.08622 -1.076172,2.30018 -1.076172,3.64062 0,1.59467 0.405955,2.8669 1.214843,3.81446 0.832,0.92444 1.812868,1.6058 2.945313,2.04492 1.155555,0.4391 2.658923,0.87729 4.507812,1.3164 1.317334,0.32356 2.356474,0.61296 3.119141,0.86719 0.762667,0.25422 1.387714,0.612 1.873047,1.07422 0.508445,0.43911 0.761719,1.00588 0.761719,1.69922 0,0.94756 -0.45023,1.70933 -1.351563,2.28711 -0.878223,0.57778 -2.218818,0.86718 -4.021484,0.86718 -1.456,10e-6 -2.913141,-0.24318 -4.369141,-0.72851 -1.432889,-0.50845 -2.644894,-1.15563 -3.638672,-1.94141 l -1.560547,3.50196 c 1.016889,0.87822 2.391667,1.58367 4.125,2.11523 1.756445,0.53155 3.57136,0.79688 5.44336,0.79688 2.126222,0 3.929092,-0.32359 5.408203,-0.97071 1.479111,-0.6471 2.576524,-1.51338 3.292969,-2.59961 0.739555,-1.08622 1.109375,-2.30018 1.109375,-3.64062 0,-1.57156 -0.416047,-2.8197 -1.248047,-3.74414 -0.808889,-0.92445 -1.79171,-1.60582 -2.947266,-2.04492 -1.155555,-0.46223 -2.634833,-0.90041 -4.4375,-1.31641 -1.317333,-0.32355 -2.356474,-0.61297 -3.11914,-0.86719 -0.762667,-0.25422 -1.397806,-0.60191 -1.90625,-1.04101 -0.485334,-0.43912 -0.728516,-1.00394 -0.728516,-1.69727 0,-0.99378 0.428092,-1.79169 1.283203,-2.39258 0.878222,-0.60088 2.206773,-0.90234 3.986328,-0.90234 1.086223,0 2.207726,0.16277 3.363281,0.48633 1.155556,0.32355 2.263062,0.79787 3.326172,1.42187 l 1.421875,-3.50195 c -1.04,-0.69333 -2.276095,-1.22592 -3.708984,-1.5957 -1.432889,-0.36978 -2.888076,-0.55274 -4.367188,-0.55274 z m 103.628911,0 c -2.44978,0 -4.66675,0.54269 -6.6543,1.62891 -1.96445,1.06311 -3.51404,2.54239 -4.64649,4.4375 -1.13244,1.89511 -1.69921,4.03166 -1.69921,6.41211 0,2.38044 0.55472,4.51895 1.66406,6.41406 1.13244,1.89511 2.68204,3.38644 4.64648,4.47266 1.98756,1.06311 4.20647,1.59375 6.65625,1.59375 1.98756,0 3.80052,-0.34573 5.44141,-1.03907 1.664,-0.69333 3.06287,-1.70024 4.19531,-3.01758 l -2.91211,-2.77343 c -1.75644,1.91822 -3.91709,2.8789 -6.48242,2.8789 -1.664,0 -3.15532,-0.35972 -4.47266,-1.07617 -1.31733,-0.73955 -2.34442,-1.75655 -3.08398,-3.05078 -0.73955,-1.29422 -1.10938,-2.76146 -1.10938,-4.40234 0,-1.6409 0.36983,-3.10813 1.10938,-4.40235 0.73956,-1.29422 1.76665,-2.29918 3.08398,-3.01562 1.31734,-0.73956 2.80866,-1.10938 4.47266,-1.10938 2.56533,0 4.72598,0.94669 6.48242,2.8418 l 2.91211,-2.73828 c -1.13244,-1.31733 -2.51926,-2.32229 -4.16016,-3.01563 -1.64088,-0.69333 -3.4558,-1.03906 -5.44335,-1.03906 z m 91.57421,0 c -2.12622,0 -3.92909,0.32164 -5.4082,0.96875 -1.456,0.64711 -2.55341,1.52543 -3.29297,2.63477 -0.71644,1.08622 -1.07617,2.30018 -1.07617,3.64062 0,1.59467 0.40596,2.8669 1.21484,3.81446 0.832,0.92444 1.81287,1.6058 2.94532,2.04492 1.15555,0.4391 2.65892,0.87729 4.50781,1.3164 1.31733,0.32356 2.35647,0.61296 3.11914,0.86719 0.76267,0.25422 1.38771,0.612 1.87305,1.07422 0.50844,0.43911 0.76172,1.00588 0.76172,1.69922 0,0.94756 -0.45023,1.70933 -1.35157,2.28711 -0.87822,0.57778 -2.21881,0.86718 -4.02148,0.86718 -1.456,10e-6 -2.91314,-0.24318 -4.36914,-0.72851 -1.4329,-0.50845 -2.6449,-1.15563 -3.63867,-1.94141 l -1.56055,3.50196 c 1.01689,0.87822 2.39167,1.58367 4.125,2.11523 1.75645,0.53155 3.57136,0.79688 5.44336,0.79688 2.12622,0 3.92909,-0.32359 5.4082,-0.97071 1.47911,-0.6471 2.57652,-1.51338 3.29297,-2.59961 0.73955,-1.08622 1.10938,-2.30018 1.10938,-3.64062 0,-1.57156 -0.41605,-2.8197 -1.24805,-3.74414 -0.80889,-0.92445 -1.79171,-1.60582 -2.94727,-2.04492 -1.15556,-0.46223 -2.63483,-0.90041 -4.4375,-1.31641 -1.31733,-0.32355 -2.35647,-0.61297 -3.11914,-0.86719 -0.76266,-0.25422 -1.39781,-0.60191 -1.90625,-1.04101 -0.48533,-0.43912 -0.72851,-1.00394 -0.72851,-1.69727 0,-0.99378 0.42809,-1.79169 1.2832,-2.39258 0.87823,-0.60088 2.20677,-0.90234 3.98633,-0.90234 1.08622,0 2.20772,0.16277 3.36328,0.48633 1.15555,0.32355 2.26306,0.79787 3.32617,1.42187 l 1.42188,-3.50195 c -1.04,-0.69333 -2.2761,-1.22592 -3.70899,-1.5957 -1.43289,-0.36978 -2.88808,-0.55274 -4.36719,-0.55274 z m -181.652339,0.3457 v 24.26758 H 71.0625 v -24.26758 z m 11.037109,0 v 24.26758 h 4.470703 v -16.43359 l 13.382813,16.43359 h 3.708984 v -24.26758 h -4.472656 v 16.43164 l -13.38086,-16.43164 z m 28.09766,0 v 24.26758 h 10.60937 c 2.58845,0 4.88777,-0.49841 6.89844,-1.49218 2.01067,-1.0169 3.57035,-2.4379 4.67969,-4.26368 1.10933,-1.84889 1.66406,-3.97535 1.66406,-6.3789 0,-2.40356 -0.55473,-4.51798 -1.66406,-6.34375 -1.10934,-1.8489 -2.66902,-3.2699 -4.67969,-4.26367 -2.01067,-1.0169 -4.30999,-1.5254 -6.89844,-1.5254 z m 28.64062,0 v 24.26758 h 4.50781 v -24.26758 z m 43.16992,0 -10.91992,24.26758 h 4.64649 l 2.39257,-5.61718 h 12.13282 l 2.42578,5.61718 h 4.71484 l -10.95508,-24.26758 z m 18.44532,0 v 24.26758 h 17.19531 v -3.81445 h -12.68946 v -20.45313 z m 20.78711,0 v 24.26758 h 18.19921 v -3.77929 h -13.69336 v -6.69141 h 11.7168 v -3.70898 h -11.7168 v -6.3086 h 13.20899 v -3.7793 z m -106.53516,3.8125 h 5.89258 c 1.77956,0 3.33924,0.34769 4.67968,1.04102 1.36356,0.67022 2.40466,1.641 3.1211,2.91211 0.73956,1.248 1.10937,2.70319 1.10937,4.36719 0,1.664 -0.36981,3.13123 -1.10937,4.40234 -0.71644,1.24801 -1.75754,2.21878 -3.1211,2.91211 -1.34044,0.67022 -2.90012,1.00586 -4.67968,1.00586 h -5.89258 z m 69.48828,0.69336 4.57617,10.60938 h -9.11719 z" /></g></svg>