<?xml version="1.0" encoding="utf-8"?>
<!-- Generator: Adobe Illustrator 16.0.0, SVG Export Plug-In . SVG Version: 6.00 Build 0)  -->
<!DOCTYPE svg PUBLIC "-//W3C//DTD SVG 1.0//EN" "http://www.w3.org/TR/2001/REC-SVG-20010904/DTD/svg10.dtd">
<svg version="1.0" id="Capa_1" xmlns="http://www.w3.org/2000/svg" xmlns:xlink="http://www.w3.org/1999/xlink" x="0px" y="0px"
	 width="300px" height="300px" viewBox="0 0 300 300" enable-background="new 0 0 300 300" xml:space="preserve">
<g>
	<g>
		<path fill="#3CF424" d="M242.634,299.971H57.425c-31.552,0-57.367-25.815-57.367-57.366V57.395
			c0-31.551,25.815-57.365,57.367-57.365h185.209C274.186,0.029,300,25.844,300,57.395v185.21
			C300,274.155,274.186,299.971,242.634,299.971"/>
		<g opacity="0.4">
			<path fill="#FFFFFF" d="M222.12,92.874c-0.622-0.423-1.266-0.82-1.911-1.219c-0.259-0.16-0.517-0.32-0.773-0.483
				c-0.515-0.324-1.022-0.657-1.517-1.01c-0.247-0.177-0.49-0.357-0.728-0.545c-0.413-0.327-0.812-0.672-1.188-1.047
				c-0.376-0.375-0.729-0.779-1.05-1.223c-1.287-0.166-2.318-0.868-3.364-1.565c-0.529-0.353-1.207-1.105-1.771-0.451
				c-2.188,2.541-3.439,0.018-4.691-0.972c-0.549-0.435-0.689-0.874-0.624-1.307c0.392-0.643,0.767-1.295,1.126-1.958
				c0.056-0.084,0.106-0.166,0.15-0.247c2.064-3.852,3.513-7.84,4.357-11.919c0.686-3.163,1.057-6.444,1.057-9.812
				c0-25.473-20.649-46.122-46.122-46.122c-25.209,0-45.681,20.227-46.103,45.334c-0.128,0.555-0.2,1.139-0.179,1.775
				c0.403,11.621,4.311,21.555,11.795,29.626c8.449,9.511,20.765,15.509,34.486,15.509c11.493,0,21.995-4.213,30.071-11.167
				c1.293-1.039,2.535-2.176,3.71-3.442c0.795-0.856,1.62-0.45,2.299,0.115c0.897,0.749,2.953,1.146,2.353,2.448
				c-1.081,2.345,0.609,2.754,1.777,3.753c2.517,2.153,5.868,3.279,7.709,6.261c1.398-0.058,2.64,0.511,3.803,1.146
				c1.676,0.913,2.606,0.457,3.303-1.246c0.905-2.211,1.853-4.42,3.001-6.511C224.03,94.897,223.717,93.959,222.12,92.874z
				 M165.163,97.973c-21.469,0-38.872-17.404-38.872-38.873s17.403-38.873,38.872-38.873s38.873,17.404,38.873,38.873
				S186.632,97.973,165.163,97.973z"/>
			<path fill="#FFFFFF" d="M280.052,133.43c-0.877-0.653-1.858-1.18-2.777-1.784c-0.229-0.151-0.456-0.309-0.675-0.473
				c-0.438-0.329-0.852-0.69-1.218-1.111c-0.184-0.21-0.354-0.436-0.512-0.679c-3.83,0.827-7.69,1.535-11.477,2.531
				c-1.979,0.522-4.231,0.323-5.884,1.891c4.34,4.269,9.669,7.216,14.495,10.834c1.052,0.79,1.781,0.131,2.424-0.684
				c2.025-2.572,4.02-5.172,6.091-7.707C281.501,135.046,281.229,134.307,280.052,133.43z"/>
		</g>
		<g>
			<path fill="#FFFFFF" d="M186.299,169.846c-18.866,7.771-37.726,15.557-56.61,23.281c-1.017,0.416-2.367,1.887-3.29-0.351
				c-1.427-3.455-1.247-4.529,1.176-5.495c3.309-1.318,6.624-2.615,9.938-3.918c17.914-7.043,35.828-14.081,53.738-21.134
				c2.272-0.896,2.901-3.386,1.407-6.776c-1.025-2.33-2.533-0.272-3.537,0.138c-20.671,8.44-41.291,17.005-61.957,25.461
				c-1.066,0.438-2.756,2.461-3.591-0.338c-0.556-1.86-2.388-3.769,1.135-5.215c6.583-2.701,12.942-5.944,19.393-8.965
				c16.736-7.838,33.448-15.729,50.237-23.452c2.271-1.046,2.816-2.116,1.957-4.353c-0.652-1.696-1.146-3.494-1.414-5.29
				c-0.414-2.775-1.333-3.293-4.076-2.075c-23.226,10.307-46.544,20.402-69.771,30.704c-2.405,1.067-3.64,0.677-5.303-1.203
				c-8.491-9.593-17.129-19.06-25.73-28.556c-4.606-5.084-4.57-5.012-9.873-0.619c-1.583,1.312-1.963,2.405-1.146,4.378
				c3.427,8.268,6.675,16.608,9.981,24.926c1.245,3.133,1.235,3.197-1.97,3.201c-28.021,0.037-56.023,2.209-84.066,0.77
				c-1.671-0.086-2.52-0.408-2.927-1.229v52.04c0.587-2.576,2.381-2.74,7.88-3.52c14.545-2.062,29.054-4.37,43.571-6.617
				c9.738-1.509,19.514-2.774,29.103-5.198c4.271-1.079,8.721-1.446,13.085-2.164c2.041-0.334,3.887-0.104,5.806,0.887
				c7.354,3.802,14.822,7.379,22.18,11.172c2.095,1.08,3.945,1.302,6.267,0.603c16.678-5.02,33.398-9.896,50.112-14.795
				c6.009-1.762,5.94-1.731,5.568-7.913c-0.118-1.94-0.791-1.979-2.293-1.385c-2.773,1.098-5.595,2.071-8.395,3.103
				c-13.274,4.891-26.542,9.798-39.833,14.644c-0.892,0.325-1.863,1.313-2.92,0.325c-2.017-1.885-1.452-4.99,1.063-5.955
				c18.513-7.094,37.025-14.188,55.539-21.277c3.929-1.505,3.931-1.5,3.304-5.65C189.507,168.531,189.505,168.525,186.299,169.846z"
				/>
			<path fill="#FFFFFF" d="M300,100.482c-8.451,1.359-19.977,2.854-28.401,4.371c-1.992,0.358-3.704,0.016-5.521-0.9
				c-11.335-5.722-22.722-11.341-34.095-16.988c-1.11-0.552-2.169-1.16-3.533-1.013c-1.101,0.119-2.201,0.233-3.303,0.343
				c-3.303,0.328-6.609,0.621-9.914,0.935c0.321,0.444,0.674,0.848,1.049,1.224c0.375,0.374,0.774,0.72,1.188,1.046
				c0.238,0.188,0.48,0.369,0.728,0.546c0.493,0.353,1.003,0.685,1.517,1.01c0.257,0.162,0.516,0.323,0.774,0.483
				c0.645,0.398,1.288,0.796,1.911,1.219c1.596,1.085,1.909,2.022,0.977,3.721c-1.147,2.09-2.096,4.3-3.001,6.511
				c-0.696,1.703-1.626,2.159-3.302,1.245c-1.164-0.633-2.404-1.202-3.804-1.145c-1.573,1.939-3.064,3.954-4.748,5.793
				c-1.237,1.351-1.042,2.373-0.037,3.755c3.333,4.583,5.808,10.145,10.019,13.634c3.957,3.28,9.697,4.408,14.654,6.481
				c1.24,0.519,2.545,0.921,3.713,1.571c3.574,1.989,7.153,2.016,11.078,0.934c3.178-0.875,6.375-2.178,9.824-1.713
				c1.652-1.568,3.904-1.369,5.884-1.891c3.786-0.996,7.646-1.704,11.477-2.531c0.195-0.081,0.392-0.152,0.589-0.215
				c1.381-0.438,2.807-0.45,4.247-0.278c5.257,0.629,14.76,1.387,20.031,1.849c0.559,0.05-0.391,0.137,0,0.267v-30.315
				C299.916,100.447,300.093,100.467,300,100.482z"/>
			<polygon fill="#FFFFFF" points="133.374,25.621 133.374,10.285 120.944,23.775 126.739,33.48 			"/>
			<path fill="#FFFFFF" d="M175.992,21.211l0.001,0.002C176.003,21.215,176.006,21.215,175.992,21.211z"/>
			<path fill="#FFFFFF" d="M172.254,52.121c1.011,1.627,1.705,1.63,2.959,0.263c3.184-3.47,6.417-6.9,9.771-10.204
				c1.412-1.39,1.583-2.447,0.546-4.191c-3.285-5.528-6.372-11.174-9.536-16.775c-0.21-0.022-5.665-1.076-5.665-1.076
				c-2.039,5.387-4.031,10.791-6.147,16.146c-0.586,1.484-0.576,2.666,0.344,4.018C167.172,44.193,169.771,48.122,172.254,52.121z"
				/>
			<path fill="#FFFFFF" d="M117.106,145.807c0.817,1.232,1.715,1.585,3.136,1.275c11.84-2.577,23.685-5.12,35.536-7.633
				c1.421-0.302,2.326-0.991,3.094-2.251c6.513-10.682,13.232-22.432,18.723-33.684c-1.094,0.293-1.994,0.445-2.846,0.608
				c-14.23,2.716-27.118-0.254-38.591-9.152c-10.536-8.17-16.752-20.969-17.194-32.034c-0.15-3.745,0.623-7.9,0.662-11.652
				c-0.02-0.159-0.911-2.762-0.932-2.932c-0.011-0.085-0.021-0.173-0.033-0.265c-0.022-0.185-0.048-0.386-0.074-0.615
				c-0.043-0.344-0.093-0.75-0.156-1.259c-3.036,4.726-5.629,8.973-8.454,13.061c-1.271,1.839-1.409,3.201-0.083,5.121
				c2.842,4.114,5.028,8.724,8.161,12.581c3.679,4.53,3.696,8.364,0.157,12.904c-2.357,3.024-3.979,6.621-6.182,10.394
				c-4.999-8.732-9.671-16.891-14.406-25.162c-0.323,0.42-0.578,0.618-0.654,0.87c-2.57,8.665-5.12,17.336-7.685,26.002
				c-0.332,1.12,0,2.032,0.626,2.969C98.995,118.558,108.07,132.17,117.106,145.807z"/>
			<path fill="#FFFFFF" d="M142.301,68.396c0.575,1.527,0.587,2.9,0.022,4.443c-1.617,4.423-3.102,8.895-4.639,13.349
				c0.229,1.365,1.28,2.075,2.25,2.866c8.495,6.924,18.371,9.47,29.085,8.648c1.334-0.104,2.668-0.244,3.988-0.456
				c0.926-0.147,1.845-0.333,2.751-0.559c0.152-0.038,0.303-0.078,0.453-0.118c0.452-0.12,0.9-0.253,1.346-0.397
				c0.217-0.071,0.431-0.145,0.644-0.222c1.549-0.552,3.044-1.269,4.459-2.203c0.473-0.312,0.936-0.647,1.389-1.01
				c0.016-0.013,0.031-0.023,0.047-0.036c1.074-2.044,2.054-4.145,3.252-6.113c0.987-1.623,0.878-2.86-0.284-4.409
				c-3.928-5.233-7.688-10.592-11.543-15.88c-0.401-0.551-0.574-1.485-1.714-1.358c-0.431,6.82-0.849,13.62-1.303,20.416
				c-0.066,0.996,0.245,2.122-0.993,2.786c-4.541,2.438-9.055,4.928-14.095,7.682c0.376-1.512,0.57-2.424,0.831-3.316
				c1.911-6.554,3.772-13.123,5.798-19.642c0.591-1.905,0.418-3.446-0.551-5.177c-6.066-10.825-12.042-21.702-18.055-32.558
				c-0.311-0.562-0.461-1.26-1.427-1.652c-1.788,5.285-3.39,10.615-5.416,15.778c-1.203,3.067-1.277,5.795,0.009,8.822
				C140.031,61.437,141.014,64.978,142.301,68.396z"/>
			<path fill="#FFFFFF" d="M135.615,84.358l1.327-9.596c0,0-4.145-3.911-10.099-9.097C127.16,72.442,132.679,80.458,135.615,84.358z
				"/>
			<path fill="#FFFFFF" d="M47.096,241.13c-0.689-0.728-1.518-1.233-2.485-1.518c-0.72-0.21-1.766-0.315-3.138-0.315H35.39v16.485
				h6.264c1.229,0,2.212-0.116,2.946-0.348c0.981-0.314,1.761-0.754,2.339-1.315c0.765-0.743,1.354-1.713,1.766-2.914
				c0.338-0.982,0.506-2.151,0.506-3.507c0-1.545-0.18-2.844-0.54-3.897C48.311,242.748,47.786,241.857,47.096,241.13z
				 M45.432,250.571c-0.225,0.737-0.516,1.268-0.871,1.591c-0.356,0.322-0.805,0.551-1.345,0.686
				c-0.412,0.104-1.083,0.158-2.013,0.158h-2.485v-10.92h1.496c1.356,0,2.268,0.053,2.731,0.157
				c0.624,0.136,1.137,0.395,1.542,0.776c0.404,0.381,0.72,0.914,0.944,1.597c0.225,0.682,0.337,1.661,0.337,2.935
				C45.769,248.825,45.656,249.832,45.432,250.571z"/>
			<polygon fill="#FFFFFF" points="55.361,248.519 63.639,248.519 63.639,245.741 55.361,245.741 55.361,242.086 64.257,242.086 
				64.257,239.297 52.033,239.297 52.033,255.782 64.571,255.782 64.571,253.005 55.361,253.005 			"/>
			<path fill="#FFFFFF" d="M78.319,249.89c-0.469-0.501-1.063-0.963-1.783-1.383c1.448-0.209,2.534-0.718,3.262-1.523
				s1.091-1.827,1.091-3.064c0-0.975-0.24-1.841-0.72-2.599c-0.48-0.757-1.119-1.282-1.917-1.578
				c-0.799-0.298-2.079-0.445-3.841-0.445h-7.006v16.485h3.328V248.9h0.676c0.764,0,1.322,0.062,1.675,0.186
				s0.687,0.353,1.001,0.687c0.314,0.333,0.9,1.141,1.755,2.424l2.406,3.586h3.98l-2.013-3.216
				C79.419,251.284,78.787,250.393,78.319,249.89z M73.196,246.27h-2.463v-4.184h2.599c1.349,0,2.159,0.019,2.429,0.056
				c0.539,0.091,0.958,0.306,1.254,0.647c0.296,0.341,0.444,0.789,0.444,1.344c0,0.494-0.112,0.906-0.338,1.236
				c-0.225,0.331-0.535,0.562-0.933,0.697S74.794,246.27,73.196,246.27z"/>
			<polygon fill="#FFFFFF" points="87.355,248.519 95.631,248.519 95.631,245.741 87.355,245.741 87.355,242.086 96.25,242.086 
				96.25,239.297 84.026,239.297 84.026,255.782 96.564,255.782 96.564,253.005 87.355,253.005 			"/>
			<path fill="#FFFFFF" d="M108.563,252.376c-0.637,0.562-1.397,0.843-2.282,0.843c-1.2,0-2.175-0.442-2.924-1.326
				c-0.75-0.885-1.125-2.37-1.125-4.453c0-1.965,0.38-3.386,1.142-4.263c0.762-0.878,1.753-1.316,2.975-1.316
				c0.885,0,1.637,0.248,2.255,0.742c0.618,0.496,1.025,1.17,1.221,2.024l3.294-0.787c-0.375-1.318-0.938-2.331-1.687-3.036
				c-1.259-1.191-2.897-1.788-4.914-1.788c-2.31,0-4.173,0.759-5.589,2.278c-1.418,1.518-2.126,3.647-2.126,6.392
				c0,2.595,0.704,4.639,2.114,6.136c1.409,1.495,3.209,2.242,5.398,2.242c1.769,0,3.229-0.436,4.379-1.31
				c1.151-0.874,1.975-2.21,2.469-4.009l-3.228-1.023C109.659,250.929,109.2,251.813,108.563,252.376z"/>
			<polygon fill="#FFFFFF" points="125.882,245.786 119.36,245.786 119.36,239.297 116.03,239.297 116.03,255.782 119.36,255.782 
				119.36,248.574 125.882,248.574 125.882,255.782 129.211,255.782 129.211,239.297 125.882,239.297 			"/>
			<path fill="#FFFFFF" d="M139.95,239.016c-1.342,0-2.526,0.217-3.554,0.651c-0.772,0.323-1.483,0.818-2.131,1.485
				c-0.649,0.667-1.16,1.421-1.534,2.261c-0.504,1.14-0.755,2.548-0.755,4.228c0,2.624,0.724,4.684,2.171,6.181
				c1.446,1.495,3.396,2.242,5.848,2.242c2.421,0,4.355-0.751,5.803-2.255c1.446-1.502,2.171-3.586,2.171-6.246
				c0-2.684-0.73-4.779-2.188-6.286C144.322,239.769,142.38,239.016,139.95,239.016z M143.251,251.785
				c-0.852,0.956-1.94,1.434-3.268,1.434s-2.421-0.481-3.283-1.445c-0.862-0.963-1.294-2.378-1.294-4.245
				c0-1.896,0.42-3.315,1.261-4.256c0.839-0.941,1.944-1.412,3.316-1.412s2.473,0.466,3.301,1.395
				c0.829,0.931,1.242,2.339,1.242,4.229C144.526,249.396,144.101,250.829,143.251,251.785z"/>
			<path fill="#FFFFFF" d="M160.855,239.297l-6.421,16.485h3.53l1.361-3.744h6.59l1.439,3.744h3.62l-6.601-16.485H160.855z
				 M160.35,249.261l2.227-6.117l2.271,6.117H160.35z"/>
			<polygon fill="#FFFFFF" points="181.704,239.433 178.376,239.433 178.376,255.782 189.981,255.782 189.981,253.005 
				181.704,253.005 			"/>
			<path fill="#FFFFFF" d="M197.101,239.297l-6.422,16.485h3.531l1.36-3.744h6.59l1.439,3.744h3.621l-6.601-16.485H197.101z
				 M196.594,249.261l2.227-6.117l2.271,6.117H196.594z"/>
			<polygon fill="#FFFFFF" points="220.626,251.498 216.454,239.297 212.844,239.297 218.736,255.782 222.29,255.782 
				228.194,239.297 224.663,239.297 			"/>
			<rect x="229.79" y="239.297" fill="#FFFFFF" width="3.329" height="16.485"/>
			<path fill="#FFFFFF" d="M247.986,241.13c-0.69-0.728-1.519-1.233-2.486-1.518c-0.719-0.21-1.766-0.315-3.137-0.315h-6.084v16.485
				h6.264c1.229,0,2.212-0.116,2.946-0.348c0.981-0.314,1.762-0.754,2.339-1.315c0.765-0.743,1.354-1.713,1.766-2.914
				c0.337-0.982,0.506-2.151,0.506-3.507c0-1.545-0.18-2.844-0.539-3.897C249.2,242.748,248.676,241.857,247.986,241.13z
				 M246.321,250.571c-0.225,0.737-0.516,1.268-0.872,1.591c-0.355,0.322-0.803,0.551-1.343,0.686
				c-0.413,0.104-1.084,0.158-2.014,0.158h-2.485v-10.92h1.496c1.356,0,2.268,0.053,2.732,0.157
				c0.623,0.136,1.136,0.395,1.541,0.776c0.404,0.381,0.72,0.914,0.944,1.597c0.225,0.682,0.338,1.661,0.338,2.935
				C246.659,248.825,246.546,249.832,246.321,250.571z"/>
			<path fill="#FFFFFF" d="M257.668,239.297l-6.421,16.485h3.531l1.36-3.744h6.59l1.439,3.744h3.621l-6.602-16.485H257.668z
				 M257.162,249.261l2.227-6.117l2.271,6.117H257.162z"/>
		</g>
	</g>
</g>
</svg>
