<?xml version="1.0" encoding="utf-8"?>
<!-- Generator: Adobe Illustrator 16.0.0, SVG Export Plug-In . SVG Version: 6.00 Build 0)  -->
<!DOCTYPE svg PUBLIC "-//W3C//DTD SVG 1.0//EN" "http://www.w3.org/TR/2001/REC-SVG-20010904/DTD/svg10.dtd">
<svg version="1.0" id="Capa_1" xmlns="http://www.w3.org/2000/svg" xmlns:xlink="http://www.w3.org/1999/xlink" x="0px" y="0px"
	 width="300px" height="300px" viewBox="0 0 300 300" enable-background="new 0 0 300 300" xml:space="preserve">
<g>
	<path fill="#F42097" d="M242.623,0H57.378C25.82,0,0,25.82,0,57.377v185.245C0,274.18,25.82,300,57.378,300h185.245
		C274.181,300,300,274.18,300,242.622V57.377C300,25.82,274.181,0,242.623,0z"/>
	<g opacity="0.4">
		<path fill="#FFFFFF" d="M222.105,92.863c-0.622-0.423-1.267-0.82-1.911-1.22c-0.259-0.159-0.517-0.32-0.774-0.482
			c-0.514-0.325-1.022-0.657-1.517-1.011c-0.247-0.176-0.49-0.357-0.728-0.545c-0.414-0.327-0.812-0.672-1.188-1.047
			c-0.375-0.375-0.729-0.779-1.049-1.224c-1.288-0.165-2.319-0.867-3.365-1.565c-0.529-0.353-1.208-1.104-1.771-0.45
			c-2.188,2.541-3.44,0.018-4.693-0.973c-0.549-0.435-0.689-0.874-0.624-1.307c0.392-0.643,0.768-1.295,1.127-1.958
			c0.055-0.084,0.106-0.166,0.149-0.247c2.065-3.854,3.514-7.841,4.358-11.922c0.687-3.163,1.058-6.445,1.058-9.814
			c0-25.478-20.653-46.131-46.132-46.131c-25.213,0-45.688,20.23-46.111,45.344c-0.128,0.554-0.2,1.139-0.179,1.774
			c0.403,11.624,4.312,21.56,11.798,29.632c8.45,9.513,20.768,15.513,34.492,15.513c11.496,0,22-4.214,30.077-11.17
			c1.294-1.039,2.536-2.176,3.711-3.442c0.795-0.857,1.62-0.451,2.299,0.115c0.897,0.748,2.954,1.146,2.354,2.448
			c-1.081,2.345,0.609,2.755,1.777,3.754c2.518,2.153,5.87,3.279,7.711,6.262c1.399-0.058,2.64,0.511,3.804,1.146
			c1.677,0.913,2.607,0.457,3.303-1.246c0.905-2.211,1.854-4.421,3.002-6.512C224.016,94.887,223.702,93.948,222.105,92.863z
			 M165.137,97.963c-21.473,0-38.879-17.407-38.879-38.881c0-21.473,17.406-38.88,38.879-38.88c21.474,0,38.881,17.407,38.881,38.88
			C204.018,80.556,186.61,97.963,165.137,97.963z"/>
		<path fill="#FFFFFF" d="M280.049,133.427c-0.878-0.654-1.859-1.18-2.778-1.785c-0.23-0.151-0.456-0.308-0.675-0.472
			c-0.439-0.329-0.852-0.691-1.219-1.112c-0.183-0.21-0.354-0.436-0.512-0.679c-3.83,0.828-7.692,1.536-11.479,2.532
			c-1.979,0.522-4.232,0.322-5.885,1.891c4.341,4.27,9.671,7.217,14.497,10.837c1.053,0.789,1.782,0.13,2.425-0.685
			c2.026-2.573,4.02-5.174,6.092-7.709C281.498,135.043,281.225,134.304,280.049,133.427z"/>
	</g>
	<g>
		<path fill="#FFFFFF" d="M196.274,138.728c-0.652-1.696-1.146-3.494-1.415-5.291c-0.413-2.775-1.332-3.294-4.077-2.076
			c-23.229,10.309-46.553,20.407-69.783,30.711c-2.405,1.067-3.641,0.676-5.304-1.203c-8.493-9.596-17.132-19.063-25.735-28.562
			c-4.607-5.086-4.571-5.013-9.875-0.619c-1.583,1.312-1.964,2.405-1.146,4.378c3.428,8.27,6.677,16.612,9.983,24.932
			c1.246,3.133,1.236,3.197-1.969,3.201c-28.028,0.036-56.035,2.209-84.083,0.77c-1.558-0.08-2.395-0.373-2.831-1.076v51.542
			c0.675-2.235,2.552-2.424,7.784-3.165c14.548-2.062,29.06-4.37,43.58-6.618c9.74-1.509,19.518-2.775,29.108-5.199
			c4.271-1.08,8.723-1.447,13.087-2.164c2.042-0.334,3.889-0.104,5.807,0.887c7.355,3.803,14.826,7.38,22.185,11.174
			c2.096,1.08,3.945,1.303,6.268,0.604c16.681-5.021,33.405-9.898,50.122-14.799c6.01-1.763,5.941-1.731,5.569-7.914
			c-0.118-1.941-0.791-1.98-2.293-1.386c-2.773,1.098-5.596,2.071-8.396,3.104c-13.276,4.892-26.547,9.8-39.841,14.646
			c-0.892,0.325-1.863,1.313-2.92,0.325c-2.018-1.886-1.452-4.991,1.063-5.956c18.517-7.096,37.032-14.19,55.549-21.282
			c3.93-1.505,3.933-1.5,3.305-5.65c-0.53-3.504-0.532-3.51-3.738-2.188c-18.87,7.772-37.733,15.56-56.621,23.285
			c-1.018,0.416-2.368,1.888-3.291-0.351c-1.427-3.456-1.248-4.53,1.177-5.496c3.308-1.319,6.624-2.616,9.939-3.919
			c17.916-7.045,35.834-14.084,53.747-21.138c2.273-0.896,2.902-3.386,1.408-6.778c-1.025-2.33-2.534-0.272-3.537,0.138
			c-20.676,8.442-41.3,17.009-61.969,25.467c-1.067,0.438-2.758,2.461-3.593-0.339c-0.556-1.86-2.388-3.77,1.136-5.216
			c6.583-2.701,12.944-5.945,19.396-8.967c16.739-7.839,33.454-15.732,50.247-23.456
			C196.588,142.035,197.134,140.964,196.274,138.728z"/>
		<path fill="#FFFFFF" d="M300,100.473c-8.452,1.36-19.98,2.855-28.406,4.372c-1.993,0.358-3.705,0.016-5.521-0.9
			c-11.338-5.723-22.727-11.344-34.102-16.992c-1.111-0.552-2.169-1.16-3.534-1.012c-1.101,0.119-2.201,0.232-3.303,0.343
			c-3.304,0.327-6.611,0.621-9.916,0.935c0.32,0.444,0.674,0.849,1.049,1.224s0.774,0.72,1.188,1.047
			c0.238,0.187,0.481,0.368,0.728,0.545c0.493,0.353,1.003,0.686,1.518,1.011c0.257,0.162,0.515,0.323,0.774,0.482
			c0.645,0.399,1.288,0.797,1.911,1.22c1.596,1.085,1.909,2.023,0.978,3.722c-1.148,2.091-2.098,4.301-3.002,6.511
			c-0.697,1.704-1.627,2.16-3.303,1.247c-1.164-0.634-2.405-1.204-3.805-1.146c-1.574,1.939-3.064,3.955-4.749,5.795
			c-1.237,1.351-1.042,2.373-0.037,3.755c3.334,4.583,5.81,10.146,10.021,13.637c3.958,3.28,9.699,4.408,14.657,6.482
			c1.24,0.519,2.546,0.921,3.713,1.571c3.576,1.99,7.155,2.017,11.081,0.935c3.178-0.876,6.376-2.18,9.826-1.714
			c1.652-1.568,3.905-1.368,5.885-1.891c3.786-0.997,7.648-1.705,11.479-2.532c0.195-0.081,0.393-0.152,0.59-0.215
			c1.381-0.438,2.807-0.45,4.247-0.278c5.259,0.629,14.762,1.388,20.035,1.85c0.558,0.049-0.39,0.137,0,0.267V100.42
			C299.916,100.438,300.093,100.457,300,100.473z"/>
		<polygon fill="#FFFFFF" points="133.342,25.598 133.342,10.258 120.91,23.752 126.706,33.458 		"/>
		<path fill="#FFFFFF" d="M175.969,21.186c0,0.001,0.001,0.003,0.001,0.003C175.979,21.19,175.982,21.189,175.969,21.186z"/>
		<path fill="#FFFFFF" d="M172.229,52.102c1.011,1.628,1.706,1.631,2.96,0.264c3.184-3.471,6.417-6.901,9.772-10.205
			c1.412-1.391,1.583-2.449,0.546-4.193c-3.286-5.529-6.373-11.177-9.538-16.778c-0.21-0.022-5.666-1.076-5.666-1.076
			c-2.04,5.387-4.032,10.792-6.149,16.149c-0.586,1.484-0.576,2.666,0.344,4.019C167.146,44.173,169.747,48.103,172.229,52.102z"/>
		<path fill="#FFFFFF" d="M117.071,145.806c0.817,1.233,1.715,1.585,3.137,1.276c11.842-2.577,23.688-5.121,35.543-7.635
			c1.421-0.302,2.326-0.992,3.094-2.252c6.515-10.684,13.235-22.436,18.727-33.689c-1.094,0.293-1.994,0.446-2.847,0.608
			c-14.232,2.717-27.123-0.254-38.598-9.153c-10.538-8.172-16.755-20.974-17.198-32.04c-0.149-3.747,0.624-7.902,0.663-11.656
			c-0.02-0.158-0.911-2.762-0.933-2.932c-0.011-0.085-0.021-0.173-0.033-0.265c-0.022-0.185-0.047-0.386-0.074-0.615
			c-0.043-0.344-0.093-0.751-0.155-1.259c-3.037,4.726-5.63,8.975-8.456,13.062c-1.271,1.839-1.41,3.201-0.083,5.122
			c2.842,4.115,5.029,8.726,8.162,12.583c3.68,4.532,3.697,8.366,0.157,12.908c-2.358,3.024-3.979,6.622-6.182,10.396
			c-5.001-8.734-9.673-16.895-14.41-25.167c-0.323,0.42-0.578,0.618-0.653,0.87c-2.571,8.666-5.122,17.339-7.687,26.006
			c-0.333,1.121,0,2.033,0.625,2.971C98.956,118.553,108.033,132.166,117.071,145.806z"/>
		<path fill="#FFFFFF" d="M142.271,68.381c0.575,1.527,0.588,2.9,0.022,4.444c-1.617,4.424-3.103,8.896-4.64,13.351
			c0.229,1.366,1.281,2.076,2.251,2.867c8.496,6.925,18.374,9.472,29.09,8.65c1.335-0.103,2.669-0.244,3.989-0.456
			c0.927-0.148,1.845-0.332,2.752-0.559c0.151-0.038,0.303-0.078,0.453-0.118c0.452-0.121,0.9-0.254,1.346-0.398
			c0.217-0.07,0.431-0.145,0.644-0.221c1.549-0.553,3.045-1.269,4.461-2.203c0.472-0.312,0.935-0.648,1.389-1.011
			c0.015-0.013,0.03-0.023,0.047-0.036c1.074-2.044,2.054-4.146,3.252-6.114c0.987-1.624,0.878-2.861-0.284-4.41
			c-3.929-5.234-7.689-10.594-11.545-15.884c-0.402-0.55-0.575-1.485-1.715-1.358c-0.431,6.822-0.849,13.623-1.303,20.42
			c-0.066,0.997,0.245,2.123-0.993,2.787c-4.543,2.438-9.056,4.929-14.098,7.683c0.376-1.511,0.57-2.424,0.831-3.316
			c1.912-6.555,3.773-13.126,5.799-19.646c0.592-1.905,0.419-3.446-0.551-5.178C157.4,56.848,151.424,45.969,145.41,35.11
			c-0.311-0.562-0.461-1.259-1.427-1.652c-1.789,5.287-3.391,10.617-5.418,15.782c-1.202,3.067-1.277,5.795,0.009,8.823
			C140,61.42,140.983,64.962,142.271,68.381z"/>
		<path fill="#FFFFFF" d="M135.584,84.346l1.327-9.597c0,0-4.146-3.912-10.101-9.099C127.127,72.427,132.647,80.445,135.584,84.346z
			"/>
		<polygon fill="#FFFFFF" points="33.427,250.325 26.679,239.314 23.438,239.314 23.438,255.804 26.532,255.804 26.532,245.051 
			33.18,255.804 36.52,255.804 36.52,239.314 33.427,239.314 		"/>
		<path fill="#FFFFFF" d="M47.34,239.033c-1.342,0-2.527,0.217-3.554,0.652c-0.772,0.322-1.483,0.816-2.132,1.485
			c-0.649,0.667-1.16,1.421-1.535,2.261c-0.503,1.14-0.754,2.549-0.754,4.228c0,2.625,0.724,4.686,2.171,6.182
			s3.396,2.244,5.849,2.244c2.422,0,4.356-0.752,5.805-2.256c1.446-1.503,2.171-3.586,2.171-6.247c0-2.685-0.73-4.78-2.188-6.288
			S49.77,239.033,47.34,239.033z M50.642,251.805c-0.852,0.956-1.94,1.435-3.268,1.435s-2.422-0.482-3.284-1.445
			c-0.862-0.964-1.294-2.379-1.294-4.246c0-1.897,0.42-3.316,1.26-4.257c0.84-0.941,1.945-1.412,3.318-1.412
			c1.372,0,2.472,0.465,3.301,1.395c0.829,0.931,1.243,2.34,1.243,4.229C51.918,249.415,51.492,250.849,50.642,251.805z"/>
		<path fill="#FFFFFF" d="M76.055,241.147c-0.689-0.727-1.518-1.233-2.485-1.519c-0.72-0.21-1.766-0.314-3.138-0.314h-6.085v16.488
			h6.265c1.23,0,2.212-0.116,2.947-0.348c0.981-0.315,1.761-0.755,2.34-1.315c0.765-0.743,1.353-1.714,1.766-2.915
			c0.337-0.981,0.506-2.15,0.506-3.508c0-1.545-0.18-2.844-0.54-3.897C77.271,242.766,76.745,241.875,76.055,241.147z
			 M74.391,250.59c-0.225,0.738-0.516,1.269-0.871,1.592c-0.356,0.322-0.805,0.552-1.345,0.686
			c-0.412,0.105-1.084,0.158-2.014,0.158h-2.485v-10.921h1.496c1.356,0,2.269,0.052,2.732,0.156
			c0.623,0.136,1.137,0.395,1.542,0.776c0.404,0.382,0.72,0.915,0.944,1.598c0.226,0.683,0.337,1.661,0.337,2.936
			S74.616,249.852,74.391,250.59z"/>
		<rect x="80.892" y="239.314" fill="#FFFFFF" width="3.33" height="16.489"/>
		<path fill="#FFFFFF" d="M99.169,253.654c0.525-0.823,0.788-1.709,0.788-2.653c0-1.042-0.22-1.919-0.658-2.626
			c-0.438-0.709-1.046-1.269-1.822-1.677c-0.775-0.409-1.975-0.804-3.594-1.187c-1.62-0.383-2.639-0.749-3.059-1.103
			c-0.331-0.276-0.495-0.61-0.495-1.001c0-0.428,0.175-0.769,0.528-1.023c0.548-0.397,1.305-0.596,2.271-0.596
			c0.938,0,1.641,0.185,2.109,0.557c0.469,0.37,0.774,0.979,0.916,1.827l3.33-0.146c-0.053-1.515-0.602-2.727-1.647-3.633
			c-1.047-0.908-2.604-1.361-4.674-1.361c-1.268,0-2.349,0.191-3.245,0.573c-0.896,0.383-1.583,0.939-2.059,1.67
			c-0.477,0.732-0.714,1.518-0.714,2.356c0,1.306,0.507,2.411,1.519,3.318c0.72,0.646,1.972,1.188,3.756,1.631
			c1.388,0.346,2.275,0.586,2.667,0.72c0.569,0.203,0.969,0.441,1.197,0.715c0.229,0.273,0.343,0.605,0.343,0.995
			c0,0.607-0.271,1.139-0.815,1.592c-0.543,0.454-1.352,0.681-2.424,0.681c-1.012,0-1.816-0.255-2.412-0.765
			s-0.992-1.309-1.187-2.396l-3.239,0.314c0.217,1.844,0.884,3.248,2.001,4.212c1.118,0.964,2.719,1.445,4.804,1.445
			c1.432,0,2.628-0.2,3.588-0.603C97.901,255.093,98.645,254.479,99.169,253.654z"/>
		<path fill="#FFFFFF" d="M113.308,249.741c-0.277,1.207-0.735,2.092-1.373,2.654c-0.637,0.562-1.398,0.844-2.282,0.844
			c-1.2,0-2.175-0.443-2.925-1.327c-0.75-0.885-1.124-2.37-1.124-4.454c0-1.966,0.38-3.387,1.141-4.263
			c0.762-0.878,1.754-1.316,2.976-1.316c0.885,0,1.637,0.248,2.255,0.742c0.619,0.495,1.025,1.17,1.221,2.024l3.295-0.787
			c-0.375-1.319-0.938-2.332-1.687-3.037c-1.26-1.192-2.898-1.788-4.916-1.788c-2.31,0-4.172,0.759-5.59,2.278
			c-1.417,1.518-2.126,3.648-2.126,6.394c0,2.595,0.705,4.64,2.115,6.136c1.409,1.496,3.21,2.244,5.398,2.244
			c1.77,0,3.229-0.437,4.381-1.311s1.975-2.21,2.469-4.01L113.308,249.741z"/>
		<path fill="#FFFFFF" d="M132.215,252.587c-0.794-1.282-1.427-2.175-1.896-2.677c-0.468-0.503-1.062-0.964-1.782-1.384
			c1.447-0.21,2.534-0.718,3.261-1.524c0.729-0.806,1.092-1.828,1.092-3.064c0-0.975-0.24-1.841-0.721-2.599
			c-0.479-0.757-1.118-1.284-1.917-1.58c-0.798-0.297-2.079-0.444-3.841-0.444h-7.007v16.488h3.329v-6.883h0.675
			c0.765,0,1.323,0.062,1.676,0.185c0.353,0.125,0.686,0.354,1.001,0.688c0.314,0.333,0.899,1.141,1.755,2.424l2.407,3.587h3.98
			L132.215,252.587z M125.196,246.288h-2.463v-4.184h2.599c1.349,0,2.159,0.019,2.429,0.055c0.54,0.091,0.958,0.307,1.254,0.647
			c0.297,0.341,0.444,0.789,0.444,1.345c0,0.494-0.112,0.907-0.337,1.236c-0.225,0.331-0.536,0.562-0.934,0.697
			C127.791,246.221,126.794,246.288,125.196,246.288z"/>
		<rect x="135.926" y="239.314" fill="#FFFFFF" width="3.33" height="16.489"/>
		<polygon fill="#FFFFFF" points="155.217,242.823 155.217,255.804 158.31,255.804 158.31,239.314 153.315,239.314 150.357,250.562 
			147.366,239.314 142.383,239.314 142.383,255.804 145.476,255.804 145.476,242.823 148.737,255.804 151.943,255.804 		"/>
		<rect x="161.516" y="239.314" fill="#FFFFFF" width="3.329" height="16.489"/>
		<polygon fill="#FFFFFF" points="181.132,239.314 178.038,239.314 178.038,250.325 171.29,239.314 168.05,239.314 168.05,255.804 
			171.144,255.804 171.144,245.051 177.791,255.804 181.132,255.804 		"/>
		<path fill="#FFFFFF" d="M192.919,239.314h-3.521l-6.423,16.488h3.532l1.36-3.745h6.592l1.439,3.745h3.621L192.919,239.314z
			 M188.892,249.28l2.228-6.119l2.272,6.119H188.892z"/>
		<path fill="#FFFFFF" d="M210.465,252.396c-0.637,0.562-1.398,0.844-2.283,0.844c-1.2,0-2.175-0.443-2.925-1.327
			c-0.749-0.885-1.124-2.37-1.124-4.454c0-1.966,0.38-3.387,1.142-4.263c0.761-0.878,1.753-1.316,2.975-1.316
			c0.885,0,1.637,0.248,2.256,0.742c0.618,0.495,1.024,1.17,1.22,2.024l3.296-0.787c-0.376-1.319-0.938-2.332-1.688-3.037
			c-1.26-1.192-2.898-1.788-4.915-1.788c-2.31,0-4.173,0.759-5.59,2.278c-1.418,1.518-2.126,3.648-2.126,6.394
			c0,2.595,0.704,4.64,2.114,6.136s3.209,2.244,5.399,2.244c1.769,0,3.229-0.437,4.38-1.311c1.151-0.874,1.975-2.21,2.47-4.01
			l-3.229-1.023C211.56,250.948,211.102,251.833,210.465,252.396z"/>
		<rect x="217.821" y="239.314" fill="#FFFFFF" width="3.329" height="16.489"/>
		<path fill="#FFFFFF" d="M231.622,239.033c-1.342,0-2.527,0.217-3.555,0.652c-0.771,0.322-1.482,0.816-2.131,1.485
			c-0.648,0.667-1.16,1.421-1.535,2.261c-0.502,1.14-0.754,2.549-0.754,4.228c0,2.626,0.724,4.686,2.171,6.182
			c1.446,1.496,3.396,2.244,5.849,2.244c2.422,0,4.356-0.752,5.804-2.256c1.447-1.503,2.171-3.586,2.171-6.247
			c0-2.686-0.729-4.781-2.188-6.288C235.996,239.786,234.052,239.033,231.622,239.033z M234.923,251.805
			c-0.851,0.956-1.94,1.435-3.268,1.435s-2.422-0.482-3.284-1.445c-0.862-0.964-1.293-2.379-1.293-4.247
			c0-1.896,0.42-3.315,1.26-4.256c0.84-0.941,1.946-1.412,3.317-1.412c1.373,0,2.473,0.465,3.302,1.395
			c0.828,0.931,1.243,2.34,1.243,4.229C236.2,249.415,235.774,250.849,234.923,251.805z"/>
		<polygon fill="#FFFFFF" points="231.149,235.007 229.598,238.37 231.6,238.37 234.693,235.007 		"/>
		<polygon fill="#FFFFFF" points="252.261,250.325 245.513,239.314 242.273,239.314 242.273,255.804 245.366,255.804 
			245.366,245.051 252.014,255.804 255.354,255.804 255.354,239.314 252.261,239.314 		"/>
		<polygon fill="#FFFFFF" points="268.604,248.538 276.882,248.538 276.882,245.759 268.604,245.759 268.604,242.104 
			277.501,242.104 277.501,239.314 265.274,239.314 265.274,255.804 277.815,255.804 277.815,253.025 268.604,253.025 		"/>
		<rect x="91.139" y="266.956" fill="#FFFFFF" width="3.329" height="16.489"/>
		<path fill="#FFFFFF" d="M105.311,277.384h3.812v2.091c-0.502,0.391-1.104,0.722-1.805,0.996c-0.701,0.273-1.4,0.41-2.098,0.41
			c-1.41,0-2.549-0.489-3.419-1.468s-1.306-2.446-1.306-4.403c0-1.814,0.43-3.183,1.289-4.105c0.858-0.923,2.015-1.384,3.469-1.384
			c0.96,0,1.761,0.235,2.402,0.703c0.641,0.469,1.077,1.107,1.311,1.918l3.307-0.619c-0.331-1.514-1.07-2.701-2.223-3.56
			c-1.15-0.858-2.749-1.288-4.797-1.288c-1.574,0-2.891,0.274-3.947,0.821c-1.388,0.713-2.441,1.736-3.161,3.071
			c-0.72,1.334-1.079,2.859-1.079,4.577c0,1.582,0.321,3.046,0.967,4.393c0.645,1.346,1.608,2.381,2.891,3.104
			s2.786,1.085,4.511,1.085c1.357,0,2.697-0.257,4.021-0.77c1.323-0.515,2.334-1.108,3.031-1.783v-6.569h-7.176V277.384z"/>
		<path fill="#FFFFFF" d="M125.354,276.078c0,1.305-0.049,2.239-0.146,2.8c-0.099,0.563-0.387,1.037-0.866,1.424
			c-0.48,0.386-1.192,0.579-2.138,0.579c-0.93,0-1.662-0.204-2.199-0.612c-0.535-0.409-0.875-0.951-1.018-1.626
			c-0.082-0.42-0.123-1.338-0.123-2.756v-8.93h-3.33v8.795c0,1.845,0.109,3.239,0.327,4.184c0.149,0.639,0.461,1.248,0.933,1.828
			c0.473,0.581,1.116,1.054,1.93,1.418c0.812,0.363,2.007,0.545,3.582,0.545c1.305,0,2.362-0.167,3.172-0.5
			c0.81-0.334,1.456-0.782,1.94-1.344c0.483-0.562,0.815-1.253,0.996-2.071c0.179-0.816,0.27-2.215,0.27-4.194v-8.66h-3.33V276.078z
			"/>
		<path fill="#FFFFFF" d="M136.939,266.957l-6.423,16.488h3.531l1.362-3.745h6.591l1.438,3.745h3.622l-6.602-16.488H136.939z
			 M136.433,276.922l2.227-6.118l2.273,6.118H136.433z"/>
		<polygon fill="#FFFFFF" points="152.247,267.092 148.918,267.092 148.918,283.445 160.525,283.445 160.525,280.667 
			152.247,280.667 		"/>
		<path fill="#FFFFFF" d="M174.597,268.79c-0.69-0.728-1.519-1.233-2.486-1.519c-0.72-0.21-1.766-0.314-3.138-0.314h-6.085v16.488
			h6.265c1.229,0,2.212-0.116,2.947-0.348c0.982-0.315,1.762-0.755,2.339-1.316c0.765-0.743,1.354-1.714,1.767-2.914
			c0.337-0.982,0.507-2.151,0.507-3.509c0-1.545-0.181-2.844-0.541-3.897C175.812,270.408,175.286,269.517,174.597,268.79z
			 M172.932,278.232c-0.225,0.738-0.516,1.269-0.871,1.592c-0.356,0.321-0.805,0.551-1.345,0.686
			c-0.412,0.105-1.084,0.158-2.014,0.158h-2.485v-10.922h1.496c1.356,0,2.269,0.053,2.732,0.157
			c0.623,0.136,1.137,0.394,1.541,0.775c0.405,0.383,0.721,0.915,0.945,1.598c0.226,0.683,0.338,1.661,0.338,2.936
			S173.157,277.493,172.932,278.232z"/>
		<path fill="#FFFFFF" d="M184.28,266.957l-6.422,16.488h3.531l1.361-3.745h6.591l1.439,3.745h3.622l-6.602-16.488H184.28z
			 M183.774,276.922l2.227-6.118l2.272,6.118H183.774z"/>
		<path fill="#FFFFFF" d="M207.867,268.79c-0.69-0.728-1.519-1.233-2.486-1.519c-0.72-0.21-1.766-0.314-3.138-0.314h-6.085v16.488
			h6.265c1.229,0,2.212-0.116,2.947-0.348c0.982-0.315,1.762-0.755,2.339-1.316c0.765-0.743,1.354-1.714,1.767-2.914
			c0.337-0.982,0.507-2.151,0.507-3.509c0-1.545-0.181-2.844-0.541-3.897C209.082,270.408,208.557,269.517,207.867,268.79z
			 M206.202,278.232c-0.225,0.738-0.516,1.269-0.871,1.592c-0.356,0.321-0.805,0.551-1.345,0.686
			c-0.412,0.105-1.084,0.158-2.014,0.158h-2.485v-10.922h1.496c1.356,0,2.269,0.053,2.732,0.157
			c0.623,0.136,1.137,0.394,1.541,0.775c0.405,0.383,0.721,0.915,0.945,1.598c0.226,0.683,0.338,1.661,0.338,2.936
			S206.428,277.493,206.202,278.232z"/>
	</g>
</g>
</svg>
