<?xml version="1.0" encoding="utf-8"?>
<!-- Generator: Adobe Illustrator 16.0.0, SVG Export Plug-In . SVG Version: 6.00 Build 0)  -->
<!DOCTYPE svg PUBLIC "-//W3C//DTD SVG 1.0//EN" "http://www.w3.org/TR/2001/REC-SVG-20010904/DTD/svg10.dtd">
<svg version="1.0" id="Capa_1" xmlns="http://www.w3.org/2000/svg" xmlns:xlink="http://www.w3.org/1999/xlink" x="0px" y="0px"
	 width="300px" height="300px" viewBox="0 0 300 300" enable-background="new 0 0 300 300" xml:space="preserve">
<g>
	<linearGradient id="SVGID_1_" gradientUnits="userSpaceOnUse" x1="-0.5" y1="150" x2="300.5" y2="150">
		<stop  offset="0" style="stop-color:#FFFFFF"/>
		<stop  offset="1" style="stop-color:#000000"/>
	</linearGradient>
	<path fill="#2047F4" stroke="url(#SVGID_1_)" stroke-miterlimit="10" d="M242.623,300H57.378C25.82,300,0,274.18,0,242.622V57.377
		C0,25.82,25.82,0,57.378,0h185.245C274.181,0,300,25.82,300,57.377v185.245C300,274.18,274.181,300,242.623,300"/>
	<g opacity="0.39">
		<g>
			<path fill="#FFFFFF" d="M223.083,96.585c-1.148,2.091-2.097,4.301-3.002,6.512c-0.695,1.703-1.626,2.159-3.303,1.246
				c-1.164-0.635-2.404-1.203-3.804-1.146c-1.841-2.982-5.193-4.108-7.711-6.262c-1.168-0.999-2.858-1.409-1.777-3.754
				c0.601-1.303-1.456-1.7-2.354-2.448c-0.679-0.566-1.504-0.973-2.299-0.115c-1.175,1.267-2.417,2.403-3.711,3.442
				c-8.077,6.956-18.582,11.17-30.077,11.17c-13.724,0-26.042-6-34.492-15.513c-7.486-8.072-11.395-18.008-11.798-29.632
				c-0.021-0.636,0.051-1.221,0.179-1.774c0.423-25.113,20.898-45.344,46.111-45.344c25.479,0,46.132,20.653,46.132,46.131
				c0,3.369-0.371,6.651-1.058,9.814c-0.845,4.081-2.293,8.068-4.358,11.922c-0.043,0.081-0.095,0.163-0.149,0.247
				c-0.359,0.663-0.735,1.315-1.127,1.958c-0.065,0.433,0.075,0.872,0.624,1.307c1.253,0.99,2.505,3.514,4.693,0.973
				c0.562-0.654,1.241,0.098,1.771,0.45c1.046,0.698,2.077,1.4,3.365,1.565c0.32,0.444,0.674,0.849,1.049,1.224
				c0.376,0.375,0.774,0.72,1.188,1.047c0.237,0.188,0.48,0.369,0.728,0.545c0.494,0.354,1.003,0.686,1.517,1.011
				c0.258,0.162,0.516,0.323,0.774,0.482c0.645,0.399,1.289,0.797,1.911,1.22C223.702,93.948,224.016,94.887,223.083,96.585
				 M165.137,20.202c-21.473,0-38.879,17.407-38.879,38.88c0,21.474,17.406,38.881,38.879,38.881
				c21.474,0,38.881-17.407,38.881-38.881C204.018,37.609,186.61,20.202,165.137,20.202"/>
		</g>
	</g>
	<g opacity="0.39">
		<g>
			<path fill="#FFFFFF" d="M263.387,131.911c-1.979,0.522-4.232,0.322-5.885,1.891c4.341,4.27,9.671,7.217,14.497,10.837
				c1.053,0.789,1.782,0.13,2.425-0.685c2.026-2.573,4.02-5.174,6.092-7.709c0.982-1.202,0.709-1.941-0.467-2.818
				c-0.878-0.654-1.859-1.18-2.778-1.785c-0.23-0.151-0.456-0.308-0.675-0.472c-0.439-0.329-0.852-0.691-1.219-1.112
				c-0.183-0.21-0.354-0.436-0.512-0.679C271.035,130.207,267.174,130.915,263.387,131.911"/>
		</g>
	</g>
	<g>
		<linearGradient id="SVGID_2_" gradientUnits="userSpaceOnUse" x1="-2.7119" y1="173.5098" x2="197.1602" y2="173.5098">
			<stop  offset="0" style="stop-color:#FFFFFF"/>
			<stop  offset="1" style="stop-color:#000000"/>
		</linearGradient>
		<path fill="#FFFFFF" stroke="url(#SVGID_2_)" stroke-miterlimit="10" d="M80.512,200.451c4.271-1.08,8.723-1.447,13.087-2.164
			c2.042-0.334,3.889-0.104,5.807,0.887c7.355,3.803,14.826,7.38,22.185,11.174c2.096,1.08,3.945,1.303,6.268,0.604
			c16.681-5.021,33.405-9.898,50.122-14.799c6.01-1.763,5.941-1.731,5.569-7.914c-0.118-1.941-0.791-1.98-2.293-1.386
			c-2.773,1.098-5.596,2.071-8.396,3.104c-13.276,4.892-26.547,9.8-39.841,14.646c-0.892,0.325-1.863,1.313-2.92,0.325
			c-2.017-1.886-1.452-4.991,1.063-5.956c18.517-7.096,37.032-14.19,55.549-21.282c3.93-1.505,3.933-1.5,3.305-5.65
			c-0.53-3.504-0.532-3.51-3.738-2.188c-18.87,7.772-37.733,15.56-56.621,23.285c-1.018,0.416-2.368,1.888-3.291-0.351
			c-1.427-3.456-1.248-4.53,1.177-5.496c3.308-1.319,6.624-2.616,9.938-3.919c17.917-7.045,35.835-14.084,53.748-21.138
			c2.273-0.896,2.902-3.386,1.408-6.778c-1.025-2.33-2.534-0.272-3.537,0.138c-20.676,8.442-41.3,17.009-61.969,25.467
			c-1.067,0.438-2.758,2.461-3.593-0.339c-0.556-1.86-2.388-3.77,1.136-5.216c6.583-2.701,12.944-5.945,19.396-8.967
			c16.739-7.839,33.454-15.732,50.247-23.456c2.271-1.046,2.816-2.117,1.957-4.354c-0.652-1.696-1.146-3.494-1.415-5.291
			c-0.414-2.775-1.332-3.294-4.076-2.076c-23.23,10.309-46.553,20.407-69.784,30.711c-2.405,1.067-3.641,0.676-5.304-1.203
			c-8.493-9.596-17.132-19.063-25.735-28.562c-4.607-5.086-4.571-5.013-9.875-0.619c-1.583,1.312-1.964,2.405-1.146,4.378
			c3.428,8.27,6.677,16.612,9.983,24.932c1.246,3.133,1.236,3.197-1.969,3.201c-28.028,0.036-58.905,2.209-86.953,0.77
			c-1.577-0.081,0.433-0.371,0-1.093v51.628c0.657-2.305-5.29-2.485,0-3.234c14.547-2.062,36.883-4.37,51.403-6.618
			C61.145,204.142,70.921,202.875,80.512,200.451z"/>
		<path fill="#FFFFFF" d="M300,100.473c-8.452,1.36-19.98,2.855-28.406,4.372c-1.993,0.358-3.705,0.016-5.521-0.9
			c-11.338-5.723-22.727-11.344-34.102-16.992c-1.111-0.552-2.169-1.16-3.534-1.012c-1.101,0.119-2.201,0.232-3.303,0.343
			c-3.304,0.327-6.611,0.621-9.916,0.935c0.32,0.444,0.674,0.848,1.049,1.224c0.375,0.375,0.774,0.72,1.188,1.047
			c0.238,0.187,0.481,0.368,0.728,0.545c0.493,0.353,1.003,0.686,1.518,1.011c0.257,0.162,0.515,0.323,0.774,0.482
			c0.645,0.399,1.288,0.797,1.911,1.22c1.596,1.085,1.909,2.023,0.978,3.722c-1.148,2.091-2.098,4.301-3.002,6.511
			c-0.697,1.704-1.627,2.16-3.303,1.247c-1.164-0.634-2.405-1.204-3.805-1.146c-1.574,1.939-3.064,3.955-4.749,5.795
			c-1.237,1.351-1.042,2.373-0.037,3.755c3.334,4.583,5.81,10.146,10.021,13.637c3.958,3.28,9.699,4.408,14.657,6.482
			c1.24,0.519,2.546,0.921,3.713,1.571c3.576,1.99,7.155,2.017,11.081,0.935c3.178-0.876,6.376-2.18,9.826-1.714
			c1.652-1.568,3.905-1.369,5.885-1.891c3.786-0.997,7.648-1.705,11.479-2.532c0.195-0.081,0.392-0.152,0.59-0.215
			c1.381-0.438,2.807-0.45,4.247-0.278c5.259,0.629,14.763,1.388,20.035,1.85c0.559,0.049-0.39,0.137,0,0.267V100.42
			C299.916,100.438,300.093,100.457,300,100.473z"/>
		<polygon fill="#FFFFFF" points="133.342,25.598 133.342,10.258 120.91,23.752 126.706,33.458 		"/>
		<path fill="#FFFFFF" d="M175.969,21.186c0,0.001,0.001,0.003,0.001,0.003C175.979,21.19,175.982,21.189,175.969,21.186z"/>
		<path fill="#FFFFFF" d="M172.229,52.102c1.011,1.628,1.706,1.631,2.96,0.264c3.184-3.471,6.417-6.901,9.772-10.205
			c1.412-1.391,1.583-2.449,0.546-4.193c-3.286-5.529-6.373-11.177-9.538-16.778c-0.21-0.022-5.666-1.076-5.666-1.076
			c-2.04,5.387-4.032,10.792-6.149,16.149c-0.586,1.484-0.576,2.667,0.344,4.019C167.146,44.173,169.747,48.103,172.229,52.102z"/>
		<path fill="#FFFFFF" d="M117.071,145.806c0.817,1.233,1.715,1.585,3.137,1.276c11.842-2.577,23.688-5.121,35.543-7.635
			c1.421-0.302,2.326-0.992,3.094-2.252c6.515-10.684,13.235-22.436,18.727-33.689c-1.094,0.293-1.994,0.446-2.847,0.608
			c-14.232,2.717-27.123-0.254-38.598-9.153c-10.538-8.172-16.755-20.974-17.198-32.04c-0.149-3.747,0.624-7.902,0.663-11.656
			c-0.02-0.158-0.911-2.762-0.933-2.932c-0.011-0.085-0.021-0.173-0.033-0.265c-0.022-0.185-0.047-0.386-0.074-0.615
			c-0.043-0.344-0.093-0.751-0.155-1.259c-3.037,4.726-5.63,8.975-8.456,13.062c-1.271,1.839-1.41,3.201-0.083,5.122
			c2.842,4.115,5.029,8.726,8.162,12.583c3.68,4.532,3.697,8.366,0.157,12.908c-2.358,3.024-3.979,6.622-6.182,10.396
			c-5.001-8.734-9.673-16.895-14.41-25.167c-0.323,0.42-0.578,0.618-0.653,0.87c-2.571,8.666-5.122,17.339-7.687,26.006
			c-0.333,1.121,0,2.033,0.625,2.971C98.956,118.553,108.033,132.166,117.071,145.806z"/>
		<path fill="#FFFFFF" d="M142.271,68.381c0.575,1.527,0.588,2.9,0.022,4.444c-1.617,4.424-3.103,8.896-4.64,13.351
			c0.229,1.366,1.281,2.076,2.251,2.867c8.496,6.925,18.374,9.472,29.09,8.65c1.335-0.103,2.669-0.244,3.989-0.456
			c0.927-0.148,1.845-0.332,2.752-0.559c0.151-0.038,0.303-0.078,0.453-0.118c0.452-0.121,0.9-0.254,1.346-0.398
			c0.217-0.07,0.431-0.145,0.644-0.221c1.549-0.553,3.045-1.269,4.461-2.203c0.472-0.312,0.935-0.648,1.389-1.011
			c0.015-0.013,0.03-0.023,0.047-0.036c1.074-2.044,2.054-4.146,3.252-6.114c0.987-1.624,0.878-2.861-0.284-4.41
			c-3.929-5.234-7.689-10.594-11.545-15.884c-0.402-0.55-0.575-1.485-1.715-1.358c-0.431,6.822-0.849,13.623-1.303,20.42
			c-0.066,0.997,0.245,2.123-0.993,2.787c-4.543,2.438-9.057,4.929-14.098,7.683c0.376-1.511,0.57-2.424,0.831-3.316
			c1.912-6.555,3.773-13.126,5.799-19.646c0.592-1.905,0.419-3.446-0.551-5.178C157.4,56.848,151.424,45.969,145.41,35.11
			c-0.311-0.562-0.461-1.259-1.427-1.652c-1.789,5.287-3.392,10.617-5.417,15.782c-1.203,3.067-1.278,5.795,0.008,8.823
			C140,61.42,140.983,64.962,142.271,68.381z"/>
		<path fill="#FFFFFF" d="M135.584,84.346l1.327-9.597c0,0-4.146-3.912-10.101-9.099C127.127,72.427,132.647,80.445,135.584,84.346z
			"/>
		<polygon fill="#FFFFFF" points="27.038,239.449 23.709,239.449 23.709,255.804 35.316,255.804 35.316,253.025 27.038,253.025 		
			"/>
		<rect x="37.588" y="239.314" fill="#FFFFFF" width="3.329" height="16.489"/>
		<path fill="#FFFFFF" d="M54.786,247.041c0.713-0.321,1.276-0.805,1.692-1.45s0.625-1.354,0.625-2.126
			c0-0.713-0.169-1.355-0.507-1.929c-0.337-0.574-0.759-1.033-1.266-1.378c-0.506-0.346-1.079-0.572-1.721-0.681
			c-0.641-0.108-1.614-0.163-2.919-0.163h-6.591v16.489h5.612c2.123-0.016,3.461-0.053,4.016-0.113
			c0.885-0.098,1.629-0.357,2.232-0.781s1.081-0.989,1.429-1.699c0.349-0.707,0.522-1.437,0.522-2.188
			c0-0.951-0.27-1.78-0.809-2.485C56.562,247.833,55.791,247.334,54.786,247.041z M47.431,242.059h1.911
			c1.567,0,2.517,0.019,2.846,0.057c0.555,0.067,0.973,0.261,1.254,0.579c0.281,0.319,0.423,0.732,0.423,1.242
			c0,0.533-0.164,0.962-0.49,1.288s-0.774,0.523-1.343,0.591c-0.315,0.038-1.122,0.057-2.419,0.057h-2.182V242.059z M54.004,252.267
			c-0.311,0.349-0.714,0.567-1.209,0.657c-0.322,0.067-1.084,0.102-2.283,0.102h-3.081v-4.409h2.688
			c1.515,0,2.499,0.079,2.952,0.235c0.454,0.158,0.801,0.409,1.041,0.755c0.239,0.345,0.359,0.764,0.359,1.26
			C54.471,251.45,54.314,251.917,54.004,252.267z"/>
		<polygon fill="#FFFFFF" points="73.267,253.025 64.055,253.025 64.055,248.538 72.333,248.538 72.333,245.759 64.055,245.759 
			64.055,242.104 72.951,242.104 72.951,239.314 60.725,239.314 60.725,255.804 73.267,255.804 		"/>
		<path fill="#FFFFFF" d="M87.016,249.909c-0.468-0.502-1.062-0.963-1.782-1.383c1.447-0.21,2.535-0.718,3.261-1.524
			c0.729-0.806,1.092-1.828,1.092-3.064c0-0.975-0.239-1.841-0.72-2.599c-0.48-0.757-1.119-1.284-1.918-1.58
			c-0.798-0.297-2.079-0.444-3.841-0.444h-7.007v16.488h3.329v-6.883h0.675c0.765,0,1.324,0.062,1.676,0.185
			c0.353,0.125,0.687,0.354,1.001,0.688c0.315,0.333,0.9,1.141,1.756,2.424l2.406,3.587h3.98l-2.013-3.216
			C88.117,251.305,87.484,250.412,87.016,249.909z M81.893,246.288H79.43v-4.185h2.599c1.35,0,2.159,0.02,2.429,0.056
			c0.541,0.091,0.959,0.307,1.255,0.647s0.443,0.789,0.443,1.345c0,0.494-0.111,0.907-0.337,1.236
			c-0.225,0.331-0.536,0.562-0.934,0.697C84.487,246.221,83.49,246.288,81.893,246.288z"/>
		<polygon fill="#FFFFFF" points="96.437,255.804 99.766,255.804 99.766,242.104 104.647,242.104 104.647,239.314 91.543,239.314 
			91.543,242.104 96.437,242.104 		"/>
		<path fill="#FFFFFF" d="M116.333,255.803h3.621l-6.602-16.488h-3.521l-6.423,16.488h3.532l1.361-3.745h6.592L116.333,255.803z
			 M109.325,249.28l2.228-6.119l2.272,6.119H109.325z"/>
		<path fill="#FFFFFF" d="M130.933,239.629c-0.72-0.21-1.766-0.314-3.138-0.314h-6.085v16.488h6.265
			c1.229,0,2.212-0.116,2.946-0.348c0.983-0.315,1.763-0.755,2.34-1.315c0.766-0.744,1.354-1.714,1.767-2.915
			c0.337-0.981,0.506-2.15,0.506-3.508c0-1.545-0.181-2.844-0.54-3.897c-0.36-1.054-0.885-1.944-1.574-2.672
			C132.729,240.421,131.9,239.914,130.933,239.629z M131.754,250.59c-0.225,0.738-0.516,1.269-0.872,1.592
			c-0.356,0.322-0.805,0.552-1.345,0.686c-0.412,0.105-1.083,0.158-2.013,0.158h-2.485v-10.922h1.496
			c1.356,0,2.269,0.053,2.732,0.157c0.623,0.136,1.137,0.395,1.541,0.776c0.405,0.382,0.721,0.915,0.945,1.598
			s0.337,1.661,0.337,2.936S131.979,249.852,131.754,250.59z"/>
		<path fill="#FFFFFF" d="M158.028,243.819c-0.359-1.054-0.885-1.944-1.574-2.672c-0.69-0.727-1.519-1.233-2.486-1.519
			c-0.72-0.21-1.766-0.314-3.138-0.314h-6.086v16.488h6.266c1.229,0,2.212-0.116,2.947-0.348c0.982-0.315,1.762-0.755,2.339-1.315
			c0.765-0.744,1.354-1.714,1.767-2.915c0.337-0.981,0.506-2.15,0.506-3.508C158.568,246.172,158.388,244.873,158.028,243.819z
			 M154.789,250.59c-0.225,0.738-0.516,1.269-0.872,1.592c-0.355,0.322-0.804,0.552-1.344,0.686
			c-0.412,0.105-1.084,0.158-2.014,0.158h-2.485v-10.922h1.496c1.356,0,2.269,0.053,2.733,0.157c0.622,0.136,1.136,0.395,1.54,0.776
			c0.405,0.382,0.721,0.915,0.945,1.598s0.338,1.661,0.338,2.936S155.014,249.852,154.789,250.59z"/>
		<polygon fill="#FFFFFF" points="173.618,242.104 173.618,239.314 161.392,239.314 161.392,255.804 173.933,255.804 
			173.933,253.025 164.721,253.025 164.721,248.538 172.999,248.538 172.999,245.759 164.721,245.759 164.721,242.104 		"/>
		<path fill="#FFFFFF" d="M190.456,239.033c-1.343,0-2.527,0.217-3.555,0.652c-0.772,0.322-1.483,0.816-2.131,1.485
			c-0.649,0.667-1.161,1.421-1.536,2.261c-0.502,1.14-0.753,2.549-0.753,4.228c0,2.625,0.724,4.686,2.17,6.182
			c1.447,1.496,3.397,2.244,5.849,2.244c2.423,0,4.357-0.752,5.805-2.256c1.446-1.503,2.171-3.586,2.171-6.247
			c0-2.685-0.729-4.78-2.188-6.288C194.829,239.786,192.886,239.033,190.456,239.033z M193.757,251.805
			c-0.852,0.956-1.94,1.435-3.268,1.435s-2.422-0.482-3.284-1.445c-0.862-0.964-1.294-2.379-1.294-4.246
			c0-1.897,0.42-3.316,1.261-4.257c0.839-0.941,1.945-1.412,3.317-1.412s2.473,0.465,3.302,1.395
			c0.828,0.931,1.241,2.34,1.241,4.229C195.032,249.415,194.607,250.849,193.757,251.805z"/>
		<path fill="#FFFFFF" d="M212.748,241.176c-0.638-0.828-1.428-1.367-2.373-1.614c-0.615-0.165-1.935-0.247-3.959-0.247h-5.343
			v16.488h3.329v-6.219h2.171c1.507,0,2.658-0.079,3.453-0.237c0.585-0.127,1.16-0.388,1.727-0.781
			c0.565-0.395,1.032-0.936,1.4-1.625c0.367-0.689,0.551-1.542,0.551-2.554C213.704,243.075,213.386,242.005,212.748,241.176z
			 M209.896,245.714c-0.251,0.368-0.598,0.638-1.04,0.811c-0.442,0.172-1.32,0.259-2.632,0.259h-1.822v-4.68h1.608
			c1.199,0,1.999,0.037,2.396,0.112c0.54,0.098,0.985,0.341,1.338,0.732c0.353,0.39,0.529,0.884,0.529,1.483
			C210.274,244.919,210.148,245.347,209.896,245.714z"/>
		<rect x="216.336" y="239.314" fill="#FFFFFF" width="3.33" height="16.489"/>
		<polygon fill="#FFFFFF" points="232.859,250.325 226.11,239.314 222.871,239.314 222.871,255.804 225.965,255.804 
			225.965,245.051 232.611,255.804 235.952,255.804 235.952,239.314 232.859,239.314 		"/>
		<rect x="239.371" y="239.314" fill="#FFFFFF" width="3.33" height="16.489"/>
		<polygon fill="#FFFFFF" points="252.7,235.007 251.148,238.37 253.15,238.37 256.243,235.007 		"/>
		<path fill="#FFFFFF" d="M253.173,239.033c-1.343,0-2.527,0.217-3.556,0.652c-0.771,0.322-1.481,0.816-2.131,1.485
			c-0.648,0.667-1.16,1.421-1.535,2.261c-0.502,1.14-0.754,2.549-0.754,4.228c0,2.626,0.725,4.686,2.171,6.182
			c1.447,1.496,3.397,2.244,5.849,2.244c2.423,0,4.357-0.752,5.805-2.256c1.447-1.503,2.17-3.586,2.17-6.247
			c0-2.686-0.729-4.781-2.187-6.288C257.546,239.786,255.602,239.033,253.173,239.033z M256.474,251.805
			c-0.851,0.956-1.94,1.435-3.268,1.435s-2.422-0.482-3.284-1.445c-0.862-0.964-1.293-2.379-1.293-4.247
			c0-1.896,0.419-3.315,1.259-4.256c0.84-0.941,1.946-1.412,3.318-1.412s2.473,0.465,3.302,1.395
			c0.828,0.931,1.242,2.34,1.242,4.229C257.75,249.415,257.325,250.849,256.474,251.805z"/>
		<polygon fill="#FFFFFF" points="273.812,250.325 267.063,239.314 263.824,239.314 263.824,255.804 266.918,255.804 
			266.918,245.051 273.564,255.804 276.905,255.804 276.905,239.314 273.812,239.314 		"/>
		<polygon fill="#FFFFFF" points="80.218,273.48 76.337,266.956 72.434,266.956 78.474,276.506 78.474,283.445 81.791,283.445 
			81.791,276.528 87.854,266.956 84.019,266.956 		"/>
		<polygon fill="#FFFFFF" points="98.821,276.18 107.099,276.18 107.099,273.401 98.821,273.401 98.821,269.746 107.718,269.746 
			107.718,266.956 95.491,266.956 95.491,283.445 108.032,283.445 108.032,280.667 98.821,280.667 		"/>
		<polygon fill="#FFFFFF" points="124.004,266.956 120.146,266.956 116.907,272.254 113.601,266.956 109.709,266.956 
			114.815,274.842 109.18,283.445 113.173,283.445 116.84,277.743 120.494,283.445 124.511,283.445 118.876,274.965 		"/>
		<path fill="#FFFFFF" d="M135.521,267.203c-0.614-0.165-1.935-0.246-3.959-0.246h-5.343v16.488h3.33v-6.22h2.17
			c1.508,0,2.659-0.079,3.453-0.237c0.585-0.126,1.16-0.387,1.727-0.78c0.566-0.395,1.033-0.936,1.4-1.626
			c0.368-0.689,0.552-1.541,0.552-2.553c0-1.312-0.319-2.383-0.957-3.211C137.258,267.989,136.467,267.451,135.521,267.203z
			 M135.043,273.356c-0.251,0.367-0.598,0.638-1.039,0.81c-0.443,0.172-1.32,0.259-2.633,0.259h-1.821v-4.679h1.608
			c1.198,0,1.997,0.037,2.396,0.111c0.539,0.098,0.985,0.342,1.338,0.732c0.353,0.39,0.528,0.884,0.528,1.483
			C135.42,272.562,135.295,272.988,135.043,273.356z"/>
		<path fill="#FFFFFF" d="M152.512,277.552c-0.469-0.502-1.062-0.964-1.783-1.384c1.447-0.21,2.535-0.718,3.262-1.524
			c0.728-0.806,1.091-1.827,1.091-3.064c0-0.975-0.239-1.841-0.719-2.599c-0.48-0.757-1.12-1.283-1.919-1.579
			c-0.798-0.297-2.078-0.445-3.841-0.445h-7.007v16.489h3.329v-6.883h0.675c0.765,0,1.324,0.061,1.676,0.185
			c0.353,0.124,0.686,0.353,1.001,0.687s0.9,1.142,1.755,2.424l2.407,3.588h3.98l-2.013-3.217
			C153.612,278.946,152.979,278.055,152.512,277.552z M147.388,273.93h-2.463v-4.184h2.599c1.35,0,2.159,0.019,2.429,0.056
			c0.54,0.091,0.958,0.307,1.255,0.646c0.296,0.342,0.444,0.79,0.444,1.345c0,0.494-0.112,0.907-0.338,1.236
			c-0.225,0.331-0.536,0.563-0.934,0.698S148.985,273.93,147.388,273.93z"/>
		<polygon fill="#FFFFFF" points="161.549,276.18 169.827,276.18 169.827,273.401 161.549,273.401 161.549,269.746 170.446,269.746 
			170.446,266.956 158.22,266.956 158.22,283.445 170.761,283.445 170.761,280.667 161.549,280.667 		"/>
		<path fill="#FFFFFF" d="M183.667,274.34c-0.775-0.408-1.974-0.804-3.594-1.187c-1.619-0.383-2.639-0.749-3.059-1.102
			c-0.33-0.277-0.495-0.611-0.495-1.001c0-0.429,0.176-0.769,0.528-1.024c0.548-0.396,1.305-0.596,2.272-0.596
			c0.938,0,1.64,0.186,2.108,0.557s0.774,0.98,0.917,1.828l3.329-0.146c-0.053-1.514-0.602-2.726-1.647-3.633
			c-1.046-0.908-2.604-1.361-4.673-1.361c-1.268,0-2.35,0.191-3.245,0.574c-0.896,0.383-1.582,0.939-2.059,1.67
			c-0.477,0.731-0.714,1.517-0.714,2.355c0,1.306,0.506,2.411,1.519,3.319c0.719,0.646,1.972,1.188,3.756,1.631
			c1.388,0.345,2.276,0.585,2.666,0.72c0.569,0.202,0.969,0.44,1.197,0.714c0.229,0.273,0.344,0.605,0.344,0.995
			c0,0.608-0.272,1.139-0.815,1.592c-0.544,0.454-1.352,0.681-2.424,0.681c-1.013,0-1.816-0.255-2.413-0.765
			c-0.596-0.51-0.992-1.309-1.187-2.396l-3.239,0.314c0.217,1.844,0.885,3.249,2.002,4.212c1.117,0.964,2.718,1.445,4.803,1.445
			c1.433,0,2.629-0.2,3.588-0.602c0.96-0.4,1.702-1.014,2.228-1.839c0.524-0.824,0.787-1.71,0.787-2.654
			c0-1.042-0.22-1.918-0.658-2.626C185.051,275.308,184.443,274.749,183.667,274.34z"/>
		<rect x="188.848" y="266.956" fill="#FFFFFF" width="3.329" height="16.489"/>
		<polygon fill="#FFFFFF" points="202.175,262.648 200.623,266.012 202.625,266.012 205.719,262.648 		"/>
		<path fill="#FFFFFF" d="M202.648,266.675c-1.343,0-2.527,0.218-3.555,0.652c-0.771,0.323-1.483,0.817-2.131,1.485
			c-0.649,0.668-1.161,1.421-1.536,2.261c-0.502,1.14-0.753,2.549-0.753,4.229c0,2.625,0.723,4.686,2.17,6.182
			s3.397,2.243,5.849,2.243c2.423,0,4.356-0.751,5.805-2.255c1.446-1.503,2.171-3.587,2.171-6.248c0-2.685-0.73-4.78-2.188-6.287
			C207.021,267.429,205.077,266.675,202.648,266.675z M205.949,279.446c-0.852,0.957-1.94,1.435-3.268,1.435
			s-2.422-0.481-3.284-1.445c-0.862-0.963-1.294-2.379-1.294-4.246c0-1.896,0.42-3.316,1.261-4.257
			c0.839-0.94,1.945-1.412,3.317-1.412s2.473,0.466,3.301,1.395c0.829,0.931,1.243,2.34,1.243,4.229
			C207.226,277.057,206.8,278.49,205.949,279.446z"/>
		<polygon fill="#FFFFFF" points="223.287,277.968 216.539,266.956 213.3,266.956 213.3,283.445 216.393,283.445 216.393,272.692 
			223.04,283.445 226.381,283.445 226.381,266.956 223.287,266.956 		"/>
	</g>
</g>
</svg>
