<?xml version="1.0" encoding="utf-8"?>
<!-- Generator: Adobe Illustrator 16.0.0, SVG Export Plug-In . SVG Version: 6.00 Build 0)  -->
<!DOCTYPE svg PUBLIC "-//W3C//DTD SVG 1.0//EN" "http://www.w3.org/TR/2001/REC-SVG-20010904/DTD/svg10.dtd">
<svg version="1.0" id="Capa_1" xmlns="http://www.w3.org/2000/svg" xmlns:xlink="http://www.w3.org/1999/xlink" x="0px" y="0px"
	 width="300px" height="300px" viewBox="0 0 300 300" enable-background="new 0 0 300 300" xml:space="preserve">
<g>
	<path fill="#F47520" d="M242.623,300H57.378C25.82,300,0,274.18,0,242.622V57.377C0,25.82,25.82,0,57.378,0h185.245
		C274.181,0,300,25.82,300,57.377v185.245C300,274.18,274.181,300,242.623,300"/>
	<g opacity="0.4">
		<path fill="#FFFFFF" d="M222.105,92.863c-0.622-0.423-1.267-0.82-1.911-1.22c-0.259-0.159-0.517-0.32-0.774-0.482
			c-0.514-0.325-1.022-0.657-1.517-1.011c-0.247-0.176-0.49-0.357-0.728-0.545c-0.414-0.327-0.812-0.672-1.188-1.047
			c-0.376-0.375-0.729-0.779-1.05-1.224c-1.288-0.165-2.319-0.867-3.365-1.565c-0.529-0.353-1.208-1.104-1.771-0.45
			c-2.188,2.541-3.44,0.018-4.693-0.973c-0.549-0.435-0.689-0.874-0.624-1.307c0.392-0.643,0.768-1.295,1.127-1.958
			c0.055-0.084,0.106-0.166,0.149-0.247c2.065-3.854,3.514-7.841,4.358-11.922c0.687-3.163,1.058-6.445,1.058-9.814
			c0-25.478-20.653-46.131-46.132-46.131c-25.213,0-45.688,20.23-46.111,45.344c-0.128,0.554-0.2,1.139-0.179,1.774
			c0.403,11.624,4.312,21.56,11.798,29.632c8.45,9.513,20.769,15.513,34.492,15.513c11.495,0,22-4.214,30.077-11.17
			c1.294-1.039,2.536-2.176,3.711-3.442c0.795-0.857,1.62-0.451,2.299,0.115c0.897,0.748,2.954,1.146,2.354,2.448
			c-1.081,2.345,0.609,2.755,1.777,3.754c2.518,2.153,5.87,3.279,7.711,6.262c1.399-0.058,2.64,0.511,3.804,1.146
			c1.677,0.913,2.607,0.457,3.303-1.246c0.905-2.211,1.854-4.421,3.002-6.512C224.016,94.887,223.702,93.948,222.105,92.863z
			 M165.137,97.963c-21.473,0-38.879-17.407-38.879-38.881c0-21.473,17.406-38.88,38.879-38.88c21.474,0,38.881,17.407,38.881,38.88
			C204.018,80.556,186.61,97.963,165.137,97.963z"/>
		<path fill="#FFFFFF" d="M280.049,133.427c-0.878-0.654-1.859-1.18-2.778-1.785c-0.23-0.151-0.456-0.308-0.675-0.472
			c-0.439-0.329-0.852-0.691-1.219-1.112c-0.183-0.21-0.354-0.436-0.512-0.679c-3.83,0.828-7.691,1.536-11.479,2.532
			c-1.979,0.522-4.232,0.322-5.885,1.891c4.341,4.27,9.671,7.217,14.497,10.837c1.053,0.789,1.782,0.13,2.425-0.685
			c2.026-2.573,4.02-5.174,6.092-7.709C281.498,135.043,281.225,134.304,280.049,133.427z"/>
	</g>
	<g>
		<path fill="#FFFFFF" d="M80.512,200.451c4.271-1.08,8.723-1.447,13.087-2.164c2.042-0.334,3.889-0.104,5.807,0.887
			c7.355,3.803,14.826,7.38,22.185,11.174c2.096,1.08,3.945,1.303,6.268,0.604c16.681-5.021,33.405-9.898,50.122-14.799
			c6.01-1.763,5.941-1.731,5.569-7.914c-0.118-1.941-0.791-1.98-2.293-1.386c-2.773,1.098-5.596,2.071-8.396,3.104
			c-13.276,4.892-26.547,9.8-39.841,14.646c-0.892,0.325-1.863,1.313-2.92,0.325c-2.017-1.886-1.452-4.991,1.063-5.956
			c18.517-7.096,37.032-14.19,55.549-21.282c3.93-1.505,3.933-1.5,3.305-5.65c-0.53-3.504-0.532-3.51-3.738-2.188
			c-18.87,7.772-37.733,15.56-56.621,23.285c-1.018,0.416-2.368,1.888-3.291-0.351c-1.427-3.456-1.248-4.53,1.177-5.496
			c3.308-1.319,6.624-2.616,9.939-3.919c17.916-7.045,35.834-14.084,53.747-21.138c2.273-0.896,2.902-3.386,1.408-6.778
			c-1.025-2.33-2.534-0.272-3.537,0.138c-20.676,8.442-41.3,17.009-61.969,25.467c-1.067,0.438-2.758,2.461-3.593-0.339
			c-0.556-1.86-2.388-3.77,1.136-5.216c6.583-2.701,12.944-5.945,19.396-8.967c16.739-7.839,33.454-15.732,50.247-23.456
			c2.271-1.046,2.816-2.117,1.957-4.354c-0.652-1.696-1.146-3.494-1.415-5.291c-0.414-2.775-1.332-3.294-4.076-2.076
			c-23.23,10.309-46.554,20.407-69.784,30.711c-2.405,1.067-3.641,0.676-5.304-1.203c-8.493-9.596-17.132-19.063-25.735-28.562
			c-4.607-5.086-4.571-5.013-9.875-0.619c-1.583,1.312-1.964,2.405-1.146,4.378c3.428,8.27,6.677,16.612,9.983,24.932
			c1.246,3.133,1.236,3.197-1.969,3.201c-28.028,0.036-56.035,2.209-84.083,0.77c-1.495-0.077-2.418-0.344-2.87-0.986v51.287
			c0.718-2.085,2.719-2.276,7.824-3c14.547-2.062,29.059-4.37,43.579-6.618C61.144,204.142,70.921,202.875,80.512,200.451z"/>
		<path fill="#FFFFFF" d="M300,100.473c-8.452,1.36-19.98,2.855-28.406,4.372c-1.993,0.358-3.705,0.016-5.521-0.9
			c-11.338-5.723-22.727-11.344-34.102-16.992c-1.111-0.552-2.169-1.16-3.534-1.012c-1.101,0.119-2.201,0.232-3.303,0.343
			c-3.304,0.327-6.611,0.621-9.916,0.935c0.32,0.444,0.674,0.849,1.049,1.224s0.774,0.72,1.188,1.047
			c0.238,0.187,0.481,0.368,0.728,0.545c0.493,0.353,1.003,0.686,1.518,1.011c0.257,0.162,0.515,0.323,0.773,0.482
			c0.646,0.399,1.289,0.797,1.912,1.22c1.596,1.085,1.909,2.023,0.978,3.722c-1.148,2.091-2.098,4.301-3.002,6.511
			c-0.697,1.704-1.627,2.16-3.303,1.247c-1.164-0.634-2.405-1.204-3.805-1.146c-1.574,1.939-3.064,3.955-4.749,5.795
			c-1.237,1.351-1.042,2.373-0.037,3.755c3.334,4.583,5.81,10.146,10.021,13.637c3.958,3.28,9.699,4.408,14.657,6.482
			c1.24,0.519,2.546,0.921,3.713,1.571c3.576,1.99,7.155,2.017,11.081,0.935c3.178-0.876,6.376-2.18,9.826-1.714
			c1.652-1.568,3.905-1.368,5.885-1.891c3.786-0.997,7.648-1.705,11.479-2.532c0.195-0.081,0.392-0.152,0.59-0.215
			c1.381-0.438,2.807-0.45,4.247-0.278c5.259,0.629,14.763,1.388,20.035,1.85c0.559,0.049-0.39,0.137,0,0.267V100.42
			C299.916,100.438,300.093,100.457,300,100.473z"/>
		<polygon fill="#FFFFFF" points="133.342,25.598 133.342,10.258 120.91,23.752 126.706,33.458 		"/>
		<path fill="#FFFFFF" d="M175.969,21.186c0,0.001,0.001,0.003,0.001,0.003C175.979,21.19,175.982,21.189,175.969,21.186z"/>
		<path fill="#FFFFFF" d="M172.229,52.102c1.011,1.628,1.706,1.631,2.96,0.264c3.184-3.471,6.417-6.901,9.772-10.205
			c1.412-1.391,1.583-2.449,0.546-4.193c-3.286-5.529-6.373-11.177-9.538-16.778c-0.21-0.022-5.666-1.076-5.666-1.076
			c-2.04,5.387-4.032,10.792-6.149,16.149c-0.586,1.484-0.576,2.667,0.344,4.019C167.146,44.173,169.747,48.103,172.229,52.102z"/>
		<path fill="#FFFFFF" d="M117.071,145.806c0.817,1.233,1.715,1.585,3.137,1.276c11.842-2.577,23.688-5.121,35.543-7.635
			c1.421-0.302,2.326-0.992,3.094-2.252c6.515-10.684,13.235-22.436,18.727-33.689c-1.094,0.293-1.994,0.446-2.847,0.608
			c-14.232,2.717-27.123-0.254-38.598-9.153c-10.538-8.172-16.755-20.974-17.198-32.04c-0.149-3.747,0.624-7.902,0.663-11.656
			c-0.02-0.158-0.911-2.762-0.933-2.932c-0.011-0.085-0.021-0.173-0.033-0.265c-0.022-0.185-0.047-0.386-0.074-0.615
			c-0.043-0.344-0.093-0.751-0.155-1.259c-3.037,4.726-5.63,8.975-8.456,13.062c-1.271,1.839-1.41,3.201-0.083,5.122
			c2.842,4.115,5.029,8.726,8.162,12.583c3.68,4.532,3.697,8.366,0.157,12.908c-2.358,3.024-3.979,6.622-6.182,10.396
			c-5.001-8.734-9.673-16.895-14.41-25.167c-0.323,0.42-0.578,0.618-0.653,0.87c-2.571,8.666-5.122,17.339-7.687,26.006
			c-0.333,1.121,0,2.033,0.625,2.971C98.956,118.553,108.033,132.166,117.071,145.806z"/>
		<path fill="#FFFFFF" d="M142.271,68.381c0.575,1.527,0.588,2.9,0.022,4.444c-1.617,4.424-3.103,8.896-4.64,13.351
			c0.229,1.366,1.281,2.076,2.251,2.867c8.496,6.925,18.374,9.472,29.09,8.65c1.335-0.103,2.669-0.244,3.989-0.456
			c0.927-0.148,1.845-0.332,2.752-0.559c0.151-0.038,0.303-0.078,0.453-0.118c0.452-0.121,0.9-0.254,1.346-0.398
			c0.217-0.07,0.431-0.145,0.644-0.221c1.549-0.553,3.045-1.269,4.461-2.203c0.472-0.312,0.935-0.648,1.389-1.011
			c0.015-0.013,0.03-0.023,0.047-0.036c1.074-2.044,2.054-4.146,3.252-6.114c0.987-1.624,0.878-2.861-0.284-4.41
			c-3.929-5.234-7.689-10.594-11.545-15.884c-0.402-0.55-0.575-1.485-1.715-1.358c-0.431,6.822-0.849,13.623-1.303,20.42
			c-0.066,0.997,0.245,2.123-0.993,2.787c-4.543,2.438-9.056,4.929-14.098,7.683c0.376-1.511,0.57-2.424,0.831-3.316
			c1.912-6.555,3.773-13.126,5.799-19.646c0.592-1.905,0.419-3.446-0.551-5.178C157.4,56.848,151.424,45.969,145.41,35.11
			c-0.311-0.562-0.461-1.259-1.427-1.652c-1.789,5.287-3.392,10.617-5.418,15.782c-1.202,3.067-1.277,5.795,0.009,8.823
			C140,61.42,140.983,64.962,142.271,68.381z"/>
		<path fill="#FFFFFF" d="M135.584,84.346l1.327-9.597c0,0-4.146-3.912-10.101-9.099C127.127,72.427,132.647,80.445,135.584,84.346z
			"/>
		<polygon fill="#FFFFFF" points="84.277,227.883 84.277,244.237 95.885,244.237 95.885,241.458 87.606,241.458 87.606,227.883 		
			"/>
		<rect x="98.157" y="227.748" fill="#FFFFFF" width="3.329" height="16.489"/>
		<path fill="#FFFFFF" d="M116.529,243.343c0.604-0.424,1.08-0.989,1.43-1.699c0.349-0.707,0.522-1.437,0.522-2.188
			c0-0.951-0.27-1.78-0.81-2.485c-0.54-0.704-1.312-1.203-2.318-1.496c0.713-0.321,1.278-0.806,1.693-1.45
			c0.416-0.646,0.625-1.354,0.625-2.126c0-0.713-0.169-1.355-0.506-1.929c-0.338-0.574-0.76-1.033-1.266-1.378
			c-0.506-0.346-1.081-0.572-1.721-0.681c-0.642-0.108-1.614-0.163-2.919-0.163h-6.591v16.489h5.611
			c2.122-0.016,3.461-0.053,4.016-0.113C115.183,244.026,115.927,243.767,116.529,243.343z M107.998,230.492h1.913
			c1.566,0,2.515,0.019,2.846,0.057c0.555,0.067,0.973,0.261,1.254,0.579c0.28,0.319,0.422,0.732,0.422,1.242
			c0,0.532-0.164,0.962-0.49,1.288s-0.774,0.523-1.344,0.591c-0.314,0.038-1.121,0.057-2.418,0.057h-2.183V230.492z
			 M111.081,241.459h-3.083v-4.409h2.688c1.515,0,2.499,0.078,2.953,0.235c0.454,0.158,0.8,0.409,1.04,0.755
			c0.239,0.345,0.36,0.764,0.36,1.26c0,0.584-0.156,1.051-0.467,1.4c-0.312,0.349-0.715,0.567-1.21,0.657
			C113.041,241.425,112.28,241.459,111.081,241.459z"/>
		<polygon fill="#FFFFFF" points="133.834,241.458 124.623,241.458 124.623,236.972 132.901,236.972 132.901,234.192 
			124.623,234.192 124.623,230.537 133.521,230.537 133.521,227.748 121.294,227.748 121.294,244.237 133.834,244.237 		"/>
		<path fill="#FFFFFF" d="M149.48,241.021c-0.795-1.282-1.427-2.175-1.896-2.678c-0.469-0.502-1.063-0.963-1.783-1.383
			c1.448-0.21,2.534-0.718,3.262-1.524c0.728-0.806,1.092-1.828,1.092-3.064c0-0.976-0.24-1.841-0.721-2.599
			c-0.479-0.757-1.118-1.284-1.917-1.58c-0.799-0.297-2.079-0.444-3.842-0.444h-7.007v16.488h3.329v-6.883h0.676
			c0.765,0,1.322,0.062,1.675,0.185c0.353,0.125,0.687,0.354,1.001,0.688c0.315,0.333,0.9,1.141,1.755,2.424l2.407,3.587h3.981
			L149.48,241.021z M142.462,234.722h-2.464v-4.185h2.6c1.349,0,2.158,0.02,2.428,0.056c0.54,0.091,0.959,0.307,1.255,0.647
			s0.444,0.789,0.444,1.345c0,0.494-0.112,0.907-0.338,1.236c-0.225,0.331-0.535,0.562-0.933,0.697
			C145.057,234.654,144.059,234.722,142.462,234.722z"/>
		<polygon fill="#FFFFFF" points="160.334,244.237 160.334,230.537 165.216,230.537 165.216,227.748 152.112,227.748 
			152.112,230.537 157.005,230.537 157.005,244.237 		"/>
		<path fill="#FFFFFF" d="M168.871,240.491h6.591l1.439,3.745h3.622l-6.602-16.488H170.4l-6.422,16.488h3.532L168.871,240.491z
			 M172.122,231.595l2.271,6.119h-4.499L172.122,231.595z"/>
		<path fill="#FFFFFF" d="M193.987,229.581c-0.69-0.728-1.519-1.233-2.486-1.519c-0.72-0.21-1.766-0.314-3.138-0.314h-6.085v16.488
			h6.265c1.229,0,2.212-0.116,2.947-0.348c0.982-0.315,1.762-0.755,2.34-1.315c0.765-0.744,1.353-1.714,1.767-2.915
			c0.336-0.981,0.506-2.15,0.506-3.508c0-1.545-0.181-2.844-0.541-3.897C195.202,231.199,194.677,230.309,193.987,229.581z
			 M192.322,239.023c-0.225,0.738-0.516,1.269-0.871,1.592c-0.356,0.322-0.805,0.551-1.345,0.686
			c-0.412,0.105-1.084,0.158-2.013,0.158h-2.486v-10.922h1.496c1.356,0,2.269,0.053,2.732,0.157
			c0.623,0.136,1.137,0.395,1.541,0.776c0.405,0.382,0.721,0.915,0.945,1.598c0.226,0.683,0.338,1.661,0.338,2.935
			C192.66,237.278,192.548,238.285,192.322,239.023z"/>
		<polygon fill="#FFFFFF" points="209.239,244.237 212.558,244.237 212.558,237.319 218.619,227.748 214.784,227.748 
			210.982,234.271 207.103,227.748 203.199,227.748 209.239,237.297 		"/>
		<path fill="#FFFFFF" d="M55.669,259.421c-0.775-0.408-1.975-0.804-3.594-1.187c-1.62-0.382-2.639-0.749-3.059-1.102
			c-0.331-0.276-0.495-0.611-0.495-1.001c0-0.428,0.175-0.769,0.528-1.024c0.548-0.396,1.305-0.595,2.271-0.595
			c0.938,0,1.641,0.185,2.109,0.557c0.469,0.37,0.774,0.979,0.916,1.827l3.33-0.146c-0.053-1.514-0.602-2.726-1.647-3.633
			c-1.047-0.908-2.604-1.361-4.674-1.361c-1.268,0-2.349,0.191-3.245,0.574s-1.583,0.939-2.058,1.669
			c-0.478,0.732-0.715,1.518-0.715,2.356c0,1.306,0.506,2.412,1.519,3.318c0.72,0.646,1.972,1.188,3.757,1.632
			c1.387,0.346,2.275,0.585,2.666,0.719c0.569,0.204,0.969,0.442,1.197,0.716c0.229,0.272,0.343,0.605,0.343,0.995
			c0,0.607-0.271,1.138-0.815,1.591c-0.543,0.454-1.352,0.682-2.424,0.682c-1.012,0-1.816-0.256-2.412-0.765
			c-0.596-0.511-0.992-1.31-1.187-2.396l-3.239,0.314c0.217,1.845,0.884,3.249,2.001,4.212c1.118,0.964,2.719,1.446,4.804,1.446
			c1.432,0,2.628-0.201,3.588-0.603c0.959-0.4,1.702-1.015,2.227-1.839c0.525-0.824,0.788-1.71,0.788-2.654
			c0-1.041-0.22-1.918-0.658-2.626S56.445,259.83,55.669,259.421z"/>
		<polygon fill="#FFFFFF" points="64.279,261.262 72.557,261.262 72.557,258.482 64.279,258.482 64.279,254.827 73.176,254.827 
			73.176,252.037 60.95,252.037 60.95,268.526 73.491,268.526 73.491,265.748 64.279,265.748 		"/>
		<path fill="#FFFFFF" d="M83.985,262.464h3.812v2.092c-0.503,0.39-1.104,0.723-1.805,0.995c-0.702,0.275-1.401,0.411-2.098,0.411
			c-1.41,0-2.55-0.49-3.42-1.468c-0.869-0.979-1.305-2.446-1.305-4.403c0-1.815,0.429-3.183,1.288-4.105
			c0.858-0.923,2.016-1.384,3.469-1.384c0.96,0,1.761,0.235,2.402,0.702c0.642,0.471,1.077,1.108,1.311,1.92l3.307-0.619
			c-0.33-1.515-1.07-2.702-2.223-3.561c-1.15-0.858-2.749-1.288-4.797-1.288c-1.573,0-2.891,0.274-3.947,0.821
			c-1.388,0.713-2.441,1.736-3.161,3.071c-0.719,1.334-1.079,2.86-1.079,4.577c0,1.582,0.322,3.046,0.968,4.393
			c0.645,1.347,1.608,2.381,2.891,3.104s2.785,1.085,4.51,1.085c1.358,0,2.697-0.258,4.021-0.771
			c1.323-0.514,2.334-1.107,3.031-1.782v-6.569h-7.176V262.464z"/>
		<path fill="#FFFFFF" d="M97.397,268.262c0.813,0.364,2.008,0.546,3.583,0.546c1.304,0,2.361-0.167,3.172-0.5
			c0.81-0.334,1.456-0.782,1.939-1.345c0.484-0.562,0.816-1.251,0.996-2.07c0.18-0.816,0.27-2.215,0.27-4.193v-8.661h-3.329v9.12
			c0,1.306-0.049,2.24-0.146,2.802c-0.099,0.562-0.387,1.037-0.867,1.423c-0.479,0.387-1.191,0.578-2.137,0.578
			c-0.93,0-1.663-0.203-2.199-0.612c-0.535-0.408-0.875-0.949-1.018-1.625c-0.083-0.42-0.124-1.339-0.124-2.756v-8.93h-3.329v8.795
			c0,1.845,0.108,3.239,0.326,4.184c0.15,0.639,0.461,1.247,0.934,1.828S96.584,267.898,97.397,268.262z"/>
		<path fill="#FFFFFF" d="M121.794,262.633c-0.468-0.502-1.062-0.964-1.783-1.384c1.448-0.209,2.535-0.718,3.262-1.524
			c0.729-0.805,1.092-1.827,1.092-3.064c0-0.975-0.24-1.841-0.721-2.599c-0.48-0.757-1.119-1.283-1.917-1.579
			c-0.799-0.297-2.079-0.445-3.842-0.445h-7.007v16.489h3.329v-6.884h0.676c0.765,0,1.323,0.062,1.675,0.186
			c0.353,0.124,0.687,0.353,1.001,0.687c0.315,0.334,0.9,1.142,1.756,2.425l2.406,3.587h3.981l-2.014-3.217
			C122.895,264.027,122.262,263.135,121.794,262.633z M116.67,259.011h-2.463v-4.184h2.599c1.35,0,2.159,0.019,2.43,0.056
			c0.54,0.09,0.957,0.306,1.254,0.647c0.296,0.341,0.444,0.789,0.444,1.344c0,0.495-0.112,0.907-0.338,1.237
			c-0.225,0.331-0.535,0.562-0.933,0.696C119.265,258.943,118.269,259.011,116.67,259.011z"/>
		<rect x="127.401" y="252.037" fill="#FFFFFF" width="3.329" height="16.489"/>
		<path fill="#FFFFFF" d="M145.6,253.871c-0.69-0.728-1.519-1.233-2.486-1.519c-0.72-0.21-1.766-0.314-3.138-0.314h-6.085v16.488
			h6.265c1.23,0,2.213-0.116,2.947-0.348c0.982-0.315,1.762-0.755,2.34-1.316c0.765-0.743,1.354-1.713,1.766-2.914
			c0.338-0.982,0.506-2.151,0.506-3.508c0-1.546-0.18-2.845-0.54-3.898C146.814,255.489,146.29,254.598,145.6,253.871z
			 M143.935,263.313c-0.225,0.737-0.515,1.269-0.871,1.592c-0.356,0.321-0.805,0.551-1.345,0.686
			c-0.412,0.105-1.083,0.158-2.013,0.158h-2.486v-10.922h1.496c1.356,0,2.269,0.052,2.732,0.157
			c0.624,0.136,1.137,0.395,1.542,0.776c0.404,0.382,0.72,0.915,0.944,1.597c0.226,0.683,0.338,1.662,0.338,2.936
			C144.272,261.567,144.16,262.575,143.935,263.313z"/>
		<path fill="#FFFFFF" d="M153.754,264.781h6.592l1.439,3.745h3.621l-6.602-16.488h-3.521l-6.423,16.488h3.532L153.754,264.781z
			 M157.005,255.885l2.272,6.118h-4.5L157.005,255.885z"/>
		<path fill="#FFFFFF" d="M176.374,268.179c0.981-0.315,1.762-0.755,2.339-1.316c0.765-0.743,1.354-1.713,1.767-2.914
			c0.337-0.982,0.506-2.151,0.506-3.508c0-1.546-0.181-2.845-0.54-3.898c-0.36-1.053-0.885-1.944-1.574-2.671
			c-0.69-0.728-1.52-1.233-2.487-1.519c-0.719-0.21-1.765-0.314-3.137-0.314h-6.085v16.488h6.265
			C174.656,268.526,175.639,268.41,176.374,268.179z M170.491,265.749v-10.922h1.496c1.356,0,2.268,0.052,2.732,0.157
			c0.623,0.136,1.136,0.395,1.541,0.776s0.72,0.915,0.945,1.597c0.225,0.683,0.337,1.662,0.337,2.936
			c0,1.274-0.112,2.282-0.337,3.021c-0.226,0.737-0.516,1.269-0.872,1.592c-0.356,0.321-0.804,0.551-1.344,0.686
			c-0.412,0.105-1.084,0.158-2.014,0.158H170.491z"/>
		<path fill="#FFFFFF" d="M199.409,268.179c0.982-0.315,1.762-0.755,2.339-1.316c0.765-0.743,1.354-1.713,1.767-2.914
			c0.337-0.982,0.506-2.151,0.506-3.508c0-1.546-0.181-2.845-0.54-3.898c-0.359-1.053-0.885-1.944-1.574-2.671
			c-0.69-0.728-1.52-1.233-2.486-1.519c-0.72-0.21-1.766-0.314-3.138-0.314h-6.085v16.488h6.265
			C197.691,268.526,198.674,268.41,199.409,268.179z M193.526,265.749v-10.922h1.496c1.356,0,2.269,0.052,2.732,0.157
			c0.623,0.136,1.136,0.395,1.541,0.776s0.72,0.915,0.945,1.597c0.225,0.683,0.338,1.662,0.338,2.936
			c0,1.274-0.113,2.282-0.338,3.021c-0.226,0.737-0.516,1.269-0.872,1.592c-0.356,0.321-0.804,0.551-1.344,0.686
			c-0.412,0.105-1.084,0.158-2.014,0.158H193.526z"/>
		<polygon fill="#FFFFFF" points="210.173,261.262 218.451,261.262 218.451,258.482 210.173,258.482 210.173,254.827 
			219.069,254.827 219.069,252.037 206.844,252.037 206.844,268.526 219.385,268.526 219.385,265.748 210.173,265.748 		"/>
		<polygon fill="#FFFFFF" points="232.027,252.173 228.698,252.173 228.698,268.526 240.306,268.526 240.306,265.748 
			232.027,265.748 		"/>
		<path fill="#FFFFFF" d="M247.425,252.038l-6.422,16.488h3.531l1.361-3.745h6.591l1.439,3.745h3.622l-6.603-16.488H247.425z
			 M246.919,262.003l2.227-6.118l2.272,6.118H246.919z"/>
		<path fill="#FFFFFF" d="M104.793,276.574c-0.614-0.165-1.935-0.247-3.959-0.247h-5.343v16.489h3.33v-6.22h2.169
			c1.509,0,2.659-0.079,3.454-0.237c0.585-0.126,1.16-0.388,1.727-0.781c0.565-0.395,1.033-0.936,1.4-1.626
			c0.367-0.688,0.552-1.54,0.552-2.553c0-1.312-0.319-2.383-0.957-3.211C106.529,277.36,105.738,276.821,104.793,276.574z
			 M104.314,282.727c-0.251,0.367-0.599,0.638-1.04,0.811c-0.442,0.172-1.32,0.259-2.632,0.259h-1.821v-4.679h1.607
			c1.199,0,1.998,0.036,2.396,0.111c0.539,0.098,0.984,0.342,1.338,0.732c0.353,0.39,0.528,0.883,0.528,1.482
			C104.691,281.932,104.566,282.358,104.314,282.727z"/>
		<polygon fill="#FFFFFF" points="114.185,285.551 122.463,285.551 122.463,282.772 114.185,282.772 114.185,279.117 
			123.082,279.117 123.082,276.327 110.855,276.327 110.855,292.816 123.396,292.816 123.396,290.037 114.185,290.037 		"/>
		<path fill="#FFFFFF" d="M137.147,286.922c-0.469-0.501-1.063-0.963-1.784-1.384c1.448-0.209,2.535-0.717,3.263-1.523
			c0.728-0.806,1.091-1.827,1.091-3.064c0-0.975-0.24-1.841-0.72-2.599c-0.48-0.757-1.119-1.283-1.918-1.579
			c-0.798-0.298-2.079-0.445-3.841-0.445h-7.007v16.489h3.329v-6.884h0.675c0.765,0,1.323,0.061,1.676,0.186
			c0.352,0.124,0.687,0.353,1,0.687c0.315,0.333,0.901,1.141,1.756,2.424l2.407,3.588h3.981l-2.014-3.218
			C138.247,288.317,137.615,287.425,137.147,286.922z M132.023,283.301h-2.463v-4.184h2.599c1.349,0,2.159,0.018,2.429,0.055
			c0.54,0.091,0.958,0.307,1.254,0.647c0.297,0.342,0.444,0.79,0.444,1.345c0,0.494-0.112,0.906-0.337,1.236
			c-0.226,0.331-0.536,0.562-0.934,0.697C134.618,283.233,133.621,283.301,132.023,283.301z"/>
		<path fill="#FFFFFF" d="M152.938,283.711c-0.775-0.409-1.974-0.805-3.594-1.188c-1.619-0.382-2.639-0.749-3.059-1.102
			c-0.331-0.276-0.495-0.61-0.495-1c0-0.429,0.176-0.77,0.528-1.024c0.548-0.396,1.305-0.596,2.272-0.596
			c0.938,0,1.64,0.186,2.108,0.557s0.774,0.979,0.917,1.828l3.329-0.147c-0.053-1.514-0.602-2.726-1.647-3.632
			c-1.046-0.908-2.604-1.361-4.673-1.361c-1.268,0-2.35,0.19-3.245,0.573c-0.897,0.384-1.583,0.94-2.059,1.67
			c-0.477,0.731-0.715,1.517-0.715,2.356c0,1.306,0.506,2.411,1.52,3.318c0.719,0.646,1.971,1.188,3.756,1.631
			c1.387,0.346,2.276,0.585,2.666,0.72c0.569,0.203,0.969,0.441,1.197,0.715c0.229,0.273,0.344,0.605,0.344,0.995
			c0,0.607-0.272,1.139-0.815,1.592c-0.544,0.454-1.353,0.681-2.424,0.681c-1.013,0-1.816-0.255-2.413-0.765
			c-0.596-0.511-0.991-1.309-1.186-2.396l-3.24,0.314c0.217,1.844,0.885,3.248,2.002,4.212c1.117,0.963,2.718,1.445,4.803,1.445
			c1.433,0,2.629-0.201,3.588-0.602c0.96-0.401,1.702-1.015,2.228-1.839c0.524-0.825,0.787-1.711,0.787-2.654
			c0-1.042-0.22-1.918-0.658-2.627C154.322,284.679,153.715,284.12,152.938,283.711z"/>
		<path fill="#FFFFFF" d="M165.52,276.046c-1.343,0-2.527,0.217-3.554,0.651c-0.773,0.323-1.484,0.818-2.132,1.485
			c-0.649,0.668-1.16,1.421-1.535,2.262c-0.503,1.14-0.754,2.548-0.754,4.228c0,2.625,0.724,4.686,2.171,6.182
			s3.396,2.244,5.849,2.244c2.422,0,4.356-0.752,5.804-2.256c1.447-1.503,2.171-3.587,2.171-6.248c0-2.684-0.729-4.78-2.188-6.287
			C169.893,276.799,167.949,276.046,165.52,276.046z M168.82,288.817c-0.851,0.957-1.939,1.435-3.267,1.435
			s-2.423-0.482-3.285-1.446c-0.862-0.963-1.293-2.378-1.293-4.245c0-1.896,0.419-3.316,1.26-4.258
			c0.839-0.94,1.945-1.412,3.318-1.412c1.371,0,2.473,0.466,3.301,1.396c0.828,0.931,1.242,2.339,1.242,4.229
			C170.097,286.428,169.672,287.862,168.82,288.817z"/>
		<polygon fill="#FFFFFF" points="186.159,287.338 179.41,276.327 176.171,276.327 176.171,292.816 179.265,292.816 
			179.265,282.062 185.911,292.816 189.252,292.816 189.252,276.327 186.159,276.327 		"/>
		<path fill="#FFFFFF" d="M197.52,276.327l-6.423,16.489h3.531l1.361-3.746h6.592l1.439,3.746h3.621l-6.603-16.489H197.52z
			 M197.013,286.293l2.228-6.119l2.271,6.119H197.013z"/>
	</g>
</g>
</svg>
