<?xml version="1.0" encoding="utf-8"?>
<!-- Generator: Adobe Illustrator 16.0.0, SVG Export Plug-In . SVG Version: 6.00 Build 0)  -->
<!DOCTYPE svg PUBLIC "-//W3C//DTD SVG 1.0//EN" "http://www.w3.org/TR/2001/REC-SVG-20010904/DTD/svg10.dtd">
<svg version="1.0" id="Capa_1" xmlns="http://www.w3.org/2000/svg" xmlns:xlink="http://www.w3.org/1999/xlink" x="0px" y="0px"
	 width="300px" height="300px" viewBox="0 0 300 300" enable-background="new 0 0 300 300" xml:space="preserve">
<g>
	<path fill="#8E21F4" d="M242.624,300H57.377C25.819,300,0,274.18,0,242.623V57.376C0,25.819,25.819,0,57.377,0h185.246
		C274.181,0,300,25.819,300,57.376v185.246C300,274.18,274.181,300,242.624,300"/>
	<g opacity="0.3">
		<path fill="#FFFFFF" d="M222.105,92.863c-0.621-0.422-1.266-0.82-1.911-1.219c-0.259-0.16-0.518-0.32-0.774-0.484
			c-0.514-0.324-1.023-0.657-1.517-1.01c-0.247-0.177-0.49-0.358-0.728-0.545c-0.413-0.327-0.812-0.672-1.188-1.047
			c-0.375-0.375-0.729-0.779-1.049-1.223c-1.289-0.166-2.32-0.868-3.366-1.566c-0.53-0.353-1.208-1.105-1.771-0.451
			c-2.188,2.542-3.44,0.018-4.692-0.972c-0.549-0.435-0.689-0.875-0.624-1.307c0.392-0.643,0.767-1.295,1.127-1.958
			c0.055-0.084,0.105-0.166,0.149-0.247c2.065-3.853,3.514-7.841,4.358-11.921c0.687-3.164,1.057-6.446,1.057-9.814
			c0-25.478-20.653-46.131-46.131-46.131c-25.214,0-45.689,20.23-46.111,45.343c-0.128,0.555-0.201,1.139-0.179,1.775
			c0.404,11.624,4.312,21.559,11.797,29.632c8.451,9.513,20.769,15.513,34.493,15.513c11.496,0,22-4.215,30.077-11.17
			c1.293-1.04,2.536-2.176,3.711-3.443c0.795-0.856,1.62-0.45,2.299,0.115c0.898,0.749,2.954,1.146,2.353,2.449
			c-1.08,2.344,0.61,2.755,1.778,3.754c2.517,2.154,5.869,3.28,7.71,6.262c1.399-0.058,2.64,0.511,3.805,1.146
			c1.676,0.913,2.607,0.457,3.302-1.247c0.905-2.211,1.854-4.421,3.001-6.511C224.016,94.887,223.702,93.948,222.105,92.863z
			 M165.137,97.962c-21.473,0-38.88-17.408-38.88-38.881c0-21.473,17.407-38.88,38.88-38.88s38.881,17.408,38.881,38.88
			C204.018,80.555,186.61,97.962,165.137,97.962z"/>
		<path fill="#FFFFFF" d="M280.048,133.426c-0.877-0.653-1.859-1.18-2.778-1.784c-0.229-0.151-0.455-0.309-0.675-0.473
			c-0.439-0.329-0.852-0.69-1.218-1.111c-0.183-0.21-0.354-0.436-0.512-0.679c-3.83,0.827-7.692,1.535-11.478,2.532
			c-1.981,0.522-4.233,0.323-5.886,1.891c4.341,4.269,9.671,7.217,14.498,10.836c1.053,0.79,1.783,0.131,2.424-0.684
			c2.027-2.573,4.02-5.173,6.092-7.709C281.499,135.043,281.225,134.304,280.048,133.426z"/>
	</g>
	<g>
		<path fill="#FFFFFF" d="M196.274,138.727c-0.652-1.696-1.146-3.495-1.415-5.291c-0.414-2.776-1.333-3.293-4.077-2.075
			c-23.23,10.309-46.553,20.406-69.784,30.71c-2.405,1.067-3.64,0.677-5.304-1.204c-8.493-9.595-17.131-19.063-25.735-28.561
			c-4.606-5.085-4.571-5.013-9.875-0.619c-1.583,1.312-1.963,2.406-1.146,4.378c3.427,8.27,6.677,16.612,9.983,24.931
			c1.245,3.134,1.236,3.198-1.969,3.202c-28.028,0.037-56.036,2.208-84.083,0.77c-1.577-0.081-2.437-0.378-2.87-1.099v51.629
			c0.659-2.293,2.542-2.481,7.823-3.229c14.548-2.063,29.06-4.371,43.58-6.619c9.741-1.509,19.517-2.775,29.108-5.199
			c4.271-1.079,8.723-1.446,13.087-2.165c2.042-0.334,3.889-0.104,5.807,0.887c7.355,3.802,14.825,7.38,22.184,11.174
			c2.096,1.081,3.946,1.302,6.268,0.603c16.681-5.021,33.405-9.898,50.122-14.798c6.01-1.762,5.942-1.731,5.569-7.915
			c-0.118-1.941-0.791-1.98-2.293-1.385c-2.773,1.098-5.596,2.072-8.396,3.103c-13.277,4.892-26.547,9.8-39.841,14.646
			c-0.892,0.325-1.864,1.313-2.92,0.325c-2.017-1.885-1.453-4.991,1.064-5.956c18.516-7.095,37.032-14.19,55.549-21.282
			c3.929-1.505,3.931-1.5,3.304-5.651c-0.53-3.504-0.532-3.51-3.738-2.189c-18.871,7.773-37.734,15.56-56.622,23.286
			c-1.017,0.416-2.368,1.887-3.291-0.351c-1.427-3.456-1.248-4.53,1.176-5.496c3.309-1.319,6.625-2.616,9.94-3.919
			c17.917-7.044,35.834-14.083,53.748-21.138c2.273-0.896,2.902-3.386,1.408-6.778c-1.025-2.331-2.534-0.272-3.538,0.138
			c-20.675,8.442-41.299,17.008-61.968,25.466c-1.068,0.438-2.757,2.461-3.593-0.338c-0.556-1.86-2.387-3.769,1.136-5.216
			c6.583-2.702,12.944-5.945,19.396-8.966c16.739-7.84,33.456-15.733,50.247-23.457
			C196.587,142.035,197.134,140.964,196.274,138.727z"/>
		<path fill="#FFFFFF" d="M300,100.473c-8.453,1.36-19.98,2.855-28.406,4.372c-1.994,0.358-3.706,0.016-5.523-0.9
			c-11.337-5.723-22.726-11.343-34.101-16.992c-1.111-0.552-2.169-1.161-3.533-1.013c-1.101,0.119-2.202,0.233-3.303,0.343
			c-3.303,0.329-6.612,0.622-9.917,0.935c0.321,0.444,0.674,0.848,1.05,1.224c0.375,0.375,0.774,0.72,1.188,1.046
			c0.237,0.188,0.48,0.369,0.727,0.546c0.493,0.353,1.003,0.685,1.517,1.01c0.258,0.162,0.516,0.324,0.774,0.484
			c0.645,0.398,1.29,0.796,1.912,1.219c1.596,1.085,1.91,2.023,0.978,3.722c-1.148,2.09-2.097,4.3-3.001,6.512
			c-0.697,1.704-1.627,2.16-3.303,1.246c-1.165-0.633-2.405-1.203-3.805-1.145c-1.573,1.94-3.065,3.955-4.749,5.794
			c-1.237,1.351-1.042,2.373-0.037,3.755c3.334,4.584,5.809,10.146,10.021,13.636c3.958,3.281,9.699,4.409,14.658,6.483
			c1.24,0.519,2.545,0.921,3.713,1.572c3.575,1.989,7.155,2.016,11.08,0.934c3.178-0.875,6.376-2.178,9.826-1.713
			c1.653-1.568,3.905-1.369,5.885-1.891c3.787-0.997,7.648-1.705,11.479-2.532c0.195-0.081,0.392-0.152,0.59-0.215
			c1.38-0.439,2.806-0.451,4.247-0.279c5.259,0.629,14.763,1.387,20.035,1.849c0.559,0.05-0.391,0.137,0,0.267v-30.321
			C299.916,100.438,300.093,100.457,300,100.473z"/>
		<polygon fill="#FFFFFF" points="133.341,25.597 133.341,10.257 120.91,23.75 126.706,33.457 		"/>
		<path fill="#FFFFFF" d="M172.229,52.102c1.011,1.627,1.706,1.63,2.96,0.263c3.183-3.47,6.417-6.901,9.771-10.205
			c1.414-1.391,1.583-2.449,0.547-4.194c-3.287-5.529-6.374-11.176-9.538-16.778c-0.21-0.023-5.667-1.077-5.667-1.077
			c-2.04,5.387-4.032,10.792-6.148,16.149c-0.586,1.485-0.577,2.667,0.344,4.019C167.146,44.173,169.746,48.102,172.229,52.102z"/>
		<path fill="#FFFFFF" d="M175.968,21.185c0.001,0.001,0.001,0.002,0.002,0.003C175.979,21.189,175.981,21.189,175.968,21.185z"/>
		<path fill="#FFFFFF" d="M117.071,145.806c0.817,1.233,1.715,1.585,3.137,1.276c11.841-2.578,23.688-5.121,35.543-7.634
			c1.42-0.302,2.326-0.992,3.094-2.251c6.514-10.684,13.235-22.436,18.726-33.69c-1.094,0.293-1.995,0.446-2.846,0.609
			c-14.233,2.716-27.124-0.254-38.599-9.153c-10.538-8.172-16.755-20.974-17.197-32.042c-0.149-3.746,0.623-7.901,0.662-11.655
			c-0.02-0.159-0.912-2.762-0.932-2.932c-0.011-0.085-0.021-0.173-0.033-0.265c-0.022-0.185-0.047-0.385-0.075-0.614
			c-0.043-0.344-0.092-0.751-0.154-1.26c-3.037,4.726-5.631,8.975-8.457,13.063c-1.271,1.839-1.41,3.202-0.083,5.123
			c2.842,4.115,5.029,8.725,8.163,12.583c3.68,4.531,3.697,8.366,0.157,12.907c-2.358,3.025-3.979,6.623-6.182,10.396
			c-5.001-8.734-9.673-16.894-14.41-25.167c-0.323,0.42-0.578,0.618-0.653,0.87c-2.572,8.667-5.121,17.339-7.687,26.007
			c-0.332,1.12,0,2.033,0.626,2.969C98.956,118.551,108.033,132.167,117.071,145.806z"/>
		<path fill="#FFFFFF" d="M142.27,68.38c0.575,1.528,0.587,2.901,0.023,4.444c-1.619,4.424-3.103,8.896-4.641,13.351
			c0.229,1.366,1.281,2.076,2.251,2.867c8.496,6.925,18.374,9.471,29.09,8.65c1.335-0.103,2.668-0.244,3.989-0.456
			c0.926-0.147,1.845-0.332,2.752-0.559c0.151-0.038,0.302-0.078,0.452-0.118c0.454-0.12,0.902-0.254,1.346-0.399
			c0.217-0.07,0.432-0.145,0.644-0.221c1.549-0.553,3.045-1.268,4.461-2.204c0.472-0.312,0.935-0.647,1.388-1.01
			c0.016-0.013,0.031-0.023,0.047-0.036c1.074-2.044,2.054-4.146,3.252-6.114c0.987-1.624,0.878-2.861-0.283-4.41
			c-3.93-5.234-7.69-10.594-11.546-15.883c-0.401-0.551-0.574-1.485-1.714-1.358c-0.431,6.822-0.849,13.623-1.303,20.42
			c-0.066,0.997,0.245,2.123-0.993,2.787c-4.542,2.439-9.056,4.929-14.098,7.683c0.376-1.511,0.57-2.424,0.831-3.317
			c1.912-6.555,3.773-13.125,5.799-19.646c0.592-1.906,0.419-3.447-0.551-5.178c-6.067-10.828-12.044-21.706-18.058-32.564
			c-0.311-0.562-0.46-1.259-1.427-1.652c-1.789,5.287-3.391,10.618-5.417,15.782c-1.203,3.068-1.277,5.795,0.008,8.824
			C140,61.419,140.982,64.961,142.27,68.38z"/>
		<path fill="#FFFFFF" d="M135.584,84.346l1.327-9.598c0,0-4.146-3.912-10.101-9.099C127.127,72.427,132.646,80.444,135.584,84.346z
			"/>
		<polygon fill="#FFFFFF" points="72.388,234.062 79.035,244.815 82.376,244.815 82.376,228.326 79.283,228.326 79.283,239.337 
			72.535,228.326 69.295,228.326 69.295,244.815 72.388,244.815 		"/>
		<path fill="#FFFFFF" d="M93.241,245.097c2.422,0,4.356-0.751,5.804-2.256c1.447-1.502,2.171-3.585,2.171-6.247
			c0-2.683-0.729-4.78-2.188-6.287c-1.458-1.508-3.402-2.262-5.833-2.262c-1.342,0-2.527,0.217-3.554,0.652
			c-0.772,0.323-1.483,0.818-2.131,1.485c-0.648,0.668-1.16,1.421-1.535,2.261c-0.503,1.14-0.754,2.548-0.754,4.229
			c0,2.625,0.723,4.686,2.17,6.182C88.84,244.349,90.789,245.097,93.241,245.097z M89.912,232.302
			c0.839-0.94,1.946-1.413,3.318-1.413c1.373,0,2.472,0.466,3.302,1.396c0.828,0.93,1.242,2.339,1.242,4.229
			c0,1.912-0.426,3.347-1.276,4.302c-0.851,0.958-1.94,1.435-3.268,1.435c-1.327,0-2.422-0.482-3.285-1.447
			c-0.861-0.963-1.293-2.378-1.293-4.246C88.652,234.663,89.072,233.243,89.912,232.302z"/>
		<polygon fill="#FFFFFF" points="117.975,244.815 123.88,228.326 120.349,228.326 116.31,240.529 112.137,228.326 108.527,228.326 
			114.421,244.815 		"/>
		<rect x="125.477" y="228.326" fill="#FFFFFF" width="3.33" height="16.49"/>
		<path fill="#FFFFFF" d="M145.11,230.307c-1.459-1.508-3.403-2.262-5.833-2.262c-1.341,0-2.526,0.217-3.554,0.652
			c-0.772,0.323-1.483,0.818-2.131,1.485c-0.649,0.668-1.16,1.421-1.535,2.261c-0.503,1.14-0.754,2.548-0.754,4.229
			c0,2.625,0.724,4.686,2.171,6.182c1.447,1.496,3.396,2.244,5.849,2.244c2.421,0,4.356-0.751,5.804-2.256
			c1.447-1.502,2.171-3.585,2.171-6.247C147.298,233.91,146.568,231.813,145.11,230.307z M142.58,240.816
			c-0.852,0.958-1.941,1.435-3.268,1.435c-1.327,0-2.421-0.482-3.284-1.447c-0.862-0.963-1.294-2.378-1.294-4.246
			c0-1.896,0.42-3.316,1.261-4.257c0.839-0.94,1.945-1.413,3.317-1.413c1.372,0,2.473,0.466,3.301,1.396
			c0.829,0.93,1.243,2.339,1.243,4.229C143.855,238.426,143.43,239.861,142.58,240.816z"/>
		<polygon fill="#FFFFFF" points="149.985,228.461 149.985,244.815 161.593,244.815 161.593,242.037 153.315,242.037 
			153.315,228.461 		"/>
		<polygon fill="#FFFFFF" points="167.296,237.55 175.574,237.55 175.574,234.771 167.296,234.771 167.296,231.116 176.192,231.116 
			176.192,228.326 163.967,228.326 163.967,244.815 176.508,244.815 176.508,242.037 167.296,242.037 		"/>
		<polygon fill="#FFFFFF" points="182.458,234.062 189.105,244.815 192.446,244.815 192.446,228.326 189.354,228.326 
			189.354,239.337 182.605,228.326 179.365,228.326 179.365,244.815 182.458,244.815 		"/>
		<path fill="#FFFFFF" d="M197.497,242.853c1.41,1.496,3.208,2.244,5.398,2.244c1.769,0,3.23-0.437,4.381-1.311
			c1.151-0.875,1.974-2.21,2.469-4.01l-3.228-1.023c-0.277,1.207-0.735,2.092-1.373,2.655c-0.637,0.562-1.398,0.844-2.284,0.844
			c-1.199,0-2.174-0.443-2.924-1.328c-0.749-0.885-1.124-2.37-1.124-4.454c0-1.965,0.38-3.387,1.142-4.263
			c0.761-0.879,1.752-1.318,2.975-1.318c0.884,0,1.636,0.249,2.254,0.743c0.619,0.496,1.025,1.17,1.221,2.025l3.295-0.787
			c-0.375-1.319-0.938-2.332-1.687-3.038c-1.26-1.192-2.899-1.789-4.916-1.789c-2.309,0-4.172,0.759-5.59,2.279
			c-1.417,1.518-2.125,3.648-2.125,6.393C195.382,239.312,196.086,241.357,197.497,242.853z"/>
		<rect x="212.5" y="228.326" fill="#FFFFFF" width="3.33" height="16.49"/>
		<path fill="#FFFFFF" d="M227.269,228.326h-3.52l-6.423,16.49h3.532l1.361-3.746h6.592l1.439,3.746h3.622L227.269,228.326z
			 M223.243,238.292l2.227-6.118l2.272,6.118H223.243z"/>
		<path fill="#FFFFFF" d="M50.719,269.05c-0.637,0.562-1.397,0.844-2.283,0.844c-1.2,0-2.175-0.443-2.924-1.328
			c-0.75-0.885-1.124-2.37-1.124-4.454c0-1.965,0.38-3.387,1.141-4.263c0.761-0.878,1.753-1.318,2.975-1.318
			c0.885,0,1.637,0.25,2.254,0.743c0.62,0.496,1.026,1.17,1.222,2.025l3.294-0.787c-0.375-1.319-0.938-2.332-1.687-3.038
			c-1.259-1.192-2.898-1.789-4.915-1.789c-2.31,0-4.173,0.759-5.59,2.279c-1.417,1.518-2.126,3.648-2.126,6.393
			c0,2.596,0.705,4.641,2.115,6.137c1.41,1.496,3.209,2.244,5.399,2.244c1.769,0,3.229-0.437,4.381-1.311
			c1.151-0.875,1.974-2.21,2.468-4.01l-3.228-1.024C51.815,267.602,51.357,268.487,50.719,269.05z"/>
		<path fill="#FFFFFF" d="M65.476,255.687c-1.341,0-2.527,0.217-3.553,0.652c-0.773,0.323-1.484,0.818-2.131,1.485
			c-0.649,0.668-1.161,1.421-1.536,2.261c-0.503,1.14-0.754,2.549-0.754,4.229c0,2.625,0.724,4.686,2.171,6.182
			c1.446,1.496,3.396,2.244,5.849,2.244c2.421,0,4.356-0.751,5.804-2.256c1.446-1.502,2.171-3.585,2.171-6.247
			c0-2.683-0.73-4.78-2.188-6.288C69.85,256.441,67.906,255.687,65.476,255.687z M68.778,268.458
			c-0.852,0.957-1.941,1.435-3.269,1.435c-1.326,0-2.421-0.482-3.284-1.446c-0.862-0.964-1.294-2.379-1.294-4.247
			c0-1.896,0.42-3.316,1.261-4.257c0.839-0.94,1.945-1.413,3.317-1.413c1.373,0,2.472,0.466,3.302,1.396
			c0.829,0.93,1.242,2.339,1.242,4.229C70.054,266.068,69.629,267.503,68.778,268.458z"/>
		<polygon fill="#FFFFFF" points="86.116,266.979 79.368,255.968 76.128,255.968 76.128,272.458 79.222,272.458 79.222,261.705 
			85.868,272.458 89.209,272.458 89.209,255.968 86.116,255.968 		"/>
		<polygon fill="#FFFFFF" points="91.549,258.759 96.442,258.759 96.442,272.458 99.771,272.458 99.771,258.759 104.652,258.759 
			104.652,255.968 91.549,255.968 		"/>
		<path fill="#FFFFFF" d="M117.728,266.564c-0.469-0.502-1.063-0.964-1.784-1.384c1.448-0.209,2.535-0.717,3.262-1.523
			c0.728-0.806,1.092-1.828,1.092-3.064c0-0.975-0.24-1.841-0.72-2.599c-0.48-0.757-1.12-1.283-1.918-1.579
			c-0.798-0.297-2.079-0.446-3.84-0.446h-7.007v16.49h3.33v-6.883h0.675c0.764,0,1.323,0.061,1.675,0.185s0.687,0.353,1.001,0.687
			c0.315,0.333,0.901,1.141,1.755,2.424l2.407,3.587h3.981l-2.013-3.217C118.828,267.958,118.196,267.066,117.728,266.564z
			 M112.604,262.942h-2.462v-4.183h2.598c1.349,0,2.16,0.018,2.428,0.055c0.541,0.091,0.959,0.307,1.255,0.647
			c0.296,0.341,0.443,0.789,0.443,1.344c0,0.495-0.111,0.908-0.337,1.237c-0.225,0.331-0.536,0.562-0.933,0.697
			C115.198,262.875,114.202,262.942,112.604,262.942z"/>
		<path fill="#FFFFFF" d="M128.182,255.968l-6.423,16.49h3.533l1.361-3.746h6.591l1.44,3.746h3.622l-6.603-16.49H128.182z
			 M127.676,265.934l2.227-6.118l2.272,6.118H127.676z"/>
		<polygon fill="#FFFFFF" points="149.035,256.104 145.706,256.104 145.706,272.458 157.314,272.458 157.314,269.679 
			149.035,269.679 		"/>
		<path fill="#FFFFFF" d="M164.434,255.968l-6.422,16.49h3.532l1.36-3.746h6.591l1.439,3.746h3.622l-6.602-16.49H164.434z
			 M163.928,265.934l2.227-6.118l2.272,6.118H163.928z"/>
		<polygon fill="#FFFFFF" points="189.798,267.216 186.805,255.968 181.823,255.968 181.823,272.458 184.916,272.458 
			184.916,259.478 188.177,272.458 191.383,272.458 194.656,259.478 194.656,272.458 197.75,272.458 197.75,255.968 
			192.755,255.968 		"/>
		<path fill="#FFFFFF" d="M210.853,265.089c0,1.306-0.049,2.241-0.146,2.801c-0.098,0.562-0.387,1.038-0.866,1.423
			c-0.48,0.387-1.193,0.578-2.137,0.578c-0.93,0-1.663-0.203-2.2-0.611c-0.535-0.409-0.875-0.951-1.018-1.625
			c-0.082-0.42-0.123-1.339-0.123-2.756v-8.931h-3.33v8.796c0,1.845,0.108,3.24,0.327,4.185c0.15,0.638,0.461,1.246,0.934,1.827
			s1.115,1.054,1.929,1.417c0.813,0.363,2.007,0.546,3.582,0.546c1.306,0,2.363-0.167,3.172-0.501
			c0.81-0.333,1.457-0.781,1.94-1.344c0.483-0.562,0.816-1.251,0.997-2.069c0.18-0.818,0.27-2.215,0.27-4.194v-8.662h-3.33V265.089z
			"/>
		<path fill="#FFFFFF" d="M223.642,266.62c0,1.335-0.154,2.214-0.462,2.638c-0.307,0.423-0.832,0.634-1.575,0.634
			c-0.734,0-1.281-0.295-1.641-0.887c-0.24-0.39-0.379-1.058-0.417-2.003l-3.137,0.36c0.007,1.762,0.45,3.099,1.327,4.009
			c0.877,0.913,2.129,1.368,3.757,1.368c1.387,0,2.504-0.29,3.352-0.872c0.847-0.581,1.431-1.352,1.754-2.311
			c0.239-0.734,0.36-1.785,0.36-3.149v-10.438h-3.318V266.62z"/>
		<polygon fill="#FFFFFF" points="233.832,265.192 242.111,265.192 242.111,262.414 233.832,262.414 233.832,258.759 
			242.729,258.759 242.729,255.968 230.503,255.968 230.503,272.458 243.043,272.458 243.043,269.679 233.832,269.679 		"/>
		<path fill="#FFFFFF" d="M256.794,266.564c-0.469-0.502-1.064-0.964-1.783-1.384c1.447-0.209,2.534-0.717,3.261-1.523
			c0.728-0.806,1.091-1.828,1.091-3.064c0-0.975-0.24-1.841-0.72-2.599c-0.48-0.757-1.12-1.283-1.917-1.579
			c-0.799-0.297-2.08-0.446-3.842-0.446h-7.007v16.49h3.329v-6.883h0.675c0.766,0,1.323,0.061,1.677,0.185
			c0.352,0.124,0.686,0.353,1,0.687c0.315,0.333,0.899,1.141,1.755,2.424l2.407,3.587h3.981l-2.012-3.217
			C257.894,267.958,257.262,267.066,256.794,266.564z M251.671,262.942h-2.464v-4.183h2.599c1.35,0,2.16,0.018,2.429,0.055
			c0.54,0.091,0.957,0.307,1.254,0.647c0.296,0.341,0.444,0.789,0.444,1.344c0,0.495-0.112,0.908-0.338,1.237
			c-0.225,0.331-0.536,0.562-0.934,0.697C254.265,262.875,253.268,262.942,251.671,262.942z"/>
	</g>
</g>
</svg>
