<?xml version="1.0" encoding="utf-8"?>
<!-- Generator: Adobe Illustrator 16.0.0, SVG Export Plug-In . SVG Version: 6.00 Build 0)  -->
<!DOCTYPE svg PUBLIC "-//W3C//DTD SVG 1.0//EN" "http://www.w3.org/TR/2001/REC-SVG-20010904/DTD/svg10.dtd">
<svg version="1.0" id="Capa_1" xmlns="http://www.w3.org/2000/svg" xmlns:xlink="http://www.w3.org/1999/xlink" x="0px" y="0px"
	 width="300px" height="300px" viewBox="0 0 300 300" enable-background="new 0 0 300 300" xml:space="preserve">
<g>
	<path fill="#8A8A8A" d="M242.637,0.029H57.426c-31.549,0-57.367,25.814-57.367,57.363v185.211c0,31.55,25.818,57.367,57.367,57.367
		h185.211c31.549,0,57.363-25.817,57.363-57.367V57.393C300,25.844,274.186,0.029,242.637,0.029z"/>
	<g opacity="0.4">
		<path fill="#FFFFFF" d="M222.122,92.871c-0.623-0.421-1.268-0.82-1.912-1.216c-0.256-0.161-0.517-0.322-0.772-0.483
			c-0.513-0.326-1.022-0.659-1.517-1.011c-0.249-0.176-0.49-0.359-0.729-0.546c-0.414-0.326-0.812-0.674-1.187-1.047
			c-0.377-0.374-0.729-0.78-1.051-1.224c-1.286-0.165-2.318-0.868-3.362-1.563c-0.531-0.352-1.208-1.106-1.772-0.45
			c-2.187,2.538-3.438,0.018-4.69-0.975c-0.55-0.432-0.689-0.871-0.623-1.307c0.389-0.641,0.766-1.292,1.124-1.956
			c0.056-0.084,0.106-0.165,0.15-0.249c2.065-3.853,3.512-7.837,4.358-11.917c0.685-3.164,1.058-6.445,1.058-9.814
			c0-25.47-20.65-46.121-46.124-46.121c-25.21,0-45.681,20.226-46.103,45.333c-0.128,0.557-0.201,1.139-0.179,1.776
			c0.403,11.62,4.31,21.555,11.795,29.626c8.449,9.51,20.765,15.509,34.486,15.509c11.491,0,21.994-4.215,30.073-11.17
			c1.293-1.036,2.534-2.175,3.71-3.442c0.795-0.856,1.618-0.45,2.296,0.117c0.897,0.747,2.955,1.146,2.354,2.446
			c-1.08,2.344,0.608,2.758,1.776,3.754c2.516,2.153,5.87,3.281,7.709,6.262c1.398-0.059,2.64,0.509,3.805,1.143
			c1.674,0.916,2.604,0.458,3.3-1.245c0.908-2.208,1.853-4.42,3.003-6.511C224.033,94.896,223.718,93.959,222.122,92.871z
			 M165.165,97.973c-21.471,0-38.874-17.406-38.874-38.874c0-21.471,17.402-38.874,38.874-38.874
			c21.467,0,38.873,17.402,38.873,38.874C204.038,80.566,186.632,97.973,165.165,97.973z"/>
		<path fill="#FFFFFF" d="M280.053,133.429c-0.876-0.655-1.856-1.179-2.776-1.783c-0.23-0.154-0.457-0.308-0.674-0.473
			c-0.439-0.329-0.854-0.692-1.219-1.113c-0.184-0.208-0.355-0.436-0.514-0.677c-3.826,0.828-7.689,1.535-11.473,2.531
			c-1.981,0.523-4.233,0.322-5.885,1.89c4.339,4.27,9.668,7.214,14.494,10.836c1.051,0.787,1.779,0.128,2.424-0.685
			c2.025-2.575,4.018-5.175,6.091-7.709C281.503,135.044,281.228,134.304,280.053,133.429z"/>
	</g>
	<path fill="#FFFFFF" d="M189.122,155.588c-20.673,8.441-41.29,17.007-61.955,25.462c-1.069,0.436-2.758,2.461-3.593-0.34
		c-0.557-1.857-2.388-3.768,1.135-5.211c6.581-2.702,12.942-5.947,19.391-8.968c16.735-7.837,33.449-15.729,50.236-23.452
		c2.271-1.043,2.82-2.117,1.959-4.351c-0.651-1.696-1.146-3.494-1.413-5.292c-0.414-2.772-1.333-3.292-4.076-2.073
		c-23.229,10.306-46.545,20.402-69.771,30.703c-2.406,1.069-3.64,0.678-5.303-1.201c-8.492-9.595-17.131-19.061-25.733-28.557
		c-4.604-5.083-4.57-5.014-9.873-0.619c-1.582,1.311-1.963,2.406-1.143,4.376c3.424,8.27,6.672,16.611,9.979,24.928
		c1.245,3.131,1.237,3.197-1.967,3.201c-28.022,0.037-56.026,2.208-84.067,0.769c-1.674-0.084-2.52-0.41-2.93-1.23v52.042
		c0.59-2.575,2.384-2.743,7.881-3.52c14.546-2.062,29.055-4.369,43.572-6.617c9.738-1.509,19.515-2.776,29.103-5.2
		c4.27-1.077,8.719-1.447,13.084-2.161c2.04-0.337,3.889-0.106,5.804,0.887c7.354,3.801,14.824,7.379,22.182,11.169
		c2.095,1.081,3.944,1.304,6.266,0.604c16.678-5.021,33.398-9.895,50.112-14.795c6.01-1.762,5.94-1.732,5.57-7.914
		c-0.121-1.94-0.791-1.981-2.292-1.384c-2.776,1.099-5.597,2.069-8.397,3.102c-13.275,4.893-26.543,9.8-39.833,14.645
		c-0.89,0.326-1.864,1.312-2.919,0.326c-2.018-1.886-1.454-4.991,1.062-5.955c18.512-7.097,37.027-14.191,55.539-21.281
		c3.93-1.505,3.93-1.498,3.304-5.65c-0.531-3.501-0.531-3.508-3.735-2.187c-18.867,7.771-37.728,15.557-56.613,23.28
		c-1.018,0.417-2.366,1.886-3.289-0.348c-1.428-3.457-1.249-4.53,1.176-5.497c3.307-1.318,6.625-2.615,9.935-3.918
		c17.916-7.042,35.83-14.081,53.738-21.134c2.274-0.894,2.904-3.384,1.41-6.774C191.635,153.12,190.126,155.178,189.122,155.588z"/>
	<path fill="#FFFFFF" d="M300,100.481c-8.452,1.359-19.977,2.856-28.399,4.369c-1.992,0.359-3.706,0.019-5.52-0.897
		c-11.338-5.724-22.723-11.341-34.098-16.989c-1.109-0.553-2.168-1.161-3.53-1.014c-1.103,0.121-2.2,0.234-3.303,0.344
		c-3.304,0.326-6.61,0.619-9.913,0.934c0.318,0.443,0.674,0.85,1.047,1.224c0.373,0.373,0.772,0.721,1.187,1.047
		c0.238,0.187,0.483,0.37,0.729,0.546c0.495,0.352,1.004,0.685,1.517,1.011c0.256,0.161,0.516,0.322,0.772,0.479
		c0.645,0.399,1.289,0.799,1.911,1.22c1.598,1.088,1.912,2.025,0.979,3.721c-1.146,2.091-2.095,4.303-3,6.511
		c-0.699,1.703-1.625,2.161-3.303,1.245c-1.164-0.633-2.406-1.201-3.805-1.143c-1.571,1.937-3.065,3.955-4.746,5.793
		c-1.238,1.348-1.044,2.373-0.041,3.754c3.337,4.581,5.809,10.144,10.02,13.634c3.959,3.281,9.697,4.405,14.656,6.482
		c1.241,0.516,2.545,0.919,3.713,1.571c3.574,1.989,7.152,2.015,11.078,0.934c3.176-0.875,6.376-2.179,9.822-1.714
		c1.655-1.567,3.907-1.37,5.885-1.89c3.787-0.996,7.646-1.707,11.477-2.534c0.194-0.081,0.393-0.15,0.59-0.212
		c1.381-0.439,2.806-0.45,4.248-0.278c5.256,0.63,14.758,1.388,20.028,1.85c0.56,0.047-0.392,0.135,0,0.267v-30.319
		C299.916,100.444,300.092,100.466,300,100.481z"/>
	<polygon fill="#FFFFFF" points="133.374,25.62 133.374,10.283 120.945,23.774 126.742,33.479 	"/>
	<path fill="#FFFFFF" d="M175.994,21.211L175.994,21.211C176.005,21.215,176.008,21.211,175.994,21.211z"/>
	<path fill="#FFFFFF" d="M172.255,52.119c1.011,1.626,1.706,1.63,2.959,0.264c3.182-3.472,6.416-6.899,9.771-10.203
		c1.413-1.392,1.582-2.45,0.546-4.193c-3.285-5.53-6.373-11.173-9.536-16.776c-0.209-0.022-5.666-1.077-5.666-1.077
		c-2.036,5.387-4.028,10.792-6.145,16.146c-0.586,1.487-0.579,2.666,0.344,4.018C167.176,44.19,169.771,48.12,172.255,52.119z"/>
	<path fill="#FFFFFF" d="M117.107,145.803c0.817,1.234,1.717,1.585,3.138,1.278c11.836-2.578,23.683-5.119,35.534-7.635
		c1.42-0.3,2.325-0.989,3.094-2.249c6.516-10.683,13.231-22.434,18.725-33.684c-1.095,0.293-1.996,0.447-2.85,0.608
		c-14.227,2.717-27.117-0.253-38.587-9.151c-10.536-8.17-16.754-20.97-17.197-32.033c-0.146-3.747,0.626-7.903,0.663-11.657
		c-0.018-0.157-0.908-2.761-0.93-2.93c-0.011-0.084-0.022-0.172-0.033-0.264c-0.021-0.187-0.047-0.384-0.077-0.615
		c-0.041-0.344-0.091-0.75-0.154-1.26c-3.036,4.725-5.629,8.973-8.456,13.06c-1.271,1.838-1.406,3.2-0.08,5.123
		c2.842,4.112,5.028,8.723,8.159,12.579c3.68,4.53,3.695,8.364,0.157,12.905c-2.358,3.025-3.977,6.621-6.182,10.394
		c-4.999-8.73-9.672-16.89-14.407-25.163c-0.322,0.421-0.579,0.619-0.652,0.872c-2.571,8.665-5.12,17.336-7.687,26.001
		c-0.33,1.121,0,2.032,0.626,2.97C98.998,118.557,108.072,132.169,117.107,145.803z"/>
	<path fill="#FFFFFF" d="M142.302,68.394c0.575,1.527,0.586,2.9,0.022,4.446c-1.619,4.424-3.102,8.895-4.64,13.348
		c0.23,1.362,1.281,2.073,2.252,2.864c8.496,6.925,18.369,9.47,29.085,8.649c1.332-0.103,2.669-0.245,3.987-0.454
		c0.927-0.15,1.846-0.333,2.751-0.56c0.153-0.037,0.304-0.077,0.453-0.117c0.455-0.121,0.901-0.256,1.349-0.399
		c0.216-0.07,0.428-0.143,0.641-0.22c1.549-0.553,3.047-1.271,4.46-2.205c0.473-0.311,0.935-0.648,1.388-1.011
		c0.016-0.011,0.033-0.021,0.048-0.033c1.073-2.047,2.055-4.146,3.252-6.116c0.985-1.622,0.876-2.86-0.285-4.409
		c-3.926-5.233-7.687-10.591-11.543-15.879c-0.399-0.553-0.575-1.487-1.714-1.358c-0.429,6.818-0.847,13.619-1.3,20.416
		c-0.07,0.996,0.241,2.12-0.996,2.787c-4.541,2.435-9.053,4.925-14.096,7.679c0.377-1.509,0.571-2.424,0.831-3.314
		c1.911-6.556,3.775-13.125,5.801-19.644c0.59-1.904,0.417-3.446-0.553-5.175c-6.064-10.825-12.041-21.702-18.055-32.56
		c-0.311-0.561-0.461-1.26-1.424-1.652c-1.791,5.285-3.391,10.617-5.417,15.78c-1.205,3.065-1.278,5.794,0.008,8.822
		C140.032,61.436,141.017,64.977,142.302,68.394z"/>
	<path fill="#FFFFFF" d="M135.619,84.356l1.325-9.595c0,0-4.146-3.911-10.1-9.097C127.163,72.44,132.682,80.457,135.619,84.356z"/>
	<path fill="#FFFFFF" d="M49.988,256.062c2.42,0,4.354-0.75,5.804-2.256c1.447-1.501,2.168-3.585,2.168-6.244
		c0-2.685-0.729-4.779-2.186-6.288s-3.402-2.26-5.83-2.26c-1.344,0-2.527,0.216-3.556,0.652c-0.772,0.322-1.483,0.816-2.131,1.483
		c-0.648,0.667-1.157,1.421-1.535,2.263c-0.501,1.139-0.754,2.545-0.754,4.226c0,2.625,0.725,4.684,2.172,6.182
		C45.586,255.315,47.534,256.062,49.988,256.062z M46.659,243.271c0.838-0.941,1.944-1.41,3.317-1.41c1.374,0,2.472,0.465,3.3,1.392
		c0.828,0.934,1.245,2.34,1.245,4.229c0,1.912-0.429,3.348-1.278,4.303s-1.94,1.432-3.267,1.432c-1.325,0-2.42-0.48-3.285-1.443
		c-0.861-0.963-1.292-2.38-1.292-4.248C45.399,245.632,45.82,244.211,46.659,243.271z"/>
	<polygon fill="#FFFFFF" points="67.599,255.78 67.599,242.084 72.48,242.084 72.48,239.297 59.377,239.297 59.377,242.084 
		64.27,242.084 64.27,255.78 	"/>
	<path fill="#FFFFFF" d="M85.551,249.888c-0.469-0.502-1.062-0.963-1.78-1.384c1.447-0.208,2.534-0.714,3.26-1.523
		c0.729-0.802,1.091-1.828,1.091-3.062c0-0.974-0.241-1.842-0.721-2.6c-0.48-0.754-1.117-1.282-1.916-1.578
		c-0.798-0.297-2.08-0.443-3.841-0.443h-7.005v16.483h3.329v-6.881h0.674c0.765,0,1.326,0.062,1.677,0.187
		c0.352,0.124,0.685,0.352,1,0.685c0.314,0.333,0.9,1.143,1.754,2.424l2.406,3.585h3.98l-2.011-3.216
		C86.653,251.283,86.02,250.39,85.551,249.888z M80.431,246.27h-2.464v-4.186h2.6c1.348,0,2.157,0.018,2.428,0.055
		c0.539,0.092,0.956,0.308,1.253,0.648c0.296,0.34,0.443,0.791,0.443,1.344c0,0.494-0.11,0.908-0.337,1.238
		c-0.223,0.33-0.535,0.56-0.934,0.696C83.023,246.2,82.027,246.27,80.431,246.27z"/>
	<path fill="#FFFFFF" d="M104.389,241.274c-1.458-1.509-3.402-2.26-5.83-2.26c-1.344,0-2.527,0.216-3.556,0.652
		c-0.773,0.322-1.483,0.816-2.131,1.483s-1.157,1.421-1.534,2.263c-0.502,1.139-0.755,2.545-0.755,4.226
		c0,2.625,0.726,4.684,2.172,6.182c1.446,1.494,3.395,2.241,5.849,2.241c2.42,0,4.354-0.75,5.804-2.256
		c1.447-1.501,2.168-3.585,2.168-6.244C106.575,244.878,105.846,242.783,104.389,241.274z M101.858,251.785
		c-0.85,0.956-1.941,1.432-3.267,1.432s-2.42-0.48-3.285-1.443c-0.861-0.963-1.293-2.38-1.293-4.248c0-1.893,0.421-3.314,1.26-4.255
		c0.839-0.941,1.944-1.41,3.318-1.41s2.472,0.465,3.299,1.392c0.828,0.934,1.242,2.34,1.242,4.229
		C103.132,249.394,102.708,250.829,101.858,251.785z"/>
	<path fill="#FFFFFF" d="M119.253,246.676c-0.772-0.406-1.974-0.802-3.593-1.187c-1.618-0.381-2.637-0.747-3.058-1.099
		c-0.33-0.278-0.494-0.611-0.494-1.003c0-0.425,0.176-0.77,0.527-1.022c0.549-0.396,1.304-0.597,2.274-0.597
		c0.938,0,1.637,0.187,2.106,0.557c0.469,0.37,0.776,0.981,0.915,1.828l3.333-0.146c-0.055-1.512-0.604-2.725-1.648-3.633
		c-1.047-0.908-2.604-1.359-4.673-1.359c-1.267,0-2.347,0.19-3.244,0.571c-0.897,0.385-1.582,0.941-2.059,1.67
		c-0.476,0.732-0.714,1.517-0.714,2.355c0,1.307,0.505,2.414,1.52,3.322c0.718,0.645,1.971,1.187,3.754,1.629
		c1.388,0.344,2.274,0.586,2.666,0.718c0.567,0.205,0.967,0.443,1.197,0.714c0.228,0.274,0.341,0.607,0.341,0.996
		c0,0.607-0.271,1.139-0.813,1.593c-0.545,0.454-1.351,0.681-2.424,0.681c-1.011,0-1.816-0.256-2.413-0.765
		c-0.594-0.513-0.989-1.312-1.183-2.396l-3.241,0.312c0.216,1.846,0.886,3.248,2.003,4.211c1.117,0.967,2.717,1.447,4.801,1.447
		c1.432,0,2.626-0.202,3.589-0.601c0.956-0.403,1.699-1.015,2.227-1.839c0.524-0.824,0.784-1.71,0.784-2.655
		c0-1.04-0.216-1.919-0.656-2.625C120.637,247.646,120.029,247.086,119.253,246.676z"/>
	<path fill="#FFFFFF" d="M142.628,241.128c-0.688-0.729-1.516-1.234-2.486-1.516c-0.718-0.212-1.765-0.315-3.135-0.315h-6.086
		v16.483h6.266c1.23,0,2.212-0.114,2.944-0.348c0.985-0.315,1.761-0.754,2.34-1.315c0.766-0.743,1.355-1.714,1.765-2.915
		c0.337-0.981,0.505-2.149,0.505-3.504c0-1.545-0.18-2.845-0.538-3.9C143.844,242.747,143.316,241.856,142.628,241.128z
		 M140.966,250.569c-0.228,0.74-0.517,1.267-0.872,1.593c-0.358,0.318-0.806,0.549-1.344,0.685
		c-0.414,0.103-1.084,0.157-2.014,0.157h-2.487v-10.92h1.498c1.355,0,2.267,0.051,2.732,0.157c0.623,0.136,1.135,0.396,1.542,0.776
		c0.403,0.381,0.718,0.916,0.945,1.597c0.223,0.681,0.337,1.663,0.337,2.937C141.303,248.822,141.189,249.829,140.966,250.569z"/>
	<polygon fill="#FFFFFF" points="159.789,242.084 159.789,239.297 147.564,239.297 147.564,255.78 160.104,255.78 160.104,253.004 
		150.894,253.004 150.894,248.518 159.17,248.518 159.17,245.738 150.894,245.738 150.894,242.084 	"/>
	<path fill="#FFFFFF" d="M176.422,243.918c0-0.974-0.241-1.842-0.721-2.6c-0.48-0.754-1.117-1.282-1.916-1.578
		c-0.798-0.297-2.08-0.443-3.842-0.443h-7.005v16.483h3.329v-6.881h0.674c0.765,0,1.321,0.062,1.677,0.187
		c0.352,0.124,0.685,0.352,1,0.685c0.314,0.333,0.9,1.143,1.754,2.424l2.406,3.585h3.98l-2.015-3.216
		c-0.791-1.281-1.424-2.175-1.893-2.677s-1.062-0.963-1.783-1.384c1.446-0.208,2.533-0.714,3.263-1.523
		C176.056,246.178,176.422,245.152,176.422,243.918z M172.654,245.369c-0.224,0.33-0.535,0.56-0.935,0.696
		c-0.396,0.136-1.392,0.205-2.991,0.205h-2.461v-4.186h2.596c1.352,0,2.161,0.018,2.428,0.055c0.543,0.092,0.96,0.308,1.257,0.648
		c0.296,0.34,0.442,0.791,0.442,1.344C172.99,244.625,172.877,245.039,172.654,245.369z"/>
	<polygon fill="#FFFFFF" points="191.781,242.084 191.781,239.297 179.561,239.297 179.561,255.78 192.096,255.78 192.096,253.004 
		182.886,253.004 182.886,248.518 191.162,248.518 191.162,245.738 182.886,245.738 182.886,242.084 	"/>
	<path fill="#FFFFFF" d="M201.849,256.062c1.769,0,3.229-0.436,4.379-1.311c1.15-0.872,1.975-2.208,2.469-4.006l-3.23-1.025
		c-0.274,1.208-0.732,2.091-1.369,2.655c-0.637,0.561-1.398,0.843-2.285,0.843c-1.197,0-2.172-0.443-2.922-1.326
		c-0.751-0.886-1.125-2.369-1.125-4.453c0-1.966,0.381-3.387,1.143-4.263c0.762-0.879,1.751-1.314,2.974-1.314
		c0.883,0,1.638,0.245,2.256,0.74c0.615,0.498,1.022,1.172,1.22,2.025l3.296-0.787c-0.377-1.318-0.938-2.329-1.688-3.036
		c-1.26-1.19-2.896-1.787-4.914-1.787c-2.311,0-4.172,0.758-5.589,2.278c-1.417,1.516-2.128,3.647-2.128,6.39
		c0,2.596,0.707,4.64,2.117,6.138C197.86,255.315,199.658,256.062,201.849,256.062z"/>
	<polygon fill="#FFFFFF" points="224.743,255.78 224.743,239.297 221.415,239.297 221.415,245.786 214.893,245.786 214.893,239.297 
		211.563,239.297 211.563,255.78 214.893,255.78 214.893,248.573 221.415,248.573 221.415,255.78 	"/>
	<path fill="#FFFFFF" d="M241.329,253.806c1.447-1.501,2.172-3.585,2.172-6.244c0-2.685-0.729-4.779-2.187-6.288
		c-1.461-1.509-3.401-2.26-5.833-2.26c-1.341,0-2.527,0.216-3.553,0.652c-0.772,0.322-1.483,0.816-2.131,1.483
		c-0.648,0.667-1.161,1.421-1.535,2.263c-0.502,1.139-0.754,2.545-0.754,4.226c0,2.625,0.725,4.684,2.172,6.182
		c1.446,1.494,3.395,2.241,5.848,2.241C237.949,256.062,239.883,255.312,241.329,253.806z M232.232,251.773
		c-0.86-0.963-1.292-2.38-1.292-4.248c0-1.893,0.417-3.314,1.26-4.255c0.838-0.941,1.944-1.41,3.317-1.41
		c1.37,0,2.472,0.465,3.3,1.392c0.827,0.934,1.241,2.34,1.241,4.229c0,1.912-0.425,3.348-1.274,4.303
		c-0.854,0.956-1.941,1.432-3.267,1.432C234.188,253.217,233.097,252.737,232.232,251.773z"/>
	<path fill="#FFFFFF" d="M257.871,253.634c0.527-0.824,0.787-1.71,0.787-2.655c0-1.04-0.216-1.919-0.655-2.625
		c-0.439-0.707-1.047-1.268-1.824-1.678c-0.775-0.406-1.974-0.802-3.592-1.187c-1.619-0.381-2.641-0.747-3.059-1.099
		c-0.329-0.278-0.494-0.611-0.494-1.003c0-0.425,0.176-0.77,0.527-1.022c0.55-0.396,1.304-0.597,2.271-0.597
		c0.938,0,1.641,0.187,2.109,0.557c0.469,0.37,0.772,0.981,0.919,1.828l3.326-0.146c-0.052-1.512-0.602-2.725-1.648-3.633
		c-1.044-0.908-2.6-1.359-4.669-1.359c-1.268,0-2.352,0.19-3.245,0.571c-0.896,0.385-1.582,0.941-2.058,1.67
		c-0.477,0.732-0.714,1.517-0.714,2.355c0,1.307,0.505,2.414,1.516,3.322c0.722,0.645,1.974,1.187,3.758,1.629
		c1.388,0.344,2.273,0.586,2.666,0.718c0.567,0.205,0.967,0.443,1.197,0.714c0.227,0.274,0.34,0.607,0.34,0.996
		c0,0.607-0.271,1.139-0.812,1.593c-0.546,0.454-1.352,0.681-2.424,0.681c-1.012,0-1.816-0.256-2.414-0.765
		c-0.593-0.513-0.988-1.312-1.187-2.396l-3.237,0.312c0.217,1.846,0.883,3.248,2.004,4.211c1.116,0.967,2.717,1.447,4.801,1.447
		c1.432,0,2.625-0.202,3.585-0.601C256.604,255.069,257.348,254.458,257.871,253.634z"/>
	<path fill="#FFFFFF" d="M40.715,277.236c-0.637,0.563-1.399,0.846-2.282,0.846c-1.201,0-2.175-0.442-2.926-1.329
		c-0.747-0.883-1.124-2.369-1.124-4.453c0-1.963,0.381-3.384,1.143-4.263c0.762-0.875,1.754-1.314,2.974-1.314
		c0.886,0,1.637,0.249,2.256,0.739c0.619,0.498,1.025,1.172,1.219,2.025l3.296-0.787c-0.377-1.318-0.938-2.329-1.688-3.036
		c-1.26-1.19-2.897-1.787-4.915-1.787c-2.307,0-4.171,0.758-5.588,2.278c-1.417,1.52-2.124,3.646-2.124,6.394
		c0,2.593,0.703,4.636,2.113,6.134c1.41,1.494,3.208,2.241,5.398,2.241c1.769,0,3.23-0.436,4.38-1.308
		c1.15-0.875,1.974-2.211,2.468-4.01l-3.226-1.021C41.811,275.79,41.353,276.676,40.715,277.236z"/>
	<rect x="48.069" y="264.159" fill="#FFFFFF" width="3.329" height="16.486"/>
	<polygon fill="#FFFFFF" points="60.667,276.361 56.492,264.159 52.885,264.159 58.777,280.646 62.329,280.646 68.232,264.159 
		64.702,264.159 	"/>
	<rect x="69.829" y="264.159" fill="#FFFFFF" width="3.329" height="16.486"/>
	<polygon fill="#FFFFFF" points="79.75,264.294 76.421,264.294 76.421,280.646 88.026,280.646 88.026,277.866 79.75,277.866 	"/>
	<polygon fill="#FFFFFF" points="93.728,273.38 102.004,273.38 102.004,270.601 93.728,270.601 93.728,266.949 102.623,266.949 
		102.623,264.159 90.399,264.159 90.399,280.646 102.938,280.646 102.938,277.866 93.728,277.866 	"/>
	<path fill="#FFFFFF" d="M115.844,271.542c-0.776-0.41-1.978-0.806-3.597-1.187c-1.618-0.385-2.637-0.751-3.058-1.103
		c-0.33-0.278-0.494-0.611-0.494-1c0-0.428,0.176-0.769,0.527-1.025c0.549-0.396,1.307-0.597,2.274-0.597
		c0.938,0,1.637,0.187,2.106,0.561c0.469,0.37,0.776,0.978,0.919,1.827l3.329-0.15c-0.055-1.512-0.604-2.725-1.648-3.629
		c-1.047-0.908-2.604-1.362-4.673-1.362c-1.267,0-2.347,0.19-3.244,0.575c-0.897,0.381-1.582,0.938-2.059,1.666
		c-0.476,0.732-0.714,1.52-0.714,2.358c0,1.304,0.505,2.409,1.52,3.317c0.718,0.645,1.971,1.188,3.754,1.63
		c1.388,0.345,2.274,0.586,2.666,0.722c0.567,0.201,0.967,0.439,1.197,0.714c0.228,0.271,0.345,0.604,0.345,0.993
		c0,0.607-0.275,1.139-0.817,1.593s-1.351,0.681-2.424,0.681c-1.011,0-1.816-0.256-2.413-0.766
		c-0.594-0.509-0.989-1.307-1.183-2.395l-3.241,0.314c0.22,1.843,0.886,3.249,2.003,4.212s2.717,1.442,4.801,1.442
		c1.432,0,2.63-0.197,3.589-0.6c0.96-0.399,1.699-1.015,2.227-1.839c0.524-0.824,0.788-1.71,0.788-2.655
		c0-1.04-0.22-1.915-0.659-2.625C117.224,272.509,116.616,271.948,115.844,271.542z"/>
	<polygon fill="#FFFFFF" points="133.176,270.681 129.298,264.159 125.395,264.159 131.433,273.706 131.433,280.646 
		134.751,280.646 134.751,273.728 140.812,264.159 136.978,264.159 	"/>
	<path fill="#FFFFFF" d="M157.749,264.404c-0.615-0.165-1.934-0.245-3.959-0.245h-5.343v16.486h3.329v-6.218h2.171
		c1.506,0,2.659-0.081,3.45-0.238c0.586-0.128,1.161-0.388,1.729-0.784c0.567-0.392,1.032-0.934,1.399-1.622
		c0.365-0.688,0.553-1.542,0.553-2.552c0-1.315-0.318-2.385-0.956-3.212C159.484,265.191,158.693,264.653,157.749,264.404z
		 M157.27,270.557c-0.249,0.366-0.598,0.638-1.04,0.81c-0.443,0.172-1.318,0.26-2.63,0.26h-1.823v-4.677h1.607
		c1.201,0,1.999,0.033,2.396,0.11c0.541,0.099,0.988,0.34,1.34,0.732c0.352,0.388,0.527,0.883,0.527,1.482
		C157.646,269.762,157.521,270.19,157.27,270.557z"/>
	<path fill="#FFFFFF" d="M171.108,263.877c-1.344,0-2.526,0.216-3.556,0.651c-0.77,0.322-1.483,0.817-2.128,1.487
		c-0.651,0.667-1.161,1.417-1.538,2.26c-0.502,1.139-0.751,2.549-0.751,4.226c0,2.626,0.722,4.684,2.168,6.182
		c1.446,1.494,3.398,2.241,5.849,2.241c2.421,0,4.357-0.751,5.805-2.252c1.446-1.505,2.168-3.589,2.168-6.247
		c0-2.685-0.729-4.779-2.187-6.288C175.48,264.632,173.536,263.877,171.108,263.877z M174.408,276.646
		c-0.85,0.956-1.941,1.436-3.267,1.436c-1.326,0-2.421-0.483-3.285-1.446c-0.86-0.963-1.293-2.381-1.293-4.244
		c0-1.897,0.421-3.318,1.26-4.26c0.839-0.94,1.944-1.409,3.318-1.409c1.373,0,2.472,0.465,3.3,1.396
		c0.827,0.93,1.241,2.336,1.241,4.226C175.683,274.255,175.258,275.69,174.408,276.646z"/>
	<polygon fill="#FFFFFF" points="185.142,264.294 181.812,264.294 181.812,280.646 193.418,280.646 193.418,277.866 
		185.142,277.866 	"/>
	<polygon fill="#FFFFFF" points="195.308,263.214 197.311,263.214 200.401,259.853 196.86,259.853 	"/>
	<rect x="195.688" y="264.159" fill="#FFFFFF" width="3.332" height="16.486"/>
	<polygon fill="#FFFFFF" points="201.01,266.949 205.902,266.949 205.902,280.646 209.231,280.646 209.231,266.949 214.108,266.949 
		214.108,264.159 201.01,264.159 	"/>
	<rect x="216.156" y="264.159" fill="#FFFFFF" width="3.329" height="16.486"/>
	<path fill="#FFFFFF" d="M231.833,277.236c-0.637,0.563-1.398,0.846-2.281,0.846c-1.201,0-2.175-0.442-2.926-1.329
		c-0.747-0.883-1.124-2.369-1.124-4.453c0-1.963,0.381-3.384,1.143-4.263c0.762-0.875,1.75-1.314,2.974-1.314
		c0.886,0,1.637,0.249,2.256,0.739c0.619,0.498,1.025,1.172,1.219,2.025l3.297-0.787c-0.378-1.318-0.938-2.329-1.688-3.036
		c-1.26-1.19-2.897-1.787-4.915-1.787c-2.307,0-4.171,0.758-5.588,2.278c-1.418,1.52-2.124,3.646-2.124,6.394
		c0,2.593,0.703,4.636,2.112,6.134c1.41,1.494,3.209,2.241,5.398,2.241c1.769,0,3.23-0.436,4.38-1.308
		c1.149-0.875,1.974-2.211,2.468-4.01l-3.226-1.021C232.929,275.79,232.471,276.676,231.833,277.236z"/>
	<path fill="#FFFFFF" d="M246.588,263.877c-1.344,0-2.526,0.216-3.556,0.651c-0.77,0.322-1.479,0.817-2.128,1.487
		c-0.647,0.667-1.161,1.417-1.538,2.26c-0.502,1.139-0.75,2.549-0.75,4.226c0,2.626,0.721,4.684,2.168,6.182
		c1.446,1.494,3.398,2.241,5.848,2.241c2.421,0,4.358-0.751,5.805-2.252c1.446-1.505,2.168-3.589,2.168-6.247
		c0-2.685-0.729-4.779-2.187-6.288C250.961,264.632,249.017,263.877,246.588,263.877z M249.888,276.646
		c-0.85,0.956-1.941,1.436-3.267,1.436s-2.421-0.483-3.285-1.446c-0.86-0.963-1.292-2.381-1.292-4.244
		c0-1.897,0.421-3.318,1.26-4.26c0.838-0.94,1.947-1.409,3.317-1.409c1.373,0,2.472,0.465,3.3,1.396
		c0.827,0.93,1.241,2.336,1.241,4.226C251.162,274.255,250.741,275.69,249.888,276.646z"/>
	<path fill="#FFFFFF" d="M267.286,271.542c-0.776-0.41-1.974-0.806-3.596-1.187c-1.619-0.385-2.637-0.751-3.059-1.103
		c-0.329-0.278-0.494-0.611-0.494-1c0-0.428,0.176-0.769,0.527-1.025c0.55-0.396,1.308-0.597,2.274-0.597
		c0.938,0,1.641,0.187,2.105,0.561c0.469,0.37,0.776,0.978,0.919,1.827l3.329-0.15c-0.055-1.512-0.604-2.725-1.647-3.629
		c-1.048-0.908-2.604-1.362-4.673-1.362c-1.268,0-2.348,0.19-3.245,0.575c-0.896,0.381-1.582,0.938-2.058,1.666
		c-0.477,0.732-0.714,1.52-0.714,2.358c0,1.304,0.505,2.409,1.52,3.317c0.718,0.645,1.97,1.188,3.754,1.63
		c1.388,0.345,2.277,0.586,2.666,0.722c0.567,0.201,0.97,0.439,1.197,0.714c0.23,0.271,0.344,0.604,0.344,0.993
		c0,0.607-0.271,1.139-0.816,1.593c-0.542,0.454-1.352,0.681-2.424,0.681c-1.012,0-1.816-0.256-2.41-0.766
		c-0.597-0.509-0.992-1.307-1.187-2.395l-3.241,0.314c0.22,1.843,0.887,3.249,2.004,4.212c1.116,0.963,2.717,1.442,4.801,1.442
		c1.432,0,2.629-0.197,3.589-0.6c0.959-0.399,1.699-1.015,2.227-1.839c0.523-0.824,0.787-1.71,0.787-2.655
		c0-1.04-0.22-1.915-0.659-2.625C268.667,272.509,268.06,271.948,267.286,271.542z"/>
</g>
</svg>
