<?xml version="1.0" encoding="utf-8"?>
<!-- Generator: Adobe Illustrator 16.0.0, SVG Export Plug-In . SVG Version: 6.00 Build 0)  -->
<!DOCTYPE svg PUBLIC "-//W3C//DTD SVG 1.0//EN" "http://www.w3.org/TR/2001/REC-SVG-20010904/DTD/svg10.dtd">
<svg version="1.0" id="Capa_1" xmlns="http://www.w3.org/2000/svg" xmlns:xlink="http://www.w3.org/1999/xlink" x="0px" y="0px"
	 width="300px" height="300px" viewBox="0 0 300 300" enable-background="new 0 0 300 300" xml:space="preserve">
<g>
	<g>
		<path fill="#F42520" d="M242.623,0H57.378C25.82,0,0,25.82,0,57.377v103.082c0.005,0.049,0,0.094,0,0.146l0.015,68.82
			c0,0.051-0.01,0.098-0.015,0.146v13.051C0,274.18,25.82,300,57.378,300h185.245C274.181,300,300,274.18,300,242.623V57.377
			C300,25.82,274.181,0,242.623,0z"/>
		<g opacity="0.3">
			<path fill="#FFFFFF" d="M222.105,92.863c-0.622-0.422-1.267-0.82-1.912-1.219c-0.258-0.16-0.516-0.32-0.773-0.484
				c-0.514-0.324-1.022-0.656-1.518-1.01c-0.246-0.176-0.489-0.357-0.727-0.545c-0.414-0.326-0.812-0.672-1.188-1.047
				c-0.375-0.375-0.729-0.779-1.049-1.223c-1.288-0.166-2.319-0.867-3.366-1.566c-0.528-0.352-1.207-1.105-1.77-0.451
				c-2.189,2.541-3.441,0.02-4.692-0.973c-0.55-0.434-0.69-0.873-0.625-1.307c0.392-0.643,0.767-1.293,1.127-1.957
				c0.055-0.084,0.106-0.166,0.149-0.248c2.065-3.852,3.514-7.84,4.358-11.92c0.687-3.164,1.058-6.445,1.058-9.814
				c0-25.479-20.654-46.133-46.132-46.133c-25.213,0-45.688,20.232-46.111,45.344c-0.128,0.555-0.2,1.141-0.179,1.775
				c0.403,11.623,4.312,21.561,11.798,29.633c8.45,9.512,20.769,15.512,34.492,15.512c11.495,0,22-4.215,30.077-11.17
				c1.294-1.039,2.535-2.176,3.711-3.443c0.795-0.855,1.62-0.449,2.3,0.115c0.896,0.75,2.953,1.146,2.353,2.449
				c-1.081,2.346,0.609,2.756,1.777,3.754c2.518,2.154,5.869,3.279,7.711,6.262c1.398-0.057,2.64,0.512,3.804,1.146
				c1.677,0.912,2.606,0.457,3.303-1.246c0.905-2.213,1.854-4.422,3.002-6.514C224.016,94.887,223.703,93.949,222.105,92.863z
				 M165.137,97.963c-21.473,0-38.88-17.406-38.88-38.881c0-21.473,17.407-38.881,38.88-38.881s38.881,17.408,38.881,38.881
				C204.018,80.557,186.609,97.963,165.137,97.963z"/>
			<path fill="#FFFFFF" d="M280.049,133.428c-0.878-0.654-1.859-1.182-2.778-1.785c-0.229-0.152-0.456-0.309-0.675-0.473
				c-0.439-0.33-0.852-0.691-1.219-1.113c-0.183-0.209-0.354-0.434-0.512-0.678c-3.83,0.828-7.691,1.535-11.479,2.533
				c-1.979,0.521-4.232,0.322-5.885,1.891c4.341,4.27,9.671,7.217,14.497,10.836c1.053,0.791,1.783,0.131,2.425-0.684
				c2.026-2.574,4.02-5.174,6.092-7.709C281.498,135.043,281.225,134.305,280.049,133.428z"/>
		</g>
		<g>
			<path fill="#FFFFFF" d="M80.512,200.451c4.271-1.08,8.723-1.447,13.087-2.164c2.042-0.334,3.888-0.105,5.807,0.887
				c7.354,3.803,14.825,7.381,22.185,11.174c2.096,1.082,3.945,1.303,6.268,0.604c16.681-5.021,33.404-9.898,50.122-14.799
				c6.01-1.762,5.941-1.73,5.569-7.914c-0.118-1.941-0.791-1.98-2.293-1.385c-2.773,1.098-5.596,2.072-8.396,3.104
				c-13.276,4.891-26.548,9.799-39.841,14.646c-0.892,0.324-1.863,1.312-2.921,0.324c-2.017-1.885-1.451-4.99,1.064-5.955
				c18.517-7.096,37.032-14.191,55.549-21.283c3.93-1.504,3.932-1.498,3.305-5.65c-0.53-3.504-0.532-3.51-3.738-2.189
				c-18.87,7.773-37.733,15.561-56.621,23.287c-1.018,0.414-2.369,1.887-3.291-0.352c-1.428-3.457-1.248-4.531,1.177-5.496
				c3.308-1.318,6.624-2.615,9.939-3.92c17.916-7.043,35.834-14.082,53.747-21.137c2.273-0.896,2.902-3.387,1.408-6.777
				c-1.025-2.332-2.534-0.273-3.538,0.137c-20.675,8.441-41.299,17.01-61.968,25.467c-1.067,0.438-2.758,2.461-3.593-0.34
				c-0.556-1.859-2.388-3.768,1.136-5.215c6.583-2.701,12.944-5.945,19.396-8.967c16.739-7.838,33.454-15.732,50.247-23.457
				c2.271-1.045,2.816-2.115,1.957-4.352c-0.652-1.697-1.146-3.496-1.415-5.293c-0.413-2.775-1.332-3.293-4.076-2.074
				c-23.23,10.309-46.553,20.406-69.785,30.709c-2.404,1.068-3.639,0.678-5.303-1.203c-8.493-9.594-17.132-19.062-25.735-28.561
				c-4.607-5.084-4.571-5.014-9.875-0.619c-1.583,1.312-1.964,2.406-1.146,4.379c3.428,8.268,6.677,16.611,9.983,24.93
				c1.245,3.135,1.236,3.199-1.969,3.201c-28.028,0.037-56.035,2.209-84.083,0.771c-1.577-0.082-2.438-0.371-2.87-1.094v51.627
				c0.657-2.303,2.533-2.484,7.824-3.232c14.547-2.062,29.059-4.371,43.579-6.619C61.144,204.143,70.921,202.875,80.512,200.451z"/>
			<path fill="#FFFFFF" d="M300,100.473c-8.452,1.359-19.98,2.855-28.406,4.371c-1.993,0.359-3.705,0.018-5.521-0.898
				c-11.338-5.723-22.727-11.344-34.102-16.992c-1.111-0.553-2.169-1.16-3.533-1.014c-1.102,0.121-2.202,0.232-3.304,0.344
				c-3.304,0.328-6.611,0.621-9.916,0.936c0.32,0.443,0.673,0.848,1.049,1.223c0.375,0.375,0.774,0.721,1.188,1.047
				c0.238,0.188,0.48,0.369,0.728,0.545c0.493,0.354,1.003,0.686,1.518,1.01c0.257,0.164,0.515,0.324,0.774,0.484
				c0.645,0.398,1.288,0.797,1.911,1.219c1.596,1.086,1.909,2.023,0.977,3.721c-1.147,2.092-2.097,4.301-3.001,6.512
				c-0.697,1.705-1.627,2.16-3.303,1.246c-1.164-0.633-2.405-1.203-3.805-1.145c-1.574,1.941-3.064,3.955-4.749,5.795
				c-1.237,1.35-1.042,2.373-0.037,3.756c3.334,4.582,5.809,10.146,10.021,13.635c3.958,3.281,9.699,4.41,14.657,6.484
				c1.241,0.518,2.546,0.92,3.713,1.57c3.575,1.99,7.155,2.018,11.081,0.934c3.178-0.875,6.376-2.178,9.825-1.713
				c1.653-1.568,3.906-1.369,5.886-1.891c3.786-0.996,7.648-1.705,11.479-2.533c0.195-0.08,0.392-0.15,0.59-0.215
				c1.381-0.438,2.807-0.449,4.247-0.277c5.259,0.629,14.764,1.389,20.035,1.85c0.56,0.049-0.391,0.137,0,0.268V100.42
				C299.915,100.438,300.093,100.457,300,100.473z"/>
			<polygon fill="#FFFFFF" points="133.342,25.598 133.342,10.258 120.91,23.752 126.706,33.457 			"/>
			<path fill="#FFFFFF" d="M172.229,52.102c1.011,1.629,1.705,1.631,2.96,0.264c3.184-3.471,6.417-6.902,9.772-10.205
				c1.412-1.391,1.583-2.449,0.546-4.193c-3.287-5.529-6.374-11.176-9.538-16.777c-0.21-0.023-5.666-1.078-5.666-1.078
				c-2.04,5.389-4.032,10.793-6.149,16.15c-0.586,1.484-0.576,2.666,0.344,4.02C167.146,44.174,169.747,48.102,172.229,52.102z"/>
			<path fill="#FFFFFF" d="M175.968,21.186c0.001,0.002,0.001,0.002,0.002,0.004C175.979,21.189,175.982,21.189,175.968,21.186z"/>
			<path fill="#FFFFFF" d="M117.071,145.807c0.817,1.232,1.715,1.584,3.137,1.275c11.841-2.578,23.688-5.121,35.543-7.635
				c1.421-0.301,2.326-0.992,3.094-2.252c6.515-10.684,13.235-22.436,18.727-33.689c-1.095,0.293-1.995,0.445-2.847,0.609
				c-14.233,2.715-27.123-0.254-38.598-9.154c-10.538-8.172-16.755-20.975-17.198-32.041c-0.149-3.746,0.624-7.902,0.663-11.654
				c-0.02-0.16-0.912-2.764-0.933-2.932c-0.011-0.086-0.021-0.174-0.033-0.266c-0.022-0.186-0.047-0.385-0.074-0.615
				c-0.043-0.344-0.093-0.752-0.155-1.26c-3.037,4.727-5.631,8.975-8.457,13.064c-1.27,1.838-1.409,3.199-0.082,5.121
				c2.842,4.115,5.029,8.727,8.162,12.584c3.68,4.531,3.697,8.365,0.156,12.906c-2.357,3.025-3.979,6.623-6.182,10.396
				c-5-8.734-9.672-16.895-14.409-25.168c-0.323,0.42-0.578,0.619-0.654,0.871c-2.57,8.666-5.121,17.338-7.687,26.006
				c-0.331,1.121,0,2.033,0.626,2.971C98.956,118.553,108.033,132.166,117.071,145.807z"/>
			<path fill="#FFFFFF" d="M142.271,68.381c0.575,1.527,0.588,2.9,0.023,4.443c-1.618,4.426-3.104,8.898-4.641,13.352
				c0.229,1.365,1.28,2.076,2.251,2.867c8.496,6.926,18.374,9.473,29.09,8.65c1.335-0.104,2.669-0.244,3.989-0.457
				c0.926-0.146,1.845-0.332,2.752-0.557c0.151-0.039,0.302-0.078,0.453-0.119c0.452-0.121,0.9-0.254,1.346-0.398
				c0.217-0.07,0.431-0.145,0.645-0.221c1.548-0.553,3.044-1.27,4.459-2.203c0.473-0.312,0.936-0.648,1.39-1.01
				c0.015-0.014,0.03-0.023,0.047-0.037c1.073-2.045,2.054-4.146,3.252-6.115c0.987-1.623,0.878-2.861-0.284-4.408
				c-3.929-5.234-7.688-10.596-11.546-15.885c-0.401-0.551-0.574-1.484-1.714-1.357c-0.431,6.822-0.849,13.621-1.303,20.42
				c-0.066,0.996,0.245,2.121-0.993,2.787c-4.543,2.438-9.056,4.928-14.098,7.682c0.376-1.512,0.57-2.424,0.831-3.316
				c1.911-6.555,3.773-13.125,5.8-19.645c0.591-1.906,0.418-3.447-0.552-5.178c-6.067-10.828-12.045-21.707-18.058-32.564
				c-0.312-0.562-0.461-1.26-1.428-1.652c-1.788,5.285-3.391,10.617-5.417,15.781c-1.202,3.066-1.277,5.795,0.009,8.822
				C140,61.42,140.983,64.961,142.271,68.381z"/>
			<path fill="#FFFFFF" d="M135.584,84.346l1.327-9.598c0,0-4.146-3.91-10.101-9.098C127.127,72.428,132.647,80.445,135.584,84.346z
				"/>
			<polygon fill="#FFFFFF" points="22.657,232.5 17.5,224.086 15.023,224.086 15.023,236.688 17.388,236.688 17.388,228.469 
				22.469,236.688 25.021,236.688 25.021,224.086 22.657,224.086 			"/>
			<path fill="#FFFFFF" d="M33.291,223.871c-1.026,0-1.931,0.164-2.716,0.498c-0.591,0.246-1.134,0.623-1.63,1.133
				c-0.494,0.512-0.886,1.088-1.173,1.729c-0.385,0.871-0.576,1.949-0.576,3.232c0,2.006,0.553,3.582,1.659,4.723
				c1.106,1.145,2.596,1.717,4.47,1.717c1.852,0,3.33-0.574,4.437-1.725c1.105-1.15,1.659-2.74,1.659-4.773
				c0-2.053-0.559-3.654-1.673-4.807S35.148,223.871,33.291,223.871z M35.814,233.631c-0.65,0.73-1.482,1.096-2.497,1.096
				s-1.851-0.367-2.511-1.105c-0.658-0.734-0.988-1.816-0.988-3.244c0-1.449,0.32-2.535,0.963-3.254
				c0.641-0.717,1.487-1.078,2.536-1.078s1.889,0.355,2.522,1.066c0.633,0.709,0.95,1.787,0.95,3.232
				C36.79,231.805,36.465,232.9,35.814,233.631z"/>
			<path fill="#FFFFFF" d="M52.73,234.24c-0.414,0.348-1.031,0.521-1.852,0.521c-0.773,0-1.388-0.195-1.844-0.584
				c-0.455-0.391-0.758-1-0.907-1.832l-2.476,0.242c0.167,1.408,0.676,2.482,1.53,3.217c0.854,0.738,2.077,1.105,3.671,1.105
				c1.094,0,2.009-0.152,2.742-0.461c0.733-0.305,1.301-0.773,1.702-1.404s0.602-1.307,0.602-2.029c0-0.797-0.167-1.465-0.503-2.006
				c-0.335-0.541-0.8-0.969-1.393-1.281s-1.508-0.615-2.747-0.906c-1.237-0.293-2.017-0.574-2.338-0.844
				c-0.252-0.211-0.378-0.467-0.378-0.764c0-0.328,0.135-0.588,0.404-0.783c0.418-0.303,0.997-0.455,1.735-0.455
				c0.718,0,1.254,0.141,1.612,0.426c0.358,0.283,0.592,0.748,0.701,1.396l2.544-0.113c-0.04-1.158-0.46-2.082-1.259-2.775
				c-0.8-0.693-1.99-1.039-3.572-1.039c-0.968,0-1.795,0.145-2.479,0.438c-0.685,0.291-1.21,0.717-1.573,1.277
				c-0.364,0.557-0.546,1.158-0.546,1.799c0,0.998,0.387,1.844,1.16,2.537c0.551,0.492,1.507,0.908,2.871,1.246
				c1.061,0.264,1.739,0.447,2.038,0.551c0.436,0.154,0.741,0.336,0.915,0.545c0.175,0.209,0.262,0.463,0.262,0.762
				C53.354,233.49,53.146,233.895,52.73,234.24z"/>
			<polygon fill="#FFFFFF" points="67.384,226.217 67.384,224.086 58.04,224.086 58.04,236.688 67.624,236.688 67.624,234.562 
				60.583,234.562 60.583,231.133 66.91,231.133 66.91,229.012 60.583,229.012 60.583,226.217 			"/>
			<path fill="#FFFFFF" d="M80.098,227.619c0-0.746-0.184-1.408-0.551-1.986c-0.367-0.58-0.854-0.982-1.465-1.207
				c-0.61-0.229-1.589-0.342-2.937-0.342H69.79v12.602h2.545v-5.26h0.517c0.584,0,1.011,0.047,1.279,0.143
				c0.271,0.094,0.525,0.27,0.766,0.523c0.241,0.254,0.688,0.873,1.342,1.854l1.839,2.74h3.044l-1.54-2.457
				c-0.606-0.98-1.09-1.662-1.448-2.047c-0.357-0.383-0.812-0.736-1.362-1.057c1.106-0.16,1.938-0.549,2.493-1.166
				C79.82,229.344,80.098,228.562,80.098,227.619z M77.218,228.729c-0.171,0.25-0.409,0.428-0.713,0.531
				c-0.304,0.102-1.066,0.154-2.287,0.154h-1.883v-3.197h1.986c1.031,0,1.65,0.014,1.856,0.043c0.413,0.068,0.732,0.232,0.959,0.494
				s0.34,0.602,0.34,1.027C77.477,228.158,77.391,228.475,77.218,228.729z"/>
			<path fill="#FFFFFF" d="M94.686,236.449c0.732-0.305,1.3-0.773,1.702-1.404c0.401-0.631,0.602-1.307,0.602-2.029
				c0-0.797-0.168-1.465-0.504-2.006c-0.334-0.541-0.799-0.969-1.392-1.281s-1.508-0.615-2.746-0.906
				c-1.238-0.293-2.018-0.574-2.338-0.844c-0.253-0.211-0.379-0.467-0.379-0.764c0-0.328,0.134-0.588,0.404-0.783
				c0.418-0.303,0.997-0.455,1.736-0.455c0.716,0,1.254,0.141,1.611,0.426c0.358,0.283,0.592,0.748,0.701,1.396l2.544-0.113
				c-0.04-1.158-0.46-2.082-1.259-2.775c-0.8-0.693-1.99-1.039-3.572-1.039c-0.969,0-1.795,0.145-2.479,0.438
				c-0.686,0.291-1.209,0.717-1.574,1.277c-0.364,0.557-0.545,1.158-0.545,1.799c0,0.998,0.387,1.844,1.16,2.537
				c0.551,0.492,1.507,0.908,2.871,1.246c1.061,0.264,1.739,0.447,2.037,0.551c0.436,0.154,0.741,0.336,0.916,0.545
				s0.263,0.463,0.263,0.762c0,0.465-0.209,0.869-0.624,1.215c-0.416,0.348-1.032,0.521-1.853,0.521
				c-0.773,0-1.389-0.195-1.843-0.584c-0.456-0.391-0.759-1-0.907-1.832l-2.477,0.242c0.167,1.408,0.676,2.482,1.531,3.217
				c0.854,0.738,2.077,1.105,3.67,1.105C93.037,236.91,93.952,236.758,94.686,236.449z"/>
			<path fill="#FFFFFF" d="M110.838,230.404c0-2.053-0.559-3.654-1.673-4.807s-2.6-1.727-4.456-1.727
				c-1.027,0-1.932,0.164-2.716,0.498c-0.592,0.246-1.135,0.623-1.63,1.133c-0.496,0.512-0.887,1.088-1.174,1.729
				c-0.384,0.871-0.576,1.949-0.576,3.232c0,2.006,0.554,3.582,1.659,4.723c1.106,1.145,2.597,1.717,4.47,1.717
				c1.853,0,3.33-0.574,4.437-1.725C110.284,234.027,110.838,232.438,110.838,230.404z M107.231,233.631
				c-0.65,0.73-1.482,1.096-2.497,1.096s-1.851-0.367-2.51-1.105c-0.659-0.734-0.989-1.816-0.989-3.244
				c0-1.449,0.321-2.535,0.963-3.254c0.642-0.717,1.487-1.078,2.536-1.078s1.89,0.355,2.522,1.066
				c0.634,0.709,0.95,1.787,0.95,3.232C108.207,231.805,107.882,232.9,107.231,233.631z"/>
			<polygon fill="#FFFFFF" points="122.598,226.768 122.598,236.688 124.961,236.688 124.961,224.086 121.145,224.086 
				118.885,232.682 116.597,224.086 112.789,224.086 112.789,236.688 115.152,236.688 115.152,226.768 117.646,236.688 
				120.096,236.688 			"/>
			<polygon fill="#FFFFFF" points="136.833,226.217 136.833,224.086 127.488,224.086 127.488,236.688 137.073,236.688 
				137.073,234.562 130.033,234.562 130.033,231.133 136.359,231.133 136.359,229.012 130.033,229.012 130.033,226.217 			"/>
			<polygon fill="#FFFFFF" points="142.067,236.688 144.612,236.688 144.612,226.217 148.343,226.217 148.343,224.086 
				138.329,224.086 138.329,226.217 142.067,226.217 			"/>
			<rect x="149.907" y="224.084" fill="#FFFFFF" width="2.545" height="12.602"/>
			<path fill="#FFFFFF" d="M161.908,236.42c0.751-0.24,1.347-0.576,1.787-1.006c0.585-0.566,1.035-1.309,1.351-2.227
				c0.258-0.75,0.387-1.645,0.387-2.682c0-1.18-0.138-2.174-0.413-2.979c-0.274-0.805-0.676-1.486-1.203-2.041
				c-0.527-0.557-1.16-0.943-1.899-1.16c-0.551-0.162-1.351-0.242-2.398-0.242h-4.65v12.602h4.788
				C160.596,236.686,161.346,236.598,161.908,236.42z M157.412,234.564v-8.348h1.143c1.039,0,1.734,0.039,2.09,0.121
				c0.476,0.102,0.868,0.301,1.178,0.592c0.309,0.293,0.55,0.699,0.722,1.221s0.258,1.27,0.258,2.244s-0.086,1.742-0.258,2.309
				c-0.172,0.564-0.395,0.969-0.666,1.217c-0.272,0.244-0.615,0.42-1.027,0.523c-0.315,0.08-0.828,0.121-1.539,0.121H157.412z"/>
			<path fill="#FFFFFF" d="M177.639,235.178c1.105-1.15,1.659-2.74,1.659-4.773c0-2.053-0.558-3.654-1.672-4.807
				c-1.115-1.152-2.601-1.727-4.458-1.727c-1.025,0-1.931,0.164-2.716,0.498c-0.59,0.246-1.133,0.623-1.629,1.133
				c-0.495,0.512-0.887,1.088-1.174,1.729c-0.384,0.871-0.575,1.949-0.575,3.232c0,2.006,0.553,3.582,1.659,4.723
				c1.106,1.145,2.596,1.717,4.47,1.717C175.055,236.902,176.532,236.328,177.639,235.178z M170.685,233.621
				c-0.659-0.734-0.989-1.816-0.989-3.244c0-1.449,0.321-2.535,0.964-3.254c0.642-0.717,1.486-1.078,2.535-1.078
				s1.891,0.355,2.523,1.066c0.633,0.709,0.95,1.787,0.95,3.232c0,1.461-0.326,2.557-0.977,3.287
				c-0.649,0.73-1.482,1.096-2.497,1.096C172.181,234.727,171.344,234.359,170.685,233.621z"/>
			<path fill="#FFFFFF" d="M189.149,224.086l-4.909,12.602h2.7l1.04-2.863h5.037l1.101,2.863h2.768l-5.046-12.602H189.149z
				 M188.763,231.701l1.702-4.676l1.736,4.676H188.763z"/>
			<polygon fill="#FFFFFF" points="205.311,236.688 207.854,236.688 207.854,226.217 211.585,226.217 211.585,224.086 
				201.571,224.086 201.571,226.217 205.311,226.217 			"/>
			<path fill="#FFFFFF" d="M218.488,223.871c-1.026,0-1.932,0.164-2.717,0.498c-0.59,0.246-1.133,0.623-1.629,1.133
				c-0.496,0.512-0.887,1.088-1.174,1.729c-0.384,0.871-0.575,1.949-0.575,3.232c0,2.006,0.553,3.582,1.659,4.723
				c1.105,1.145,2.596,1.717,4.47,1.717c1.852,0,3.329-0.574,4.436-1.725c1.105-1.15,1.659-2.74,1.659-4.773
				c0-2.053-0.557-3.654-1.672-4.807S220.345,223.871,218.488,223.871z M221.011,233.631c-0.65,0.73-1.482,1.096-2.497,1.096
				c-1.014,0-1.852-0.367-2.51-1.105c-0.659-0.734-0.988-1.816-0.988-3.244c0-1.449,0.32-2.535,0.963-3.254
				c0.641-0.717,1.486-1.078,2.535-1.078s1.89,0.355,2.523,1.066c0.633,0.709,0.949,1.787,0.949,3.232
				C221.986,231.805,221.661,232.9,221.011,233.631z"/>
			<path fill="#FFFFFF" d="M236.919,227.619c0-0.746-0.184-1.408-0.551-1.986c-0.367-0.58-0.855-0.982-1.466-1.207
				c-0.609-0.229-1.589-0.342-2.935-0.342h-5.356v12.602h2.545v-5.26h0.516c0.585,0,1.012,0.047,1.281,0.143
				c0.269,0.094,0.524,0.27,0.765,0.523c0.241,0.254,0.688,0.873,1.341,1.854l1.84,2.74h3.043l-1.539-2.457
				c-0.607-0.98-1.09-1.662-1.448-2.047c-0.357-0.383-0.812-0.736-1.362-1.057c1.106-0.16,1.938-0.549,2.492-1.166
				C236.641,229.344,236.919,228.562,236.919,227.619z M234.039,228.729c-0.172,0.25-0.41,0.428-0.714,0.531
				c-0.304,0.102-1.065,0.154-2.286,0.154h-1.883v-3.197h1.985c1.032,0,1.651,0.014,1.856,0.043
				c0.413,0.068,0.732,0.232,0.959,0.494s0.34,0.602,0.34,1.027C234.297,228.158,234.211,228.475,234.039,228.729z"/>
			<polygon fill="#FFFFFF" points="238.414,226.217 242.153,226.217 242.153,236.688 244.697,236.688 244.697,226.217 
				248.429,226.217 248.429,224.086 238.414,224.086 			"/>
			<path fill="#FFFFFF" d="M257.558,231.057c0,0.996-0.037,1.711-0.112,2.141c-0.074,0.43-0.294,0.791-0.661,1.088
				c-0.367,0.295-0.911,0.441-1.634,0.441c-0.71,0-1.271-0.156-1.68-0.467c-0.41-0.314-0.67-0.727-0.778-1.244
				c-0.063-0.32-0.095-1.021-0.095-2.105v-6.824h-2.545v6.721c0,1.41,0.083,2.477,0.25,3.197c0.114,0.488,0.352,0.953,0.713,1.396
				c0.361,0.445,0.853,0.807,1.475,1.084c0.621,0.279,1.534,0.418,2.738,0.418c0.996,0,1.805-0.129,2.424-0.383
				c0.618-0.254,1.113-0.598,1.482-1.027c0.37-0.43,0.623-0.957,0.762-1.582c0.137-0.625,0.206-1.693,0.206-3.207v-6.617h-2.545
				V231.057z"/>
			<path fill="#FFFFFF" d="M271.136,232.182c-0.358-0.383-0.812-0.736-1.362-1.057c1.105-0.16,1.937-0.549,2.492-1.166
				c0.557-0.615,0.835-1.396,0.835-2.34c0-0.746-0.185-1.408-0.551-1.986c-0.367-0.58-0.855-0.982-1.465-1.207
				c-0.611-0.229-1.59-0.342-2.937-0.342h-5.355v12.602h2.544v-5.26h0.517c0.584,0,1.012,0.047,1.281,0.143
				c0.269,0.094,0.523,0.27,0.765,0.523c0.24,0.254,0.688,0.873,1.341,1.854l1.84,2.74h3.043l-1.539-2.457
				C271.977,233.248,271.494,232.566,271.136,232.182z M267.22,229.414h-1.883v-3.197h1.986c1.032,0,1.65,0.014,1.856,0.043
				c0.413,0.068,0.732,0.232,0.959,0.494s0.339,0.602,0.339,1.027c0,0.377-0.086,0.693-0.257,0.947
				c-0.172,0.25-0.41,0.428-0.714,0.531C269.203,229.361,268.44,229.414,267.22,229.414z"/>
			<path fill="#FFFFFF" d="M279.126,224.086l-4.908,12.602h2.699l1.04-2.863h5.037l1.101,2.863h2.769l-5.046-12.602H279.126z
				 M278.739,231.701l1.702-4.676l1.736,4.676H278.739z"/>
			<path fill="#FFFFFF" d="M72.305,244.604c-1.114-1.152-2.601-1.727-4.457-1.727c-1.025,0-1.931,0.164-2.716,0.498
				c-0.591,0.246-1.134,0.623-1.63,1.133c-0.496,0.512-0.887,1.088-1.173,1.729c-0.384,0.871-0.576,1.949-0.576,3.232
				c0,2.006,0.554,3.58,1.659,4.723c1.106,1.145,2.597,1.717,4.47,1.717c1.852,0,3.33-0.576,4.437-1.725
				c1.105-1.15,1.658-2.74,1.658-4.775C73.977,247.357,73.42,245.756,72.305,244.604z M70.371,252.637
				c-0.65,0.73-1.482,1.096-2.497,1.096s-1.851-0.367-2.511-1.105c-0.658-0.734-0.987-1.816-0.987-3.244
				c0-1.449,0.32-2.535,0.962-3.254s1.486-1.078,2.536-1.078c1.048,0,1.89,0.355,2.522,1.066s0.95,1.787,0.95,3.23
				C71.347,250.811,71.021,251.906,70.371,252.637z"/>
			<path fill="#FFFFFF" d="M82.659,252.83h5.038l1.1,2.863h2.769L86.52,243.09h-2.691l-4.908,12.604h2.699L82.659,252.83z
				 M85.145,246.031l1.736,4.676h-3.439L85.145,246.031z"/>
			<polygon fill="#FFFFFF" points="99.989,255.693 102.533,255.693 102.533,245.223 106.265,245.223 106.265,243.09 96.25,243.09 
				96.25,245.223 99.989,245.223 			"/>
			<path fill="#FFFFFF" d="M117.706,253.234c-0.607-0.98-1.091-1.664-1.449-2.047c-0.357-0.383-0.812-0.736-1.361-1.057
				c1.105-0.16,1.937-0.549,2.492-1.166c0.556-0.615,0.834-1.396,0.834-2.34c0-0.746-0.183-1.408-0.55-1.986
				c-0.367-0.58-0.855-0.982-1.465-1.207c-0.611-0.229-1.59-0.342-2.938-0.342h-5.355v12.602h2.545v-5.26h0.517
				c0.584,0,1.011,0.047,1.28,0.143c0.27,0.094,0.524,0.268,0.766,0.523c0.24,0.254,0.688,0.873,1.341,1.854l1.84,2.74h3.043
				L117.706,253.234z M112.342,248.42h-1.883v-3.197h1.986c1.031,0,1.65,0.014,1.856,0.043c0.412,0.068,0.732,0.232,0.959,0.492
				c0.227,0.264,0.339,0.604,0.339,1.029c0,0.377-0.086,0.693-0.257,0.945c-0.172,0.252-0.41,0.43-0.714,0.533
				C114.324,248.367,113.562,248.42,112.342,248.42z"/>
			<path fill="#FFFFFF" d="M123.078,252.83h5.038l1.1,2.863h2.769l-5.046-12.604h-2.69l-4.908,12.604h2.698L123.078,252.83z
				 M125.563,246.031l1.736,4.676h-3.438L125.563,246.031z"/>
			<polygon fill="#FFFFFF" points="137.408,255.693 137.408,245.223 141.139,245.223 141.139,243.09 131.125,243.09 
				131.125,245.223 134.864,245.223 134.864,255.693 			"/>
			<path fill="#FFFFFF" d="M152.513,254.184c1.105-1.15,1.658-2.74,1.658-4.775c0-2.051-0.557-3.652-1.672-4.805
				c-1.114-1.152-2.601-1.727-4.457-1.727c-1.026,0-1.932,0.164-2.716,0.498c-0.591,0.246-1.134,0.623-1.63,1.133
				c-0.495,0.512-0.887,1.088-1.173,1.729c-0.385,0.871-0.576,1.949-0.576,3.232c0,2.006,0.553,3.58,1.659,4.723
				c1.106,1.145,2.597,1.717,4.47,1.717C149.928,255.908,151.405,255.332,152.513,254.184z M145.558,252.627
				c-0.658-0.734-0.988-1.816-0.988-3.244c0-1.449,0.321-2.535,0.962-3.254c0.643-0.719,1.488-1.078,2.537-1.078
				s1.89,0.355,2.522,1.066s0.95,1.787,0.95,3.23c0,1.463-0.325,2.559-0.976,3.289s-1.482,1.096-2.497,1.096
				S146.218,253.365,145.558,252.627z"/>
			<path fill="#FFFFFF" d="M172.756,249.408c0-2.051-0.557-3.652-1.672-4.805c-1.114-1.152-2.601-1.727-4.457-1.727
				c-1.025,0-1.932,0.164-2.717,0.498c-0.59,0.246-1.133,0.623-1.629,1.133c-0.496,0.512-0.887,1.088-1.173,1.729
				c-0.385,0.871-0.576,1.949-0.576,3.232c0,2.006,0.553,3.58,1.659,4.723c1.105,1.145,2.597,1.717,4.47,1.717
				c1.852,0,3.329-0.576,4.437-1.725C172.202,253.033,172.756,251.443,172.756,249.408z M169.15,252.637
				c-0.65,0.73-1.483,1.096-2.497,1.096c-1.015,0-1.852-0.367-2.511-1.105c-0.659-0.734-0.988-1.816-0.988-3.244
				c0-1.449,0.32-2.535,0.963-3.254c0.642-0.719,1.487-1.078,2.536-1.078c1.048,0,1.89,0.355,2.522,1.066s0.95,1.787,0.95,3.23
				C170.126,250.811,169.801,251.906,169.15,252.637z"/>
			<path fill="#FFFFFF" d="M186.742,243.279c-0.47-0.125-1.479-0.189-3.025-0.189h-4.083v12.602h2.544v-4.752h1.659
				c1.152,0,2.031-0.062,2.64-0.182c0.446-0.098,0.887-0.295,1.318-0.598c0.434-0.301,0.79-0.713,1.07-1.24
				c0.281-0.529,0.422-1.18,0.422-1.953c0-1.002-0.244-1.82-0.731-2.453C188.069,243.881,187.465,243.469,186.742,243.279z
				 M186.377,247.982c-0.192,0.279-0.457,0.486-0.795,0.619c-0.338,0.131-1.008,0.197-2.012,0.197h-1.393v-3.576h1.229
				c0.917,0,1.527,0.029,1.831,0.086c0.412,0.074,0.754,0.26,1.022,0.559c0.271,0.299,0.404,0.676,0.404,1.135
				C186.665,247.375,186.569,247.701,186.377,247.982z"/>
			<polygon fill="#FFFFFF" points="200.72,245.223 200.72,243.09 191.375,243.09 191.375,255.693 200.96,255.693 200.96,253.57 
				193.92,253.57 193.92,250.139 200.247,250.139 200.247,248.016 193.92,248.016 193.92,245.223 			"/>
			<polygon fill="#FFFFFF" points="210.777,251.506 205.619,243.09 203.145,243.09 203.145,255.693 205.508,255.693 
				205.508,247.475 210.589,255.693 213.141,255.693 213.141,243.09 210.777,243.09 			"/>
			<path fill="#FFFFFF" d="M219.459,243.09l-4.908,12.604h2.699l1.04-2.863h5.037l1.102,2.863h2.768l-5.047-12.604H219.459z
				 M219.072,250.707l1.702-4.676l1.736,4.676H219.072z"/>
			<path fill="#FFFFFF" d="M237.645,250.016c-0.335-0.543-0.799-0.969-1.393-1.281c-0.593-0.312-1.508-0.615-2.746-0.908
				s-2.018-0.572-2.338-0.842c-0.252-0.211-0.378-0.467-0.378-0.766c0-0.326,0.135-0.586,0.403-0.781
				c0.418-0.303,0.997-0.455,1.736-0.455c0.717,0,1.254,0.141,1.611,0.426c0.358,0.283,0.593,0.748,0.701,1.396l2.545-0.113
				c-0.041-1.158-0.46-2.082-1.26-2.775c-0.799-0.695-1.99-1.039-3.572-1.039c-0.968,0-1.795,0.145-2.479,0.438
				c-0.685,0.291-1.209,0.717-1.573,1.277c-0.363,0.557-0.546,1.158-0.546,1.799c0,0.998,0.388,1.842,1.161,2.537
				c0.55,0.492,1.507,0.908,2.871,1.246c1.061,0.264,1.738,0.445,2.037,0.551c0.436,0.154,0.741,0.336,0.915,0.545
				c0.175,0.209,0.263,0.463,0.263,0.762c0,0.465-0.208,0.869-0.623,1.215c-0.416,0.348-1.033,0.521-1.853,0.521
				c-0.773,0-1.389-0.195-1.845-0.584c-0.454-0.391-0.758-1.002-0.906-1.832l-2.476,0.24c0.167,1.41,0.676,2.484,1.53,3.219
				c0.854,0.738,2.077,1.105,3.67,1.105c1.095,0,2.009-0.152,2.742-0.461c0.733-0.305,1.302-0.773,1.702-1.404
				c0.401-0.631,0.602-1.307,0.602-2.029C238.147,251.225,237.98,250.557,237.645,250.016z"/>
			<path fill="#FFFFFF" d="M54.614,272.094c-0.487,0.43-1.069,0.645-1.745,0.645c-0.918,0-1.662-0.338-2.234-1.016
				c-0.574-0.676-0.86-1.811-0.86-3.404c0-1.5,0.291-2.586,0.872-3.256c0.582-0.672,1.34-1.006,2.274-1.006
				c0.677,0,1.25,0.188,1.724,0.566c0.473,0.379,0.783,0.895,0.933,1.547l2.519-0.6c-0.286-1.01-0.717-1.783-1.289-2.322
				c-0.963-0.91-2.216-1.367-3.757-1.367c-1.765,0-3.189,0.58-4.272,1.74c-1.083,1.162-1.624,2.791-1.624,4.887
				c0,1.982,0.538,3.547,1.615,4.691c1.077,1.143,2.453,1.715,4.126,1.715c1.353,0,2.469-0.334,3.348-1.004
				c0.881-0.666,1.51-1.689,1.888-3.064l-2.467-0.781C55.451,270.988,55.102,271.664,54.614,272.094z"/>
			<path fill="#FFFFFF" d="M68.665,270.193c-0.358-0.383-0.812-0.736-1.363-1.057c1.105-0.16,1.938-0.549,2.493-1.166
				c0.556-0.615,0.834-1.396,0.834-2.342c0-0.746-0.184-1.406-0.55-1.986c-0.368-0.578-0.855-0.98-1.466-1.207
				c-0.611-0.227-1.589-0.34-2.937-0.34h-5.354v12.602h2.544v-5.26h0.517c0.584,0,1.012,0.047,1.28,0.143
				c0.269,0.094,0.524,0.268,0.765,0.523c0.241,0.254,0.688,0.873,1.342,1.852l1.84,2.742h3.042l-1.538-2.457
				C69.506,271.26,69.023,270.576,68.665,270.193z M64.75,267.426h-1.884v-3.197h1.986c1.031,0,1.65,0.014,1.856,0.043
				c0.412,0.068,0.732,0.232,0.959,0.492c0.227,0.262,0.339,0.604,0.339,1.029c0,0.377-0.086,0.693-0.258,0.945
				c-0.171,0.252-0.41,0.43-0.714,0.533C66.732,267.373,65.971,267.426,64.75,267.426z"/>
			<path fill="#FFFFFF" d="M75.447,274.496c0.622,0.277,1.534,0.418,2.738,0.418c0.996,0,1.805-0.129,2.424-0.385
				c0.619-0.254,1.112-0.598,1.483-1.025c0.369-0.43,0.622-0.959,0.76-1.582c0.138-0.625,0.206-1.693,0.206-3.207v-6.619h-2.544
				v6.973c0,0.996-0.037,1.709-0.111,2.141c-0.075,0.428-0.296,0.791-0.661,1.088c-0.368,0.295-0.912,0.441-1.635,0.441
				c-0.711,0-1.271-0.156-1.681-0.469c-0.409-0.312-0.669-0.727-0.777-1.242c-0.063-0.32-0.095-1.023-0.095-2.105v-6.826h-2.544
				v6.723c0,1.41,0.083,2.477,0.248,3.197c0.115,0.486,0.354,0.953,0.714,1.396C74.334,273.857,74.826,274.219,75.447,274.496z"/>
			<polygon fill="#FFFFFF" points="95.326,272.574 88.285,272.574 88.285,269.145 94.612,269.145 94.612,267.021 88.285,267.021 
				88.285,264.229 95.085,264.229 95.085,262.096 85.741,262.096 85.741,274.697 95.326,274.697 			"/>
			<polygon fill="#FFFFFF" points="106.424,272.574 100.097,272.574 100.097,262.199 97.553,262.199 97.553,274.697 
				106.424,274.697 			"/>
			<polygon fill="#FFFFFF" points="117.581,264.229 117.581,262.096 108.238,262.096 108.238,274.697 117.821,274.697 
				117.821,272.574 110.781,272.574 110.781,269.145 117.107,269.145 117.107,267.021 110.781,267.021 110.781,264.229 			"/>
			<path fill="#FFFFFF" d="M127.686,267.74c-0.592-0.312-1.508-0.615-2.746-0.908c-1.237-0.293-2.017-0.572-2.338-0.842
				c-0.252-0.211-0.378-0.467-0.378-0.766c0-0.326,0.135-0.586,0.404-0.783c0.418-0.303,0.997-0.453,1.736-0.453
				c0.716,0,1.254,0.141,1.612,0.426c0.357,0.283,0.591,0.748,0.699,1.396l2.546-0.113c-0.041-1.158-0.461-2.082-1.26-2.775
				c-0.8-0.695-1.99-1.041-3.571-1.041c-0.97,0-1.796,0.146-2.48,0.439c-0.685,0.291-1.209,0.717-1.574,1.275
				c-0.363,0.559-0.545,1.16-0.545,1.801c0,0.998,0.387,1.842,1.16,2.537c0.551,0.492,1.508,0.908,2.871,1.246
				c1.061,0.264,1.739,0.445,2.038,0.551c0.436,0.154,0.74,0.336,0.915,0.545s0.263,0.463,0.263,0.762
				c0,0.465-0.209,0.869-0.624,1.215c-0.415,0.348-1.033,0.52-1.853,0.52c-0.773,0-1.388-0.193-1.843-0.582
				c-0.457-0.391-0.759-1.002-0.907-1.832l-2.476,0.24c0.165,1.41,0.676,2.484,1.53,3.219c0.854,0.738,2.077,1.105,3.67,1.105
				c1.095,0,2.009-0.154,2.742-0.461c0.733-0.305,1.3-0.775,1.702-1.404c0.401-0.631,0.603-1.307,0.603-2.029
				c0-0.797-0.169-1.465-0.504-2.008C128.744,268.479,128.279,268.053,127.686,267.74z"/>
			<path fill="#FFFFFF" d="M131.447,276.512l0.474,0.996c0.515-0.182,0.94-0.436,1.276-0.756s0.562-0.682,0.684-1.086
				c0.119-0.404,0.18-0.957,0.18-1.656v-1.727h-2.416v2.414h1.17c-0.013,0.488-0.121,0.871-0.327,1.154
				C132.281,276.131,131.935,276.352,131.447,276.512z"/>
			<rect x="141.428" y="262.096" fill="#FFFFFF" width="2.545" height="12.602"/>
			<polygon fill="#FFFFFF" points="148.786,266.48 153.866,274.697 156.42,274.697 156.42,262.096 154.056,262.096 154.056,270.512 
				148.897,262.096 146.422,262.096 146.422,274.697 148.786,274.697 			"/>
			<polygon fill="#FFFFFF" points="169.193,274.697 169.193,262.096 166.648,262.096 166.648,267.057 161.662,267.057 
				161.662,262.096 159.118,262.096 159.118,274.697 161.662,274.697 161.662,269.188 166.648,269.188 166.648,274.697 			"/>
			<path fill="#FFFFFF" d="M181.855,268.715v-6.619h-2.544v6.973c0,0.996-0.038,1.709-0.112,2.141
				c-0.074,0.428-0.295,0.791-0.662,1.088c-0.366,0.295-0.911,0.441-1.633,0.441c-0.711,0-1.271-0.156-1.681-0.469
				c-0.41-0.312-0.669-0.727-0.778-1.242c-0.063-0.32-0.095-1.023-0.095-2.105v-6.826h-2.544v6.723c0,1.41,0.083,2.477,0.249,3.197
				c0.115,0.486,0.353,0.953,0.714,1.396c0.36,0.445,0.852,0.807,1.475,1.084c0.621,0.277,1.534,0.418,2.737,0.418
				c0.997,0,1.806-0.129,2.425-0.385c0.618-0.254,1.113-0.598,1.482-1.025c0.37-0.43,0.623-0.959,0.761-1.582
				C181.787,271.297,181.855,270.229,181.855,268.715z"/>
			<polygon fill="#FFFFFF" points="194.312,274.697 196.676,274.697 196.676,262.096 192.859,262.096 190.598,270.691 
				188.312,262.096 184.503,262.096 184.503,274.697 186.867,274.697 186.867,264.777 189.359,274.697 191.81,274.697 
				194.312,264.777 			"/>
			<path fill="#FFFFFF" d="M197.922,274.697h2.699l1.04-2.861h5.037l1.101,2.861h2.769l-5.046-12.602h-2.691L197.922,274.697z
				 M205.882,269.713h-3.438l1.702-4.678L205.882,269.713z"/>
			<polygon fill="#FFFFFF" points="214.418,262.096 211.942,262.096 211.942,274.697 214.306,274.697 214.306,266.48 
				219.387,274.697 221.939,274.697 221.939,262.096 219.576,262.096 219.576,270.512 			"/>
			<path fill="#FFFFFF" d="M230.209,261.881c-1.025,0-1.932,0.166-2.717,0.5c-0.59,0.246-1.133,0.623-1.629,1.133
				c-0.495,0.512-0.887,1.086-1.173,1.729c-0.384,0.871-0.576,1.949-0.576,3.23c0,2.008,0.554,3.582,1.659,4.725
				c1.106,1.145,2.597,1.717,4.471,1.717c1.851,0,3.329-0.576,4.436-1.725c1.105-1.15,1.659-2.74,1.659-4.775
				c0-2.051-0.558-3.652-1.673-4.805C233.552,262.457,232.066,261.881,230.209,261.881z M232.732,271.643
				c-0.65,0.73-1.483,1.096-2.497,1.096c-1.015,0-1.852-0.367-2.511-1.105c-0.659-0.734-0.988-1.816-0.988-3.244
				c0-1.449,0.32-2.535,0.963-3.254c0.642-0.719,1.487-1.078,2.536-1.078c1.048,0,1.89,0.355,2.522,1.066
				c0.633,0.709,0.95,1.785,0.95,3.23C233.708,269.816,233.383,270.91,232.732,271.643z"/>
			<path fill="#FFFFFF" d="M246.03,267.74c-0.593-0.312-1.508-0.615-2.746-0.908s-2.018-0.572-2.338-0.842
				c-0.252-0.211-0.378-0.467-0.378-0.766c0-0.326,0.135-0.586,0.403-0.783c0.418-0.303,0.997-0.453,1.736-0.453
				c0.717,0,1.254,0.141,1.611,0.426c0.358,0.283,0.593,0.748,0.702,1.396l2.544-0.113c-0.041-1.158-0.46-2.082-1.26-2.775
				c-0.8-0.695-1.99-1.041-3.572-1.041c-0.968,0-1.795,0.146-2.479,0.439c-0.686,0.291-1.209,0.717-1.572,1.275
				c-0.364,0.559-0.547,1.16-0.547,1.801c0,0.998,0.387,1.842,1.161,2.537c0.55,0.492,1.507,0.908,2.871,1.246
				c1.06,0.264,1.738,0.445,2.037,0.551c0.436,0.154,0.741,0.336,0.915,0.545c0.175,0.209,0.263,0.463,0.263,0.762
				c0,0.465-0.208,0.869-0.623,1.215c-0.416,0.348-1.033,0.52-1.853,0.52c-0.773,0-1.389-0.193-1.844-0.582
				c-0.455-0.391-0.758-1.002-0.907-1.832l-2.476,0.24c0.166,1.41,0.676,2.484,1.53,3.219c0.854,0.738,2.077,1.105,3.67,1.105
				c1.095,0,2.009-0.154,2.742-0.461c0.733-0.305,1.302-0.775,1.702-1.404c0.401-0.631,0.602-1.307,0.602-2.029
				c0-0.797-0.167-1.465-0.502-2.008C247.088,268.479,246.624,268.053,246.03,267.74z"/>
			<path fill="#FFFFFF" d="M79.586,280.887c-1.025,0-1.931,0.166-2.716,0.498c-0.591,0.246-1.134,0.625-1.63,1.135
				s-0.887,1.086-1.174,1.729c-0.384,0.871-0.575,1.947-0.575,3.23c0,2.006,0.553,3.582,1.659,4.725
				c1.107,1.145,2.596,1.715,4.47,1.715c1.852,0,3.33-0.574,4.436-1.723c1.106-1.15,1.66-2.74,1.66-4.775
				c0-2.051-0.558-3.652-1.673-4.807C82.93,281.463,81.442,280.887,79.586,280.887z M82.109,290.648
				c-0.651,0.73-1.483,1.094-2.498,1.094c-1.014,0-1.851-0.365-2.51-1.104c-0.659-0.736-0.988-1.818-0.988-3.244
				c0-1.451,0.321-2.535,0.963-3.254s1.487-1.08,2.535-1.08c1.049,0,1.89,0.357,2.524,1.068c0.632,0.709,0.949,1.785,0.949,3.23
				C83.085,288.82,82.759,289.916,82.109,290.648z"/>
			<path fill="#FFFFFF" d="M101.533,282.502c-0.528-0.555-1.161-0.943-1.9-1.16c-0.551-0.16-1.35-0.242-2.397-0.242h-4.652v12.604
				h4.788c0.94,0,1.691-0.088,2.252-0.266c0.752-0.24,1.349-0.576,1.789-1.006c0.584-0.568,1.034-1.311,1.35-2.227
				c0.258-0.75,0.387-1.645,0.387-2.682c0-1.18-0.138-2.174-0.412-2.979C102.461,283.74,102.059,283.059,101.533,282.502z
				 M100.261,289.719c-0.172,0.564-0.396,0.971-0.666,1.217c-0.273,0.246-0.615,0.422-1.028,0.523
				c-0.314,0.08-0.828,0.121-1.538,0.121h-1.9v-8.348h1.144c1.038,0,1.734,0.041,2.089,0.121c0.476,0.104,0.868,0.301,1.178,0.592
				c0.31,0.293,0.551,0.701,0.723,1.223c0.171,0.521,0.258,1.27,0.258,2.244C100.519,288.385,100.432,289.154,100.261,289.719z"/>
			<polygon fill="#FFFFFF" points="107.851,288.15 114.177,288.15 114.177,286.027 107.851,286.027 107.851,283.232 
				114.649,283.232 114.649,281.102 105.307,281.102 105.307,293.703 114.891,293.703 114.891,291.58 107.851,291.58 			"/>
			<path fill="#FFFFFF" d="M122.912,289.07h2.913v1.6c-0.384,0.297-0.844,0.551-1.38,0.76c-0.535,0.209-1.069,0.314-1.603,0.314
				c-1.078,0-1.948-0.373-2.614-1.123c-0.664-0.748-0.996-1.869-0.996-3.365c0-1.387,0.328-2.432,0.983-3.137
				c0.657-0.705,1.54-1.059,2.653-1.059c0.732,0,1.345,0.182,1.834,0.539c0.49,0.357,0.824,0.846,1.002,1.465l2.527-0.473
				c-0.252-1.158-0.818-2.064-1.698-2.721c-0.879-0.656-2.101-0.984-3.665-0.984c-1.204,0-2.211,0.209-3.019,0.627
				c-1.06,0.545-1.865,1.328-2.415,2.346c-0.55,1.021-0.826,2.188-0.826,3.5c0,1.209,0.248,2.328,0.74,3.357
				s1.229,1.818,2.209,2.371c0.98,0.555,2.129,0.83,3.447,0.83c1.037,0,2.062-0.195,3.074-0.59c1.01-0.391,1.783-0.846,2.315-1.361
				v-5.02h-5.483V289.07z"/>
			<path fill="#FFFFFF" d="M139.094,289.199c-0.358-0.383-0.812-0.736-1.362-1.057c1.105-0.16,1.937-0.549,2.493-1.166
				c0.555-0.615,0.833-1.396,0.833-2.342c0-0.746-0.183-1.406-0.55-1.986c-0.367-0.578-0.855-0.98-1.465-1.207
				c-0.611-0.227-1.59-0.342-2.938-0.342h-5.354v12.604h2.544v-5.26h0.517c0.584,0,1.011,0.047,1.28,0.141
				c0.27,0.096,0.524,0.27,0.765,0.525c0.241,0.254,0.688,0.871,1.341,1.852l1.84,2.742h3.044l-1.54-2.457
				C139.936,290.266,139.451,289.582,139.094,289.199z M135.178,286.432h-1.883v-3.199h1.986c1.031,0,1.65,0.016,1.857,0.043
				c0.412,0.07,0.731,0.234,0.958,0.494c0.227,0.262,0.339,0.604,0.339,1.027c0,0.379-0.085,0.693-0.257,0.947
				c-0.172,0.25-0.41,0.43-0.714,0.531C137.16,286.379,136.398,286.432,135.178,286.432z"/>
			<path fill="#FFFFFF" d="M147.083,281.1l-4.908,12.604h2.699l1.04-2.861h5.038l1.101,2.861h2.768l-5.046-12.604H147.083z
				 M146.697,288.719l1.701-4.678l1.736,4.678H146.697z"/>
			<path fill="#FFFFFF" d="M165.11,282.502c-0.527-0.555-1.16-0.943-1.899-1.16c-0.551-0.16-1.35-0.242-2.398-0.242h-4.651v12.604
				h4.788c0.94,0,1.691-0.088,2.253-0.266c0.751-0.24,1.347-0.576,1.787-1.006c0.585-0.568,1.035-1.311,1.351-2.227
				c0.258-0.75,0.387-1.645,0.387-2.682c0-1.18-0.138-2.174-0.413-2.979S165.637,283.059,165.11,282.502z M163.838,289.719
				c-0.172,0.564-0.395,0.971-0.666,1.217c-0.272,0.246-0.615,0.422-1.027,0.523c-0.315,0.08-0.828,0.121-1.539,0.121h-1.899v-8.348
				h1.143c1.038,0,1.734,0.041,2.09,0.121c0.476,0.104,0.868,0.301,1.178,0.592c0.309,0.293,0.55,0.701,0.722,1.223
				s0.258,1.27,0.258,2.244C164.096,288.385,164.01,289.154,163.838,289.719z"/>
			<path fill="#FFFFFF" d="M172.512,281.1l-4.908,12.604h2.698l1.04-2.861h5.037l1.102,2.861h2.768l-5.047-12.604H172.512z
				 M172.124,288.719l1.703-4.678l1.735,4.678H172.124z"/>
			<polygon fill="#FFFFFF" points="189.258,289.518 184.1,281.102 181.624,281.102 181.624,293.703 183.987,293.703 
				183.987,285.486 189.068,293.703 191.621,293.703 191.621,281.102 189.258,281.102 			"/>
			<polygon fill="#FFFFFF" points="193.408,283.232 197.148,283.232 197.148,293.703 199.692,293.703 199.692,283.232 
				203.424,283.232 203.424,281.102 193.408,281.102 			"/>
			<polygon fill="#FFFFFF" points="207.609,288.15 213.937,288.15 213.937,286.027 207.609,286.027 207.609,283.232 
				214.409,283.232 214.409,281.102 205.065,281.102 205.065,293.703 214.649,293.703 214.649,291.58 207.609,291.58 			"/>
			<path fill="#FFFFFF" d="M224.514,286.744c-0.593-0.311-1.508-0.613-2.746-0.906c-1.237-0.293-2.018-0.572-2.338-0.842
				c-0.252-0.213-0.378-0.467-0.378-0.766c0-0.326,0.134-0.588,0.403-0.783c0.418-0.303,0.997-0.455,1.736-0.455
				c0.717,0,1.254,0.143,1.612,0.426c0.357,0.285,0.591,0.75,0.7,1.398l2.545-0.113c-0.04-1.158-0.46-2.084-1.26-2.775
				c-0.799-0.695-1.989-1.041-3.571-1.041c-0.969,0-1.796,0.146-2.48,0.439c-0.685,0.291-1.209,0.717-1.572,1.275
				c-0.364,0.559-0.547,1.16-0.547,1.801c0,0.998,0.387,1.842,1.161,2.535c0.55,0.492,1.507,0.91,2.871,1.248
				c1.061,0.264,1.739,0.445,2.037,0.549c0.436,0.156,0.74,0.338,0.916,0.547c0.174,0.209,0.262,0.461,0.262,0.762
				c0,0.463-0.208,0.869-0.623,1.215c-0.416,0.348-1.033,0.52-1.853,0.52c-0.773,0-1.389-0.193-1.844-0.582
				c-0.456-0.393-0.758-1.002-0.907-1.832l-2.476,0.24c0.166,1.41,0.677,2.482,1.53,3.219c0.854,0.738,2.077,1.105,3.67,1.105
				c1.096,0,2.009-0.154,2.742-0.461c0.734-0.307,1.302-0.775,1.702-1.404c0.401-0.631,0.602-1.307,0.602-2.029
				c0-0.797-0.167-1.465-0.503-2.008C225.571,287.484,225.107,287.059,224.514,286.744z"/>
		</g>
	</g>
</g>
</svg>
