<?xml version="1.0" encoding="utf-8"?>
<!-- Generator: Adobe Illustrator 16.0.0, SVG Export Plug-In . SVG Version: 6.00 Build 0)  -->
<!DOCTYPE svg PUBLIC "-//W3C//DTD SVG 1.0//EN" "http://www.w3.org/TR/2001/REC-SVG-20010904/DTD/svg10.dtd">
<svg version="1.0" id="Capa_1" xmlns="http://www.w3.org/2000/svg" xmlns:xlink="http://www.w3.org/1999/xlink" x="0px" y="0px"
	 width="300px" height="300px" viewBox="0 0 300 300" enable-background="new 0 0 300 300" xml:space="preserve">
<g>
	<path fill="#3FFFB9" d="M242.623,300H57.377C25.82,300,0,274.18,0,242.622V57.377C0,25.82,25.82,0,57.377,0h185.246
		C274.18,0,300,25.82,300,57.377v185.245C300,274.18,274.18,300,242.623,300"/>
	<g>
		<g>
			<path fill="#FFFFFF" d="M102.9,255.455c0.982-0.315,1.761-0.755,2.339-1.315c0.765-0.743,1.354-1.714,1.766-2.915
				c0.337-0.982,0.506-2.151,0.506-3.508c0-1.545-0.18-2.845-0.54-3.898c-0.36-1.053-0.885-1.943-1.575-2.671
				s-1.518-1.233-2.486-1.519c-0.72-0.21-1.765-0.314-3.138-0.314h-6.085v16.488h6.265
				C101.183,255.803,102.165,255.687,102.9,255.455z M97.018,253.025v-10.921h1.496c1.357,0,2.268,0.052,2.733,0.156
				c0.623,0.136,1.136,0.395,1.541,0.776s0.72,0.915,0.945,1.597c0.225,0.683,0.337,1.662,0.337,2.937
				c0,1.273-0.112,2.281-0.337,3.02c-0.225,0.738-0.516,1.269-0.872,1.592c-0.356,0.322-0.804,0.552-1.345,0.686
				c-0.412,0.105-1.083,0.158-2.013,0.158H97.018z"/>
			<polygon fill="#FFFFFF" points="113.664,248.538 121.942,248.538 121.942,245.759 113.664,245.759 113.664,242.104 
				122.561,242.104 122.561,239.314 110.335,239.314 110.335,255.803 122.876,255.803 122.876,253.024 113.664,253.024 			"/>
			<path fill="#FFFFFF" d="M136.626,249.909c-0.469-0.502-1.063-0.964-1.783-1.384c1.447-0.209,2.535-0.717,3.262-1.523
				c0.728-0.806,1.091-1.828,1.091-3.064c0-0.975-0.24-1.842-0.72-2.6c-0.48-0.757-1.119-1.283-1.917-1.579
				c-0.798-0.297-2.079-0.444-3.841-0.444h-7.007v16.488h3.329v-6.883h0.675c0.764,0,1.323,0.061,1.675,0.185
				c0.353,0.125,0.687,0.353,1.001,0.688c0.315,0.333,0.9,1.141,1.755,2.424l2.407,3.587h3.981l-2.013-3.217
				C137.727,251.304,137.095,250.412,136.626,249.909z M131.502,246.288h-2.463v-4.184h2.599c1.349,0,2.159,0.018,2.429,0.055
				c0.541,0.091,0.958,0.307,1.254,0.647c0.296,0.341,0.444,0.789,0.444,1.344c0,0.495-0.112,0.907-0.337,1.237
				c-0.225,0.331-0.536,0.562-0.933,0.697C134.097,246.22,133.1,246.288,131.502,246.288z"/>
			<polygon fill="#FFFFFF" points="154.876,253.024 145.664,253.024 145.664,248.538 153.942,248.538 153.942,245.759 
				145.664,245.759 145.664,242.104 154.561,242.104 154.561,239.314 142.334,239.314 142.334,255.803 154.876,255.803 			"/>
			<path fill="#FFFFFF" d="M168.25,249.741c-0.278,1.207-0.735,2.092-1.372,2.654c-0.637,0.562-1.398,0.844-2.284,0.844
				c-1.199,0-2.174-0.443-2.924-1.327c-0.749-0.885-1.124-2.37-1.124-4.454c0-1.965,0.38-3.387,1.141-4.263
				c0.761-0.879,1.753-1.317,2.975-1.317c0.884,0,1.637,0.249,2.256,0.742c0.618,0.496,1.024,1.17,1.22,2.025l3.296-0.787
				c-0.376-1.319-0.938-2.332-1.688-3.037c-1.259-1.192-2.898-1.788-4.915-1.788c-2.31,0-4.174,0.759-5.59,2.278
				c-1.418,1.518-2.126,3.648-2.126,6.393c0,2.596,0.704,4.641,2.114,6.137c1.41,1.496,3.209,2.243,5.398,2.243
				c1.77,0,3.23-0.436,4.38-1.31c1.152-0.875,1.975-2.211,2.471-4.01L168.25,249.741z"/>
			<polygon fill="#FFFFFF" points="187.527,255.803 187.527,239.314 184.199,239.314 184.199,245.805 177.674,245.805 
				177.674,239.314 174.346,239.314 174.346,255.803 177.674,255.803 177.674,248.593 184.199,248.593 184.199,255.803 			"/>
			<path fill="#FFFFFF" d="M198.314,256.084c2.422,0,4.357-0.751,5.804-2.255c1.447-1.503,2.171-3.587,2.171-6.248
				c0-2.684-0.729-4.78-2.188-6.287c-1.458-1.508-3.402-2.261-5.832-2.261c-1.342,0-2.527,0.217-3.555,0.651
				c-0.773,0.323-1.483,0.817-2.131,1.485c-0.648,0.668-1.16,1.421-1.535,2.262c-0.503,1.14-0.753,2.548-0.753,4.228
				c0,2.625,0.723,4.686,2.171,6.182C193.913,255.337,195.862,256.084,198.314,256.084z M194.985,243.29
				c0.84-0.94,1.946-1.412,3.318-1.412c1.373,0,2.473,0.466,3.301,1.396c0.829,0.931,1.243,2.339,1.243,4.229
				c0,1.912-0.426,3.347-1.276,4.303c-0.852,0.957-1.94,1.435-3.268,1.435s-2.423-0.482-3.285-1.446
				c-0.862-0.963-1.293-2.379-1.293-4.246C193.725,245.65,194.146,244.231,194.985,243.29z"/>
			<path fill="#FFFFFF" d="M72.853,266.956l-6.423,16.489h3.532l1.361-3.746h6.591l1.439,3.746h3.622l-6.603-16.489H72.853z
				 M72.346,276.922l2.227-6.118l2.272,6.118H72.346z"/>
			<polygon fill="#FFFFFF" points="93.706,267.092 90.376,267.092 90.376,283.445 101.983,283.445 101.983,280.666 93.706,280.666 
							"/>
			<path fill="#FFFFFF" d="M109.104,266.956l-6.423,16.489h3.532l1.362-3.746h6.591l1.439,3.746h3.622l-6.602-16.489H109.104z
				 M108.597,276.922l2.227-6.118l2.272,6.118H108.597z"/>
			<polygon fill="#FFFFFF" points="132.633,279.159 128.461,266.956 124.85,266.956 130.744,283.445 134.298,283.445 
				140.203,266.956 136.672,266.956 			"/>
			<rect x="141.8" y="266.956" fill="#FFFFFF" width="3.33" height="16.489"/>
			<polygon fill="#FFFFFF" points="154.398,279.159 150.225,266.956 146.615,266.956 152.508,283.445 156.063,283.445 
				161.967,266.956 158.436,266.956 			"/>
			<rect x="163.564" y="266.956" fill="#FFFFFF" width="3.33" height="16.489"/>
			<polygon fill="#FFFFFF" points="173.395,276.18 181.673,276.18 181.673,273.401 173.395,273.401 173.395,269.746 
				182.292,269.746 182.292,266.956 170.066,266.956 170.066,283.445 182.607,283.445 182.607,280.666 173.395,280.666 			"/>
			<polygon fill="#FFFFFF" points="195.452,277.967 188.703,266.956 185.464,266.956 185.464,283.445 188.558,283.445 
				188.558,272.692 195.205,283.445 198.545,283.445 198.545,266.956 195.452,266.956 			"/>
			<path fill="#FFFFFF" d="M213.763,268.789c-0.69-0.728-1.518-1.233-2.486-1.518c-0.719-0.21-1.765-0.315-3.138-0.315h-6.085
				v16.489h6.265c1.23,0,2.213-0.116,2.947-0.348c0.983-0.315,1.762-0.755,2.339-1.316c0.766-0.743,1.354-1.714,1.767-2.914
				c0.337-0.982,0.506-2.151,0.506-3.51c0-1.544-0.179-2.843-0.54-3.896C214.978,270.408,214.454,269.517,213.763,268.789z
				 M212.098,278.232c-0.225,0.737-0.515,1.269-0.872,1.592c-0.355,0.321-0.804,0.551-1.344,0.686
				c-0.413,0.104-1.083,0.158-2.013,0.158h-2.486v-10.922h1.497c1.356,0,2.268,0.052,2.732,0.157
				c0.622,0.136,1.136,0.393,1.542,0.775c0.404,0.382,0.72,0.915,0.944,1.598c0.225,0.682,0.338,1.661,0.338,2.936
				S212.323,277.493,212.098,278.232z"/>
			<path fill="#FFFFFF" d="M226.967,266.956h-3.52l-6.422,16.489h3.531l1.361-3.746h6.592l1.439,3.746h3.623L226.967,266.956z
				 M222.942,276.922l2.227-6.118l2.272,6.118H222.942z"/>
		</g>
		<g>
			<path fill="#FEFEFE" d="M155.148,111.271c3.98,0.055,5.958,2.082,5.962,5.991c0.011,9.15,0.05,18.301-0.035,27.45
				c-0.018,1.833,0.416,2.458,2.364,2.441c11.076-0.094,22.153-0.021,33.229-0.06c4.009-0.013,5.495-1.573,5.498-5.546
				c0.007-8.862,0.001-17.724,0.001-26.584c0-4.479-0.006-8.958-0.005-13.437c0-4.479,0.006-8.957,0.03-13.436
				c0.008-1.332-0.242-2.364-1.287-3.292c-4.211-3.738-8.329-7.581-12.542-11.317c-8.048-7.14-16.153-14.218-24.205-21.354
				c-4.07-3.606-8.061-7.303-12.124-10.917c-1.045-0.931-2.003-1.352-3.362-0.013c-2.43,2.393-5.139,4.509-7.771,6.693
				c-7.736,6.416-15.503,12.798-23.238,19.216c-6.936,5.755-13.842,11.546-20.771,17.31c-1.163,0.967-1.805,2.014-1.748,3.674
				c0.145,4.232,0.048,8.473,0.048,12.71c0,13.678-0.009,27.354,0.005,41.031c0.005,4.186,1.023,5.271,4.872,5.272
				c11.172,0.01,22.346-0.057,33.518,0.056c2.147,0.022,2.746-0.51,2.714-2.692c-0.13-9.149-0.072-18.3-0.047-27.45
				c0.011-4.219,1.473-5.717,5.601-5.752C146.287,111.227,150.718,111.21,155.148,111.271"/>
			<path fill="#FEFEFE" d="M202.167,141.548c0.006-8.861,0.002-17.722,0.002-26.585c0-4.479-0.005-8.956-0.005-13.436
				c0,4.479,0.005,8.957,0.005,13.436C202.169,123.826,202.173,132.687,202.167,141.548"/>
			<path fill="#FAFEFD" d="M211.983,179.114c0.025,13.879,0.064,27.756-0.035,41.634c-0.016,2.085,0.827,2.336,2.539,2.321
				c7.324-0.062,14.65-0.102,21.973,0.022c2.121,0.036,2.562-0.742,2.519-2.668c-0.114-5.01,0.004-10.022-0.063-15.033
				c-0.021-1.53,0.402-2.736,1.335-3.961c8.395-11.018,16.663-22.131,25.125-33.096c2.256-2.922,3.16-6.011,3.126-9.605
				c-0.076-8.19-0.024-16.383-0.024-24.575c0-8.191,0.02-16.384-0.018-24.575c-0.007-1.528-0.145-3.073-0.389-4.582
				c-0.643-3.975-4.058-6.777-7.876-6.564c-3.959,0.219-7.36,3.421-7.41,7.477c-0.125,10.214-0.029,20.431-0.066,30.646
				c-0.004,1.27,0.537,1.817,1.665,2.304c7.32,3.151,9.174,11.586,3.729,17.613c-4.317,4.779-8.931,9.293-13.409,13.927
				c-0.908,0.94-1.657,1.784-3.013,0.347c-1.318-1.397-0.228-2.003,0.539-2.792c4.433-4.554,8.886-9.089,13.315-13.646
				c3.228-3.322,3.264-7.631,0.121-10.792c-3.122-3.143-7.522-3.149-10.763,0.146c-10.598,10.773-21.133,21.608-31.735,32.377
				C212.263,176.958,211.981,177.894,211.983,179.114"/>
			<path fill="#FAFEFD" d="M31.499,104.282c0.207,18.11,0.124,36.225,0.057,54.338c-0.01,2.549,0.704,4.624,2.243,6.643
				c8.509,11.167,16.904,22.419,25.423,33.577c1.136,1.486,1.574,2.94,1.543,4.758c-0.083,4.913,0.017,9.828-0.053,14.741
				c-0.024,1.627,0.305,2.443,2.202,2.42c7.514-0.091,15.03-0.087,22.544-0.002c1.813,0.021,2.273-0.622,2.253-2.343
				c-0.021-1.733-0.033-3.468-0.04-5.201c-0.021-5.203,0.006-10.405,0.006-15.609c0-6.84-0.014-13.68,0.012-20.521
				c0.005-1.29-0.174-2.345-1.18-3.369c-6.532-6.665-12.952-13.44-19.468-20.123c-4.032-4.136-8.154-8.185-12.268-12.24
				c-0.674-0.665-1.443-1.303-2.285-1.718c-3.3-1.627-7.249-0.485-9.44,2.636c-2.145,3.055-1.783,6.72,1.096,9.718
				c4.4,4.581,8.883,9.081,13.282,13.664c0.677,0.706,2.188,1.316,0.74,2.756c-1.352,1.342-2.264,0.734-3.292-0.404
				c-2.059-2.28-4.188-4.499-6.291-6.741c-2.631-2.804-5.691-5.213-7.949-8.358c-4.152-5.783-1.995-13.584,4.556-16.297
				c1.448-0.602,1.776-1.422,1.771-2.825c-0.041-9.923,0.034-19.847-0.048-29.771c-0.038-4.534-3.564-7.978-7.87-7.906
				C34.451,96.178,31.456,100.521,31.499,104.282"/>
			<path fill="#FEFEFE" d="M76.643,83.773c2.293,2.114,6.132,2.7,9.028,1.347c4.547-2.124,8.016-5.683,11.787-8.829
				c4.384-3.656,8.636-7.468,13.001-11.146c6.822-5.749,13.703-11.427,20.534-17.162c6.257-5.254,12.502-10.521,18.697-15.847
				c0.908-0.78,1.352-0.589,2.124,0.107c5.17,4.657,10.405,9.242,15.582,13.893c4.404,3.957,8.724,8.011,13.146,11.95
				c8.253,7.352,16.611,14.585,24.805,22.002c3.418,3.094,7.022,5.447,11.842,5.305c2.146,0.144,4.031-0.735,5.536-2.145
				c1.033-0.967,1.187-2.21-0.193-3.415c-6.82-5.954-13.635-11.916-20.324-18.017c-5.853-5.338-11.713-10.663-17.627-15.934
				c-9.418-8.39-18.708-16.927-27.898-25.565c-5.959-5.602-6.022-5.622-12.001,0.045c-5.328,5.049-10.895,9.848-16.401,14.706
				c-7.711,6.803-15.472,13.549-23.196,20.338c-3.797,3.337-7.54,6.735-11.34,10.068c-5.723,5.021-11.461,10.021-17.222,14.996
				C75.106,81.692,75.422,82.648,76.643,83.773"/>
			<path fill="#FEFEFE" d="M191.164,47.059c-0.009,1.041,0.246,1.827,1.068,2.498c4.529,3.694,9.035,7.416,13.984,11.487
				c0-10.012-0.035-19.437,0.033-28.861c0.011-1.575-0.55-1.94-2.002-1.907c-3.654,0.084-7.312,0.1-10.964-0.006
				c-1.6-0.045-2.172,0.39-2.137,2.072C191.252,37.246,191.208,42.153,191.164,47.059"/>
		</g>
	</g>
</g>
</svg>
